%TF.GenerationSoftware,KiCad,Pcbnew,9.0.0*%
%TF.CreationDate,2025-04-25T18:31:39-04:00*%
%TF.ProjectId,bq25171_breakout,62713235-3137-4315-9f62-7265616b6f75,rev?*%
%TF.SameCoordinates,Original*%
%TF.FileFunction,Drillmap*%
%TF.FilePolarity,Positive*%
%FSLAX45Y45*%
G04 Gerber Fmt 4.5, Leading zero omitted, Abs format (unit mm)*
G04 Created by KiCad (PCBNEW 9.0.0) date 2025-04-25 18:31:39*
%MOMM*%
%LPD*%
G01*
G04 APERTURE LIST*
%ADD10C,0.050000*%
%ADD11C,0.200000*%
%ADD12C,0.100000*%
%ADD13C,0.140000*%
%ADD14C,0.320000*%
G04 APERTURE END LIST*
D10*
X10073000Y-7405000D02*
X15763000Y-7405000D01*
X15763000Y-12515000D01*
X10073000Y-12515000D01*
X10073000Y-7405000D01*
D11*
D12*
X10372565Y-11340396D02*
X10402565Y-11370396D01*
X10402565Y-11340396D02*
X10372565Y-11370396D01*
X10578000Y-10118750D02*
X10608000Y-10148750D01*
X10608000Y-10118750D02*
X10578000Y-10148750D01*
X10838000Y-9797500D02*
X10868000Y-9827500D01*
X10868000Y-9797500D02*
X10838000Y-9827500D01*
X10968000Y-11350000D02*
X10998000Y-11380000D01*
X10998000Y-11350000D02*
X10968000Y-11380000D01*
X11028000Y-9685000D02*
X11058000Y-9715000D01*
X11058000Y-9685000D02*
X11028000Y-9715000D01*
X11048000Y-9910000D02*
X11078000Y-9940000D01*
X11078000Y-9910000D02*
X11048000Y-9940000D01*
X11083000Y-9590000D02*
X11113000Y-9620000D01*
X11113000Y-9590000D02*
X11083000Y-9620000D01*
X11083000Y-9780000D02*
X11113000Y-9810000D01*
X11113000Y-9780000D02*
X11083000Y-9810000D01*
X11118000Y-9910000D02*
X11148000Y-9940000D01*
X11148000Y-9910000D02*
X11118000Y-9940000D01*
X11143000Y-9685000D02*
X11173000Y-9715000D01*
X11173000Y-9685000D02*
X11143000Y-9715000D01*
X12403000Y-8470000D02*
X12433000Y-8500000D01*
X12433000Y-8470000D02*
X12403000Y-8500000D01*
X12468000Y-8470000D02*
X12498000Y-8500000D01*
X12498000Y-8470000D02*
X12468000Y-8500000D01*
X12668000Y-8425000D02*
X12698000Y-8455000D01*
X12698000Y-8425000D02*
X12668000Y-8455000D01*
X12733000Y-8425000D02*
X12763000Y-8455000D01*
X12763000Y-8425000D02*
X12733000Y-8455000D01*
X12883000Y-8500000D02*
X12913000Y-8530000D01*
X12913000Y-8500000D02*
X12883000Y-8530000D01*
X12883000Y-8565000D02*
X12913000Y-8595000D01*
X12913000Y-8565000D02*
X12883000Y-8595000D01*
X12988000Y-8355000D02*
X13018000Y-8385000D01*
X13018000Y-8355000D02*
X12988000Y-8385000D01*
X12988000Y-8415000D02*
X13018000Y-8445000D01*
X13018000Y-8415000D02*
X12988000Y-8445000D01*
X12988000Y-8475000D02*
X13018000Y-8505000D01*
X13018000Y-8475000D02*
X12988000Y-8505000D01*
X12988000Y-8535000D02*
X13018000Y-8565000D01*
X13018000Y-8535000D02*
X12988000Y-8565000D01*
X13098000Y-9180000D02*
X13128000Y-9210000D01*
X13128000Y-9180000D02*
X13098000Y-9210000D01*
X13108000Y-9520000D02*
X13138000Y-9550000D01*
X13138000Y-9520000D02*
X13108000Y-9550000D01*
X13148000Y-9580000D02*
X13178000Y-9610000D01*
X13178000Y-9580000D02*
X13148000Y-9610000D01*
X13158000Y-8870000D02*
X13188000Y-8900000D01*
X13188000Y-8870000D02*
X13158000Y-8900000D01*
X13178000Y-9520000D02*
X13208000Y-9550000D01*
X13208000Y-9520000D02*
X13178000Y-9550000D01*
X13183000Y-8920000D02*
X13213000Y-8950000D01*
X13213000Y-8920000D02*
X13183000Y-8950000D01*
X13213000Y-8870000D02*
X13243000Y-8900000D01*
X13243000Y-8870000D02*
X13213000Y-8900000D01*
X13228000Y-9095000D02*
X13258000Y-9125000D01*
X13258000Y-9095000D02*
X13228000Y-9125000D01*
X13358000Y-8875000D02*
X13388000Y-8905000D01*
X13388000Y-8875000D02*
X13358000Y-8905000D01*
X13358000Y-9095000D02*
X13388000Y-9125000D01*
X13388000Y-9095000D02*
X13358000Y-9125000D01*
X13388000Y-9240000D02*
X13418000Y-9270000D01*
X13418000Y-9240000D02*
X13388000Y-9270000D01*
X13408000Y-8870000D02*
X13438000Y-8900000D01*
X13438000Y-8870000D02*
X13408000Y-8900000D01*
X13408715Y-8921250D02*
X13438715Y-8951250D01*
X13438715Y-8921250D02*
X13408715Y-8951250D01*
X13418000Y-9300000D02*
X13448000Y-9330000D01*
X13448000Y-9300000D02*
X13418000Y-9330000D01*
X13458000Y-9250000D02*
X13488000Y-9280000D01*
X13488000Y-9250000D02*
X13458000Y-9280000D01*
X13598000Y-9150000D02*
X13628000Y-9180000D01*
X13628000Y-9150000D02*
X13598000Y-9180000D01*
X13608000Y-8355000D02*
X13638000Y-8385000D01*
X13638000Y-8355000D02*
X13608000Y-8385000D01*
X13608000Y-8415000D02*
X13638000Y-8445000D01*
X13638000Y-8415000D02*
X13608000Y-8445000D01*
X13608000Y-8475000D02*
X13638000Y-8505000D01*
X13638000Y-8475000D02*
X13608000Y-8505000D01*
X13608000Y-8535000D02*
X13638000Y-8565000D01*
X13638000Y-8535000D02*
X13608000Y-8565000D01*
X13718000Y-8515000D02*
X13748000Y-8545000D01*
X13748000Y-8515000D02*
X13718000Y-8545000D01*
X13718000Y-8580000D02*
X13748000Y-8610000D01*
X13748000Y-8580000D02*
X13718000Y-8610000D01*
X13898000Y-8440000D02*
X13928000Y-8470000D01*
X13928000Y-8440000D02*
X13898000Y-8470000D01*
X13963000Y-8440000D02*
X13993000Y-8470000D01*
X13993000Y-8440000D02*
X13963000Y-8470000D01*
X14163000Y-8490000D02*
X14193000Y-8520000D01*
X14193000Y-8490000D02*
X14163000Y-8520000D01*
X14228000Y-8490000D02*
X14258000Y-8520000D01*
X14258000Y-8490000D02*
X14228000Y-8520000D01*
X14428000Y-8830000D02*
X14458000Y-8860000D01*
X14458000Y-8830000D02*
X14428000Y-8860000D01*
X14428000Y-9000000D02*
X14458000Y-9030000D01*
X14458000Y-9000000D02*
X14428000Y-9030000D01*
X15598000Y-9660000D02*
G75*
G02*
X15548000Y-9660000I-25000J0D01*
G01*
X15548000Y-9660000D02*
G75*
G02*
X15598000Y-9660000I25000J0D01*
G01*
X15608000Y-9635000D02*
X15538000Y-9635000D01*
X15538000Y-9685000D02*
G75*
G02*
X15538000Y-9635000I0J25000D01*
G01*
X15538000Y-9685000D02*
X15608000Y-9685000D01*
X15608000Y-9685000D02*
G75*
G03*
X15608000Y-9635000I0J25000D01*
G01*
X15598000Y-10320000D02*
G75*
G02*
X15548000Y-10320000I-25000J0D01*
G01*
X15548000Y-10320000D02*
G75*
G02*
X15598000Y-10320000I25000J0D01*
G01*
X15608000Y-10295000D02*
X15538000Y-10295000D01*
X15538000Y-10345000D02*
G75*
G02*
X15538000Y-10295000I0J25000D01*
G01*
X15538000Y-10345000D02*
X15608000Y-10345000D01*
X15608000Y-10345000D02*
G75*
G03*
X15608000Y-10295000I0J25000D01*
G01*
X15047500Y-8488000D02*
X15047500Y-8548000D01*
X15017500Y-8518000D02*
X15077500Y-8518000D01*
X14992500Y-8548000D02*
X15102500Y-8548000D01*
X15102500Y-8488000D02*
G75*
G02*
X15102500Y-8548000I0J-30000D01*
G01*
X15102500Y-8488000D02*
X14992500Y-8488000D01*
X14992500Y-8488000D02*
G75*
G03*
X14992500Y-8548000I0J-30000D01*
G01*
X15047500Y-9352000D02*
X15047500Y-9412000D01*
X15017500Y-9382000D02*
X15077500Y-9382000D01*
X14992500Y-9412000D02*
X15102500Y-9412000D01*
X15102500Y-9352000D02*
G75*
G02*
X15102500Y-9412000I0J-30000D01*
G01*
X15102500Y-9352000D02*
X14992500Y-9352000D01*
X14992500Y-9352000D02*
G75*
G03*
X14992500Y-9412000I0J-30000D01*
G01*
X15465500Y-8488000D02*
X15465500Y-8548000D01*
X15435500Y-8518000D02*
X15495500Y-8518000D01*
X15435500Y-8548000D02*
X15495500Y-8548000D01*
X15495500Y-8488000D02*
G75*
G02*
X15495500Y-8548000I0J-30000D01*
G01*
X15495500Y-8488000D02*
X15435500Y-8488000D01*
X15435500Y-8488000D02*
G75*
G03*
X15435500Y-8548000I0J-30000D01*
G01*
X15465500Y-9352000D02*
X15465500Y-9412000D01*
X15435500Y-9382000D02*
X15495500Y-9382000D01*
X15435500Y-9412000D02*
X15495500Y-9412000D01*
X15495500Y-9352000D02*
G75*
G02*
X15495500Y-9412000I0J-30000D01*
G01*
X15495500Y-9352000D02*
X15435500Y-9352000D01*
X15435500Y-9352000D02*
G75*
G03*
X15435500Y-9412000I0J-30000D01*
G01*
X10427749Y-9886499D02*
X10427749Y-9837001D01*
X10378251Y-9837001D01*
X10378251Y-9886499D01*
X10427749Y-9886499D01*
X10427749Y-10140499D02*
X10427749Y-10091001D01*
X10378251Y-10091001D01*
X10378251Y-10140499D01*
X10427749Y-10140499D01*
X10458000Y-9585000D02*
X10508000Y-9535000D01*
X10458000Y-9485000D01*
X10408000Y-9535000D01*
X10458000Y-9585000D01*
X14293000Y-10715000D02*
X14343000Y-10665000D01*
X14293000Y-10615000D01*
X14243000Y-10665000D01*
X14293000Y-10715000D01*
X14593000Y-8455000D02*
X14643000Y-8405000D01*
X14593000Y-8355000D01*
X14543000Y-8405000D01*
X14593000Y-8455000D01*
D13*
X10756750Y-8371000D02*
X10896750Y-8511000D01*
X10896750Y-8371000D02*
X10756750Y-8511000D01*
X10896750Y-8441000D02*
G75*
G02*
X10756750Y-8441000I-70000J0D01*
G01*
X10756750Y-8441000D02*
G75*
G02*
X10896750Y-8441000I70000J0D01*
G01*
X10756750Y-8879000D02*
X10896750Y-9019000D01*
X10896750Y-8879000D02*
X10756750Y-9019000D01*
X10896750Y-8949000D02*
G75*
G02*
X10756750Y-8949000I-70000J0D01*
G01*
X10756750Y-8949000D02*
G75*
G02*
X10896750Y-8949000I70000J0D01*
G01*
X11626750Y-8371000D02*
X11766750Y-8511000D01*
X11766750Y-8371000D02*
X11626750Y-8511000D01*
X11766750Y-8441000D02*
G75*
G02*
X11626750Y-8441000I-70000J0D01*
G01*
X11626750Y-8441000D02*
G75*
G02*
X11766750Y-8441000I70000J0D01*
G01*
X11626750Y-8879000D02*
X11766750Y-9019000D01*
X11766750Y-8879000D02*
X11626750Y-9019000D01*
X11766750Y-8949000D02*
G75*
G02*
X11626750Y-8949000I-70000J0D01*
G01*
X11626750Y-8949000D02*
G75*
G02*
X11766750Y-8949000I70000J0D01*
G01*
X13190000Y-10780000D02*
X13330000Y-10920000D01*
X13330000Y-10780000D02*
X13190000Y-10920000D01*
X13330000Y-10850000D02*
G75*
G02*
X13190000Y-10850000I-70000J0D01*
G01*
X13190000Y-10850000D02*
G75*
G02*
X13330000Y-10850000I70000J0D01*
G01*
X13190000Y-11650000D02*
X13330000Y-11790000D01*
X13330000Y-11650000D02*
X13190000Y-11790000D01*
X13330000Y-11720000D02*
G75*
G02*
X13190000Y-11720000I-70000J0D01*
G01*
X13190000Y-11720000D02*
G75*
G02*
X13330000Y-11720000I70000J0D01*
G01*
X13698000Y-10780000D02*
X13838000Y-10920000D01*
X13838000Y-10780000D02*
X13698000Y-10920000D01*
X13838000Y-10850000D02*
G75*
G02*
X13698000Y-10850000I-70000J0D01*
G01*
X13698000Y-10850000D02*
G75*
G02*
X13838000Y-10850000I70000J0D01*
G01*
X13698000Y-11650000D02*
X13838000Y-11790000D01*
X13838000Y-11650000D02*
X13698000Y-11790000D01*
X13838000Y-11720000D02*
G75*
G02*
X13698000Y-11720000I-70000J0D01*
G01*
X13698000Y-11720000D02*
G75*
G02*
X13838000Y-11720000I70000J0D01*
G01*
D14*
X10248000Y-7590000D02*
X10568000Y-7910000D01*
X10568000Y-7590000D02*
X10248000Y-7910000D01*
X10408000Y-7590000D02*
X10408000Y-7910000D01*
X10248000Y-7750000D02*
X10568000Y-7750000D01*
X10263000Y-12005000D02*
X10583000Y-12325000D01*
X10583000Y-12005000D02*
X10263000Y-12325000D01*
X10423000Y-12005000D02*
X10423000Y-12325000D01*
X10263000Y-12165000D02*
X10583000Y-12165000D01*
X15143000Y-7590000D02*
X15463000Y-7910000D01*
X15463000Y-7590000D02*
X15143000Y-7910000D01*
X15303000Y-7590000D02*
X15303000Y-7910000D01*
X15143000Y-7750000D02*
X15463000Y-7750000D01*
X15273000Y-12005000D02*
X15593000Y-12325000D01*
X15593000Y-12005000D02*
X15273000Y-12325000D01*
X15433000Y-12005000D02*
X15433000Y-12325000D01*
X15273000Y-12165000D02*
X15593000Y-12165000D01*
D11*
X10331277Y-12828984D02*
X10331277Y-12628984D01*
X10331277Y-12628984D02*
X10378896Y-12628984D01*
X10378896Y-12628984D02*
X10407467Y-12638508D01*
X10407467Y-12638508D02*
X10426515Y-12657555D01*
X10426515Y-12657555D02*
X10436039Y-12676603D01*
X10436039Y-12676603D02*
X10445563Y-12714698D01*
X10445563Y-12714698D02*
X10445563Y-12743269D01*
X10445563Y-12743269D02*
X10436039Y-12781365D01*
X10436039Y-12781365D02*
X10426515Y-12800412D01*
X10426515Y-12800412D02*
X10407467Y-12819460D01*
X10407467Y-12819460D02*
X10378896Y-12828984D01*
X10378896Y-12828984D02*
X10331277Y-12828984D01*
X10531277Y-12828984D02*
X10531277Y-12695650D01*
X10531277Y-12733746D02*
X10540801Y-12714698D01*
X10540801Y-12714698D02*
X10550324Y-12705174D01*
X10550324Y-12705174D02*
X10569372Y-12695650D01*
X10569372Y-12695650D02*
X10588420Y-12695650D01*
X10655086Y-12828984D02*
X10655086Y-12695650D01*
X10655086Y-12628984D02*
X10645563Y-12638508D01*
X10645563Y-12638508D02*
X10655086Y-12648031D01*
X10655086Y-12648031D02*
X10664610Y-12638508D01*
X10664610Y-12638508D02*
X10655086Y-12628984D01*
X10655086Y-12628984D02*
X10655086Y-12648031D01*
X10778896Y-12828984D02*
X10759848Y-12819460D01*
X10759848Y-12819460D02*
X10750324Y-12800412D01*
X10750324Y-12800412D02*
X10750324Y-12628984D01*
X10883658Y-12828984D02*
X10864610Y-12819460D01*
X10864610Y-12819460D02*
X10855086Y-12800412D01*
X10855086Y-12800412D02*
X10855086Y-12628984D01*
X11112229Y-12828984D02*
X11112229Y-12628984D01*
X11112229Y-12628984D02*
X11178896Y-12771841D01*
X11178896Y-12771841D02*
X11245562Y-12628984D01*
X11245562Y-12628984D02*
X11245562Y-12828984D01*
X11426515Y-12828984D02*
X11426515Y-12724222D01*
X11426515Y-12724222D02*
X11416991Y-12705174D01*
X11416991Y-12705174D02*
X11397943Y-12695650D01*
X11397943Y-12695650D02*
X11359848Y-12695650D01*
X11359848Y-12695650D02*
X11340801Y-12705174D01*
X11426515Y-12819460D02*
X11407467Y-12828984D01*
X11407467Y-12828984D02*
X11359848Y-12828984D01*
X11359848Y-12828984D02*
X11340801Y-12819460D01*
X11340801Y-12819460D02*
X11331277Y-12800412D01*
X11331277Y-12800412D02*
X11331277Y-12781365D01*
X11331277Y-12781365D02*
X11340801Y-12762317D01*
X11340801Y-12762317D02*
X11359848Y-12752793D01*
X11359848Y-12752793D02*
X11407467Y-12752793D01*
X11407467Y-12752793D02*
X11426515Y-12743269D01*
X11521753Y-12695650D02*
X11521753Y-12895650D01*
X11521753Y-12705174D02*
X11540801Y-12695650D01*
X11540801Y-12695650D02*
X11578896Y-12695650D01*
X11578896Y-12695650D02*
X11597943Y-12705174D01*
X11597943Y-12705174D02*
X11607467Y-12714698D01*
X11607467Y-12714698D02*
X11616991Y-12733746D01*
X11616991Y-12733746D02*
X11616991Y-12790888D01*
X11616991Y-12790888D02*
X11607467Y-12809936D01*
X11607467Y-12809936D02*
X11597943Y-12819460D01*
X11597943Y-12819460D02*
X11578896Y-12828984D01*
X11578896Y-12828984D02*
X11540801Y-12828984D01*
X11540801Y-12828984D02*
X11521753Y-12819460D01*
X11702705Y-12809936D02*
X11712229Y-12819460D01*
X11712229Y-12819460D02*
X11702705Y-12828984D01*
X11702705Y-12828984D02*
X11693182Y-12819460D01*
X11693182Y-12819460D02*
X11702705Y-12809936D01*
X11702705Y-12809936D02*
X11702705Y-12828984D01*
X11702705Y-12705174D02*
X11712229Y-12714698D01*
X11712229Y-12714698D02*
X11702705Y-12724222D01*
X11702705Y-12724222D02*
X11693182Y-12714698D01*
X11693182Y-12714698D02*
X11702705Y-12705174D01*
X11702705Y-12705174D02*
X11702705Y-12724222D01*
D12*
X10040500Y-13142500D02*
X10070500Y-13172500D01*
X10070500Y-13142500D02*
X10040500Y-13172500D01*
D11*
X10369372Y-13048984D02*
X10388420Y-13048984D01*
X10388420Y-13048984D02*
X10407467Y-13058508D01*
X10407467Y-13058508D02*
X10416991Y-13068031D01*
X10416991Y-13068031D02*
X10426515Y-13087079D01*
X10426515Y-13087079D02*
X10436039Y-13125174D01*
X10436039Y-13125174D02*
X10436039Y-13172793D01*
X10436039Y-13172793D02*
X10426515Y-13210888D01*
X10426515Y-13210888D02*
X10416991Y-13229936D01*
X10416991Y-13229936D02*
X10407467Y-13239460D01*
X10407467Y-13239460D02*
X10388420Y-13248984D01*
X10388420Y-13248984D02*
X10369372Y-13248984D01*
X10369372Y-13248984D02*
X10350324Y-13239460D01*
X10350324Y-13239460D02*
X10340801Y-13229936D01*
X10340801Y-13229936D02*
X10331277Y-13210888D01*
X10331277Y-13210888D02*
X10321753Y-13172793D01*
X10321753Y-13172793D02*
X10321753Y-13125174D01*
X10321753Y-13125174D02*
X10331277Y-13087079D01*
X10331277Y-13087079D02*
X10340801Y-13068031D01*
X10340801Y-13068031D02*
X10350324Y-13058508D01*
X10350324Y-13058508D02*
X10369372Y-13048984D01*
X10521753Y-13229936D02*
X10531277Y-13239460D01*
X10531277Y-13239460D02*
X10521753Y-13248984D01*
X10521753Y-13248984D02*
X10512229Y-13239460D01*
X10512229Y-13239460D02*
X10521753Y-13229936D01*
X10521753Y-13229936D02*
X10521753Y-13248984D01*
X10597944Y-13048984D02*
X10721753Y-13048984D01*
X10721753Y-13048984D02*
X10655086Y-13125174D01*
X10655086Y-13125174D02*
X10683658Y-13125174D01*
X10683658Y-13125174D02*
X10702705Y-13134698D01*
X10702705Y-13134698D02*
X10712229Y-13144222D01*
X10712229Y-13144222D02*
X10721753Y-13163269D01*
X10721753Y-13163269D02*
X10721753Y-13210888D01*
X10721753Y-13210888D02*
X10712229Y-13229936D01*
X10712229Y-13229936D02*
X10702705Y-13239460D01*
X10702705Y-13239460D02*
X10683658Y-13248984D01*
X10683658Y-13248984D02*
X10626515Y-13248984D01*
X10626515Y-13248984D02*
X10607467Y-13239460D01*
X10607467Y-13239460D02*
X10597944Y-13229936D01*
X10845563Y-13048984D02*
X10864610Y-13048984D01*
X10864610Y-13048984D02*
X10883658Y-13058508D01*
X10883658Y-13058508D02*
X10893182Y-13068031D01*
X10893182Y-13068031D02*
X10902705Y-13087079D01*
X10902705Y-13087079D02*
X10912229Y-13125174D01*
X10912229Y-13125174D02*
X10912229Y-13172793D01*
X10912229Y-13172793D02*
X10902705Y-13210888D01*
X10902705Y-13210888D02*
X10893182Y-13229936D01*
X10893182Y-13229936D02*
X10883658Y-13239460D01*
X10883658Y-13239460D02*
X10864610Y-13248984D01*
X10864610Y-13248984D02*
X10845563Y-13248984D01*
X10845563Y-13248984D02*
X10826515Y-13239460D01*
X10826515Y-13239460D02*
X10816991Y-13229936D01*
X10816991Y-13229936D02*
X10807467Y-13210888D01*
X10807467Y-13210888D02*
X10797944Y-13172793D01*
X10797944Y-13172793D02*
X10797944Y-13125174D01*
X10797944Y-13125174D02*
X10807467Y-13087079D01*
X10807467Y-13087079D02*
X10816991Y-13068031D01*
X10816991Y-13068031D02*
X10826515Y-13058508D01*
X10826515Y-13058508D02*
X10845563Y-13048984D01*
X11036039Y-13048984D02*
X11055086Y-13048984D01*
X11055086Y-13048984D02*
X11074134Y-13058508D01*
X11074134Y-13058508D02*
X11083658Y-13068031D01*
X11083658Y-13068031D02*
X11093182Y-13087079D01*
X11093182Y-13087079D02*
X11102705Y-13125174D01*
X11102705Y-13125174D02*
X11102705Y-13172793D01*
X11102705Y-13172793D02*
X11093182Y-13210888D01*
X11093182Y-13210888D02*
X11083658Y-13229936D01*
X11083658Y-13229936D02*
X11074134Y-13239460D01*
X11074134Y-13239460D02*
X11055086Y-13248984D01*
X11055086Y-13248984D02*
X11036039Y-13248984D01*
X11036039Y-13248984D02*
X11016991Y-13239460D01*
X11016991Y-13239460D02*
X11007467Y-13229936D01*
X11007467Y-13229936D02*
X10997944Y-13210888D01*
X10997944Y-13210888D02*
X10988420Y-13172793D01*
X10988420Y-13172793D02*
X10988420Y-13125174D01*
X10988420Y-13125174D02*
X10997944Y-13087079D01*
X10997944Y-13087079D02*
X11007467Y-13068031D01*
X11007467Y-13068031D02*
X11016991Y-13058508D01*
X11016991Y-13058508D02*
X11036039Y-13048984D01*
X11188420Y-13248984D02*
X11188420Y-13115650D01*
X11188420Y-13134698D02*
X11197943Y-13125174D01*
X11197943Y-13125174D02*
X11216991Y-13115650D01*
X11216991Y-13115650D02*
X11245563Y-13115650D01*
X11245563Y-13115650D02*
X11264610Y-13125174D01*
X11264610Y-13125174D02*
X11274134Y-13144222D01*
X11274134Y-13144222D02*
X11274134Y-13248984D01*
X11274134Y-13144222D02*
X11283658Y-13125174D01*
X11283658Y-13125174D02*
X11302705Y-13115650D01*
X11302705Y-13115650D02*
X11331277Y-13115650D01*
X11331277Y-13115650D02*
X11350324Y-13125174D01*
X11350324Y-13125174D02*
X11359848Y-13144222D01*
X11359848Y-13144222D02*
X11359848Y-13248984D01*
X11455086Y-13248984D02*
X11455086Y-13115650D01*
X11455086Y-13134698D02*
X11464610Y-13125174D01*
X11464610Y-13125174D02*
X11483658Y-13115650D01*
X11483658Y-13115650D02*
X11512229Y-13115650D01*
X11512229Y-13115650D02*
X11531277Y-13125174D01*
X11531277Y-13125174D02*
X11540801Y-13144222D01*
X11540801Y-13144222D02*
X11540801Y-13248984D01*
X11540801Y-13144222D02*
X11550324Y-13125174D01*
X11550324Y-13125174D02*
X11569372Y-13115650D01*
X11569372Y-13115650D02*
X11597943Y-13115650D01*
X11597943Y-13115650D02*
X11616991Y-13125174D01*
X11616991Y-13125174D02*
X11626515Y-13144222D01*
X11626515Y-13144222D02*
X11626515Y-13248984D01*
X12016991Y-13039460D02*
X11845563Y-13296603D01*
X12274134Y-13048984D02*
X12293182Y-13048984D01*
X12293182Y-13048984D02*
X12312229Y-13058508D01*
X12312229Y-13058508D02*
X12321753Y-13068031D01*
X12321753Y-13068031D02*
X12331277Y-13087079D01*
X12331277Y-13087079D02*
X12340801Y-13125174D01*
X12340801Y-13125174D02*
X12340801Y-13172793D01*
X12340801Y-13172793D02*
X12331277Y-13210888D01*
X12331277Y-13210888D02*
X12321753Y-13229936D01*
X12321753Y-13229936D02*
X12312229Y-13239460D01*
X12312229Y-13239460D02*
X12293182Y-13248984D01*
X12293182Y-13248984D02*
X12274134Y-13248984D01*
X12274134Y-13248984D02*
X12255086Y-13239460D01*
X12255086Y-13239460D02*
X12245563Y-13229936D01*
X12245563Y-13229936D02*
X12236039Y-13210888D01*
X12236039Y-13210888D02*
X12226515Y-13172793D01*
X12226515Y-13172793D02*
X12226515Y-13125174D01*
X12226515Y-13125174D02*
X12236039Y-13087079D01*
X12236039Y-13087079D02*
X12245563Y-13068031D01*
X12245563Y-13068031D02*
X12255086Y-13058508D01*
X12255086Y-13058508D02*
X12274134Y-13048984D01*
X12426515Y-13229936D02*
X12436039Y-13239460D01*
X12436039Y-13239460D02*
X12426515Y-13248984D01*
X12426515Y-13248984D02*
X12416991Y-13239460D01*
X12416991Y-13239460D02*
X12426515Y-13229936D01*
X12426515Y-13229936D02*
X12426515Y-13248984D01*
X12559848Y-13048984D02*
X12578896Y-13048984D01*
X12578896Y-13048984D02*
X12597944Y-13058508D01*
X12597944Y-13058508D02*
X12607467Y-13068031D01*
X12607467Y-13068031D02*
X12616991Y-13087079D01*
X12616991Y-13087079D02*
X12626515Y-13125174D01*
X12626515Y-13125174D02*
X12626515Y-13172793D01*
X12626515Y-13172793D02*
X12616991Y-13210888D01*
X12616991Y-13210888D02*
X12607467Y-13229936D01*
X12607467Y-13229936D02*
X12597944Y-13239460D01*
X12597944Y-13239460D02*
X12578896Y-13248984D01*
X12578896Y-13248984D02*
X12559848Y-13248984D01*
X12559848Y-13248984D02*
X12540801Y-13239460D01*
X12540801Y-13239460D02*
X12531277Y-13229936D01*
X12531277Y-13229936D02*
X12521753Y-13210888D01*
X12521753Y-13210888D02*
X12512229Y-13172793D01*
X12512229Y-13172793D02*
X12512229Y-13125174D01*
X12512229Y-13125174D02*
X12521753Y-13087079D01*
X12521753Y-13087079D02*
X12531277Y-13068031D01*
X12531277Y-13068031D02*
X12540801Y-13058508D01*
X12540801Y-13058508D02*
X12559848Y-13048984D01*
X12816991Y-13248984D02*
X12702706Y-13248984D01*
X12759848Y-13248984D02*
X12759848Y-13048984D01*
X12759848Y-13048984D02*
X12740801Y-13077555D01*
X12740801Y-13077555D02*
X12721753Y-13096603D01*
X12721753Y-13096603D02*
X12702706Y-13106127D01*
X13007467Y-13248984D02*
X12893182Y-13248984D01*
X12950325Y-13248984D02*
X12950325Y-13048984D01*
X12950325Y-13048984D02*
X12931277Y-13077555D01*
X12931277Y-13077555D02*
X12912229Y-13096603D01*
X12912229Y-13096603D02*
X12893182Y-13106127D01*
X13121753Y-13134698D02*
X13102706Y-13125174D01*
X13102706Y-13125174D02*
X13093182Y-13115650D01*
X13093182Y-13115650D02*
X13083658Y-13096603D01*
X13083658Y-13096603D02*
X13083658Y-13087079D01*
X13083658Y-13087079D02*
X13093182Y-13068031D01*
X13093182Y-13068031D02*
X13102706Y-13058508D01*
X13102706Y-13058508D02*
X13121753Y-13048984D01*
X13121753Y-13048984D02*
X13159848Y-13048984D01*
X13159848Y-13048984D02*
X13178896Y-13058508D01*
X13178896Y-13058508D02*
X13188420Y-13068031D01*
X13188420Y-13068031D02*
X13197944Y-13087079D01*
X13197944Y-13087079D02*
X13197944Y-13096603D01*
X13197944Y-13096603D02*
X13188420Y-13115650D01*
X13188420Y-13115650D02*
X13178896Y-13125174D01*
X13178896Y-13125174D02*
X13159848Y-13134698D01*
X13159848Y-13134698D02*
X13121753Y-13134698D01*
X13121753Y-13134698D02*
X13102706Y-13144222D01*
X13102706Y-13144222D02*
X13093182Y-13153746D01*
X13093182Y-13153746D02*
X13083658Y-13172793D01*
X13083658Y-13172793D02*
X13083658Y-13210888D01*
X13083658Y-13210888D02*
X13093182Y-13229936D01*
X13093182Y-13229936D02*
X13102706Y-13239460D01*
X13102706Y-13239460D02*
X13121753Y-13248984D01*
X13121753Y-13248984D02*
X13159848Y-13248984D01*
X13159848Y-13248984D02*
X13178896Y-13239460D01*
X13178896Y-13239460D02*
X13188420Y-13229936D01*
X13188420Y-13229936D02*
X13197944Y-13210888D01*
X13197944Y-13210888D02*
X13197944Y-13172793D01*
X13197944Y-13172793D02*
X13188420Y-13153746D01*
X13188420Y-13153746D02*
X13178896Y-13144222D01*
X13178896Y-13144222D02*
X13159848Y-13134698D01*
X13274134Y-13048984D02*
X13274134Y-13087079D01*
X13350325Y-13048984D02*
X13350325Y-13087079D01*
X13645563Y-13325174D02*
X13636039Y-13315650D01*
X13636039Y-13315650D02*
X13616991Y-13287079D01*
X13616991Y-13287079D02*
X13607468Y-13268031D01*
X13607468Y-13268031D02*
X13597944Y-13239460D01*
X13597944Y-13239460D02*
X13588420Y-13191841D01*
X13588420Y-13191841D02*
X13588420Y-13153746D01*
X13588420Y-13153746D02*
X13597944Y-13106127D01*
X13597944Y-13106127D02*
X13607468Y-13077555D01*
X13607468Y-13077555D02*
X13616991Y-13058508D01*
X13616991Y-13058508D02*
X13636039Y-13029936D01*
X13636039Y-13029936D02*
X13645563Y-13020412D01*
X13807468Y-13115650D02*
X13807468Y-13248984D01*
X13759848Y-13039460D02*
X13712229Y-13182317D01*
X13712229Y-13182317D02*
X13836039Y-13182317D01*
X13940801Y-13134698D02*
X13921753Y-13125174D01*
X13921753Y-13125174D02*
X13912229Y-13115650D01*
X13912229Y-13115650D02*
X13902706Y-13096603D01*
X13902706Y-13096603D02*
X13902706Y-13087079D01*
X13902706Y-13087079D02*
X13912229Y-13068031D01*
X13912229Y-13068031D02*
X13921753Y-13058508D01*
X13921753Y-13058508D02*
X13940801Y-13048984D01*
X13940801Y-13048984D02*
X13978896Y-13048984D01*
X13978896Y-13048984D02*
X13997944Y-13058508D01*
X13997944Y-13058508D02*
X14007468Y-13068031D01*
X14007468Y-13068031D02*
X14016991Y-13087079D01*
X14016991Y-13087079D02*
X14016991Y-13096603D01*
X14016991Y-13096603D02*
X14007468Y-13115650D01*
X14007468Y-13115650D02*
X13997944Y-13125174D01*
X13997944Y-13125174D02*
X13978896Y-13134698D01*
X13978896Y-13134698D02*
X13940801Y-13134698D01*
X13940801Y-13134698D02*
X13921753Y-13144222D01*
X13921753Y-13144222D02*
X13912229Y-13153746D01*
X13912229Y-13153746D02*
X13902706Y-13172793D01*
X13902706Y-13172793D02*
X13902706Y-13210888D01*
X13902706Y-13210888D02*
X13912229Y-13229936D01*
X13912229Y-13229936D02*
X13921753Y-13239460D01*
X13921753Y-13239460D02*
X13940801Y-13248984D01*
X13940801Y-13248984D02*
X13978896Y-13248984D01*
X13978896Y-13248984D02*
X13997944Y-13239460D01*
X13997944Y-13239460D02*
X14007468Y-13229936D01*
X14007468Y-13229936D02*
X14016991Y-13210888D01*
X14016991Y-13210888D02*
X14016991Y-13172793D01*
X14016991Y-13172793D02*
X14007468Y-13153746D01*
X14007468Y-13153746D02*
X13997944Y-13144222D01*
X13997944Y-13144222D02*
X13978896Y-13134698D01*
X14255087Y-13248984D02*
X14255087Y-13048984D01*
X14340801Y-13248984D02*
X14340801Y-13144222D01*
X14340801Y-13144222D02*
X14331277Y-13125174D01*
X14331277Y-13125174D02*
X14312230Y-13115650D01*
X14312230Y-13115650D02*
X14283658Y-13115650D01*
X14283658Y-13115650D02*
X14264610Y-13125174D01*
X14264610Y-13125174D02*
X14255087Y-13134698D01*
X14464610Y-13248984D02*
X14445563Y-13239460D01*
X14445563Y-13239460D02*
X14436039Y-13229936D01*
X14436039Y-13229936D02*
X14426515Y-13210888D01*
X14426515Y-13210888D02*
X14426515Y-13153746D01*
X14426515Y-13153746D02*
X14436039Y-13134698D01*
X14436039Y-13134698D02*
X14445563Y-13125174D01*
X14445563Y-13125174D02*
X14464610Y-13115650D01*
X14464610Y-13115650D02*
X14493182Y-13115650D01*
X14493182Y-13115650D02*
X14512230Y-13125174D01*
X14512230Y-13125174D02*
X14521753Y-13134698D01*
X14521753Y-13134698D02*
X14531277Y-13153746D01*
X14531277Y-13153746D02*
X14531277Y-13210888D01*
X14531277Y-13210888D02*
X14521753Y-13229936D01*
X14521753Y-13229936D02*
X14512230Y-13239460D01*
X14512230Y-13239460D02*
X14493182Y-13248984D01*
X14493182Y-13248984D02*
X14464610Y-13248984D01*
X14645563Y-13248984D02*
X14626515Y-13239460D01*
X14626515Y-13239460D02*
X14616991Y-13220412D01*
X14616991Y-13220412D02*
X14616991Y-13048984D01*
X14797944Y-13239460D02*
X14778896Y-13248984D01*
X14778896Y-13248984D02*
X14740801Y-13248984D01*
X14740801Y-13248984D02*
X14721753Y-13239460D01*
X14721753Y-13239460D02*
X14712230Y-13220412D01*
X14712230Y-13220412D02*
X14712230Y-13144222D01*
X14712230Y-13144222D02*
X14721753Y-13125174D01*
X14721753Y-13125174D02*
X14740801Y-13115650D01*
X14740801Y-13115650D02*
X14778896Y-13115650D01*
X14778896Y-13115650D02*
X14797944Y-13125174D01*
X14797944Y-13125174D02*
X14807468Y-13144222D01*
X14807468Y-13144222D02*
X14807468Y-13163269D01*
X14807468Y-13163269D02*
X14712230Y-13182317D01*
X14883658Y-13239460D02*
X14902706Y-13248984D01*
X14902706Y-13248984D02*
X14940801Y-13248984D01*
X14940801Y-13248984D02*
X14959849Y-13239460D01*
X14959849Y-13239460D02*
X14969372Y-13220412D01*
X14969372Y-13220412D02*
X14969372Y-13210888D01*
X14969372Y-13210888D02*
X14959849Y-13191841D01*
X14959849Y-13191841D02*
X14940801Y-13182317D01*
X14940801Y-13182317D02*
X14912230Y-13182317D01*
X14912230Y-13182317D02*
X14893182Y-13172793D01*
X14893182Y-13172793D02*
X14883658Y-13153746D01*
X14883658Y-13153746D02*
X14883658Y-13144222D01*
X14883658Y-13144222D02*
X14893182Y-13125174D01*
X14893182Y-13125174D02*
X14912230Y-13115650D01*
X14912230Y-13115650D02*
X14940801Y-13115650D01*
X14940801Y-13115650D02*
X14959849Y-13125174D01*
X15036039Y-13325174D02*
X15045563Y-13315650D01*
X15045563Y-13315650D02*
X15064611Y-13287079D01*
X15064611Y-13287079D02*
X15074134Y-13268031D01*
X15074134Y-13268031D02*
X15083658Y-13239460D01*
X15083658Y-13239460D02*
X15093182Y-13191841D01*
X15093182Y-13191841D02*
X15093182Y-13153746D01*
X15093182Y-13153746D02*
X15083658Y-13106127D01*
X15083658Y-13106127D02*
X15074134Y-13077555D01*
X15074134Y-13077555D02*
X15064611Y-13058508D01*
X15064611Y-13058508D02*
X15045563Y-13029936D01*
X15045563Y-13029936D02*
X15036039Y-13020412D01*
D12*
X10070500Y-13421500D02*
G75*
G02*
X10020500Y-13421500I-25000J0D01*
G01*
X10020500Y-13421500D02*
G75*
G02*
X10070500Y-13421500I25000J0D01*
G01*
D11*
X10369372Y-13312984D02*
X10388420Y-13312984D01*
X10388420Y-13312984D02*
X10407467Y-13322508D01*
X10407467Y-13322508D02*
X10416991Y-13332031D01*
X10416991Y-13332031D02*
X10426515Y-13351079D01*
X10426515Y-13351079D02*
X10436039Y-13389174D01*
X10436039Y-13389174D02*
X10436039Y-13436793D01*
X10436039Y-13436793D02*
X10426515Y-13474888D01*
X10426515Y-13474888D02*
X10416991Y-13493936D01*
X10416991Y-13493936D02*
X10407467Y-13503460D01*
X10407467Y-13503460D02*
X10388420Y-13512984D01*
X10388420Y-13512984D02*
X10369372Y-13512984D01*
X10369372Y-13512984D02*
X10350324Y-13503460D01*
X10350324Y-13503460D02*
X10340801Y-13493936D01*
X10340801Y-13493936D02*
X10331277Y-13474888D01*
X10331277Y-13474888D02*
X10321753Y-13436793D01*
X10321753Y-13436793D02*
X10321753Y-13389174D01*
X10321753Y-13389174D02*
X10331277Y-13351079D01*
X10331277Y-13351079D02*
X10340801Y-13332031D01*
X10340801Y-13332031D02*
X10350324Y-13322508D01*
X10350324Y-13322508D02*
X10369372Y-13312984D01*
X10521753Y-13493936D02*
X10531277Y-13503460D01*
X10531277Y-13503460D02*
X10521753Y-13512984D01*
X10521753Y-13512984D02*
X10512229Y-13503460D01*
X10512229Y-13503460D02*
X10521753Y-13493936D01*
X10521753Y-13493936D02*
X10521753Y-13512984D01*
X10712229Y-13312984D02*
X10616991Y-13312984D01*
X10616991Y-13312984D02*
X10607467Y-13408222D01*
X10607467Y-13408222D02*
X10616991Y-13398698D01*
X10616991Y-13398698D02*
X10636039Y-13389174D01*
X10636039Y-13389174D02*
X10683658Y-13389174D01*
X10683658Y-13389174D02*
X10702705Y-13398698D01*
X10702705Y-13398698D02*
X10712229Y-13408222D01*
X10712229Y-13408222D02*
X10721753Y-13427269D01*
X10721753Y-13427269D02*
X10721753Y-13474888D01*
X10721753Y-13474888D02*
X10712229Y-13493936D01*
X10712229Y-13493936D02*
X10702705Y-13503460D01*
X10702705Y-13503460D02*
X10683658Y-13512984D01*
X10683658Y-13512984D02*
X10636039Y-13512984D01*
X10636039Y-13512984D02*
X10616991Y-13503460D01*
X10616991Y-13503460D02*
X10607467Y-13493936D01*
X10845563Y-13312984D02*
X10864610Y-13312984D01*
X10864610Y-13312984D02*
X10883658Y-13322508D01*
X10883658Y-13322508D02*
X10893182Y-13332031D01*
X10893182Y-13332031D02*
X10902705Y-13351079D01*
X10902705Y-13351079D02*
X10912229Y-13389174D01*
X10912229Y-13389174D02*
X10912229Y-13436793D01*
X10912229Y-13436793D02*
X10902705Y-13474888D01*
X10902705Y-13474888D02*
X10893182Y-13493936D01*
X10893182Y-13493936D02*
X10883658Y-13503460D01*
X10883658Y-13503460D02*
X10864610Y-13512984D01*
X10864610Y-13512984D02*
X10845563Y-13512984D01*
X10845563Y-13512984D02*
X10826515Y-13503460D01*
X10826515Y-13503460D02*
X10816991Y-13493936D01*
X10816991Y-13493936D02*
X10807467Y-13474888D01*
X10807467Y-13474888D02*
X10797944Y-13436793D01*
X10797944Y-13436793D02*
X10797944Y-13389174D01*
X10797944Y-13389174D02*
X10807467Y-13351079D01*
X10807467Y-13351079D02*
X10816991Y-13332031D01*
X10816991Y-13332031D02*
X10826515Y-13322508D01*
X10826515Y-13322508D02*
X10845563Y-13312984D01*
X11036039Y-13312984D02*
X11055086Y-13312984D01*
X11055086Y-13312984D02*
X11074134Y-13322508D01*
X11074134Y-13322508D02*
X11083658Y-13332031D01*
X11083658Y-13332031D02*
X11093182Y-13351079D01*
X11093182Y-13351079D02*
X11102705Y-13389174D01*
X11102705Y-13389174D02*
X11102705Y-13436793D01*
X11102705Y-13436793D02*
X11093182Y-13474888D01*
X11093182Y-13474888D02*
X11083658Y-13493936D01*
X11083658Y-13493936D02*
X11074134Y-13503460D01*
X11074134Y-13503460D02*
X11055086Y-13512984D01*
X11055086Y-13512984D02*
X11036039Y-13512984D01*
X11036039Y-13512984D02*
X11016991Y-13503460D01*
X11016991Y-13503460D02*
X11007467Y-13493936D01*
X11007467Y-13493936D02*
X10997944Y-13474888D01*
X10997944Y-13474888D02*
X10988420Y-13436793D01*
X10988420Y-13436793D02*
X10988420Y-13389174D01*
X10988420Y-13389174D02*
X10997944Y-13351079D01*
X10997944Y-13351079D02*
X11007467Y-13332031D01*
X11007467Y-13332031D02*
X11016991Y-13322508D01*
X11016991Y-13322508D02*
X11036039Y-13312984D01*
X11188420Y-13512984D02*
X11188420Y-13379650D01*
X11188420Y-13398698D02*
X11197943Y-13389174D01*
X11197943Y-13389174D02*
X11216991Y-13379650D01*
X11216991Y-13379650D02*
X11245563Y-13379650D01*
X11245563Y-13379650D02*
X11264610Y-13389174D01*
X11264610Y-13389174D02*
X11274134Y-13408222D01*
X11274134Y-13408222D02*
X11274134Y-13512984D01*
X11274134Y-13408222D02*
X11283658Y-13389174D01*
X11283658Y-13389174D02*
X11302705Y-13379650D01*
X11302705Y-13379650D02*
X11331277Y-13379650D01*
X11331277Y-13379650D02*
X11350324Y-13389174D01*
X11350324Y-13389174D02*
X11359848Y-13408222D01*
X11359848Y-13408222D02*
X11359848Y-13512984D01*
X11455086Y-13512984D02*
X11455086Y-13379650D01*
X11455086Y-13398698D02*
X11464610Y-13389174D01*
X11464610Y-13389174D02*
X11483658Y-13379650D01*
X11483658Y-13379650D02*
X11512229Y-13379650D01*
X11512229Y-13379650D02*
X11531277Y-13389174D01*
X11531277Y-13389174D02*
X11540801Y-13408222D01*
X11540801Y-13408222D02*
X11540801Y-13512984D01*
X11540801Y-13408222D02*
X11550324Y-13389174D01*
X11550324Y-13389174D02*
X11569372Y-13379650D01*
X11569372Y-13379650D02*
X11597943Y-13379650D01*
X11597943Y-13379650D02*
X11616991Y-13389174D01*
X11616991Y-13389174D02*
X11626515Y-13408222D01*
X11626515Y-13408222D02*
X11626515Y-13512984D01*
X12016991Y-13303460D02*
X11845563Y-13560603D01*
X12274134Y-13312984D02*
X12293182Y-13312984D01*
X12293182Y-13312984D02*
X12312229Y-13322508D01*
X12312229Y-13322508D02*
X12321753Y-13332031D01*
X12321753Y-13332031D02*
X12331277Y-13351079D01*
X12331277Y-13351079D02*
X12340801Y-13389174D01*
X12340801Y-13389174D02*
X12340801Y-13436793D01*
X12340801Y-13436793D02*
X12331277Y-13474888D01*
X12331277Y-13474888D02*
X12321753Y-13493936D01*
X12321753Y-13493936D02*
X12312229Y-13503460D01*
X12312229Y-13503460D02*
X12293182Y-13512984D01*
X12293182Y-13512984D02*
X12274134Y-13512984D01*
X12274134Y-13512984D02*
X12255086Y-13503460D01*
X12255086Y-13503460D02*
X12245563Y-13493936D01*
X12245563Y-13493936D02*
X12236039Y-13474888D01*
X12236039Y-13474888D02*
X12226515Y-13436793D01*
X12226515Y-13436793D02*
X12226515Y-13389174D01*
X12226515Y-13389174D02*
X12236039Y-13351079D01*
X12236039Y-13351079D02*
X12245563Y-13332031D01*
X12245563Y-13332031D02*
X12255086Y-13322508D01*
X12255086Y-13322508D02*
X12274134Y-13312984D01*
X12426515Y-13493936D02*
X12436039Y-13503460D01*
X12436039Y-13503460D02*
X12426515Y-13512984D01*
X12426515Y-13512984D02*
X12416991Y-13503460D01*
X12416991Y-13503460D02*
X12426515Y-13493936D01*
X12426515Y-13493936D02*
X12426515Y-13512984D01*
X12559848Y-13312984D02*
X12578896Y-13312984D01*
X12578896Y-13312984D02*
X12597944Y-13322508D01*
X12597944Y-13322508D02*
X12607467Y-13332031D01*
X12607467Y-13332031D02*
X12616991Y-13351079D01*
X12616991Y-13351079D02*
X12626515Y-13389174D01*
X12626515Y-13389174D02*
X12626515Y-13436793D01*
X12626515Y-13436793D02*
X12616991Y-13474888D01*
X12616991Y-13474888D02*
X12607467Y-13493936D01*
X12607467Y-13493936D02*
X12597944Y-13503460D01*
X12597944Y-13503460D02*
X12578896Y-13512984D01*
X12578896Y-13512984D02*
X12559848Y-13512984D01*
X12559848Y-13512984D02*
X12540801Y-13503460D01*
X12540801Y-13503460D02*
X12531277Y-13493936D01*
X12531277Y-13493936D02*
X12521753Y-13474888D01*
X12521753Y-13474888D02*
X12512229Y-13436793D01*
X12512229Y-13436793D02*
X12512229Y-13389174D01*
X12512229Y-13389174D02*
X12521753Y-13351079D01*
X12521753Y-13351079D02*
X12531277Y-13332031D01*
X12531277Y-13332031D02*
X12540801Y-13322508D01*
X12540801Y-13322508D02*
X12559848Y-13312984D01*
X12816991Y-13512984D02*
X12702706Y-13512984D01*
X12759848Y-13512984D02*
X12759848Y-13312984D01*
X12759848Y-13312984D02*
X12740801Y-13341555D01*
X12740801Y-13341555D02*
X12721753Y-13360603D01*
X12721753Y-13360603D02*
X12702706Y-13370127D01*
X12912229Y-13512984D02*
X12950325Y-13512984D01*
X12950325Y-13512984D02*
X12969372Y-13503460D01*
X12969372Y-13503460D02*
X12978896Y-13493936D01*
X12978896Y-13493936D02*
X12997944Y-13465365D01*
X12997944Y-13465365D02*
X13007467Y-13427269D01*
X13007467Y-13427269D02*
X13007467Y-13351079D01*
X13007467Y-13351079D02*
X12997944Y-13332031D01*
X12997944Y-13332031D02*
X12988420Y-13322508D01*
X12988420Y-13322508D02*
X12969372Y-13312984D01*
X12969372Y-13312984D02*
X12931277Y-13312984D01*
X12931277Y-13312984D02*
X12912229Y-13322508D01*
X12912229Y-13322508D02*
X12902706Y-13332031D01*
X12902706Y-13332031D02*
X12893182Y-13351079D01*
X12893182Y-13351079D02*
X12893182Y-13398698D01*
X12893182Y-13398698D02*
X12902706Y-13417746D01*
X12902706Y-13417746D02*
X12912229Y-13427269D01*
X12912229Y-13427269D02*
X12931277Y-13436793D01*
X12931277Y-13436793D02*
X12969372Y-13436793D01*
X12969372Y-13436793D02*
X12988420Y-13427269D01*
X12988420Y-13427269D02*
X12997944Y-13417746D01*
X12997944Y-13417746D02*
X13007467Y-13398698D01*
X13074134Y-13312984D02*
X13207467Y-13312984D01*
X13207467Y-13312984D02*
X13121753Y-13512984D01*
X13274134Y-13312984D02*
X13274134Y-13351079D01*
X13350325Y-13312984D02*
X13350325Y-13351079D01*
X13645563Y-13589174D02*
X13636039Y-13579650D01*
X13636039Y-13579650D02*
X13616991Y-13551079D01*
X13616991Y-13551079D02*
X13607468Y-13532031D01*
X13607468Y-13532031D02*
X13597944Y-13503460D01*
X13597944Y-13503460D02*
X13588420Y-13455841D01*
X13588420Y-13455841D02*
X13588420Y-13417746D01*
X13588420Y-13417746D02*
X13597944Y-13370127D01*
X13597944Y-13370127D02*
X13607468Y-13341555D01*
X13607468Y-13341555D02*
X13616991Y-13322508D01*
X13616991Y-13322508D02*
X13636039Y-13293936D01*
X13636039Y-13293936D02*
X13645563Y-13284412D01*
X13759848Y-13312984D02*
X13778896Y-13312984D01*
X13778896Y-13312984D02*
X13797944Y-13322508D01*
X13797944Y-13322508D02*
X13807468Y-13332031D01*
X13807468Y-13332031D02*
X13816991Y-13351079D01*
X13816991Y-13351079D02*
X13826515Y-13389174D01*
X13826515Y-13389174D02*
X13826515Y-13436793D01*
X13826515Y-13436793D02*
X13816991Y-13474888D01*
X13816991Y-13474888D02*
X13807468Y-13493936D01*
X13807468Y-13493936D02*
X13797944Y-13503460D01*
X13797944Y-13503460D02*
X13778896Y-13512984D01*
X13778896Y-13512984D02*
X13759848Y-13512984D01*
X13759848Y-13512984D02*
X13740801Y-13503460D01*
X13740801Y-13503460D02*
X13731277Y-13493936D01*
X13731277Y-13493936D02*
X13721753Y-13474888D01*
X13721753Y-13474888D02*
X13712229Y-13436793D01*
X13712229Y-13436793D02*
X13712229Y-13389174D01*
X13712229Y-13389174D02*
X13721753Y-13351079D01*
X13721753Y-13351079D02*
X13731277Y-13332031D01*
X13731277Y-13332031D02*
X13740801Y-13322508D01*
X13740801Y-13322508D02*
X13759848Y-13312984D01*
X14064610Y-13512984D02*
X14064610Y-13312984D01*
X14150325Y-13512984D02*
X14150325Y-13408222D01*
X14150325Y-13408222D02*
X14140801Y-13389174D01*
X14140801Y-13389174D02*
X14121753Y-13379650D01*
X14121753Y-13379650D02*
X14093182Y-13379650D01*
X14093182Y-13379650D02*
X14074134Y-13389174D01*
X14074134Y-13389174D02*
X14064610Y-13398698D01*
X14274134Y-13512984D02*
X14255087Y-13503460D01*
X14255087Y-13503460D02*
X14245563Y-13493936D01*
X14245563Y-13493936D02*
X14236039Y-13474888D01*
X14236039Y-13474888D02*
X14236039Y-13417746D01*
X14236039Y-13417746D02*
X14245563Y-13398698D01*
X14245563Y-13398698D02*
X14255087Y-13389174D01*
X14255087Y-13389174D02*
X14274134Y-13379650D01*
X14274134Y-13379650D02*
X14302706Y-13379650D01*
X14302706Y-13379650D02*
X14321753Y-13389174D01*
X14321753Y-13389174D02*
X14331277Y-13398698D01*
X14331277Y-13398698D02*
X14340801Y-13417746D01*
X14340801Y-13417746D02*
X14340801Y-13474888D01*
X14340801Y-13474888D02*
X14331277Y-13493936D01*
X14331277Y-13493936D02*
X14321753Y-13503460D01*
X14321753Y-13503460D02*
X14302706Y-13512984D01*
X14302706Y-13512984D02*
X14274134Y-13512984D01*
X14455087Y-13512984D02*
X14436039Y-13503460D01*
X14436039Y-13503460D02*
X14426515Y-13484412D01*
X14426515Y-13484412D02*
X14426515Y-13312984D01*
X14607468Y-13503460D02*
X14588420Y-13512984D01*
X14588420Y-13512984D02*
X14550325Y-13512984D01*
X14550325Y-13512984D02*
X14531277Y-13503460D01*
X14531277Y-13503460D02*
X14521753Y-13484412D01*
X14521753Y-13484412D02*
X14521753Y-13408222D01*
X14521753Y-13408222D02*
X14531277Y-13389174D01*
X14531277Y-13389174D02*
X14550325Y-13379650D01*
X14550325Y-13379650D02*
X14588420Y-13379650D01*
X14588420Y-13379650D02*
X14607468Y-13389174D01*
X14607468Y-13389174D02*
X14616991Y-13408222D01*
X14616991Y-13408222D02*
X14616991Y-13427269D01*
X14616991Y-13427269D02*
X14521753Y-13446317D01*
X14693182Y-13503460D02*
X14712230Y-13512984D01*
X14712230Y-13512984D02*
X14750325Y-13512984D01*
X14750325Y-13512984D02*
X14769372Y-13503460D01*
X14769372Y-13503460D02*
X14778896Y-13484412D01*
X14778896Y-13484412D02*
X14778896Y-13474888D01*
X14778896Y-13474888D02*
X14769372Y-13455841D01*
X14769372Y-13455841D02*
X14750325Y-13446317D01*
X14750325Y-13446317D02*
X14721753Y-13446317D01*
X14721753Y-13446317D02*
X14702706Y-13436793D01*
X14702706Y-13436793D02*
X14693182Y-13417746D01*
X14693182Y-13417746D02*
X14693182Y-13408222D01*
X14693182Y-13408222D02*
X14702706Y-13389174D01*
X14702706Y-13389174D02*
X14721753Y-13379650D01*
X14721753Y-13379650D02*
X14750325Y-13379650D01*
X14750325Y-13379650D02*
X14769372Y-13389174D01*
X15016992Y-13436793D02*
X15169373Y-13436793D01*
X15093182Y-13512984D02*
X15093182Y-13360603D01*
X15407468Y-13332031D02*
X15416992Y-13322508D01*
X15416992Y-13322508D02*
X15436039Y-13312984D01*
X15436039Y-13312984D02*
X15483658Y-13312984D01*
X15483658Y-13312984D02*
X15502706Y-13322508D01*
X15502706Y-13322508D02*
X15512230Y-13332031D01*
X15512230Y-13332031D02*
X15521753Y-13351079D01*
X15521753Y-13351079D02*
X15521753Y-13370127D01*
X15521753Y-13370127D02*
X15512230Y-13398698D01*
X15512230Y-13398698D02*
X15397944Y-13512984D01*
X15397944Y-13512984D02*
X15521753Y-13512984D01*
X15750325Y-13503460D02*
X15769373Y-13512984D01*
X15769373Y-13512984D02*
X15807468Y-13512984D01*
X15807468Y-13512984D02*
X15826515Y-13503460D01*
X15826515Y-13503460D02*
X15836039Y-13484412D01*
X15836039Y-13484412D02*
X15836039Y-13474888D01*
X15836039Y-13474888D02*
X15826515Y-13455841D01*
X15826515Y-13455841D02*
X15807468Y-13446317D01*
X15807468Y-13446317D02*
X15778896Y-13446317D01*
X15778896Y-13446317D02*
X15759849Y-13436793D01*
X15759849Y-13436793D02*
X15750325Y-13417746D01*
X15750325Y-13417746D02*
X15750325Y-13408222D01*
X15750325Y-13408222D02*
X15759849Y-13389174D01*
X15759849Y-13389174D02*
X15778896Y-13379650D01*
X15778896Y-13379650D02*
X15807468Y-13379650D01*
X15807468Y-13379650D02*
X15826515Y-13389174D01*
X15950325Y-13512984D02*
X15931277Y-13503460D01*
X15931277Y-13503460D02*
X15921754Y-13484412D01*
X15921754Y-13484412D02*
X15921754Y-13312984D01*
X16055087Y-13512984D02*
X16036039Y-13503460D01*
X16036039Y-13503460D02*
X16026515Y-13493936D01*
X16026515Y-13493936D02*
X16016992Y-13474888D01*
X16016992Y-13474888D02*
X16016992Y-13417746D01*
X16016992Y-13417746D02*
X16026515Y-13398698D01*
X16026515Y-13398698D02*
X16036039Y-13389174D01*
X16036039Y-13389174D02*
X16055087Y-13379650D01*
X16055087Y-13379650D02*
X16083658Y-13379650D01*
X16083658Y-13379650D02*
X16102706Y-13389174D01*
X16102706Y-13389174D02*
X16112230Y-13398698D01*
X16112230Y-13398698D02*
X16121754Y-13417746D01*
X16121754Y-13417746D02*
X16121754Y-13474888D01*
X16121754Y-13474888D02*
X16112230Y-13493936D01*
X16112230Y-13493936D02*
X16102706Y-13503460D01*
X16102706Y-13503460D02*
X16083658Y-13512984D01*
X16083658Y-13512984D02*
X16055087Y-13512984D01*
X16178896Y-13379650D02*
X16255087Y-13379650D01*
X16207468Y-13312984D02*
X16207468Y-13484412D01*
X16207468Y-13484412D02*
X16216992Y-13503460D01*
X16216992Y-13503460D02*
X16236039Y-13512984D01*
X16236039Y-13512984D02*
X16255087Y-13512984D01*
X16312230Y-13503460D02*
X16331277Y-13512984D01*
X16331277Y-13512984D02*
X16369373Y-13512984D01*
X16369373Y-13512984D02*
X16388420Y-13503460D01*
X16388420Y-13503460D02*
X16397944Y-13484412D01*
X16397944Y-13484412D02*
X16397944Y-13474888D01*
X16397944Y-13474888D02*
X16388420Y-13455841D01*
X16388420Y-13455841D02*
X16369373Y-13446317D01*
X16369373Y-13446317D02*
X16340801Y-13446317D01*
X16340801Y-13446317D02*
X16321754Y-13436793D01*
X16321754Y-13436793D02*
X16312230Y-13417746D01*
X16312230Y-13417746D02*
X16312230Y-13408222D01*
X16312230Y-13408222D02*
X16321754Y-13389174D01*
X16321754Y-13389174D02*
X16340801Y-13379650D01*
X16340801Y-13379650D02*
X16369373Y-13379650D01*
X16369373Y-13379650D02*
X16388420Y-13389174D01*
X16464611Y-13589174D02*
X16474135Y-13579650D01*
X16474135Y-13579650D02*
X16493182Y-13551079D01*
X16493182Y-13551079D02*
X16502706Y-13532031D01*
X16502706Y-13532031D02*
X16512230Y-13503460D01*
X16512230Y-13503460D02*
X16521754Y-13455841D01*
X16521754Y-13455841D02*
X16521754Y-13417746D01*
X16521754Y-13417746D02*
X16512230Y-13370127D01*
X16512230Y-13370127D02*
X16502706Y-13341555D01*
X16502706Y-13341555D02*
X16493182Y-13322508D01*
X16493182Y-13322508D02*
X16474135Y-13293936D01*
X16474135Y-13293936D02*
X16464611Y-13284412D01*
D12*
X10040500Y-13655500D02*
X10040500Y-13715500D01*
X10010500Y-13685500D02*
X10070500Y-13685500D01*
D11*
X10369372Y-13576984D02*
X10388420Y-13576984D01*
X10388420Y-13576984D02*
X10407467Y-13586508D01*
X10407467Y-13586508D02*
X10416991Y-13596031D01*
X10416991Y-13596031D02*
X10426515Y-13615079D01*
X10426515Y-13615079D02*
X10436039Y-13653174D01*
X10436039Y-13653174D02*
X10436039Y-13700793D01*
X10436039Y-13700793D02*
X10426515Y-13738888D01*
X10426515Y-13738888D02*
X10416991Y-13757936D01*
X10416991Y-13757936D02*
X10407467Y-13767460D01*
X10407467Y-13767460D02*
X10388420Y-13776984D01*
X10388420Y-13776984D02*
X10369372Y-13776984D01*
X10369372Y-13776984D02*
X10350324Y-13767460D01*
X10350324Y-13767460D02*
X10340801Y-13757936D01*
X10340801Y-13757936D02*
X10331277Y-13738888D01*
X10331277Y-13738888D02*
X10321753Y-13700793D01*
X10321753Y-13700793D02*
X10321753Y-13653174D01*
X10321753Y-13653174D02*
X10331277Y-13615079D01*
X10331277Y-13615079D02*
X10340801Y-13596031D01*
X10340801Y-13596031D02*
X10350324Y-13586508D01*
X10350324Y-13586508D02*
X10369372Y-13576984D01*
X10521753Y-13757936D02*
X10531277Y-13767460D01*
X10531277Y-13767460D02*
X10521753Y-13776984D01*
X10521753Y-13776984D02*
X10512229Y-13767460D01*
X10512229Y-13767460D02*
X10521753Y-13757936D01*
X10521753Y-13757936D02*
X10521753Y-13776984D01*
X10702705Y-13576984D02*
X10664610Y-13576984D01*
X10664610Y-13576984D02*
X10645563Y-13586508D01*
X10645563Y-13586508D02*
X10636039Y-13596031D01*
X10636039Y-13596031D02*
X10616991Y-13624603D01*
X10616991Y-13624603D02*
X10607467Y-13662698D01*
X10607467Y-13662698D02*
X10607467Y-13738888D01*
X10607467Y-13738888D02*
X10616991Y-13757936D01*
X10616991Y-13757936D02*
X10626515Y-13767460D01*
X10626515Y-13767460D02*
X10645563Y-13776984D01*
X10645563Y-13776984D02*
X10683658Y-13776984D01*
X10683658Y-13776984D02*
X10702705Y-13767460D01*
X10702705Y-13767460D02*
X10712229Y-13757936D01*
X10712229Y-13757936D02*
X10721753Y-13738888D01*
X10721753Y-13738888D02*
X10721753Y-13691269D01*
X10721753Y-13691269D02*
X10712229Y-13672222D01*
X10712229Y-13672222D02*
X10702705Y-13662698D01*
X10702705Y-13662698D02*
X10683658Y-13653174D01*
X10683658Y-13653174D02*
X10645563Y-13653174D01*
X10645563Y-13653174D02*
X10626515Y-13662698D01*
X10626515Y-13662698D02*
X10616991Y-13672222D01*
X10616991Y-13672222D02*
X10607467Y-13691269D01*
X10845563Y-13576984D02*
X10864610Y-13576984D01*
X10864610Y-13576984D02*
X10883658Y-13586508D01*
X10883658Y-13586508D02*
X10893182Y-13596031D01*
X10893182Y-13596031D02*
X10902705Y-13615079D01*
X10902705Y-13615079D02*
X10912229Y-13653174D01*
X10912229Y-13653174D02*
X10912229Y-13700793D01*
X10912229Y-13700793D02*
X10902705Y-13738888D01*
X10902705Y-13738888D02*
X10893182Y-13757936D01*
X10893182Y-13757936D02*
X10883658Y-13767460D01*
X10883658Y-13767460D02*
X10864610Y-13776984D01*
X10864610Y-13776984D02*
X10845563Y-13776984D01*
X10845563Y-13776984D02*
X10826515Y-13767460D01*
X10826515Y-13767460D02*
X10816991Y-13757936D01*
X10816991Y-13757936D02*
X10807467Y-13738888D01*
X10807467Y-13738888D02*
X10797944Y-13700793D01*
X10797944Y-13700793D02*
X10797944Y-13653174D01*
X10797944Y-13653174D02*
X10807467Y-13615079D01*
X10807467Y-13615079D02*
X10816991Y-13596031D01*
X10816991Y-13596031D02*
X10826515Y-13586508D01*
X10826515Y-13586508D02*
X10845563Y-13576984D01*
X11036039Y-13576984D02*
X11055086Y-13576984D01*
X11055086Y-13576984D02*
X11074134Y-13586508D01*
X11074134Y-13586508D02*
X11083658Y-13596031D01*
X11083658Y-13596031D02*
X11093182Y-13615079D01*
X11093182Y-13615079D02*
X11102705Y-13653174D01*
X11102705Y-13653174D02*
X11102705Y-13700793D01*
X11102705Y-13700793D02*
X11093182Y-13738888D01*
X11093182Y-13738888D02*
X11083658Y-13757936D01*
X11083658Y-13757936D02*
X11074134Y-13767460D01*
X11074134Y-13767460D02*
X11055086Y-13776984D01*
X11055086Y-13776984D02*
X11036039Y-13776984D01*
X11036039Y-13776984D02*
X11016991Y-13767460D01*
X11016991Y-13767460D02*
X11007467Y-13757936D01*
X11007467Y-13757936D02*
X10997944Y-13738888D01*
X10997944Y-13738888D02*
X10988420Y-13700793D01*
X10988420Y-13700793D02*
X10988420Y-13653174D01*
X10988420Y-13653174D02*
X10997944Y-13615079D01*
X10997944Y-13615079D02*
X11007467Y-13596031D01*
X11007467Y-13596031D02*
X11016991Y-13586508D01*
X11016991Y-13586508D02*
X11036039Y-13576984D01*
X11188420Y-13776984D02*
X11188420Y-13643650D01*
X11188420Y-13662698D02*
X11197943Y-13653174D01*
X11197943Y-13653174D02*
X11216991Y-13643650D01*
X11216991Y-13643650D02*
X11245563Y-13643650D01*
X11245563Y-13643650D02*
X11264610Y-13653174D01*
X11264610Y-13653174D02*
X11274134Y-13672222D01*
X11274134Y-13672222D02*
X11274134Y-13776984D01*
X11274134Y-13672222D02*
X11283658Y-13653174D01*
X11283658Y-13653174D02*
X11302705Y-13643650D01*
X11302705Y-13643650D02*
X11331277Y-13643650D01*
X11331277Y-13643650D02*
X11350324Y-13653174D01*
X11350324Y-13653174D02*
X11359848Y-13672222D01*
X11359848Y-13672222D02*
X11359848Y-13776984D01*
X11455086Y-13776984D02*
X11455086Y-13643650D01*
X11455086Y-13662698D02*
X11464610Y-13653174D01*
X11464610Y-13653174D02*
X11483658Y-13643650D01*
X11483658Y-13643650D02*
X11512229Y-13643650D01*
X11512229Y-13643650D02*
X11531277Y-13653174D01*
X11531277Y-13653174D02*
X11540801Y-13672222D01*
X11540801Y-13672222D02*
X11540801Y-13776984D01*
X11540801Y-13672222D02*
X11550324Y-13653174D01*
X11550324Y-13653174D02*
X11569372Y-13643650D01*
X11569372Y-13643650D02*
X11597943Y-13643650D01*
X11597943Y-13643650D02*
X11616991Y-13653174D01*
X11616991Y-13653174D02*
X11626515Y-13672222D01*
X11626515Y-13672222D02*
X11626515Y-13776984D01*
X12016991Y-13567460D02*
X11845563Y-13824603D01*
X12274134Y-13576984D02*
X12293182Y-13576984D01*
X12293182Y-13576984D02*
X12312229Y-13586508D01*
X12312229Y-13586508D02*
X12321753Y-13596031D01*
X12321753Y-13596031D02*
X12331277Y-13615079D01*
X12331277Y-13615079D02*
X12340801Y-13653174D01*
X12340801Y-13653174D02*
X12340801Y-13700793D01*
X12340801Y-13700793D02*
X12331277Y-13738888D01*
X12331277Y-13738888D02*
X12321753Y-13757936D01*
X12321753Y-13757936D02*
X12312229Y-13767460D01*
X12312229Y-13767460D02*
X12293182Y-13776984D01*
X12293182Y-13776984D02*
X12274134Y-13776984D01*
X12274134Y-13776984D02*
X12255086Y-13767460D01*
X12255086Y-13767460D02*
X12245563Y-13757936D01*
X12245563Y-13757936D02*
X12236039Y-13738888D01*
X12236039Y-13738888D02*
X12226515Y-13700793D01*
X12226515Y-13700793D02*
X12226515Y-13653174D01*
X12226515Y-13653174D02*
X12236039Y-13615079D01*
X12236039Y-13615079D02*
X12245563Y-13596031D01*
X12245563Y-13596031D02*
X12255086Y-13586508D01*
X12255086Y-13586508D02*
X12274134Y-13576984D01*
X12426515Y-13757936D02*
X12436039Y-13767460D01*
X12436039Y-13767460D02*
X12426515Y-13776984D01*
X12426515Y-13776984D02*
X12416991Y-13767460D01*
X12416991Y-13767460D02*
X12426515Y-13757936D01*
X12426515Y-13757936D02*
X12426515Y-13776984D01*
X12559848Y-13576984D02*
X12578896Y-13576984D01*
X12578896Y-13576984D02*
X12597944Y-13586508D01*
X12597944Y-13586508D02*
X12607467Y-13596031D01*
X12607467Y-13596031D02*
X12616991Y-13615079D01*
X12616991Y-13615079D02*
X12626515Y-13653174D01*
X12626515Y-13653174D02*
X12626515Y-13700793D01*
X12626515Y-13700793D02*
X12616991Y-13738888D01*
X12616991Y-13738888D02*
X12607467Y-13757936D01*
X12607467Y-13757936D02*
X12597944Y-13767460D01*
X12597944Y-13767460D02*
X12578896Y-13776984D01*
X12578896Y-13776984D02*
X12559848Y-13776984D01*
X12559848Y-13776984D02*
X12540801Y-13767460D01*
X12540801Y-13767460D02*
X12531277Y-13757936D01*
X12531277Y-13757936D02*
X12521753Y-13738888D01*
X12521753Y-13738888D02*
X12512229Y-13700793D01*
X12512229Y-13700793D02*
X12512229Y-13653174D01*
X12512229Y-13653174D02*
X12521753Y-13615079D01*
X12521753Y-13615079D02*
X12531277Y-13596031D01*
X12531277Y-13596031D02*
X12540801Y-13586508D01*
X12540801Y-13586508D02*
X12559848Y-13576984D01*
X12702706Y-13596031D02*
X12712229Y-13586508D01*
X12712229Y-13586508D02*
X12731277Y-13576984D01*
X12731277Y-13576984D02*
X12778896Y-13576984D01*
X12778896Y-13576984D02*
X12797944Y-13586508D01*
X12797944Y-13586508D02*
X12807467Y-13596031D01*
X12807467Y-13596031D02*
X12816991Y-13615079D01*
X12816991Y-13615079D02*
X12816991Y-13634127D01*
X12816991Y-13634127D02*
X12807467Y-13662698D01*
X12807467Y-13662698D02*
X12693182Y-13776984D01*
X12693182Y-13776984D02*
X12816991Y-13776984D01*
X12883658Y-13576984D02*
X13007467Y-13576984D01*
X13007467Y-13576984D02*
X12940801Y-13653174D01*
X12940801Y-13653174D02*
X12969372Y-13653174D01*
X12969372Y-13653174D02*
X12988420Y-13662698D01*
X12988420Y-13662698D02*
X12997944Y-13672222D01*
X12997944Y-13672222D02*
X13007467Y-13691269D01*
X13007467Y-13691269D02*
X13007467Y-13738888D01*
X13007467Y-13738888D02*
X12997944Y-13757936D01*
X12997944Y-13757936D02*
X12988420Y-13767460D01*
X12988420Y-13767460D02*
X12969372Y-13776984D01*
X12969372Y-13776984D02*
X12912229Y-13776984D01*
X12912229Y-13776984D02*
X12893182Y-13767460D01*
X12893182Y-13767460D02*
X12883658Y-13757936D01*
X13178896Y-13576984D02*
X13140801Y-13576984D01*
X13140801Y-13576984D02*
X13121753Y-13586508D01*
X13121753Y-13586508D02*
X13112229Y-13596031D01*
X13112229Y-13596031D02*
X13093182Y-13624603D01*
X13093182Y-13624603D02*
X13083658Y-13662698D01*
X13083658Y-13662698D02*
X13083658Y-13738888D01*
X13083658Y-13738888D02*
X13093182Y-13757936D01*
X13093182Y-13757936D02*
X13102706Y-13767460D01*
X13102706Y-13767460D02*
X13121753Y-13776984D01*
X13121753Y-13776984D02*
X13159848Y-13776984D01*
X13159848Y-13776984D02*
X13178896Y-13767460D01*
X13178896Y-13767460D02*
X13188420Y-13757936D01*
X13188420Y-13757936D02*
X13197944Y-13738888D01*
X13197944Y-13738888D02*
X13197944Y-13691269D01*
X13197944Y-13691269D02*
X13188420Y-13672222D01*
X13188420Y-13672222D02*
X13178896Y-13662698D01*
X13178896Y-13662698D02*
X13159848Y-13653174D01*
X13159848Y-13653174D02*
X13121753Y-13653174D01*
X13121753Y-13653174D02*
X13102706Y-13662698D01*
X13102706Y-13662698D02*
X13093182Y-13672222D01*
X13093182Y-13672222D02*
X13083658Y-13691269D01*
X13274134Y-13576984D02*
X13274134Y-13615079D01*
X13350325Y-13576984D02*
X13350325Y-13615079D01*
X13645563Y-13853174D02*
X13636039Y-13843650D01*
X13636039Y-13843650D02*
X13616991Y-13815079D01*
X13616991Y-13815079D02*
X13607468Y-13796031D01*
X13607468Y-13796031D02*
X13597944Y-13767460D01*
X13597944Y-13767460D02*
X13588420Y-13719841D01*
X13588420Y-13719841D02*
X13588420Y-13681746D01*
X13588420Y-13681746D02*
X13597944Y-13634127D01*
X13597944Y-13634127D02*
X13607468Y-13605555D01*
X13607468Y-13605555D02*
X13616991Y-13586508D01*
X13616991Y-13586508D02*
X13636039Y-13557936D01*
X13636039Y-13557936D02*
X13645563Y-13548412D01*
X13759848Y-13576984D02*
X13778896Y-13576984D01*
X13778896Y-13576984D02*
X13797944Y-13586508D01*
X13797944Y-13586508D02*
X13807468Y-13596031D01*
X13807468Y-13596031D02*
X13816991Y-13615079D01*
X13816991Y-13615079D02*
X13826515Y-13653174D01*
X13826515Y-13653174D02*
X13826515Y-13700793D01*
X13826515Y-13700793D02*
X13816991Y-13738888D01*
X13816991Y-13738888D02*
X13807468Y-13757936D01*
X13807468Y-13757936D02*
X13797944Y-13767460D01*
X13797944Y-13767460D02*
X13778896Y-13776984D01*
X13778896Y-13776984D02*
X13759848Y-13776984D01*
X13759848Y-13776984D02*
X13740801Y-13767460D01*
X13740801Y-13767460D02*
X13731277Y-13757936D01*
X13731277Y-13757936D02*
X13721753Y-13738888D01*
X13721753Y-13738888D02*
X13712229Y-13700793D01*
X13712229Y-13700793D02*
X13712229Y-13653174D01*
X13712229Y-13653174D02*
X13721753Y-13615079D01*
X13721753Y-13615079D02*
X13731277Y-13596031D01*
X13731277Y-13596031D02*
X13740801Y-13586508D01*
X13740801Y-13586508D02*
X13759848Y-13576984D01*
X14064610Y-13776984D02*
X14064610Y-13576984D01*
X14150325Y-13776984D02*
X14150325Y-13672222D01*
X14150325Y-13672222D02*
X14140801Y-13653174D01*
X14140801Y-13653174D02*
X14121753Y-13643650D01*
X14121753Y-13643650D02*
X14093182Y-13643650D01*
X14093182Y-13643650D02*
X14074134Y-13653174D01*
X14074134Y-13653174D02*
X14064610Y-13662698D01*
X14274134Y-13776984D02*
X14255087Y-13767460D01*
X14255087Y-13767460D02*
X14245563Y-13757936D01*
X14245563Y-13757936D02*
X14236039Y-13738888D01*
X14236039Y-13738888D02*
X14236039Y-13681746D01*
X14236039Y-13681746D02*
X14245563Y-13662698D01*
X14245563Y-13662698D02*
X14255087Y-13653174D01*
X14255087Y-13653174D02*
X14274134Y-13643650D01*
X14274134Y-13643650D02*
X14302706Y-13643650D01*
X14302706Y-13643650D02*
X14321753Y-13653174D01*
X14321753Y-13653174D02*
X14331277Y-13662698D01*
X14331277Y-13662698D02*
X14340801Y-13681746D01*
X14340801Y-13681746D02*
X14340801Y-13738888D01*
X14340801Y-13738888D02*
X14331277Y-13757936D01*
X14331277Y-13757936D02*
X14321753Y-13767460D01*
X14321753Y-13767460D02*
X14302706Y-13776984D01*
X14302706Y-13776984D02*
X14274134Y-13776984D01*
X14455087Y-13776984D02*
X14436039Y-13767460D01*
X14436039Y-13767460D02*
X14426515Y-13748412D01*
X14426515Y-13748412D02*
X14426515Y-13576984D01*
X14607468Y-13767460D02*
X14588420Y-13776984D01*
X14588420Y-13776984D02*
X14550325Y-13776984D01*
X14550325Y-13776984D02*
X14531277Y-13767460D01*
X14531277Y-13767460D02*
X14521753Y-13748412D01*
X14521753Y-13748412D02*
X14521753Y-13672222D01*
X14521753Y-13672222D02*
X14531277Y-13653174D01*
X14531277Y-13653174D02*
X14550325Y-13643650D01*
X14550325Y-13643650D02*
X14588420Y-13643650D01*
X14588420Y-13643650D02*
X14607468Y-13653174D01*
X14607468Y-13653174D02*
X14616991Y-13672222D01*
X14616991Y-13672222D02*
X14616991Y-13691269D01*
X14616991Y-13691269D02*
X14521753Y-13710317D01*
X14693182Y-13767460D02*
X14712230Y-13776984D01*
X14712230Y-13776984D02*
X14750325Y-13776984D01*
X14750325Y-13776984D02*
X14769372Y-13767460D01*
X14769372Y-13767460D02*
X14778896Y-13748412D01*
X14778896Y-13748412D02*
X14778896Y-13738888D01*
X14778896Y-13738888D02*
X14769372Y-13719841D01*
X14769372Y-13719841D02*
X14750325Y-13710317D01*
X14750325Y-13710317D02*
X14721753Y-13710317D01*
X14721753Y-13710317D02*
X14702706Y-13700793D01*
X14702706Y-13700793D02*
X14693182Y-13681746D01*
X14693182Y-13681746D02*
X14693182Y-13672222D01*
X14693182Y-13672222D02*
X14702706Y-13653174D01*
X14702706Y-13653174D02*
X14721753Y-13643650D01*
X14721753Y-13643650D02*
X14750325Y-13643650D01*
X14750325Y-13643650D02*
X14769372Y-13653174D01*
X15016992Y-13700793D02*
X15169373Y-13700793D01*
X15093182Y-13776984D02*
X15093182Y-13624603D01*
X15502706Y-13643650D02*
X15502706Y-13776984D01*
X15455087Y-13567460D02*
X15407468Y-13710317D01*
X15407468Y-13710317D02*
X15531277Y-13710317D01*
X15750325Y-13767460D02*
X15769373Y-13776984D01*
X15769373Y-13776984D02*
X15807468Y-13776984D01*
X15807468Y-13776984D02*
X15826515Y-13767460D01*
X15826515Y-13767460D02*
X15836039Y-13748412D01*
X15836039Y-13748412D02*
X15836039Y-13738888D01*
X15836039Y-13738888D02*
X15826515Y-13719841D01*
X15826515Y-13719841D02*
X15807468Y-13710317D01*
X15807468Y-13710317D02*
X15778896Y-13710317D01*
X15778896Y-13710317D02*
X15759849Y-13700793D01*
X15759849Y-13700793D02*
X15750325Y-13681746D01*
X15750325Y-13681746D02*
X15750325Y-13672222D01*
X15750325Y-13672222D02*
X15759849Y-13653174D01*
X15759849Y-13653174D02*
X15778896Y-13643650D01*
X15778896Y-13643650D02*
X15807468Y-13643650D01*
X15807468Y-13643650D02*
X15826515Y-13653174D01*
X15950325Y-13776984D02*
X15931277Y-13767460D01*
X15931277Y-13767460D02*
X15921754Y-13748412D01*
X15921754Y-13748412D02*
X15921754Y-13576984D01*
X16055087Y-13776984D02*
X16036039Y-13767460D01*
X16036039Y-13767460D02*
X16026515Y-13757936D01*
X16026515Y-13757936D02*
X16016992Y-13738888D01*
X16016992Y-13738888D02*
X16016992Y-13681746D01*
X16016992Y-13681746D02*
X16026515Y-13662698D01*
X16026515Y-13662698D02*
X16036039Y-13653174D01*
X16036039Y-13653174D02*
X16055087Y-13643650D01*
X16055087Y-13643650D02*
X16083658Y-13643650D01*
X16083658Y-13643650D02*
X16102706Y-13653174D01*
X16102706Y-13653174D02*
X16112230Y-13662698D01*
X16112230Y-13662698D02*
X16121754Y-13681746D01*
X16121754Y-13681746D02*
X16121754Y-13738888D01*
X16121754Y-13738888D02*
X16112230Y-13757936D01*
X16112230Y-13757936D02*
X16102706Y-13767460D01*
X16102706Y-13767460D02*
X16083658Y-13776984D01*
X16083658Y-13776984D02*
X16055087Y-13776984D01*
X16178896Y-13643650D02*
X16255087Y-13643650D01*
X16207468Y-13576984D02*
X16207468Y-13748412D01*
X16207468Y-13748412D02*
X16216992Y-13767460D01*
X16216992Y-13767460D02*
X16236039Y-13776984D01*
X16236039Y-13776984D02*
X16255087Y-13776984D01*
X16312230Y-13767460D02*
X16331277Y-13776984D01*
X16331277Y-13776984D02*
X16369373Y-13776984D01*
X16369373Y-13776984D02*
X16388420Y-13767460D01*
X16388420Y-13767460D02*
X16397944Y-13748412D01*
X16397944Y-13748412D02*
X16397944Y-13738888D01*
X16397944Y-13738888D02*
X16388420Y-13719841D01*
X16388420Y-13719841D02*
X16369373Y-13710317D01*
X16369373Y-13710317D02*
X16340801Y-13710317D01*
X16340801Y-13710317D02*
X16321754Y-13700793D01*
X16321754Y-13700793D02*
X16312230Y-13681746D01*
X16312230Y-13681746D02*
X16312230Y-13672222D01*
X16312230Y-13672222D02*
X16321754Y-13653174D01*
X16321754Y-13653174D02*
X16340801Y-13643650D01*
X16340801Y-13643650D02*
X16369373Y-13643650D01*
X16369373Y-13643650D02*
X16388420Y-13653174D01*
X16464611Y-13853174D02*
X16474135Y-13843650D01*
X16474135Y-13843650D02*
X16493182Y-13815079D01*
X16493182Y-13815079D02*
X16502706Y-13796031D01*
X16502706Y-13796031D02*
X16512230Y-13767460D01*
X16512230Y-13767460D02*
X16521754Y-13719841D01*
X16521754Y-13719841D02*
X16521754Y-13681746D01*
X16521754Y-13681746D02*
X16512230Y-13634127D01*
X16512230Y-13634127D02*
X16502706Y-13605555D01*
X16502706Y-13605555D02*
X16493182Y-13586508D01*
X16493182Y-13586508D02*
X16474135Y-13557936D01*
X16474135Y-13557936D02*
X16464611Y-13548412D01*
D12*
X10060249Y-13974249D02*
X10060249Y-13924751D01*
X10010751Y-13924751D01*
X10010751Y-13974249D01*
X10060249Y-13974249D01*
D11*
X10369372Y-13840984D02*
X10388420Y-13840984D01*
X10388420Y-13840984D02*
X10407467Y-13850508D01*
X10407467Y-13850508D02*
X10416991Y-13860031D01*
X10416991Y-13860031D02*
X10426515Y-13879079D01*
X10426515Y-13879079D02*
X10436039Y-13917174D01*
X10436039Y-13917174D02*
X10436039Y-13964793D01*
X10436039Y-13964793D02*
X10426515Y-14002888D01*
X10426515Y-14002888D02*
X10416991Y-14021936D01*
X10416991Y-14021936D02*
X10407467Y-14031460D01*
X10407467Y-14031460D02*
X10388420Y-14040984D01*
X10388420Y-14040984D02*
X10369372Y-14040984D01*
X10369372Y-14040984D02*
X10350324Y-14031460D01*
X10350324Y-14031460D02*
X10340801Y-14021936D01*
X10340801Y-14021936D02*
X10331277Y-14002888D01*
X10331277Y-14002888D02*
X10321753Y-13964793D01*
X10321753Y-13964793D02*
X10321753Y-13917174D01*
X10321753Y-13917174D02*
X10331277Y-13879079D01*
X10331277Y-13879079D02*
X10340801Y-13860031D01*
X10340801Y-13860031D02*
X10350324Y-13850508D01*
X10350324Y-13850508D02*
X10369372Y-13840984D01*
X10521753Y-14021936D02*
X10531277Y-14031460D01*
X10531277Y-14031460D02*
X10521753Y-14040984D01*
X10521753Y-14040984D02*
X10512229Y-14031460D01*
X10512229Y-14031460D02*
X10521753Y-14021936D01*
X10521753Y-14021936D02*
X10521753Y-14040984D01*
X10597944Y-13840984D02*
X10731277Y-13840984D01*
X10731277Y-13840984D02*
X10645563Y-14040984D01*
X10845563Y-13840984D02*
X10864610Y-13840984D01*
X10864610Y-13840984D02*
X10883658Y-13850508D01*
X10883658Y-13850508D02*
X10893182Y-13860031D01*
X10893182Y-13860031D02*
X10902705Y-13879079D01*
X10902705Y-13879079D02*
X10912229Y-13917174D01*
X10912229Y-13917174D02*
X10912229Y-13964793D01*
X10912229Y-13964793D02*
X10902705Y-14002888D01*
X10902705Y-14002888D02*
X10893182Y-14021936D01*
X10893182Y-14021936D02*
X10883658Y-14031460D01*
X10883658Y-14031460D02*
X10864610Y-14040984D01*
X10864610Y-14040984D02*
X10845563Y-14040984D01*
X10845563Y-14040984D02*
X10826515Y-14031460D01*
X10826515Y-14031460D02*
X10816991Y-14021936D01*
X10816991Y-14021936D02*
X10807467Y-14002888D01*
X10807467Y-14002888D02*
X10797944Y-13964793D01*
X10797944Y-13964793D02*
X10797944Y-13917174D01*
X10797944Y-13917174D02*
X10807467Y-13879079D01*
X10807467Y-13879079D02*
X10816991Y-13860031D01*
X10816991Y-13860031D02*
X10826515Y-13850508D01*
X10826515Y-13850508D02*
X10845563Y-13840984D01*
X11036039Y-13840984D02*
X11055086Y-13840984D01*
X11055086Y-13840984D02*
X11074134Y-13850508D01*
X11074134Y-13850508D02*
X11083658Y-13860031D01*
X11083658Y-13860031D02*
X11093182Y-13879079D01*
X11093182Y-13879079D02*
X11102705Y-13917174D01*
X11102705Y-13917174D02*
X11102705Y-13964793D01*
X11102705Y-13964793D02*
X11093182Y-14002888D01*
X11093182Y-14002888D02*
X11083658Y-14021936D01*
X11083658Y-14021936D02*
X11074134Y-14031460D01*
X11074134Y-14031460D02*
X11055086Y-14040984D01*
X11055086Y-14040984D02*
X11036039Y-14040984D01*
X11036039Y-14040984D02*
X11016991Y-14031460D01*
X11016991Y-14031460D02*
X11007467Y-14021936D01*
X11007467Y-14021936D02*
X10997944Y-14002888D01*
X10997944Y-14002888D02*
X10988420Y-13964793D01*
X10988420Y-13964793D02*
X10988420Y-13917174D01*
X10988420Y-13917174D02*
X10997944Y-13879079D01*
X10997944Y-13879079D02*
X11007467Y-13860031D01*
X11007467Y-13860031D02*
X11016991Y-13850508D01*
X11016991Y-13850508D02*
X11036039Y-13840984D01*
X11188420Y-14040984D02*
X11188420Y-13907650D01*
X11188420Y-13926698D02*
X11197943Y-13917174D01*
X11197943Y-13917174D02*
X11216991Y-13907650D01*
X11216991Y-13907650D02*
X11245563Y-13907650D01*
X11245563Y-13907650D02*
X11264610Y-13917174D01*
X11264610Y-13917174D02*
X11274134Y-13936222D01*
X11274134Y-13936222D02*
X11274134Y-14040984D01*
X11274134Y-13936222D02*
X11283658Y-13917174D01*
X11283658Y-13917174D02*
X11302705Y-13907650D01*
X11302705Y-13907650D02*
X11331277Y-13907650D01*
X11331277Y-13907650D02*
X11350324Y-13917174D01*
X11350324Y-13917174D02*
X11359848Y-13936222D01*
X11359848Y-13936222D02*
X11359848Y-14040984D01*
X11455086Y-14040984D02*
X11455086Y-13907650D01*
X11455086Y-13926698D02*
X11464610Y-13917174D01*
X11464610Y-13917174D02*
X11483658Y-13907650D01*
X11483658Y-13907650D02*
X11512229Y-13907650D01*
X11512229Y-13907650D02*
X11531277Y-13917174D01*
X11531277Y-13917174D02*
X11540801Y-13936222D01*
X11540801Y-13936222D02*
X11540801Y-14040984D01*
X11540801Y-13936222D02*
X11550324Y-13917174D01*
X11550324Y-13917174D02*
X11569372Y-13907650D01*
X11569372Y-13907650D02*
X11597943Y-13907650D01*
X11597943Y-13907650D02*
X11616991Y-13917174D01*
X11616991Y-13917174D02*
X11626515Y-13936222D01*
X11626515Y-13936222D02*
X11626515Y-14040984D01*
X12016991Y-13831460D02*
X11845563Y-14088603D01*
X12274134Y-13840984D02*
X12293182Y-13840984D01*
X12293182Y-13840984D02*
X12312229Y-13850508D01*
X12312229Y-13850508D02*
X12321753Y-13860031D01*
X12321753Y-13860031D02*
X12331277Y-13879079D01*
X12331277Y-13879079D02*
X12340801Y-13917174D01*
X12340801Y-13917174D02*
X12340801Y-13964793D01*
X12340801Y-13964793D02*
X12331277Y-14002888D01*
X12331277Y-14002888D02*
X12321753Y-14021936D01*
X12321753Y-14021936D02*
X12312229Y-14031460D01*
X12312229Y-14031460D02*
X12293182Y-14040984D01*
X12293182Y-14040984D02*
X12274134Y-14040984D01*
X12274134Y-14040984D02*
X12255086Y-14031460D01*
X12255086Y-14031460D02*
X12245563Y-14021936D01*
X12245563Y-14021936D02*
X12236039Y-14002888D01*
X12236039Y-14002888D02*
X12226515Y-13964793D01*
X12226515Y-13964793D02*
X12226515Y-13917174D01*
X12226515Y-13917174D02*
X12236039Y-13879079D01*
X12236039Y-13879079D02*
X12245563Y-13860031D01*
X12245563Y-13860031D02*
X12255086Y-13850508D01*
X12255086Y-13850508D02*
X12274134Y-13840984D01*
X12426515Y-14021936D02*
X12436039Y-14031460D01*
X12436039Y-14031460D02*
X12426515Y-14040984D01*
X12426515Y-14040984D02*
X12416991Y-14031460D01*
X12416991Y-14031460D02*
X12426515Y-14021936D01*
X12426515Y-14021936D02*
X12426515Y-14040984D01*
X12559848Y-13840984D02*
X12578896Y-13840984D01*
X12578896Y-13840984D02*
X12597944Y-13850508D01*
X12597944Y-13850508D02*
X12607467Y-13860031D01*
X12607467Y-13860031D02*
X12616991Y-13879079D01*
X12616991Y-13879079D02*
X12626515Y-13917174D01*
X12626515Y-13917174D02*
X12626515Y-13964793D01*
X12626515Y-13964793D02*
X12616991Y-14002888D01*
X12616991Y-14002888D02*
X12607467Y-14021936D01*
X12607467Y-14021936D02*
X12597944Y-14031460D01*
X12597944Y-14031460D02*
X12578896Y-14040984D01*
X12578896Y-14040984D02*
X12559848Y-14040984D01*
X12559848Y-14040984D02*
X12540801Y-14031460D01*
X12540801Y-14031460D02*
X12531277Y-14021936D01*
X12531277Y-14021936D02*
X12521753Y-14002888D01*
X12521753Y-14002888D02*
X12512229Y-13964793D01*
X12512229Y-13964793D02*
X12512229Y-13917174D01*
X12512229Y-13917174D02*
X12521753Y-13879079D01*
X12521753Y-13879079D02*
X12531277Y-13860031D01*
X12531277Y-13860031D02*
X12540801Y-13850508D01*
X12540801Y-13850508D02*
X12559848Y-13840984D01*
X12702706Y-13860031D02*
X12712229Y-13850508D01*
X12712229Y-13850508D02*
X12731277Y-13840984D01*
X12731277Y-13840984D02*
X12778896Y-13840984D01*
X12778896Y-13840984D02*
X12797944Y-13850508D01*
X12797944Y-13850508D02*
X12807467Y-13860031D01*
X12807467Y-13860031D02*
X12816991Y-13879079D01*
X12816991Y-13879079D02*
X12816991Y-13898127D01*
X12816991Y-13898127D02*
X12807467Y-13926698D01*
X12807467Y-13926698D02*
X12693182Y-14040984D01*
X12693182Y-14040984D02*
X12816991Y-14040984D01*
X12883658Y-13840984D02*
X13016991Y-13840984D01*
X13016991Y-13840984D02*
X12931277Y-14040984D01*
X13178896Y-13840984D02*
X13140801Y-13840984D01*
X13140801Y-13840984D02*
X13121753Y-13850508D01*
X13121753Y-13850508D02*
X13112229Y-13860031D01*
X13112229Y-13860031D02*
X13093182Y-13888603D01*
X13093182Y-13888603D02*
X13083658Y-13926698D01*
X13083658Y-13926698D02*
X13083658Y-14002888D01*
X13083658Y-14002888D02*
X13093182Y-14021936D01*
X13093182Y-14021936D02*
X13102706Y-14031460D01*
X13102706Y-14031460D02*
X13121753Y-14040984D01*
X13121753Y-14040984D02*
X13159848Y-14040984D01*
X13159848Y-14040984D02*
X13178896Y-14031460D01*
X13178896Y-14031460D02*
X13188420Y-14021936D01*
X13188420Y-14021936D02*
X13197944Y-14002888D01*
X13197944Y-14002888D02*
X13197944Y-13955269D01*
X13197944Y-13955269D02*
X13188420Y-13936222D01*
X13188420Y-13936222D02*
X13178896Y-13926698D01*
X13178896Y-13926698D02*
X13159848Y-13917174D01*
X13159848Y-13917174D02*
X13121753Y-13917174D01*
X13121753Y-13917174D02*
X13102706Y-13926698D01*
X13102706Y-13926698D02*
X13093182Y-13936222D01*
X13093182Y-13936222D02*
X13083658Y-13955269D01*
X13274134Y-13840984D02*
X13274134Y-13879079D01*
X13350325Y-13840984D02*
X13350325Y-13879079D01*
X13645563Y-14117174D02*
X13636039Y-14107650D01*
X13636039Y-14107650D02*
X13616991Y-14079079D01*
X13616991Y-14079079D02*
X13607468Y-14060031D01*
X13607468Y-14060031D02*
X13597944Y-14031460D01*
X13597944Y-14031460D02*
X13588420Y-13983841D01*
X13588420Y-13983841D02*
X13588420Y-13945746D01*
X13588420Y-13945746D02*
X13597944Y-13898127D01*
X13597944Y-13898127D02*
X13607468Y-13869555D01*
X13607468Y-13869555D02*
X13616991Y-13850508D01*
X13616991Y-13850508D02*
X13636039Y-13821936D01*
X13636039Y-13821936D02*
X13645563Y-13812412D01*
X13712229Y-13860031D02*
X13721753Y-13850508D01*
X13721753Y-13850508D02*
X13740801Y-13840984D01*
X13740801Y-13840984D02*
X13788420Y-13840984D01*
X13788420Y-13840984D02*
X13807468Y-13850508D01*
X13807468Y-13850508D02*
X13816991Y-13860031D01*
X13816991Y-13860031D02*
X13826515Y-13879079D01*
X13826515Y-13879079D02*
X13826515Y-13898127D01*
X13826515Y-13898127D02*
X13816991Y-13926698D01*
X13816991Y-13926698D02*
X13702706Y-14040984D01*
X13702706Y-14040984D02*
X13826515Y-14040984D01*
X14064610Y-14040984D02*
X14064610Y-13840984D01*
X14150325Y-14040984D02*
X14150325Y-13936222D01*
X14150325Y-13936222D02*
X14140801Y-13917174D01*
X14140801Y-13917174D02*
X14121753Y-13907650D01*
X14121753Y-13907650D02*
X14093182Y-13907650D01*
X14093182Y-13907650D02*
X14074134Y-13917174D01*
X14074134Y-13917174D02*
X14064610Y-13926698D01*
X14274134Y-14040984D02*
X14255087Y-14031460D01*
X14255087Y-14031460D02*
X14245563Y-14021936D01*
X14245563Y-14021936D02*
X14236039Y-14002888D01*
X14236039Y-14002888D02*
X14236039Y-13945746D01*
X14236039Y-13945746D02*
X14245563Y-13926698D01*
X14245563Y-13926698D02*
X14255087Y-13917174D01*
X14255087Y-13917174D02*
X14274134Y-13907650D01*
X14274134Y-13907650D02*
X14302706Y-13907650D01*
X14302706Y-13907650D02*
X14321753Y-13917174D01*
X14321753Y-13917174D02*
X14331277Y-13926698D01*
X14331277Y-13926698D02*
X14340801Y-13945746D01*
X14340801Y-13945746D02*
X14340801Y-14002888D01*
X14340801Y-14002888D02*
X14331277Y-14021936D01*
X14331277Y-14021936D02*
X14321753Y-14031460D01*
X14321753Y-14031460D02*
X14302706Y-14040984D01*
X14302706Y-14040984D02*
X14274134Y-14040984D01*
X14455087Y-14040984D02*
X14436039Y-14031460D01*
X14436039Y-14031460D02*
X14426515Y-14012412D01*
X14426515Y-14012412D02*
X14426515Y-13840984D01*
X14607468Y-14031460D02*
X14588420Y-14040984D01*
X14588420Y-14040984D02*
X14550325Y-14040984D01*
X14550325Y-14040984D02*
X14531277Y-14031460D01*
X14531277Y-14031460D02*
X14521753Y-14012412D01*
X14521753Y-14012412D02*
X14521753Y-13936222D01*
X14521753Y-13936222D02*
X14531277Y-13917174D01*
X14531277Y-13917174D02*
X14550325Y-13907650D01*
X14550325Y-13907650D02*
X14588420Y-13907650D01*
X14588420Y-13907650D02*
X14607468Y-13917174D01*
X14607468Y-13917174D02*
X14616991Y-13936222D01*
X14616991Y-13936222D02*
X14616991Y-13955269D01*
X14616991Y-13955269D02*
X14521753Y-13974317D01*
X14693182Y-14031460D02*
X14712230Y-14040984D01*
X14712230Y-14040984D02*
X14750325Y-14040984D01*
X14750325Y-14040984D02*
X14769372Y-14031460D01*
X14769372Y-14031460D02*
X14778896Y-14012412D01*
X14778896Y-14012412D02*
X14778896Y-14002888D01*
X14778896Y-14002888D02*
X14769372Y-13983841D01*
X14769372Y-13983841D02*
X14750325Y-13974317D01*
X14750325Y-13974317D02*
X14721753Y-13974317D01*
X14721753Y-13974317D02*
X14702706Y-13964793D01*
X14702706Y-13964793D02*
X14693182Y-13945746D01*
X14693182Y-13945746D02*
X14693182Y-13936222D01*
X14693182Y-13936222D02*
X14702706Y-13917174D01*
X14702706Y-13917174D02*
X14721753Y-13907650D01*
X14721753Y-13907650D02*
X14750325Y-13907650D01*
X14750325Y-13907650D02*
X14769372Y-13917174D01*
X14845563Y-14117174D02*
X14855087Y-14107650D01*
X14855087Y-14107650D02*
X14874134Y-14079079D01*
X14874134Y-14079079D02*
X14883658Y-14060031D01*
X14883658Y-14060031D02*
X14893182Y-14031460D01*
X14893182Y-14031460D02*
X14902706Y-13983841D01*
X14902706Y-13983841D02*
X14902706Y-13945746D01*
X14902706Y-13945746D02*
X14893182Y-13898127D01*
X14893182Y-13898127D02*
X14883658Y-13869555D01*
X14883658Y-13869555D02*
X14874134Y-13850508D01*
X14874134Y-13850508D02*
X14855087Y-13821936D01*
X14855087Y-13821936D02*
X14845563Y-13812412D01*
D12*
X10020500Y-14263500D02*
X10070500Y-14213500D01*
X10020500Y-14163500D01*
X9970500Y-14213500D01*
X10020500Y-14263500D01*
D11*
X10436039Y-14304984D02*
X10321753Y-14304984D01*
X10378896Y-14304984D02*
X10378896Y-14104984D01*
X10378896Y-14104984D02*
X10359848Y-14133555D01*
X10359848Y-14133555D02*
X10340801Y-14152603D01*
X10340801Y-14152603D02*
X10321753Y-14162127D01*
X10521753Y-14285936D02*
X10531277Y-14295460D01*
X10531277Y-14295460D02*
X10521753Y-14304984D01*
X10521753Y-14304984D02*
X10512229Y-14295460D01*
X10512229Y-14295460D02*
X10521753Y-14285936D01*
X10521753Y-14285936D02*
X10521753Y-14304984D01*
X10655086Y-14104984D02*
X10674134Y-14104984D01*
X10674134Y-14104984D02*
X10693182Y-14114508D01*
X10693182Y-14114508D02*
X10702705Y-14124031D01*
X10702705Y-14124031D02*
X10712229Y-14143079D01*
X10712229Y-14143079D02*
X10721753Y-14181174D01*
X10721753Y-14181174D02*
X10721753Y-14228793D01*
X10721753Y-14228793D02*
X10712229Y-14266888D01*
X10712229Y-14266888D02*
X10702705Y-14285936D01*
X10702705Y-14285936D02*
X10693182Y-14295460D01*
X10693182Y-14295460D02*
X10674134Y-14304984D01*
X10674134Y-14304984D02*
X10655086Y-14304984D01*
X10655086Y-14304984D02*
X10636039Y-14295460D01*
X10636039Y-14295460D02*
X10626515Y-14285936D01*
X10626515Y-14285936D02*
X10616991Y-14266888D01*
X10616991Y-14266888D02*
X10607467Y-14228793D01*
X10607467Y-14228793D02*
X10607467Y-14181174D01*
X10607467Y-14181174D02*
X10616991Y-14143079D01*
X10616991Y-14143079D02*
X10626515Y-14124031D01*
X10626515Y-14124031D02*
X10636039Y-14114508D01*
X10636039Y-14114508D02*
X10655086Y-14104984D01*
X10845563Y-14104984D02*
X10864610Y-14104984D01*
X10864610Y-14104984D02*
X10883658Y-14114508D01*
X10883658Y-14114508D02*
X10893182Y-14124031D01*
X10893182Y-14124031D02*
X10902705Y-14143079D01*
X10902705Y-14143079D02*
X10912229Y-14181174D01*
X10912229Y-14181174D02*
X10912229Y-14228793D01*
X10912229Y-14228793D02*
X10902705Y-14266888D01*
X10902705Y-14266888D02*
X10893182Y-14285936D01*
X10893182Y-14285936D02*
X10883658Y-14295460D01*
X10883658Y-14295460D02*
X10864610Y-14304984D01*
X10864610Y-14304984D02*
X10845563Y-14304984D01*
X10845563Y-14304984D02*
X10826515Y-14295460D01*
X10826515Y-14295460D02*
X10816991Y-14285936D01*
X10816991Y-14285936D02*
X10807467Y-14266888D01*
X10807467Y-14266888D02*
X10797944Y-14228793D01*
X10797944Y-14228793D02*
X10797944Y-14181174D01*
X10797944Y-14181174D02*
X10807467Y-14143079D01*
X10807467Y-14143079D02*
X10816991Y-14124031D01*
X10816991Y-14124031D02*
X10826515Y-14114508D01*
X10826515Y-14114508D02*
X10845563Y-14104984D01*
X11036039Y-14104984D02*
X11055086Y-14104984D01*
X11055086Y-14104984D02*
X11074134Y-14114508D01*
X11074134Y-14114508D02*
X11083658Y-14124031D01*
X11083658Y-14124031D02*
X11093182Y-14143079D01*
X11093182Y-14143079D02*
X11102705Y-14181174D01*
X11102705Y-14181174D02*
X11102705Y-14228793D01*
X11102705Y-14228793D02*
X11093182Y-14266888D01*
X11093182Y-14266888D02*
X11083658Y-14285936D01*
X11083658Y-14285936D02*
X11074134Y-14295460D01*
X11074134Y-14295460D02*
X11055086Y-14304984D01*
X11055086Y-14304984D02*
X11036039Y-14304984D01*
X11036039Y-14304984D02*
X11016991Y-14295460D01*
X11016991Y-14295460D02*
X11007467Y-14285936D01*
X11007467Y-14285936D02*
X10997944Y-14266888D01*
X10997944Y-14266888D02*
X10988420Y-14228793D01*
X10988420Y-14228793D02*
X10988420Y-14181174D01*
X10988420Y-14181174D02*
X10997944Y-14143079D01*
X10997944Y-14143079D02*
X11007467Y-14124031D01*
X11007467Y-14124031D02*
X11016991Y-14114508D01*
X11016991Y-14114508D02*
X11036039Y-14104984D01*
X11188420Y-14304984D02*
X11188420Y-14171650D01*
X11188420Y-14190698D02*
X11197943Y-14181174D01*
X11197943Y-14181174D02*
X11216991Y-14171650D01*
X11216991Y-14171650D02*
X11245563Y-14171650D01*
X11245563Y-14171650D02*
X11264610Y-14181174D01*
X11264610Y-14181174D02*
X11274134Y-14200222D01*
X11274134Y-14200222D02*
X11274134Y-14304984D01*
X11274134Y-14200222D02*
X11283658Y-14181174D01*
X11283658Y-14181174D02*
X11302705Y-14171650D01*
X11302705Y-14171650D02*
X11331277Y-14171650D01*
X11331277Y-14171650D02*
X11350324Y-14181174D01*
X11350324Y-14181174D02*
X11359848Y-14200222D01*
X11359848Y-14200222D02*
X11359848Y-14304984D01*
X11455086Y-14304984D02*
X11455086Y-14171650D01*
X11455086Y-14190698D02*
X11464610Y-14181174D01*
X11464610Y-14181174D02*
X11483658Y-14171650D01*
X11483658Y-14171650D02*
X11512229Y-14171650D01*
X11512229Y-14171650D02*
X11531277Y-14181174D01*
X11531277Y-14181174D02*
X11540801Y-14200222D01*
X11540801Y-14200222D02*
X11540801Y-14304984D01*
X11540801Y-14200222D02*
X11550324Y-14181174D01*
X11550324Y-14181174D02*
X11569372Y-14171650D01*
X11569372Y-14171650D02*
X11597943Y-14171650D01*
X11597943Y-14171650D02*
X11616991Y-14181174D01*
X11616991Y-14181174D02*
X11626515Y-14200222D01*
X11626515Y-14200222D02*
X11626515Y-14304984D01*
X12016991Y-14095460D02*
X11845563Y-14352603D01*
X12274134Y-14104984D02*
X12293182Y-14104984D01*
X12293182Y-14104984D02*
X12312229Y-14114508D01*
X12312229Y-14114508D02*
X12321753Y-14124031D01*
X12321753Y-14124031D02*
X12331277Y-14143079D01*
X12331277Y-14143079D02*
X12340801Y-14181174D01*
X12340801Y-14181174D02*
X12340801Y-14228793D01*
X12340801Y-14228793D02*
X12331277Y-14266888D01*
X12331277Y-14266888D02*
X12321753Y-14285936D01*
X12321753Y-14285936D02*
X12312229Y-14295460D01*
X12312229Y-14295460D02*
X12293182Y-14304984D01*
X12293182Y-14304984D02*
X12274134Y-14304984D01*
X12274134Y-14304984D02*
X12255086Y-14295460D01*
X12255086Y-14295460D02*
X12245563Y-14285936D01*
X12245563Y-14285936D02*
X12236039Y-14266888D01*
X12236039Y-14266888D02*
X12226515Y-14228793D01*
X12226515Y-14228793D02*
X12226515Y-14181174D01*
X12226515Y-14181174D02*
X12236039Y-14143079D01*
X12236039Y-14143079D02*
X12245563Y-14124031D01*
X12245563Y-14124031D02*
X12255086Y-14114508D01*
X12255086Y-14114508D02*
X12274134Y-14104984D01*
X12426515Y-14285936D02*
X12436039Y-14295460D01*
X12436039Y-14295460D02*
X12426515Y-14304984D01*
X12426515Y-14304984D02*
X12416991Y-14295460D01*
X12416991Y-14295460D02*
X12426515Y-14285936D01*
X12426515Y-14285936D02*
X12426515Y-14304984D01*
X12559848Y-14104984D02*
X12578896Y-14104984D01*
X12578896Y-14104984D02*
X12597944Y-14114508D01*
X12597944Y-14114508D02*
X12607467Y-14124031D01*
X12607467Y-14124031D02*
X12616991Y-14143079D01*
X12616991Y-14143079D02*
X12626515Y-14181174D01*
X12626515Y-14181174D02*
X12626515Y-14228793D01*
X12626515Y-14228793D02*
X12616991Y-14266888D01*
X12616991Y-14266888D02*
X12607467Y-14285936D01*
X12607467Y-14285936D02*
X12597944Y-14295460D01*
X12597944Y-14295460D02*
X12578896Y-14304984D01*
X12578896Y-14304984D02*
X12559848Y-14304984D01*
X12559848Y-14304984D02*
X12540801Y-14295460D01*
X12540801Y-14295460D02*
X12531277Y-14285936D01*
X12531277Y-14285936D02*
X12521753Y-14266888D01*
X12521753Y-14266888D02*
X12512229Y-14228793D01*
X12512229Y-14228793D02*
X12512229Y-14181174D01*
X12512229Y-14181174D02*
X12521753Y-14143079D01*
X12521753Y-14143079D02*
X12531277Y-14124031D01*
X12531277Y-14124031D02*
X12540801Y-14114508D01*
X12540801Y-14114508D02*
X12559848Y-14104984D01*
X12693182Y-14104984D02*
X12816991Y-14104984D01*
X12816991Y-14104984D02*
X12750325Y-14181174D01*
X12750325Y-14181174D02*
X12778896Y-14181174D01*
X12778896Y-14181174D02*
X12797944Y-14190698D01*
X12797944Y-14190698D02*
X12807467Y-14200222D01*
X12807467Y-14200222D02*
X12816991Y-14219269D01*
X12816991Y-14219269D02*
X12816991Y-14266888D01*
X12816991Y-14266888D02*
X12807467Y-14285936D01*
X12807467Y-14285936D02*
X12797944Y-14295460D01*
X12797944Y-14295460D02*
X12778896Y-14304984D01*
X12778896Y-14304984D02*
X12721753Y-14304984D01*
X12721753Y-14304984D02*
X12702706Y-14295460D01*
X12702706Y-14295460D02*
X12693182Y-14285936D01*
X12912229Y-14304984D02*
X12950325Y-14304984D01*
X12950325Y-14304984D02*
X12969372Y-14295460D01*
X12969372Y-14295460D02*
X12978896Y-14285936D01*
X12978896Y-14285936D02*
X12997944Y-14257365D01*
X12997944Y-14257365D02*
X13007467Y-14219269D01*
X13007467Y-14219269D02*
X13007467Y-14143079D01*
X13007467Y-14143079D02*
X12997944Y-14124031D01*
X12997944Y-14124031D02*
X12988420Y-14114508D01*
X12988420Y-14114508D02*
X12969372Y-14104984D01*
X12969372Y-14104984D02*
X12931277Y-14104984D01*
X12931277Y-14104984D02*
X12912229Y-14114508D01*
X12912229Y-14114508D02*
X12902706Y-14124031D01*
X12902706Y-14124031D02*
X12893182Y-14143079D01*
X12893182Y-14143079D02*
X12893182Y-14190698D01*
X12893182Y-14190698D02*
X12902706Y-14209746D01*
X12902706Y-14209746D02*
X12912229Y-14219269D01*
X12912229Y-14219269D02*
X12931277Y-14228793D01*
X12931277Y-14228793D02*
X12969372Y-14228793D01*
X12969372Y-14228793D02*
X12988420Y-14219269D01*
X12988420Y-14219269D02*
X12997944Y-14209746D01*
X12997944Y-14209746D02*
X13007467Y-14190698D01*
X13178896Y-14171650D02*
X13178896Y-14304984D01*
X13131277Y-14095460D02*
X13083658Y-14238317D01*
X13083658Y-14238317D02*
X13207467Y-14238317D01*
X13274134Y-14104984D02*
X13274134Y-14143079D01*
X13350325Y-14104984D02*
X13350325Y-14143079D01*
X13645563Y-14381174D02*
X13636039Y-14371650D01*
X13636039Y-14371650D02*
X13616991Y-14343079D01*
X13616991Y-14343079D02*
X13607468Y-14324031D01*
X13607468Y-14324031D02*
X13597944Y-14295460D01*
X13597944Y-14295460D02*
X13588420Y-14247841D01*
X13588420Y-14247841D02*
X13588420Y-14209746D01*
X13588420Y-14209746D02*
X13597944Y-14162127D01*
X13597944Y-14162127D02*
X13607468Y-14133555D01*
X13607468Y-14133555D02*
X13616991Y-14114508D01*
X13616991Y-14114508D02*
X13636039Y-14085936D01*
X13636039Y-14085936D02*
X13645563Y-14076412D01*
X13702706Y-14104984D02*
X13826515Y-14104984D01*
X13826515Y-14104984D02*
X13759848Y-14181174D01*
X13759848Y-14181174D02*
X13788420Y-14181174D01*
X13788420Y-14181174D02*
X13807468Y-14190698D01*
X13807468Y-14190698D02*
X13816991Y-14200222D01*
X13816991Y-14200222D02*
X13826515Y-14219269D01*
X13826515Y-14219269D02*
X13826515Y-14266888D01*
X13826515Y-14266888D02*
X13816991Y-14285936D01*
X13816991Y-14285936D02*
X13807468Y-14295460D01*
X13807468Y-14295460D02*
X13788420Y-14304984D01*
X13788420Y-14304984D02*
X13731277Y-14304984D01*
X13731277Y-14304984D02*
X13712229Y-14295460D01*
X13712229Y-14295460D02*
X13702706Y-14285936D01*
X14064610Y-14304984D02*
X14064610Y-14104984D01*
X14150325Y-14304984D02*
X14150325Y-14200222D01*
X14150325Y-14200222D02*
X14140801Y-14181174D01*
X14140801Y-14181174D02*
X14121753Y-14171650D01*
X14121753Y-14171650D02*
X14093182Y-14171650D01*
X14093182Y-14171650D02*
X14074134Y-14181174D01*
X14074134Y-14181174D02*
X14064610Y-14190698D01*
X14274134Y-14304984D02*
X14255087Y-14295460D01*
X14255087Y-14295460D02*
X14245563Y-14285936D01*
X14245563Y-14285936D02*
X14236039Y-14266888D01*
X14236039Y-14266888D02*
X14236039Y-14209746D01*
X14236039Y-14209746D02*
X14245563Y-14190698D01*
X14245563Y-14190698D02*
X14255087Y-14181174D01*
X14255087Y-14181174D02*
X14274134Y-14171650D01*
X14274134Y-14171650D02*
X14302706Y-14171650D01*
X14302706Y-14171650D02*
X14321753Y-14181174D01*
X14321753Y-14181174D02*
X14331277Y-14190698D01*
X14331277Y-14190698D02*
X14340801Y-14209746D01*
X14340801Y-14209746D02*
X14340801Y-14266888D01*
X14340801Y-14266888D02*
X14331277Y-14285936D01*
X14331277Y-14285936D02*
X14321753Y-14295460D01*
X14321753Y-14295460D02*
X14302706Y-14304984D01*
X14302706Y-14304984D02*
X14274134Y-14304984D01*
X14455087Y-14304984D02*
X14436039Y-14295460D01*
X14436039Y-14295460D02*
X14426515Y-14276412D01*
X14426515Y-14276412D02*
X14426515Y-14104984D01*
X14607468Y-14295460D02*
X14588420Y-14304984D01*
X14588420Y-14304984D02*
X14550325Y-14304984D01*
X14550325Y-14304984D02*
X14531277Y-14295460D01*
X14531277Y-14295460D02*
X14521753Y-14276412D01*
X14521753Y-14276412D02*
X14521753Y-14200222D01*
X14521753Y-14200222D02*
X14531277Y-14181174D01*
X14531277Y-14181174D02*
X14550325Y-14171650D01*
X14550325Y-14171650D02*
X14588420Y-14171650D01*
X14588420Y-14171650D02*
X14607468Y-14181174D01*
X14607468Y-14181174D02*
X14616991Y-14200222D01*
X14616991Y-14200222D02*
X14616991Y-14219269D01*
X14616991Y-14219269D02*
X14521753Y-14238317D01*
X14693182Y-14295460D02*
X14712230Y-14304984D01*
X14712230Y-14304984D02*
X14750325Y-14304984D01*
X14750325Y-14304984D02*
X14769372Y-14295460D01*
X14769372Y-14295460D02*
X14778896Y-14276412D01*
X14778896Y-14276412D02*
X14778896Y-14266888D01*
X14778896Y-14266888D02*
X14769372Y-14247841D01*
X14769372Y-14247841D02*
X14750325Y-14238317D01*
X14750325Y-14238317D02*
X14721753Y-14238317D01*
X14721753Y-14238317D02*
X14702706Y-14228793D01*
X14702706Y-14228793D02*
X14693182Y-14209746D01*
X14693182Y-14209746D02*
X14693182Y-14200222D01*
X14693182Y-14200222D02*
X14702706Y-14181174D01*
X14702706Y-14181174D02*
X14721753Y-14171650D01*
X14721753Y-14171650D02*
X14750325Y-14171650D01*
X14750325Y-14171650D02*
X14769372Y-14181174D01*
X14845563Y-14381174D02*
X14855087Y-14371650D01*
X14855087Y-14371650D02*
X14874134Y-14343079D01*
X14874134Y-14343079D02*
X14883658Y-14324031D01*
X14883658Y-14324031D02*
X14893182Y-14295460D01*
X14893182Y-14295460D02*
X14902706Y-14247841D01*
X14902706Y-14247841D02*
X14902706Y-14209746D01*
X14902706Y-14209746D02*
X14893182Y-14162127D01*
X14893182Y-14162127D02*
X14883658Y-14133555D01*
X14883658Y-14133555D02*
X14874134Y-14114508D01*
X14874134Y-14114508D02*
X14855087Y-14085936D01*
X14855087Y-14085936D02*
X14845563Y-14076412D01*
D13*
X9930500Y-14407500D02*
X10070500Y-14547500D01*
X10070500Y-14407500D02*
X9930500Y-14547500D01*
X10070500Y-14477500D02*
G75*
G02*
X9930500Y-14477500I-70000J0D01*
G01*
X9930500Y-14477500D02*
G75*
G02*
X10070500Y-14477500I70000J0D01*
G01*
D11*
X10436039Y-14568984D02*
X10321753Y-14568984D01*
X10378896Y-14568984D02*
X10378896Y-14368984D01*
X10378896Y-14368984D02*
X10359848Y-14397555D01*
X10359848Y-14397555D02*
X10340801Y-14416603D01*
X10340801Y-14416603D02*
X10321753Y-14426127D01*
X10521753Y-14549936D02*
X10531277Y-14559460D01*
X10531277Y-14559460D02*
X10521753Y-14568984D01*
X10521753Y-14568984D02*
X10512229Y-14559460D01*
X10512229Y-14559460D02*
X10521753Y-14549936D01*
X10521753Y-14549936D02*
X10521753Y-14568984D01*
X10702705Y-14435650D02*
X10702705Y-14568984D01*
X10655086Y-14359460D02*
X10607467Y-14502317D01*
X10607467Y-14502317D02*
X10731277Y-14502317D01*
X10845563Y-14368984D02*
X10864610Y-14368984D01*
X10864610Y-14368984D02*
X10883658Y-14378508D01*
X10883658Y-14378508D02*
X10893182Y-14388031D01*
X10893182Y-14388031D02*
X10902705Y-14407079D01*
X10902705Y-14407079D02*
X10912229Y-14445174D01*
X10912229Y-14445174D02*
X10912229Y-14492793D01*
X10912229Y-14492793D02*
X10902705Y-14530888D01*
X10902705Y-14530888D02*
X10893182Y-14549936D01*
X10893182Y-14549936D02*
X10883658Y-14559460D01*
X10883658Y-14559460D02*
X10864610Y-14568984D01*
X10864610Y-14568984D02*
X10845563Y-14568984D01*
X10845563Y-14568984D02*
X10826515Y-14559460D01*
X10826515Y-14559460D02*
X10816991Y-14549936D01*
X10816991Y-14549936D02*
X10807467Y-14530888D01*
X10807467Y-14530888D02*
X10797944Y-14492793D01*
X10797944Y-14492793D02*
X10797944Y-14445174D01*
X10797944Y-14445174D02*
X10807467Y-14407079D01*
X10807467Y-14407079D02*
X10816991Y-14388031D01*
X10816991Y-14388031D02*
X10826515Y-14378508D01*
X10826515Y-14378508D02*
X10845563Y-14368984D01*
X11036039Y-14368984D02*
X11055086Y-14368984D01*
X11055086Y-14368984D02*
X11074134Y-14378508D01*
X11074134Y-14378508D02*
X11083658Y-14388031D01*
X11083658Y-14388031D02*
X11093182Y-14407079D01*
X11093182Y-14407079D02*
X11102705Y-14445174D01*
X11102705Y-14445174D02*
X11102705Y-14492793D01*
X11102705Y-14492793D02*
X11093182Y-14530888D01*
X11093182Y-14530888D02*
X11083658Y-14549936D01*
X11083658Y-14549936D02*
X11074134Y-14559460D01*
X11074134Y-14559460D02*
X11055086Y-14568984D01*
X11055086Y-14568984D02*
X11036039Y-14568984D01*
X11036039Y-14568984D02*
X11016991Y-14559460D01*
X11016991Y-14559460D02*
X11007467Y-14549936D01*
X11007467Y-14549936D02*
X10997944Y-14530888D01*
X10997944Y-14530888D02*
X10988420Y-14492793D01*
X10988420Y-14492793D02*
X10988420Y-14445174D01*
X10988420Y-14445174D02*
X10997944Y-14407079D01*
X10997944Y-14407079D02*
X11007467Y-14388031D01*
X11007467Y-14388031D02*
X11016991Y-14378508D01*
X11016991Y-14378508D02*
X11036039Y-14368984D01*
X11188420Y-14568984D02*
X11188420Y-14435650D01*
X11188420Y-14454698D02*
X11197943Y-14445174D01*
X11197943Y-14445174D02*
X11216991Y-14435650D01*
X11216991Y-14435650D02*
X11245563Y-14435650D01*
X11245563Y-14435650D02*
X11264610Y-14445174D01*
X11264610Y-14445174D02*
X11274134Y-14464222D01*
X11274134Y-14464222D02*
X11274134Y-14568984D01*
X11274134Y-14464222D02*
X11283658Y-14445174D01*
X11283658Y-14445174D02*
X11302705Y-14435650D01*
X11302705Y-14435650D02*
X11331277Y-14435650D01*
X11331277Y-14435650D02*
X11350324Y-14445174D01*
X11350324Y-14445174D02*
X11359848Y-14464222D01*
X11359848Y-14464222D02*
X11359848Y-14568984D01*
X11455086Y-14568984D02*
X11455086Y-14435650D01*
X11455086Y-14454698D02*
X11464610Y-14445174D01*
X11464610Y-14445174D02*
X11483658Y-14435650D01*
X11483658Y-14435650D02*
X11512229Y-14435650D01*
X11512229Y-14435650D02*
X11531277Y-14445174D01*
X11531277Y-14445174D02*
X11540801Y-14464222D01*
X11540801Y-14464222D02*
X11540801Y-14568984D01*
X11540801Y-14464222D02*
X11550324Y-14445174D01*
X11550324Y-14445174D02*
X11569372Y-14435650D01*
X11569372Y-14435650D02*
X11597943Y-14435650D01*
X11597943Y-14435650D02*
X11616991Y-14445174D01*
X11616991Y-14445174D02*
X11626515Y-14464222D01*
X11626515Y-14464222D02*
X11626515Y-14568984D01*
X12016991Y-14359460D02*
X11845563Y-14616603D01*
X12274134Y-14368984D02*
X12293182Y-14368984D01*
X12293182Y-14368984D02*
X12312229Y-14378508D01*
X12312229Y-14378508D02*
X12321753Y-14388031D01*
X12321753Y-14388031D02*
X12331277Y-14407079D01*
X12331277Y-14407079D02*
X12340801Y-14445174D01*
X12340801Y-14445174D02*
X12340801Y-14492793D01*
X12340801Y-14492793D02*
X12331277Y-14530888D01*
X12331277Y-14530888D02*
X12321753Y-14549936D01*
X12321753Y-14549936D02*
X12312229Y-14559460D01*
X12312229Y-14559460D02*
X12293182Y-14568984D01*
X12293182Y-14568984D02*
X12274134Y-14568984D01*
X12274134Y-14568984D02*
X12255086Y-14559460D01*
X12255086Y-14559460D02*
X12245563Y-14549936D01*
X12245563Y-14549936D02*
X12236039Y-14530888D01*
X12236039Y-14530888D02*
X12226515Y-14492793D01*
X12226515Y-14492793D02*
X12226515Y-14445174D01*
X12226515Y-14445174D02*
X12236039Y-14407079D01*
X12236039Y-14407079D02*
X12245563Y-14388031D01*
X12245563Y-14388031D02*
X12255086Y-14378508D01*
X12255086Y-14378508D02*
X12274134Y-14368984D01*
X12426515Y-14549936D02*
X12436039Y-14559460D01*
X12436039Y-14559460D02*
X12426515Y-14568984D01*
X12426515Y-14568984D02*
X12416991Y-14559460D01*
X12416991Y-14559460D02*
X12426515Y-14549936D01*
X12426515Y-14549936D02*
X12426515Y-14568984D01*
X12559848Y-14368984D02*
X12578896Y-14368984D01*
X12578896Y-14368984D02*
X12597944Y-14378508D01*
X12597944Y-14378508D02*
X12607467Y-14388031D01*
X12607467Y-14388031D02*
X12616991Y-14407079D01*
X12616991Y-14407079D02*
X12626515Y-14445174D01*
X12626515Y-14445174D02*
X12626515Y-14492793D01*
X12626515Y-14492793D02*
X12616991Y-14530888D01*
X12616991Y-14530888D02*
X12607467Y-14549936D01*
X12607467Y-14549936D02*
X12597944Y-14559460D01*
X12597944Y-14559460D02*
X12578896Y-14568984D01*
X12578896Y-14568984D02*
X12559848Y-14568984D01*
X12559848Y-14568984D02*
X12540801Y-14559460D01*
X12540801Y-14559460D02*
X12531277Y-14549936D01*
X12531277Y-14549936D02*
X12521753Y-14530888D01*
X12521753Y-14530888D02*
X12512229Y-14492793D01*
X12512229Y-14492793D02*
X12512229Y-14445174D01*
X12512229Y-14445174D02*
X12521753Y-14407079D01*
X12521753Y-14407079D02*
X12531277Y-14388031D01*
X12531277Y-14388031D02*
X12540801Y-14378508D01*
X12540801Y-14378508D02*
X12559848Y-14368984D01*
X12807467Y-14368984D02*
X12712229Y-14368984D01*
X12712229Y-14368984D02*
X12702706Y-14464222D01*
X12702706Y-14464222D02*
X12712229Y-14454698D01*
X12712229Y-14454698D02*
X12731277Y-14445174D01*
X12731277Y-14445174D02*
X12778896Y-14445174D01*
X12778896Y-14445174D02*
X12797944Y-14454698D01*
X12797944Y-14454698D02*
X12807467Y-14464222D01*
X12807467Y-14464222D02*
X12816991Y-14483269D01*
X12816991Y-14483269D02*
X12816991Y-14530888D01*
X12816991Y-14530888D02*
X12807467Y-14549936D01*
X12807467Y-14549936D02*
X12797944Y-14559460D01*
X12797944Y-14559460D02*
X12778896Y-14568984D01*
X12778896Y-14568984D02*
X12731277Y-14568984D01*
X12731277Y-14568984D02*
X12712229Y-14559460D01*
X12712229Y-14559460D02*
X12702706Y-14549936D01*
X12997944Y-14368984D02*
X12902706Y-14368984D01*
X12902706Y-14368984D02*
X12893182Y-14464222D01*
X12893182Y-14464222D02*
X12902706Y-14454698D01*
X12902706Y-14454698D02*
X12921753Y-14445174D01*
X12921753Y-14445174D02*
X12969372Y-14445174D01*
X12969372Y-14445174D02*
X12988420Y-14454698D01*
X12988420Y-14454698D02*
X12997944Y-14464222D01*
X12997944Y-14464222D02*
X13007467Y-14483269D01*
X13007467Y-14483269D02*
X13007467Y-14530888D01*
X13007467Y-14530888D02*
X12997944Y-14549936D01*
X12997944Y-14549936D02*
X12988420Y-14559460D01*
X12988420Y-14559460D02*
X12969372Y-14568984D01*
X12969372Y-14568984D02*
X12921753Y-14568984D01*
X12921753Y-14568984D02*
X12902706Y-14559460D01*
X12902706Y-14559460D02*
X12893182Y-14549936D01*
X13197944Y-14568984D02*
X13083658Y-14568984D01*
X13140801Y-14568984D02*
X13140801Y-14368984D01*
X13140801Y-14368984D02*
X13121753Y-14397555D01*
X13121753Y-14397555D02*
X13102706Y-14416603D01*
X13102706Y-14416603D02*
X13083658Y-14426127D01*
X13274134Y-14368984D02*
X13274134Y-14407079D01*
X13350325Y-14368984D02*
X13350325Y-14407079D01*
X13645563Y-14645174D02*
X13636039Y-14635650D01*
X13636039Y-14635650D02*
X13616991Y-14607079D01*
X13616991Y-14607079D02*
X13607468Y-14588031D01*
X13607468Y-14588031D02*
X13597944Y-14559460D01*
X13597944Y-14559460D02*
X13588420Y-14511841D01*
X13588420Y-14511841D02*
X13588420Y-14473746D01*
X13588420Y-14473746D02*
X13597944Y-14426127D01*
X13597944Y-14426127D02*
X13607468Y-14397555D01*
X13607468Y-14397555D02*
X13616991Y-14378508D01*
X13616991Y-14378508D02*
X13636039Y-14349936D01*
X13636039Y-14349936D02*
X13645563Y-14340412D01*
X13750325Y-14454698D02*
X13731277Y-14445174D01*
X13731277Y-14445174D02*
X13721753Y-14435650D01*
X13721753Y-14435650D02*
X13712229Y-14416603D01*
X13712229Y-14416603D02*
X13712229Y-14407079D01*
X13712229Y-14407079D02*
X13721753Y-14388031D01*
X13721753Y-14388031D02*
X13731277Y-14378508D01*
X13731277Y-14378508D02*
X13750325Y-14368984D01*
X13750325Y-14368984D02*
X13788420Y-14368984D01*
X13788420Y-14368984D02*
X13807468Y-14378508D01*
X13807468Y-14378508D02*
X13816991Y-14388031D01*
X13816991Y-14388031D02*
X13826515Y-14407079D01*
X13826515Y-14407079D02*
X13826515Y-14416603D01*
X13826515Y-14416603D02*
X13816991Y-14435650D01*
X13816991Y-14435650D02*
X13807468Y-14445174D01*
X13807468Y-14445174D02*
X13788420Y-14454698D01*
X13788420Y-14454698D02*
X13750325Y-14454698D01*
X13750325Y-14454698D02*
X13731277Y-14464222D01*
X13731277Y-14464222D02*
X13721753Y-14473746D01*
X13721753Y-14473746D02*
X13712229Y-14492793D01*
X13712229Y-14492793D02*
X13712229Y-14530888D01*
X13712229Y-14530888D02*
X13721753Y-14549936D01*
X13721753Y-14549936D02*
X13731277Y-14559460D01*
X13731277Y-14559460D02*
X13750325Y-14568984D01*
X13750325Y-14568984D02*
X13788420Y-14568984D01*
X13788420Y-14568984D02*
X13807468Y-14559460D01*
X13807468Y-14559460D02*
X13816991Y-14549936D01*
X13816991Y-14549936D02*
X13826515Y-14530888D01*
X13826515Y-14530888D02*
X13826515Y-14492793D01*
X13826515Y-14492793D02*
X13816991Y-14473746D01*
X13816991Y-14473746D02*
X13807468Y-14464222D01*
X13807468Y-14464222D02*
X13788420Y-14454698D01*
X14064610Y-14568984D02*
X14064610Y-14368984D01*
X14150325Y-14568984D02*
X14150325Y-14464222D01*
X14150325Y-14464222D02*
X14140801Y-14445174D01*
X14140801Y-14445174D02*
X14121753Y-14435650D01*
X14121753Y-14435650D02*
X14093182Y-14435650D01*
X14093182Y-14435650D02*
X14074134Y-14445174D01*
X14074134Y-14445174D02*
X14064610Y-14454698D01*
X14274134Y-14568984D02*
X14255087Y-14559460D01*
X14255087Y-14559460D02*
X14245563Y-14549936D01*
X14245563Y-14549936D02*
X14236039Y-14530888D01*
X14236039Y-14530888D02*
X14236039Y-14473746D01*
X14236039Y-14473746D02*
X14245563Y-14454698D01*
X14245563Y-14454698D02*
X14255087Y-14445174D01*
X14255087Y-14445174D02*
X14274134Y-14435650D01*
X14274134Y-14435650D02*
X14302706Y-14435650D01*
X14302706Y-14435650D02*
X14321753Y-14445174D01*
X14321753Y-14445174D02*
X14331277Y-14454698D01*
X14331277Y-14454698D02*
X14340801Y-14473746D01*
X14340801Y-14473746D02*
X14340801Y-14530888D01*
X14340801Y-14530888D02*
X14331277Y-14549936D01*
X14331277Y-14549936D02*
X14321753Y-14559460D01*
X14321753Y-14559460D02*
X14302706Y-14568984D01*
X14302706Y-14568984D02*
X14274134Y-14568984D01*
X14455087Y-14568984D02*
X14436039Y-14559460D01*
X14436039Y-14559460D02*
X14426515Y-14540412D01*
X14426515Y-14540412D02*
X14426515Y-14368984D01*
X14607468Y-14559460D02*
X14588420Y-14568984D01*
X14588420Y-14568984D02*
X14550325Y-14568984D01*
X14550325Y-14568984D02*
X14531277Y-14559460D01*
X14531277Y-14559460D02*
X14521753Y-14540412D01*
X14521753Y-14540412D02*
X14521753Y-14464222D01*
X14521753Y-14464222D02*
X14531277Y-14445174D01*
X14531277Y-14445174D02*
X14550325Y-14435650D01*
X14550325Y-14435650D02*
X14588420Y-14435650D01*
X14588420Y-14435650D02*
X14607468Y-14445174D01*
X14607468Y-14445174D02*
X14616991Y-14464222D01*
X14616991Y-14464222D02*
X14616991Y-14483269D01*
X14616991Y-14483269D02*
X14521753Y-14502317D01*
X14693182Y-14559460D02*
X14712230Y-14568984D01*
X14712230Y-14568984D02*
X14750325Y-14568984D01*
X14750325Y-14568984D02*
X14769372Y-14559460D01*
X14769372Y-14559460D02*
X14778896Y-14540412D01*
X14778896Y-14540412D02*
X14778896Y-14530888D01*
X14778896Y-14530888D02*
X14769372Y-14511841D01*
X14769372Y-14511841D02*
X14750325Y-14502317D01*
X14750325Y-14502317D02*
X14721753Y-14502317D01*
X14721753Y-14502317D02*
X14702706Y-14492793D01*
X14702706Y-14492793D02*
X14693182Y-14473746D01*
X14693182Y-14473746D02*
X14693182Y-14464222D01*
X14693182Y-14464222D02*
X14702706Y-14445174D01*
X14702706Y-14445174D02*
X14721753Y-14435650D01*
X14721753Y-14435650D02*
X14750325Y-14435650D01*
X14750325Y-14435650D02*
X14769372Y-14445174D01*
X14845563Y-14645174D02*
X14855087Y-14635650D01*
X14855087Y-14635650D02*
X14874134Y-14607079D01*
X14874134Y-14607079D02*
X14883658Y-14588031D01*
X14883658Y-14588031D02*
X14893182Y-14559460D01*
X14893182Y-14559460D02*
X14902706Y-14511841D01*
X14902706Y-14511841D02*
X14902706Y-14473746D01*
X14902706Y-14473746D02*
X14893182Y-14426127D01*
X14893182Y-14426127D02*
X14883658Y-14397555D01*
X14883658Y-14397555D02*
X14874134Y-14378508D01*
X14874134Y-14378508D02*
X14855087Y-14349936D01*
X14855087Y-14349936D02*
X14845563Y-14340412D01*
X9870500Y-14641500D02*
X10070500Y-14841500D01*
X10070500Y-14641500D02*
X9870500Y-14841500D01*
X9970500Y-14641500D02*
X9970500Y-14841500D01*
X9870500Y-14741500D02*
X10070500Y-14741500D01*
X10312229Y-14632984D02*
X10436039Y-14632984D01*
X10436039Y-14632984D02*
X10369372Y-14709174D01*
X10369372Y-14709174D02*
X10397944Y-14709174D01*
X10397944Y-14709174D02*
X10416991Y-14718698D01*
X10416991Y-14718698D02*
X10426515Y-14728222D01*
X10426515Y-14728222D02*
X10436039Y-14747269D01*
X10436039Y-14747269D02*
X10436039Y-14794888D01*
X10436039Y-14794888D02*
X10426515Y-14813936D01*
X10426515Y-14813936D02*
X10416991Y-14823460D01*
X10416991Y-14823460D02*
X10397944Y-14832984D01*
X10397944Y-14832984D02*
X10340801Y-14832984D01*
X10340801Y-14832984D02*
X10321753Y-14823460D01*
X10321753Y-14823460D02*
X10312229Y-14813936D01*
X10521753Y-14813936D02*
X10531277Y-14823460D01*
X10531277Y-14823460D02*
X10521753Y-14832984D01*
X10521753Y-14832984D02*
X10512229Y-14823460D01*
X10512229Y-14823460D02*
X10521753Y-14813936D01*
X10521753Y-14813936D02*
X10521753Y-14832984D01*
X10607467Y-14652031D02*
X10616991Y-14642508D01*
X10616991Y-14642508D02*
X10636039Y-14632984D01*
X10636039Y-14632984D02*
X10683658Y-14632984D01*
X10683658Y-14632984D02*
X10702705Y-14642508D01*
X10702705Y-14642508D02*
X10712229Y-14652031D01*
X10712229Y-14652031D02*
X10721753Y-14671079D01*
X10721753Y-14671079D02*
X10721753Y-14690127D01*
X10721753Y-14690127D02*
X10712229Y-14718698D01*
X10712229Y-14718698D02*
X10597944Y-14832984D01*
X10597944Y-14832984D02*
X10721753Y-14832984D01*
X10845563Y-14632984D02*
X10864610Y-14632984D01*
X10864610Y-14632984D02*
X10883658Y-14642508D01*
X10883658Y-14642508D02*
X10893182Y-14652031D01*
X10893182Y-14652031D02*
X10902705Y-14671079D01*
X10902705Y-14671079D02*
X10912229Y-14709174D01*
X10912229Y-14709174D02*
X10912229Y-14756793D01*
X10912229Y-14756793D02*
X10902705Y-14794888D01*
X10902705Y-14794888D02*
X10893182Y-14813936D01*
X10893182Y-14813936D02*
X10883658Y-14823460D01*
X10883658Y-14823460D02*
X10864610Y-14832984D01*
X10864610Y-14832984D02*
X10845563Y-14832984D01*
X10845563Y-14832984D02*
X10826515Y-14823460D01*
X10826515Y-14823460D02*
X10816991Y-14813936D01*
X10816991Y-14813936D02*
X10807467Y-14794888D01*
X10807467Y-14794888D02*
X10797944Y-14756793D01*
X10797944Y-14756793D02*
X10797944Y-14709174D01*
X10797944Y-14709174D02*
X10807467Y-14671079D01*
X10807467Y-14671079D02*
X10816991Y-14652031D01*
X10816991Y-14652031D02*
X10826515Y-14642508D01*
X10826515Y-14642508D02*
X10845563Y-14632984D01*
X11036039Y-14632984D02*
X11055086Y-14632984D01*
X11055086Y-14632984D02*
X11074134Y-14642508D01*
X11074134Y-14642508D02*
X11083658Y-14652031D01*
X11083658Y-14652031D02*
X11093182Y-14671079D01*
X11093182Y-14671079D02*
X11102705Y-14709174D01*
X11102705Y-14709174D02*
X11102705Y-14756793D01*
X11102705Y-14756793D02*
X11093182Y-14794888D01*
X11093182Y-14794888D02*
X11083658Y-14813936D01*
X11083658Y-14813936D02*
X11074134Y-14823460D01*
X11074134Y-14823460D02*
X11055086Y-14832984D01*
X11055086Y-14832984D02*
X11036039Y-14832984D01*
X11036039Y-14832984D02*
X11016991Y-14823460D01*
X11016991Y-14823460D02*
X11007467Y-14813936D01*
X11007467Y-14813936D02*
X10997944Y-14794888D01*
X10997944Y-14794888D02*
X10988420Y-14756793D01*
X10988420Y-14756793D02*
X10988420Y-14709174D01*
X10988420Y-14709174D02*
X10997944Y-14671079D01*
X10997944Y-14671079D02*
X11007467Y-14652031D01*
X11007467Y-14652031D02*
X11016991Y-14642508D01*
X11016991Y-14642508D02*
X11036039Y-14632984D01*
X11188420Y-14832984D02*
X11188420Y-14699650D01*
X11188420Y-14718698D02*
X11197943Y-14709174D01*
X11197943Y-14709174D02*
X11216991Y-14699650D01*
X11216991Y-14699650D02*
X11245563Y-14699650D01*
X11245563Y-14699650D02*
X11264610Y-14709174D01*
X11264610Y-14709174D02*
X11274134Y-14728222D01*
X11274134Y-14728222D02*
X11274134Y-14832984D01*
X11274134Y-14728222D02*
X11283658Y-14709174D01*
X11283658Y-14709174D02*
X11302705Y-14699650D01*
X11302705Y-14699650D02*
X11331277Y-14699650D01*
X11331277Y-14699650D02*
X11350324Y-14709174D01*
X11350324Y-14709174D02*
X11359848Y-14728222D01*
X11359848Y-14728222D02*
X11359848Y-14832984D01*
X11455086Y-14832984D02*
X11455086Y-14699650D01*
X11455086Y-14718698D02*
X11464610Y-14709174D01*
X11464610Y-14709174D02*
X11483658Y-14699650D01*
X11483658Y-14699650D02*
X11512229Y-14699650D01*
X11512229Y-14699650D02*
X11531277Y-14709174D01*
X11531277Y-14709174D02*
X11540801Y-14728222D01*
X11540801Y-14728222D02*
X11540801Y-14832984D01*
X11540801Y-14728222D02*
X11550324Y-14709174D01*
X11550324Y-14709174D02*
X11569372Y-14699650D01*
X11569372Y-14699650D02*
X11597943Y-14699650D01*
X11597943Y-14699650D02*
X11616991Y-14709174D01*
X11616991Y-14709174D02*
X11626515Y-14728222D01*
X11626515Y-14728222D02*
X11626515Y-14832984D01*
X12016991Y-14623460D02*
X11845563Y-14880603D01*
X12274134Y-14632984D02*
X12293182Y-14632984D01*
X12293182Y-14632984D02*
X12312229Y-14642508D01*
X12312229Y-14642508D02*
X12321753Y-14652031D01*
X12321753Y-14652031D02*
X12331277Y-14671079D01*
X12331277Y-14671079D02*
X12340801Y-14709174D01*
X12340801Y-14709174D02*
X12340801Y-14756793D01*
X12340801Y-14756793D02*
X12331277Y-14794888D01*
X12331277Y-14794888D02*
X12321753Y-14813936D01*
X12321753Y-14813936D02*
X12312229Y-14823460D01*
X12312229Y-14823460D02*
X12293182Y-14832984D01*
X12293182Y-14832984D02*
X12274134Y-14832984D01*
X12274134Y-14832984D02*
X12255086Y-14823460D01*
X12255086Y-14823460D02*
X12245563Y-14813936D01*
X12245563Y-14813936D02*
X12236039Y-14794888D01*
X12236039Y-14794888D02*
X12226515Y-14756793D01*
X12226515Y-14756793D02*
X12226515Y-14709174D01*
X12226515Y-14709174D02*
X12236039Y-14671079D01*
X12236039Y-14671079D02*
X12245563Y-14652031D01*
X12245563Y-14652031D02*
X12255086Y-14642508D01*
X12255086Y-14642508D02*
X12274134Y-14632984D01*
X12426515Y-14813936D02*
X12436039Y-14823460D01*
X12436039Y-14823460D02*
X12426515Y-14832984D01*
X12426515Y-14832984D02*
X12416991Y-14823460D01*
X12416991Y-14823460D02*
X12426515Y-14813936D01*
X12426515Y-14813936D02*
X12426515Y-14832984D01*
X12626515Y-14832984D02*
X12512229Y-14832984D01*
X12569372Y-14832984D02*
X12569372Y-14632984D01*
X12569372Y-14632984D02*
X12550325Y-14661555D01*
X12550325Y-14661555D02*
X12531277Y-14680603D01*
X12531277Y-14680603D02*
X12512229Y-14690127D01*
X12702706Y-14652031D02*
X12712229Y-14642508D01*
X12712229Y-14642508D02*
X12731277Y-14632984D01*
X12731277Y-14632984D02*
X12778896Y-14632984D01*
X12778896Y-14632984D02*
X12797944Y-14642508D01*
X12797944Y-14642508D02*
X12807467Y-14652031D01*
X12807467Y-14652031D02*
X12816991Y-14671079D01*
X12816991Y-14671079D02*
X12816991Y-14690127D01*
X12816991Y-14690127D02*
X12807467Y-14718698D01*
X12807467Y-14718698D02*
X12693182Y-14832984D01*
X12693182Y-14832984D02*
X12816991Y-14832984D01*
X12988420Y-14632984D02*
X12950325Y-14632984D01*
X12950325Y-14632984D02*
X12931277Y-14642508D01*
X12931277Y-14642508D02*
X12921753Y-14652031D01*
X12921753Y-14652031D02*
X12902706Y-14680603D01*
X12902706Y-14680603D02*
X12893182Y-14718698D01*
X12893182Y-14718698D02*
X12893182Y-14794888D01*
X12893182Y-14794888D02*
X12902706Y-14813936D01*
X12902706Y-14813936D02*
X12912229Y-14823460D01*
X12912229Y-14823460D02*
X12931277Y-14832984D01*
X12931277Y-14832984D02*
X12969372Y-14832984D01*
X12969372Y-14832984D02*
X12988420Y-14823460D01*
X12988420Y-14823460D02*
X12997944Y-14813936D01*
X12997944Y-14813936D02*
X13007467Y-14794888D01*
X13007467Y-14794888D02*
X13007467Y-14747269D01*
X13007467Y-14747269D02*
X12997944Y-14728222D01*
X12997944Y-14728222D02*
X12988420Y-14718698D01*
X12988420Y-14718698D02*
X12969372Y-14709174D01*
X12969372Y-14709174D02*
X12931277Y-14709174D01*
X12931277Y-14709174D02*
X12912229Y-14718698D01*
X12912229Y-14718698D02*
X12902706Y-14728222D01*
X12902706Y-14728222D02*
X12893182Y-14747269D01*
X13131277Y-14632984D02*
X13150325Y-14632984D01*
X13150325Y-14632984D02*
X13169372Y-14642508D01*
X13169372Y-14642508D02*
X13178896Y-14652031D01*
X13178896Y-14652031D02*
X13188420Y-14671079D01*
X13188420Y-14671079D02*
X13197944Y-14709174D01*
X13197944Y-14709174D02*
X13197944Y-14756793D01*
X13197944Y-14756793D02*
X13188420Y-14794888D01*
X13188420Y-14794888D02*
X13178896Y-14813936D01*
X13178896Y-14813936D02*
X13169372Y-14823460D01*
X13169372Y-14823460D02*
X13150325Y-14832984D01*
X13150325Y-14832984D02*
X13131277Y-14832984D01*
X13131277Y-14832984D02*
X13112229Y-14823460D01*
X13112229Y-14823460D02*
X13102706Y-14813936D01*
X13102706Y-14813936D02*
X13093182Y-14794888D01*
X13093182Y-14794888D02*
X13083658Y-14756793D01*
X13083658Y-14756793D02*
X13083658Y-14709174D01*
X13083658Y-14709174D02*
X13093182Y-14671079D01*
X13093182Y-14671079D02*
X13102706Y-14652031D01*
X13102706Y-14652031D02*
X13112229Y-14642508D01*
X13112229Y-14642508D02*
X13131277Y-14632984D01*
X13274134Y-14632984D02*
X13274134Y-14671079D01*
X13350325Y-14632984D02*
X13350325Y-14671079D01*
X13645563Y-14909174D02*
X13636039Y-14899650D01*
X13636039Y-14899650D02*
X13616991Y-14871079D01*
X13616991Y-14871079D02*
X13607468Y-14852031D01*
X13607468Y-14852031D02*
X13597944Y-14823460D01*
X13597944Y-14823460D02*
X13588420Y-14775841D01*
X13588420Y-14775841D02*
X13588420Y-14737746D01*
X13588420Y-14737746D02*
X13597944Y-14690127D01*
X13597944Y-14690127D02*
X13607468Y-14661555D01*
X13607468Y-14661555D02*
X13616991Y-14642508D01*
X13616991Y-14642508D02*
X13636039Y-14613936D01*
X13636039Y-14613936D02*
X13645563Y-14604412D01*
X13807468Y-14699650D02*
X13807468Y-14832984D01*
X13759848Y-14623460D02*
X13712229Y-14766317D01*
X13712229Y-14766317D02*
X13836039Y-14766317D01*
X14064610Y-14832984D02*
X14064610Y-14632984D01*
X14150325Y-14832984D02*
X14150325Y-14728222D01*
X14150325Y-14728222D02*
X14140801Y-14709174D01*
X14140801Y-14709174D02*
X14121753Y-14699650D01*
X14121753Y-14699650D02*
X14093182Y-14699650D01*
X14093182Y-14699650D02*
X14074134Y-14709174D01*
X14074134Y-14709174D02*
X14064610Y-14718698D01*
X14274134Y-14832984D02*
X14255087Y-14823460D01*
X14255087Y-14823460D02*
X14245563Y-14813936D01*
X14245563Y-14813936D02*
X14236039Y-14794888D01*
X14236039Y-14794888D02*
X14236039Y-14737746D01*
X14236039Y-14737746D02*
X14245563Y-14718698D01*
X14245563Y-14718698D02*
X14255087Y-14709174D01*
X14255087Y-14709174D02*
X14274134Y-14699650D01*
X14274134Y-14699650D02*
X14302706Y-14699650D01*
X14302706Y-14699650D02*
X14321753Y-14709174D01*
X14321753Y-14709174D02*
X14331277Y-14718698D01*
X14331277Y-14718698D02*
X14340801Y-14737746D01*
X14340801Y-14737746D02*
X14340801Y-14794888D01*
X14340801Y-14794888D02*
X14331277Y-14813936D01*
X14331277Y-14813936D02*
X14321753Y-14823460D01*
X14321753Y-14823460D02*
X14302706Y-14832984D01*
X14302706Y-14832984D02*
X14274134Y-14832984D01*
X14455087Y-14832984D02*
X14436039Y-14823460D01*
X14436039Y-14823460D02*
X14426515Y-14804412D01*
X14426515Y-14804412D02*
X14426515Y-14632984D01*
X14607468Y-14823460D02*
X14588420Y-14832984D01*
X14588420Y-14832984D02*
X14550325Y-14832984D01*
X14550325Y-14832984D02*
X14531277Y-14823460D01*
X14531277Y-14823460D02*
X14521753Y-14804412D01*
X14521753Y-14804412D02*
X14521753Y-14728222D01*
X14521753Y-14728222D02*
X14531277Y-14709174D01*
X14531277Y-14709174D02*
X14550325Y-14699650D01*
X14550325Y-14699650D02*
X14588420Y-14699650D01*
X14588420Y-14699650D02*
X14607468Y-14709174D01*
X14607468Y-14709174D02*
X14616991Y-14728222D01*
X14616991Y-14728222D02*
X14616991Y-14747269D01*
X14616991Y-14747269D02*
X14521753Y-14766317D01*
X14693182Y-14823460D02*
X14712230Y-14832984D01*
X14712230Y-14832984D02*
X14750325Y-14832984D01*
X14750325Y-14832984D02*
X14769372Y-14823460D01*
X14769372Y-14823460D02*
X14778896Y-14804412D01*
X14778896Y-14804412D02*
X14778896Y-14794888D01*
X14778896Y-14794888D02*
X14769372Y-14775841D01*
X14769372Y-14775841D02*
X14750325Y-14766317D01*
X14750325Y-14766317D02*
X14721753Y-14766317D01*
X14721753Y-14766317D02*
X14702706Y-14756793D01*
X14702706Y-14756793D02*
X14693182Y-14737746D01*
X14693182Y-14737746D02*
X14693182Y-14728222D01*
X14693182Y-14728222D02*
X14702706Y-14709174D01*
X14702706Y-14709174D02*
X14721753Y-14699650D01*
X14721753Y-14699650D02*
X14750325Y-14699650D01*
X14750325Y-14699650D02*
X14769372Y-14709174D01*
X14845563Y-14909174D02*
X14855087Y-14899650D01*
X14855087Y-14899650D02*
X14874134Y-14871079D01*
X14874134Y-14871079D02*
X14883658Y-14852031D01*
X14883658Y-14852031D02*
X14893182Y-14823460D01*
X14893182Y-14823460D02*
X14902706Y-14775841D01*
X14902706Y-14775841D02*
X14902706Y-14737746D01*
X14902706Y-14737746D02*
X14893182Y-14690127D01*
X14893182Y-14690127D02*
X14883658Y-14661555D01*
X14883658Y-14661555D02*
X14874134Y-14642508D01*
X14874134Y-14642508D02*
X14855087Y-14613936D01*
X14855087Y-14613936D02*
X14845563Y-14604412D01*
M02*
