M48
; DRILL file {KiCad 9.0.0} date 2025-04-25T18:31:39-0400
; FORMAT={-:-/ absolute / metric / decimal}
; #@! TF.CreationDate,2025-04-25T18:31:39-04:00
; #@! TF.GenerationSoftware,Kicad,Pcbnew,9.0.0
; #@! TF.FileFunction,Plated,1,2,PTH
FMAT,2
METRIC
; #@! TA.AperFunction,Plated,PTH,ViaDrill
T1C0.300
; #@! TA.AperFunction,Plated,PTH,ComponentDrill
T2C0.500
; #@! TA.AperFunction,Plated,PTH,ComponentDrill
T3C0.600
; #@! TA.AperFunction,Plated,PTH,ComponentDrill
T4C0.700
; #@! TA.AperFunction,Plated,PTH,ComponentDrill
T5C1.000
; #@! TA.AperFunction,Plated,PTH,ComponentDrill
T6C1.400
; #@! TA.AperFunction,Plated,PTH,ComponentDrill
T7C3.200
%
G90
G05
T1
X103.876Y-113.554
X105.93Y-101.337
X108.53Y-98.125
X109.83Y-113.65
X110.43Y-97.0
X110.63Y-99.25
X110.98Y-96.05
X110.98Y-97.95
X111.33Y-99.25
X111.58Y-97.0
X124.18Y-84.85
X124.83Y-84.85
X126.83Y-84.4
X127.48Y-84.4
X128.98Y-85.15
X128.98Y-85.8
X130.03Y-83.7
X130.03Y-84.3
X130.03Y-84.9
X130.03Y-85.5
X131.13Y-91.95
X131.23Y-95.35
X131.63Y-95.95
X131.73Y-88.85
X131.93Y-95.35
X131.98Y-89.35
X132.28Y-88.85
X132.43Y-91.1
X133.73Y-88.9
X133.73Y-91.1
X134.03Y-92.55
X134.23Y-88.85
X134.237Y-89.362
X134.33Y-93.15
X134.73Y-92.65
X136.13Y-91.65
X136.23Y-83.7
X136.23Y-84.3
X136.23Y-84.9
X136.23Y-85.5
X137.33Y-85.3
X137.33Y-85.95
X139.13Y-84.55
X139.78Y-84.55
X141.78Y-85.05
X142.43Y-85.05
X144.43Y-88.45
X144.43Y-90.15
T4
X104.03Y-98.617
X104.03Y-101.157
T5
X104.58Y-95.35
X142.93Y-106.65
X145.93Y-84.05
T6
X108.267Y-84.41
X108.267Y-89.49
X116.968Y-84.41
X116.968Y-89.49
X132.6Y-108.5
X132.6Y-117.2
X137.68Y-108.5
X137.68Y-117.2
T7
X104.08Y-77.5
X104.23Y-121.65
X153.03Y-77.5
X154.33Y-121.65
T2
X156.08Y-96.6G85X155.38Y-96.6
G05
X156.08Y-103.2G85X155.38Y-103.2
G05
T3
X149.925Y-85.18G85X151.025Y-85.18
G05
X149.925Y-93.82G85X151.025Y-93.82
G05
X154.355Y-85.18G85X154.955Y-85.18
G05
X154.355Y-93.82G85X154.955Y-93.82
G05
M30
