G04 #@! TF.GenerationSoftware,KiCad,Pcbnew,9.0.0*
G04 #@! TF.CreationDate,2025-04-25T18:31:33-04:00*
G04 #@! TF.ProjectId,bq25171_breakout,62713235-3137-4315-9f62-7265616b6f75,rev?*
G04 #@! TF.SameCoordinates,Original*
G04 #@! TF.FileFunction,Soldermask,Top*
G04 #@! TF.FilePolarity,Negative*
%FSLAX46Y46*%
G04 Gerber Fmt 4.6, Leading zero omitted, Abs format (unit mm)*
G04 Created by KiCad (PCBNEW 9.0.0) date 2025-04-25 18:31:33*
%MOMM*%
%LPD*%
G01*
G04 APERTURE LIST*
G04 Aperture macros list*
%AMRoundRect*
0 Rectangle with rounded corners*
0 $1 Rounding radius*
0 $2 $3 $4 $5 $6 $7 $8 $9 X,Y pos of 4 corners*
0 Add a 4 corners polygon primitive as box body*
4,1,4,$2,$3,$4,$5,$6,$7,$8,$9,$2,$3,0*
0 Add four circle primitives for the rounded corners*
1,1,$1+$1,$2,$3*
1,1,$1+$1,$4,$5*
1,1,$1+$1,$6,$7*
1,1,$1+$1,$8,$9*
0 Add four rect primitives between the rounded corners*
20,1,$1+$1,$2,$3,$4,$5,0*
20,1,$1+$1,$4,$5,$6,$7,0*
20,1,$1+$1,$6,$7,$8,$9,0*
20,1,$1+$1,$8,$9,$2,$3,0*%
G04 Aperture macros list end*
%ADD10C,0.010000*%
%ADD11RoundRect,0.250000X-1.100000X0.412500X-1.100000X-0.412500X1.100000X-0.412500X1.100000X0.412500X0*%
%ADD12RoundRect,0.218750X-0.218750X-0.256250X0.218750X-0.256250X0.218750X0.256250X-0.218750X0.256250X0*%
%ADD13RoundRect,0.237500X-0.300000X-0.237500X0.300000X-0.237500X0.300000X0.237500X-0.300000X0.237500X0*%
%ADD14RoundRect,0.250001X-0.499999X-0.999999X0.499999X-0.999999X0.499999X0.999999X-0.499999X0.999999X0*%
%ADD15RoundRect,0.237500X-0.250000X-0.237500X0.250000X-0.237500X0.250000X0.237500X-0.250000X0.237500X0*%
%ADD16RoundRect,0.037500X-0.262500X-0.087500X0.262500X-0.087500X0.262500X0.087500X-0.262500X0.087500X0*%
%ADD17RoundRect,0.041250X-0.258750X-0.096250X0.258750X-0.096250X0.258750X0.096250X-0.258750X0.096250X0*%
%ADD18R,0.250000X0.500000*%
%ADD19RoundRect,0.082500X-0.742500X-1.117500X0.742500X-1.117500X0.742500X1.117500X-0.742500X1.117500X0*%
%ADD20C,5.500000*%
%ADD21R,2.200000X2.000000*%
%ADD22RoundRect,0.237500X0.237500X-0.250000X0.237500X0.250000X-0.237500X0.250000X-0.237500X-0.250000X0*%
%ADD23R,1.000000X1.500000*%
%ADD24C,2.304000*%
%ADD25RoundRect,0.250000X-0.750000X1.650000X-0.750000X-1.650000X0.750000X-1.650000X0.750000X1.650000X0*%
%ADD26RoundRect,0.237500X0.300000X0.237500X-0.300000X0.237500X-0.300000X-0.237500X0.300000X-0.237500X0*%
%ADD27RoundRect,0.237500X0.250000X0.237500X-0.250000X0.237500X-0.250000X-0.237500X0.250000X-0.237500X0*%
%ADD28C,2.000000*%
%ADD29C,1.400000*%
%ADD30O,1.400000X1.400000*%
%ADD31RoundRect,0.250000X-0.475000X0.337500X-0.475000X-0.337500X0.475000X-0.337500X0.475000X0.337500X0*%
%ADD32C,0.650000*%
%ADD33R,1.095000X0.300000*%
%ADD34R,1.150000X0.300000*%
%ADD35O,2.100000X1.000000*%
%ADD36O,1.600000X1.000000*%
%ADD37RoundRect,0.100000X0.575000X-0.100000X0.575000X0.100000X-0.575000X0.100000X-0.575000X-0.100000X0*%
%ADD38O,1.600000X0.900000*%
%ADD39RoundRect,0.250000X0.450000X-0.550000X0.450000X0.550000X-0.450000X0.550000X-0.450000X-0.550000X0*%
%ADD40RoundRect,0.250000X0.700000X-0.700000X0.700000X0.700000X-0.700000X0.700000X-0.700000X-0.700000X0*%
%ADD41RoundRect,0.250000X-0.250000X-1.500000X0.250000X-1.500000X0.250000X1.500000X-0.250000X1.500000X0*%
%ADD42RoundRect,0.250001X-0.499999X-1.449999X0.499999X-1.449999X0.499999X1.449999X-0.499999X1.449999X0*%
%ADD43RoundRect,0.250000X-1.650000X-0.750000X1.650000X-0.750000X1.650000X0.750000X-1.650000X0.750000X0*%
G04 APERTURE END LIST*
D10*
X132020000Y-91087500D02*
X131320000Y-91087500D01*
X131320000Y-90737500D01*
X132020000Y-90737500D01*
X132020000Y-91087500D01*
G36*
X132020000Y-91087500D02*
G01*
X131320000Y-91087500D01*
X131320000Y-90737500D01*
X132020000Y-90737500D01*
X132020000Y-91087500D01*
G37*
X132020000Y-91587500D02*
X131320000Y-91587500D01*
X131320000Y-91237500D01*
X132020000Y-91237500D01*
X132020000Y-91587500D01*
G36*
X132020000Y-91587500D02*
G01*
X131320000Y-91587500D01*
X131320000Y-91237500D01*
X132020000Y-91237500D01*
X132020000Y-91587500D01*
G37*
X132495000Y-92187500D02*
X132145000Y-92187500D01*
X132145000Y-91487500D01*
X132495000Y-91487500D01*
X132495000Y-92187500D01*
G36*
X132495000Y-92187500D02*
G01*
X132145000Y-92187500D01*
X132145000Y-91487500D01*
X132495000Y-91487500D01*
X132495000Y-92187500D01*
G37*
X132695000Y-90587500D02*
X132445000Y-90587500D01*
X132445000Y-89237500D01*
X132695000Y-89237500D01*
X132695000Y-90587500D01*
G36*
X132695000Y-90587500D02*
G01*
X132445000Y-90587500D01*
X132445000Y-89237500D01*
X132695000Y-89237500D01*
X132695000Y-90587500D01*
G37*
X132995000Y-92187500D02*
X132645000Y-92187500D01*
X132645000Y-91487500D01*
X132995000Y-91487500D01*
X132995000Y-92187500D01*
G36*
X132995000Y-92187500D02*
G01*
X132645000Y-92187500D01*
X132645000Y-91487500D01*
X132995000Y-91487500D01*
X132995000Y-92187500D01*
G37*
X133195000Y-90937500D02*
X132945000Y-90937500D01*
X132945000Y-89237500D01*
X133195000Y-89237500D01*
X133195000Y-90937500D01*
G36*
X133195000Y-90937500D02*
G01*
X132945000Y-90937500D01*
X132945000Y-89237500D01*
X133195000Y-89237500D01*
X133195000Y-90937500D01*
G37*
X133495000Y-92187500D02*
X133145000Y-92187500D01*
X133145000Y-91487500D01*
X133495000Y-91487500D01*
X133495000Y-92187500D01*
G36*
X133495000Y-92187500D02*
G01*
X133145000Y-92187500D01*
X133145000Y-91487500D01*
X133495000Y-91487500D01*
X133495000Y-92187500D01*
G37*
X133695000Y-90587500D02*
X133445000Y-90587500D01*
X133445000Y-89237500D01*
X133695000Y-89237500D01*
X133695000Y-90587500D01*
G36*
X133695000Y-90587500D02*
G01*
X133445000Y-90587500D01*
X133445000Y-89237500D01*
X133695000Y-89237500D01*
X133695000Y-90587500D01*
G37*
X133995000Y-92187500D02*
X133645000Y-92187500D01*
X133645000Y-91487500D01*
X133995000Y-91487500D01*
X133995000Y-92187500D01*
G36*
X133995000Y-92187500D02*
G01*
X133645000Y-92187500D01*
X133645000Y-91487500D01*
X133995000Y-91487500D01*
X133995000Y-92187500D01*
G37*
X134820000Y-91087500D02*
X134120000Y-91087500D01*
X134120000Y-90737500D01*
X134820000Y-90737500D01*
X134820000Y-91087500D01*
G36*
X134820000Y-91087500D02*
G01*
X134120000Y-91087500D01*
X134120000Y-90737500D01*
X134820000Y-90737500D01*
X134820000Y-91087500D01*
G37*
X134820000Y-91587500D02*
X134120000Y-91587500D01*
X134120000Y-91237500D01*
X134820000Y-91237500D01*
X134820000Y-91587500D01*
G36*
X134820000Y-91587500D02*
G01*
X134120000Y-91587500D01*
X134120000Y-91237500D01*
X134820000Y-91237500D01*
X134820000Y-91587500D01*
G37*
X131970000Y-90537500D02*
X131370000Y-90537500D01*
X131370000Y-90287500D01*
X131720000Y-90287500D01*
X131720000Y-90037500D01*
X131370000Y-90037500D01*
X131370000Y-89787500D01*
X131970000Y-89787500D01*
X131970000Y-90537500D01*
G36*
X131970000Y-90537500D02*
G01*
X131370000Y-90537500D01*
X131370000Y-90287500D01*
X131720000Y-90287500D01*
X131720000Y-90037500D01*
X131370000Y-90037500D01*
X131370000Y-89787500D01*
X131970000Y-89787500D01*
X131970000Y-90537500D01*
G37*
X134770000Y-90037500D02*
X134420000Y-90037500D01*
X134420000Y-90287500D01*
X134770000Y-90287500D01*
X134770000Y-90537500D01*
X134170000Y-90537500D01*
X134170000Y-89787500D01*
X134770000Y-89787500D01*
X134770000Y-90037500D01*
G36*
X134770000Y-90037500D02*
G01*
X134420000Y-90037500D01*
X134420000Y-90287500D01*
X134770000Y-90287500D01*
X134770000Y-90537500D01*
X134170000Y-90537500D01*
X134170000Y-89787500D01*
X134770000Y-89787500D01*
X134770000Y-90037500D01*
G37*
D11*
X127130000Y-85487500D03*
X127130000Y-88612500D03*
D12*
X116755000Y-100100000D03*
X118330000Y-100100000D03*
D13*
X131567500Y-94250000D03*
X133292500Y-94250000D03*
D14*
X131380000Y-84600000D03*
X135080000Y-84600000D03*
D15*
X109817500Y-118100000D03*
X111642500Y-118100000D03*
D16*
X109580000Y-96000000D03*
X109580000Y-96500000D03*
X109580000Y-97000000D03*
X109580000Y-97500000D03*
X109580000Y-98000000D03*
X112380000Y-98000000D03*
D17*
X112380000Y-97512500D03*
D16*
X112380000Y-97000000D03*
X112380000Y-96500000D03*
X112380000Y-96000000D03*
D18*
X110730000Y-95550000D03*
X110730000Y-98450000D03*
D19*
X110980000Y-97000000D03*
D18*
X111230000Y-95550000D03*
X111230000Y-98450000D03*
D20*
X104230000Y-121650000D03*
D21*
X124030000Y-99400000D03*
X132830000Y-99400000D03*
D22*
X106030000Y-100150000D03*
X106030000Y-98325000D03*
D15*
X119867500Y-98550000D03*
X121692500Y-98550000D03*
X110717500Y-100550000D03*
X112542500Y-100550000D03*
D23*
X124380000Y-105650000D03*
X121880000Y-105650000D03*
X119380000Y-105650000D03*
X119380000Y-111650000D03*
X121880000Y-111650000D03*
X124380000Y-111650000D03*
D15*
X119867500Y-100100000D03*
X121692500Y-100100000D03*
D24*
X116967500Y-84410000D03*
X108267500Y-84410000D03*
X116967500Y-89490000D03*
X108267500Y-89490000D03*
D23*
X119330000Y-119800000D03*
X121830000Y-119800000D03*
X124330000Y-119800000D03*
X124330000Y-113800000D03*
X121830000Y-113800000D03*
X119330000Y-113800000D03*
D11*
X139430000Y-85637500D03*
X139430000Y-88762500D03*
D25*
X147730000Y-77850000D03*
D26*
X110142500Y-94350000D03*
X108417500Y-94350000D03*
D20*
X153030000Y-77500000D03*
D15*
X103867500Y-116400000D03*
X105692500Y-116400000D03*
D13*
X111817500Y-94350000D03*
X113542500Y-94350000D03*
D27*
X138742500Y-93350000D03*
X136917500Y-93350000D03*
D28*
X142930000Y-106650000D03*
D15*
X103880000Y-114750000D03*
X105705000Y-114750000D03*
D20*
X104080000Y-77500000D03*
D12*
X116755000Y-98550000D03*
X118330000Y-98550000D03*
D29*
X104030000Y-98617500D03*
D30*
X104030000Y-101157500D03*
D27*
X147442500Y-88450000D03*
X145617500Y-88450000D03*
D28*
X145930000Y-84050000D03*
D31*
X124480000Y-85962500D03*
X124480000Y-88037500D03*
D20*
X154330000Y-121650000D03*
D32*
X150975000Y-92390000D03*
X150975000Y-86610000D03*
D33*
X149882500Y-92850000D03*
X149882500Y-92050000D03*
D34*
X149910000Y-90750000D03*
X149910000Y-89750000D03*
X149910000Y-89250000D03*
X149910000Y-88250000D03*
D33*
X149882500Y-86950000D03*
X149882500Y-86150000D03*
X149882500Y-86450000D03*
X149882500Y-87250000D03*
D34*
X149910000Y-87750000D03*
X149910000Y-88750000D03*
X149910000Y-90250000D03*
X149910000Y-91250000D03*
D33*
X149882500Y-91750000D03*
X149882500Y-92550000D03*
D35*
X150475000Y-93820000D03*
D36*
X154655000Y-93820000D03*
D35*
X150475000Y-85180000D03*
D36*
X154655000Y-85180000D03*
D15*
X136917500Y-95050000D03*
X138742500Y-95050000D03*
D22*
X130030000Y-91962500D03*
X130030000Y-90137500D03*
D31*
X142130000Y-86012500D03*
X142130000Y-88087500D03*
D13*
X130167500Y-87850000D03*
X131892500Y-87850000D03*
D15*
X109817500Y-119750000D03*
X111642500Y-119750000D03*
D37*
X153055000Y-101200000D03*
X153055000Y-100550000D03*
X153055000Y-99900000D03*
X153055000Y-99250000D03*
X153055000Y-98600000D03*
D38*
X155730000Y-103200000D03*
D39*
X153280000Y-103100000D03*
D40*
X155730000Y-101100000D03*
X155730000Y-98700000D03*
D39*
X153280000Y-96700000D03*
D38*
X155730000Y-96600000D03*
D24*
X132600000Y-108500000D03*
X132600000Y-117200000D03*
X137680000Y-108500000D03*
X137680000Y-117200000D03*
D28*
X104580000Y-95350000D03*
D15*
X109817500Y-114800000D03*
X111642500Y-114800000D03*
D23*
X105730000Y-111650000D03*
X108230000Y-111650000D03*
X110730000Y-111650000D03*
X110730000Y-105650000D03*
X108230000Y-105650000D03*
X105730000Y-105650000D03*
D27*
X147430000Y-90150000D03*
X145605000Y-90150000D03*
D13*
X134267500Y-87850000D03*
X135992500Y-87850000D03*
D41*
X145030000Y-116537500D03*
X147030000Y-116537500D03*
D42*
X142680000Y-122287500D03*
X149380000Y-122287500D03*
D43*
X154330000Y-107250000D03*
D15*
X109817500Y-116450000D03*
X111642500Y-116450000D03*
D27*
X138792500Y-91650000D03*
X136967500Y-91650000D03*
M02*
