G04 #@! TF.GenerationSoftware,KiCad,Pcbnew,9.0.0*
G04 #@! TF.CreationDate,2025-04-25T18:31:33-04:00*
G04 #@! TF.ProjectId,bq25171_breakout,62713235-3137-4315-9f62-7265616b6f75,rev?*
G04 #@! TF.SameCoordinates,Original*
G04 #@! TF.FileFunction,Copper,L1,Top*
G04 #@! TF.FilePolarity,Positive*
%FSLAX46Y46*%
G04 Gerber Fmt 4.6, Leading zero omitted, Abs format (unit mm)*
G04 Created by KiCad (PCBNEW 9.0.0) date 2025-04-25 18:31:33*
%MOMM*%
%LPD*%
G01*
G04 APERTURE LIST*
G04 Aperture macros list*
%AMRoundRect*
0 Rectangle with rounded corners*
0 $1 Rounding radius*
0 $2 $3 $4 $5 $6 $7 $8 $9 X,Y pos of 4 corners*
0 Add a 4 corners polygon primitive as box body*
4,1,4,$2,$3,$4,$5,$6,$7,$8,$9,$2,$3,0*
0 Add four circle primitives for the rounded corners*
1,1,$1+$1,$2,$3*
1,1,$1+$1,$4,$5*
1,1,$1+$1,$6,$7*
1,1,$1+$1,$8,$9*
0 Add four rect primitives between the rounded corners*
20,1,$1+$1,$2,$3,$4,$5,0*
20,1,$1+$1,$4,$5,$6,$7,0*
20,1,$1+$1,$6,$7,$8,$9,0*
20,1,$1+$1,$8,$9,$2,$3,0*%
G04 Aperture macros list end*
G04 #@! TA.AperFunction,SMDPad,CuDef*
%ADD10RoundRect,0.250000X-1.100000X0.412500X-1.100000X-0.412500X1.100000X-0.412500X1.100000X0.412500X0*%
G04 #@! TD*
G04 #@! TA.AperFunction,SMDPad,CuDef*
%ADD11RoundRect,0.218750X-0.218750X-0.256250X0.218750X-0.256250X0.218750X0.256250X-0.218750X0.256250X0*%
G04 #@! TD*
G04 #@! TA.AperFunction,SMDPad,CuDef*
%ADD12RoundRect,0.006250X0.118750X-0.293750X0.118750X0.293750X-0.118750X0.293750X-0.118750X-0.293750X0*%
G04 #@! TD*
G04 #@! TA.AperFunction,SMDPad,CuDef*
%ADD13RoundRect,0.006250X0.293750X-0.118750X0.293750X0.118750X-0.293750X0.118750X-0.293750X-0.118750X0*%
G04 #@! TD*
G04 #@! TA.AperFunction,SMDPad,CuDef*
%ADD14RoundRect,0.017500X0.332500X-0.407500X0.332500X0.407500X-0.332500X0.407500X-0.332500X-0.407500X0*%
G04 #@! TD*
G04 #@! TA.AperFunction,SMDPad,CuDef*
%ADD15RoundRect,0.008750X0.166250X-0.716250X0.166250X0.716250X-0.166250X0.716250X-0.166250X-0.716250X0*%
G04 #@! TD*
G04 #@! TA.AperFunction,SMDPad,CuDef*
%ADD16RoundRect,0.008750X0.166250X-0.891250X0.166250X0.891250X-0.166250X0.891250X-0.166250X-0.891250X0*%
G04 #@! TD*
G04 #@! TA.AperFunction,SMDPad,CuDef*
%ADD17RoundRect,0.237500X-0.300000X-0.237500X0.300000X-0.237500X0.300000X0.237500X-0.300000X0.237500X0*%
G04 #@! TD*
G04 #@! TA.AperFunction,SMDPad,CuDef*
%ADD18RoundRect,0.250001X-0.499999X-0.999999X0.499999X-0.999999X0.499999X0.999999X-0.499999X0.999999X0*%
G04 #@! TD*
G04 #@! TA.AperFunction,SMDPad,CuDef*
%ADD19RoundRect,0.237500X-0.250000X-0.237500X0.250000X-0.237500X0.250000X0.237500X-0.250000X0.237500X0*%
G04 #@! TD*
G04 #@! TA.AperFunction,SMDPad,CuDef*
%ADD20RoundRect,0.037500X-0.262500X-0.087500X0.262500X-0.087500X0.262500X0.087500X-0.262500X0.087500X0*%
G04 #@! TD*
G04 #@! TA.AperFunction,SMDPad,CuDef*
%ADD21RoundRect,0.041250X-0.258750X-0.096250X0.258750X-0.096250X0.258750X0.096250X-0.258750X0.096250X0*%
G04 #@! TD*
G04 #@! TA.AperFunction,SMDPad,CuDef*
%ADD22R,0.250000X0.500000*%
G04 #@! TD*
G04 #@! TA.AperFunction,SMDPad,CuDef*
%ADD23RoundRect,0.082500X-0.742500X-1.117500X0.742500X-1.117500X0.742500X1.117500X-0.742500X1.117500X0*%
G04 #@! TD*
G04 #@! TA.AperFunction,ComponentPad*
%ADD24C,5.500000*%
G04 #@! TD*
G04 #@! TA.AperFunction,SMDPad,CuDef*
%ADD25R,2.200000X2.000000*%
G04 #@! TD*
G04 #@! TA.AperFunction,SMDPad,CuDef*
%ADD26RoundRect,0.237500X0.237500X-0.250000X0.237500X0.250000X-0.237500X0.250000X-0.237500X-0.250000X0*%
G04 #@! TD*
G04 #@! TA.AperFunction,SMDPad,CuDef*
%ADD27R,1.000000X1.500000*%
G04 #@! TD*
G04 #@! TA.AperFunction,ComponentPad*
%ADD28C,2.100000*%
G04 #@! TD*
G04 #@! TA.AperFunction,SMDPad,CuDef*
%ADD29RoundRect,0.250000X-0.750000X1.650000X-0.750000X-1.650000X0.750000X-1.650000X0.750000X1.650000X0*%
G04 #@! TD*
G04 #@! TA.AperFunction,SMDPad,CuDef*
%ADD30RoundRect,0.237500X0.300000X0.237500X-0.300000X0.237500X-0.300000X-0.237500X0.300000X-0.237500X0*%
G04 #@! TD*
G04 #@! TA.AperFunction,SMDPad,CuDef*
%ADD31RoundRect,0.237500X0.250000X0.237500X-0.250000X0.237500X-0.250000X-0.237500X0.250000X-0.237500X0*%
G04 #@! TD*
G04 #@! TA.AperFunction,ComponentPad*
%ADD32C,2.000000*%
G04 #@! TD*
G04 #@! TA.AperFunction,ComponentPad*
%ADD33C,1.400000*%
G04 #@! TD*
G04 #@! TA.AperFunction,ComponentPad*
%ADD34O,1.400000X1.400000*%
G04 #@! TD*
G04 #@! TA.AperFunction,SMDPad,CuDef*
%ADD35RoundRect,0.250000X-0.475000X0.337500X-0.475000X-0.337500X0.475000X-0.337500X0.475000X0.337500X0*%
G04 #@! TD*
G04 #@! TA.AperFunction,SMDPad,CuDef*
%ADD36R,1.095000X0.300000*%
G04 #@! TD*
G04 #@! TA.AperFunction,SMDPad,CuDef*
%ADD37R,1.150000X0.300000*%
G04 #@! TD*
G04 #@! TA.AperFunction,HeatsinkPad*
%ADD38O,2.100000X1.000000*%
G04 #@! TD*
G04 #@! TA.AperFunction,HeatsinkPad*
%ADD39O,1.600000X1.000000*%
G04 #@! TD*
G04 #@! TA.AperFunction,SMDPad,CuDef*
%ADD40RoundRect,0.100000X0.575000X-0.100000X0.575000X0.100000X-0.575000X0.100000X-0.575000X-0.100000X0*%
G04 #@! TD*
G04 #@! TA.AperFunction,HeatsinkPad*
%ADD41O,1.600000X0.900000*%
G04 #@! TD*
G04 #@! TA.AperFunction,SMDPad,CuDef*
%ADD42RoundRect,0.250000X0.450000X-0.550000X0.450000X0.550000X-0.450000X0.550000X-0.450000X-0.550000X0*%
G04 #@! TD*
G04 #@! TA.AperFunction,SMDPad,CuDef*
%ADD43RoundRect,0.250000X0.700000X-0.700000X0.700000X0.700000X-0.700000X0.700000X-0.700000X-0.700000X0*%
G04 #@! TD*
G04 #@! TA.AperFunction,SMDPad,CuDef*
%ADD44RoundRect,0.250000X-0.250000X-1.500000X0.250000X-1.500000X0.250000X1.500000X-0.250000X1.500000X0*%
G04 #@! TD*
G04 #@! TA.AperFunction,SMDPad,CuDef*
%ADD45RoundRect,0.250001X-0.499999X-1.449999X0.499999X-1.449999X0.499999X1.449999X-0.499999X1.449999X0*%
G04 #@! TD*
G04 #@! TA.AperFunction,SMDPad,CuDef*
%ADD46RoundRect,0.250000X-1.650000X-0.750000X1.650000X-0.750000X1.650000X0.750000X-1.650000X0.750000X0*%
G04 #@! TD*
G04 #@! TA.AperFunction,ViaPad*
%ADD47C,0.600000*%
G04 #@! TD*
G04 #@! TA.AperFunction,ViaPad*
%ADD48C,0.450000*%
G04 #@! TD*
G04 #@! TA.AperFunction,Conductor*
%ADD49C,0.500000*%
G04 #@! TD*
G04 #@! TA.AperFunction,Conductor*
%ADD50C,0.250000*%
G04 #@! TD*
G04 #@! TA.AperFunction,Conductor*
%ADD51C,0.200000*%
G04 #@! TD*
G04 APERTURE END LIST*
D10*
X127130000Y-85487500D03*
X127130000Y-88612500D03*
D11*
X116755000Y-100100000D03*
X118330000Y-100100000D03*
D12*
X132320000Y-91837500D03*
X132820000Y-91837500D03*
X133320000Y-91837500D03*
X133820000Y-91837500D03*
D13*
X134470000Y-91412500D03*
X134470000Y-90912500D03*
D14*
X134470000Y-90162500D03*
X134470000Y-90162500D03*
D15*
X133570000Y-89912500D03*
D16*
X133070000Y-90087500D03*
D15*
X132570000Y-89912500D03*
D14*
X131670000Y-90162500D03*
X131670000Y-90162500D03*
D13*
X131670000Y-90912500D03*
X131670000Y-91412500D03*
D17*
X131567500Y-94250000D03*
X133292500Y-94250000D03*
D18*
X131380000Y-84600000D03*
X135080000Y-84600000D03*
D19*
X109817500Y-118100000D03*
X111642500Y-118100000D03*
D20*
X109580000Y-96000000D03*
X109580000Y-96500000D03*
X109580000Y-97000000D03*
X109580000Y-97500000D03*
X109580000Y-98000000D03*
X112380000Y-98000000D03*
D21*
X112380000Y-97512500D03*
D20*
X112380000Y-97000000D03*
X112380000Y-96500000D03*
X112380000Y-96000000D03*
D22*
X110730000Y-95550000D03*
X110730000Y-98450000D03*
D23*
X110980000Y-97000000D03*
D22*
X111230000Y-95550000D03*
X111230000Y-98450000D03*
D24*
X104230000Y-121650000D03*
D25*
X124030000Y-99400000D03*
X132830000Y-99400000D03*
D26*
X106030000Y-100150000D03*
X106030000Y-98325000D03*
D19*
X119867500Y-98550000D03*
X121692500Y-98550000D03*
X110717500Y-100550000D03*
X112542500Y-100550000D03*
D27*
X124380000Y-105650000D03*
X121880000Y-105650000D03*
X119380000Y-105650000D03*
X119380000Y-111650000D03*
X121880000Y-111650000D03*
X124380000Y-111650000D03*
D19*
X119867500Y-100100000D03*
X121692500Y-100100000D03*
D28*
X116967500Y-84410000D03*
X108267500Y-84410000D03*
X116967500Y-89490000D03*
X108267500Y-89490000D03*
D27*
X119330000Y-119800000D03*
X121830000Y-119800000D03*
X124330000Y-119800000D03*
X124330000Y-113800000D03*
X121830000Y-113800000D03*
X119330000Y-113800000D03*
D10*
X139430000Y-85637500D03*
X139430000Y-88762500D03*
D29*
X147730000Y-77850000D03*
D30*
X110142500Y-94350000D03*
X108417500Y-94350000D03*
D24*
X153030000Y-77500000D03*
D19*
X103867500Y-116400000D03*
X105692500Y-116400000D03*
D17*
X111817500Y-94350000D03*
X113542500Y-94350000D03*
D31*
X138742500Y-93350000D03*
X136917500Y-93350000D03*
D32*
X142930000Y-106650000D03*
D19*
X103880000Y-114750000D03*
X105705000Y-114750000D03*
D24*
X104080000Y-77500000D03*
D11*
X116755000Y-98550000D03*
X118330000Y-98550000D03*
D33*
X104030000Y-98617500D03*
D34*
X104030000Y-101157500D03*
D31*
X147442500Y-88450000D03*
X145617500Y-88450000D03*
D32*
X145930000Y-84050000D03*
D35*
X124480000Y-85962500D03*
X124480000Y-88037500D03*
D24*
X154330000Y-121650000D03*
D36*
X149882500Y-92850000D03*
X149882500Y-92050000D03*
D37*
X149910000Y-90750000D03*
X149910000Y-89750000D03*
X149910000Y-89250000D03*
X149910000Y-88250000D03*
D36*
X149882500Y-86950000D03*
X149882500Y-86150000D03*
X149882500Y-86450000D03*
X149882500Y-87250000D03*
D37*
X149910000Y-87750000D03*
X149910000Y-88750000D03*
X149910000Y-90250000D03*
X149910000Y-91250000D03*
D36*
X149882500Y-91750000D03*
X149882500Y-92550000D03*
D38*
X150475000Y-93820000D03*
D39*
X154655000Y-93820000D03*
D38*
X150475000Y-85180000D03*
D39*
X154655000Y-85180000D03*
D19*
X136917500Y-95050000D03*
X138742500Y-95050000D03*
D26*
X130030000Y-91962500D03*
X130030000Y-90137500D03*
D35*
X142130000Y-86012500D03*
X142130000Y-88087500D03*
D17*
X130167500Y-87850000D03*
X131892500Y-87850000D03*
D19*
X109817500Y-119750000D03*
X111642500Y-119750000D03*
D40*
X153055000Y-101200000D03*
X153055000Y-100550000D03*
X153055000Y-99900000D03*
X153055000Y-99250000D03*
X153055000Y-98600000D03*
D41*
X155730000Y-103200000D03*
D42*
X153280000Y-103100000D03*
D43*
X155730000Y-101100000D03*
X155730000Y-98700000D03*
D42*
X153280000Y-96700000D03*
D41*
X155730000Y-96600000D03*
D28*
X132600000Y-108500000D03*
X132600000Y-117200000D03*
X137680000Y-108500000D03*
X137680000Y-117200000D03*
D32*
X104580000Y-95350000D03*
D19*
X109817500Y-114800000D03*
X111642500Y-114800000D03*
D27*
X105730000Y-111650000D03*
X108230000Y-111650000D03*
X110730000Y-111650000D03*
X110730000Y-105650000D03*
X108230000Y-105650000D03*
X105730000Y-105650000D03*
D31*
X147430000Y-90150000D03*
X145605000Y-90150000D03*
D17*
X134267500Y-87850000D03*
X135992500Y-87850000D03*
D44*
X145030000Y-116537500D03*
X147030000Y-116537500D03*
D45*
X142680000Y-122287500D03*
X149380000Y-122287500D03*
D46*
X154330000Y-107250000D03*
D19*
X109817500Y-116450000D03*
X111642500Y-116450000D03*
D31*
X138792500Y-91650000D03*
X136967500Y-91650000D03*
D47*
X134030000Y-92550000D03*
X141780000Y-85050000D03*
D48*
X133730000Y-91100000D03*
D47*
X131630000Y-95950000D03*
X105930000Y-101337500D03*
X131930000Y-95350000D03*
X142430000Y-85050000D03*
X110630000Y-99250000D03*
X126830000Y-84400000D03*
X137330000Y-85300000D03*
X144430000Y-90150000D03*
X108530000Y-98125000D03*
D48*
X132430000Y-91100000D03*
D47*
X124830000Y-84850000D03*
D48*
X111580000Y-97000000D03*
D47*
X103875650Y-113553957D03*
D48*
X110980000Y-97950000D03*
X110430000Y-97000000D03*
D47*
X131130000Y-91950000D03*
X111330000Y-99250000D03*
X139780000Y-84550000D03*
X124180000Y-84850000D03*
X137330000Y-85950000D03*
X128980000Y-85150000D03*
X144430000Y-88450000D03*
X136130000Y-91650000D03*
X139130000Y-84550000D03*
D48*
X110980000Y-96050000D03*
D47*
X131230000Y-95350000D03*
X128980000Y-85800000D03*
X134730000Y-92650000D03*
X109830000Y-113650000D03*
X127480000Y-84400000D03*
X134330000Y-93150000D03*
D48*
X131980000Y-89350000D03*
D47*
X130030000Y-83700000D03*
D48*
X131730000Y-88850000D03*
X132280000Y-88850000D03*
D47*
X130030000Y-84900000D03*
X130030000Y-85500000D03*
X130030000Y-84300000D03*
X136230000Y-84300000D03*
X136230000Y-83700000D03*
X136230000Y-84900000D03*
D48*
X134230000Y-88850000D03*
D47*
X136230000Y-85500000D03*
D48*
X134237152Y-89362500D03*
X133730000Y-88900000D03*
D49*
X149882500Y-92850000D02*
X149882500Y-93227500D01*
X149882500Y-93227500D02*
X150475000Y-93820000D01*
X149882500Y-86150000D02*
X149882500Y-85772500D01*
X149882500Y-85772500D02*
X150475000Y-85180000D01*
D50*
X118330000Y-98550000D02*
X119867500Y-98550000D01*
X112455000Y-97000000D02*
X113080000Y-97000000D01*
X113080000Y-97000000D02*
X114630000Y-98550000D01*
X114630000Y-98550000D02*
X116755000Y-98550000D01*
X112455000Y-97512500D02*
X112954690Y-97512500D01*
X115542190Y-100100000D02*
X116755000Y-100100000D01*
X112954690Y-97512500D02*
X115542190Y-100100000D01*
X118330000Y-100100000D02*
X119867500Y-100100000D01*
D49*
X103867500Y-114762500D02*
X103880000Y-114750000D01*
X109817500Y-118100000D02*
X109817500Y-116450000D01*
X145605000Y-90150000D02*
X144430000Y-90150000D01*
X105750000Y-101157500D02*
X105930000Y-101337500D01*
X145617500Y-88450000D02*
X144430000Y-88450000D01*
X109817500Y-113662500D02*
X109830000Y-113650000D01*
X103880000Y-114750000D02*
X103880000Y-113558307D01*
X103867500Y-116400000D02*
X103867500Y-114762500D01*
D50*
X108655000Y-98000000D02*
X108530000Y-98125000D01*
D49*
X152680000Y-77850000D02*
X153030000Y-77500000D01*
X104030000Y-101157500D02*
X105750000Y-101157500D01*
X105930000Y-101337500D02*
X105930000Y-100250000D01*
D50*
X134470000Y-90912500D02*
X136230000Y-90912500D01*
D49*
X147730000Y-77850000D02*
X152680000Y-77850000D01*
D50*
X136230000Y-90912500D02*
X136967500Y-91650000D01*
D49*
X105930000Y-100250000D02*
X106030000Y-100150000D01*
X109817500Y-119750000D02*
X109817500Y-118100000D01*
D50*
X131667500Y-91412500D02*
X131130000Y-91950000D01*
D49*
X109817500Y-114800000D02*
X109817500Y-113662500D01*
X103880000Y-113558307D02*
X103875650Y-113553957D01*
D50*
X109505000Y-98000000D02*
X108655000Y-98000000D01*
D49*
X109817500Y-116450000D02*
X109817500Y-114800000D01*
D50*
X131670000Y-91412500D02*
X131667500Y-91412500D01*
X136967500Y-91650000D02*
X136130000Y-91650000D01*
X112455000Y-98000000D02*
X112455000Y-100462500D01*
X112455000Y-100462500D02*
X112542500Y-100550000D01*
X105737500Y-98617500D02*
X106030000Y-98325000D01*
X104030000Y-98617500D02*
X105737500Y-98617500D01*
X106030000Y-98325000D02*
X106855000Y-97500000D01*
X106855000Y-97500000D02*
X109505000Y-97500000D01*
X131381500Y-92776000D02*
X129552510Y-92776000D01*
X129229000Y-92452490D02*
X129229000Y-90938500D01*
X129552510Y-92776000D02*
X129229000Y-92452490D01*
X129229000Y-90938500D02*
X130030000Y-90137500D01*
X132320000Y-91837500D02*
X131381500Y-92776000D01*
X133320000Y-91837500D02*
X133320000Y-94222500D01*
X133320000Y-94222500D02*
X133292500Y-94250000D01*
X149460000Y-87750000D02*
X148142500Y-87750000D01*
X148142500Y-87750000D02*
X147442500Y-88450000D01*
X148030000Y-90750000D02*
X147430000Y-90150000D01*
X149460000Y-90750000D02*
X148030000Y-90750000D01*
X123180000Y-98550000D02*
X124030000Y-99400000D01*
X121692500Y-100100000D02*
X123330000Y-100100000D01*
X121692500Y-98550000D02*
X123180000Y-98550000D01*
X123330000Y-100100000D02*
X124030000Y-99400000D01*
D51*
X111642500Y-116450000D02*
X121680000Y-116450000D01*
X121680000Y-116450000D02*
X124330000Y-113800000D01*
D50*
X107030000Y-109350000D02*
X107030000Y-115062500D01*
X110730000Y-105650000D02*
X107030000Y-109350000D01*
X107030000Y-115062500D02*
X105692500Y-116400000D01*
X131080000Y-90912500D02*
X131670000Y-90912500D01*
X130030000Y-91962500D02*
X131080000Y-90912500D01*
X104904000Y-106476000D02*
X104904000Y-113949000D01*
X104904000Y-113949000D02*
X105705000Y-114750000D01*
X105730000Y-105650000D02*
X104904000Y-106476000D01*
X134470000Y-91412500D02*
X134980000Y-91412500D01*
X134980000Y-91412500D02*
X136917500Y-93350000D01*
X136917500Y-93350000D02*
X137092500Y-93350000D01*
X137092500Y-93350000D02*
X138792500Y-91650000D01*
X132820000Y-91837500D02*
X132820000Y-92736490D01*
X132306490Y-93250000D02*
X130730000Y-93250000D01*
X130730000Y-93250000D02*
X130430000Y-93550000D01*
X130430000Y-93550000D02*
X130430000Y-95750000D01*
X130430000Y-95750000D02*
X131330000Y-96650000D01*
X131330000Y-96650000D02*
X135317500Y-96650000D01*
X135317500Y-96650000D02*
X136917500Y-95050000D01*
X132820000Y-92736490D02*
X132306490Y-93250000D01*
D51*
X118330000Y-114800000D02*
X119330000Y-113800000D01*
X111642500Y-114800000D02*
X118330000Y-114800000D01*
X122880000Y-121250000D02*
X124330000Y-119800000D01*
X113142500Y-121250000D02*
X122880000Y-121250000D01*
X111642500Y-119750000D02*
X113142500Y-121250000D01*
X111642500Y-118100000D02*
X117630000Y-118100000D01*
X117630000Y-118100000D02*
X119330000Y-119800000D01*
X105330000Y-97250000D02*
X106080000Y-96500000D01*
X103029000Y-101748000D02*
X103029000Y-98051000D01*
X103029000Y-98051000D02*
X103830000Y-97250000D01*
X105531000Y-102951000D02*
X104232000Y-102951000D01*
X108230000Y-105650000D02*
X105531000Y-102951000D01*
X106080000Y-96500000D02*
X109505000Y-96500000D01*
X103830000Y-97250000D02*
X105330000Y-97250000D01*
X104232000Y-102951000D02*
X103029000Y-101748000D01*
D50*
X124380000Y-105650000D02*
X125630000Y-106900000D01*
X125630000Y-116000000D02*
X121830000Y-119800000D01*
X125630000Y-106900000D02*
X125630000Y-116000000D01*
X120530000Y-112500000D02*
X121830000Y-113800000D01*
X119380000Y-105650000D02*
X120530000Y-106800000D01*
X120530000Y-106800000D02*
X120530000Y-112500000D01*
X112455000Y-96500000D02*
X124080000Y-96500000D01*
X124080000Y-96500000D02*
X125730000Y-98150000D01*
X125730000Y-101800000D02*
X121880000Y-105650000D01*
X125730000Y-98150000D02*
X125730000Y-101800000D01*
G04 #@! TA.AperFunction,Conductor*
G36*
X132173039Y-83319685D02*
G01*
X132218794Y-83372489D01*
X132230000Y-83424000D01*
X132230000Y-85773544D01*
X132210315Y-85840583D01*
X132157511Y-85886338D01*
X132103569Y-85897520D01*
X129801569Y-85852383D01*
X129734928Y-85831388D01*
X129690217Y-85777697D01*
X129680000Y-85728407D01*
X129680000Y-83424000D01*
X129699685Y-83356961D01*
X129752489Y-83311206D01*
X129804000Y-83300000D01*
X132106000Y-83300000D01*
X132173039Y-83319685D01*
G37*
G04 #@! TD.AperFunction*
G04 #@! TA.AperFunction,Conductor*
G36*
X117643588Y-83151045D02*
G01*
X117748023Y-83164695D01*
X117779077Y-83172954D01*
X117868973Y-83209894D01*
X117896866Y-83225859D01*
X117974244Y-83284660D01*
X117997098Y-83307259D01*
X118056763Y-83383970D01*
X118073041Y-83411682D01*
X118110988Y-83501153D01*
X118119597Y-83532119D01*
X118134419Y-83636393D01*
X118135645Y-83652451D01*
X118176914Y-87325412D01*
X118175512Y-87345454D01*
X118155791Y-87475090D01*
X118143452Y-87513192D01*
X118088115Y-87620695D01*
X118064275Y-87652878D01*
X117970229Y-87744256D01*
X117954732Y-87757043D01*
X117326402Y-88195078D01*
X117260150Y-88217269D01*
X117236090Y-88215830D01*
X117069852Y-88189500D01*
X116865148Y-88189500D01*
X116840829Y-88193351D01*
X116662965Y-88221522D01*
X116468276Y-88284781D01*
X116285886Y-88377715D01*
X116120286Y-88498028D01*
X115975528Y-88642786D01*
X115855215Y-88808386D01*
X115762281Y-88990778D01*
X115699022Y-89185468D01*
X115681618Y-89295349D01*
X115651688Y-89358484D01*
X115630059Y-89377671D01*
X109497755Y-93652764D01*
X109497747Y-93652769D01*
X109280000Y-93804569D01*
X109280000Y-93804571D01*
X109280000Y-94970000D01*
X109395888Y-95109066D01*
X109395889Y-95109067D01*
X109757196Y-95542635D01*
X109769482Y-95560291D01*
X109839307Y-95681945D01*
X109853896Y-95722243D01*
X109878134Y-95860389D01*
X109880000Y-95881818D01*
X109880000Y-95907787D01*
X109877617Y-95931981D01*
X109867303Y-95983827D01*
X109864113Y-95991526D01*
X109864022Y-95996682D01*
X109848790Y-96028521D01*
X109826340Y-96062122D01*
X109792128Y-96096335D01*
X109781254Y-96103601D01*
X109773987Y-96105876D01*
X109772729Y-96106928D01*
X109769222Y-96107368D01*
X109714577Y-96124480D01*
X109712362Y-96124500D01*
X109274503Y-96124500D01*
X109274494Y-96124501D01*
X109250419Y-96127293D01*
X109250415Y-96127294D01*
X109224055Y-96138934D01*
X109173969Y-96149500D01*
X106029561Y-96149500D01*
X106021932Y-96150000D01*
X105479998Y-96150000D01*
X104625314Y-96447280D01*
X104608982Y-96451737D01*
X104500471Y-96473519D01*
X104466753Y-96475594D01*
X104364925Y-96467924D01*
X104331900Y-96460822D01*
X104235921Y-96425955D01*
X104206036Y-96410202D01*
X104116071Y-96345738D01*
X104103015Y-96334961D01*
X103613492Y-95871203D01*
X103601780Y-95858441D01*
X103531235Y-95769874D01*
X103513681Y-95740106D01*
X103473676Y-95643605D01*
X103465023Y-95610155D01*
X103453207Y-95506367D01*
X103454121Y-95471819D01*
X103472859Y-95360157D01*
X103476912Y-95343316D01*
X103594880Y-94970000D01*
X105358903Y-89387648D01*
X106967000Y-89387648D01*
X106967000Y-89592351D01*
X106999022Y-89794534D01*
X107062281Y-89989223D01*
X107155215Y-90171613D01*
X107275528Y-90337213D01*
X107420286Y-90481971D01*
X107575249Y-90594556D01*
X107585890Y-90602287D01*
X107702107Y-90661503D01*
X107768276Y-90695218D01*
X107768278Y-90695218D01*
X107768281Y-90695220D01*
X107872637Y-90729127D01*
X107962965Y-90758477D01*
X108064057Y-90774488D01*
X108165148Y-90790500D01*
X108165149Y-90790500D01*
X108369851Y-90790500D01*
X108369852Y-90790500D01*
X108572034Y-90758477D01*
X108766719Y-90695220D01*
X108949110Y-90602287D01*
X109042090Y-90534732D01*
X109114713Y-90481971D01*
X109114715Y-90481968D01*
X109114719Y-90481966D01*
X109259466Y-90337219D01*
X109259468Y-90337215D01*
X109259471Y-90337213D01*
X109312232Y-90264590D01*
X109379787Y-90171610D01*
X109472720Y-89989219D01*
X109535977Y-89794534D01*
X109568000Y-89592352D01*
X109568000Y-89387648D01*
X109535977Y-89185466D01*
X109472720Y-88990781D01*
X109472718Y-88990778D01*
X109472718Y-88990776D01*
X109439003Y-88924607D01*
X109379787Y-88808390D01*
X109372056Y-88797749D01*
X109259471Y-88642786D01*
X109114713Y-88498028D01*
X108949113Y-88377715D01*
X108949112Y-88377714D01*
X108949110Y-88377713D01*
X108892153Y-88348691D01*
X108766723Y-88284781D01*
X108572034Y-88221522D01*
X108397495Y-88193878D01*
X108369852Y-88189500D01*
X108165148Y-88189500D01*
X108140829Y-88193351D01*
X107962965Y-88221522D01*
X107768276Y-88284781D01*
X107585886Y-88377715D01*
X107420286Y-88498028D01*
X107275528Y-88642786D01*
X107155215Y-88808386D01*
X107062281Y-88990776D01*
X106999022Y-89185465D01*
X106967000Y-89387648D01*
X105358903Y-89387648D01*
X107216651Y-83508698D01*
X107223998Y-83490573D01*
X107281238Y-83376238D01*
X107303991Y-83344520D01*
X107386938Y-83260729D01*
X107418424Y-83237657D01*
X107523320Y-83183809D01*
X107560417Y-83171673D01*
X107672006Y-83153884D01*
X107686673Y-83151546D01*
X107706194Y-83150000D01*
X117627519Y-83150000D01*
X117643588Y-83151045D01*
G37*
G04 #@! TD.AperFunction*
G04 #@! TA.AperFunction,Conductor*
G36*
X129533735Y-87322797D02*
G01*
X129536171Y-87322814D01*
X129538647Y-87322843D01*
X130336107Y-87334291D01*
X130355246Y-87336056D01*
X130479023Y-87357253D01*
X130515356Y-87369489D01*
X130618073Y-87422975D01*
X130648937Y-87445730D01*
X130730403Y-87528043D01*
X130731609Y-87529714D01*
X130732545Y-87530263D01*
X130752838Y-87559140D01*
X130805259Y-87662403D01*
X130817121Y-87698869D01*
X130837034Y-87822848D01*
X130838602Y-87842014D01*
X130841648Y-88600271D01*
X130841649Y-88600273D01*
X131264595Y-89004830D01*
X131286270Y-89032437D01*
X131293931Y-89045706D01*
X131304492Y-89069442D01*
X131307205Y-89077807D01*
X131381645Y-89245297D01*
X131487170Y-89482729D01*
X131497543Y-89501272D01*
X131510043Y-89523618D01*
X131535660Y-89560916D01*
X131535670Y-89560930D01*
X131565619Y-89596952D01*
X131572761Y-89604094D01*
X131592465Y-89629772D01*
X131596648Y-89637016D01*
X131599505Y-89641964D01*
X131688036Y-89730495D01*
X131796464Y-89793095D01*
X131917399Y-89825500D01*
X131917402Y-89825500D01*
X131923093Y-89827025D01*
X131982753Y-89863390D01*
X132013282Y-89926237D01*
X132014999Y-89946800D01*
X132014999Y-90270975D01*
X132013468Y-90290401D01*
X132012972Y-90293528D01*
X132000988Y-90330397D01*
X131960506Y-90409847D01*
X131937703Y-90441233D01*
X131878253Y-90500682D01*
X131816933Y-90534166D01*
X131790574Y-90537000D01*
X131719436Y-90537000D01*
X131719435Y-90537000D01*
X131129436Y-90537000D01*
X131030564Y-90537000D01*
X131023567Y-90538875D01*
X130935060Y-90562590D01*
X130935059Y-90562591D01*
X130849436Y-90612026D01*
X130849437Y-90612026D01*
X130798479Y-90662984D01*
X130668485Y-90792977D01*
X130625318Y-90821030D01*
X130098935Y-91023486D01*
X130090833Y-91026284D01*
X130037114Y-91042786D01*
X130020431Y-91046673D01*
X129964946Y-91055615D01*
X129956444Y-91056686D01*
X129351755Y-91111659D01*
X129351755Y-91475386D01*
X129343937Y-91518719D01*
X129310750Y-91607697D01*
X129310748Y-91607704D01*
X129304500Y-91665809D01*
X129304500Y-92259190D01*
X129310748Y-92317299D01*
X129343937Y-92406279D01*
X129351755Y-92449613D01*
X129351755Y-94650000D01*
X130003401Y-95123596D01*
X130046058Y-95178930D01*
X130054500Y-95223901D01*
X130054500Y-95799437D01*
X130066301Y-95843481D01*
X130080088Y-95894934D01*
X130080089Y-95894937D01*
X130080090Y-95894938D01*
X130099790Y-95929059D01*
X130129526Y-95980563D01*
X131029525Y-96880562D01*
X131099438Y-96950475D01*
X131185062Y-96999910D01*
X131232811Y-97012705D01*
X131232812Y-97012705D01*
X131242903Y-97015408D01*
X131280564Y-97025500D01*
X131280565Y-97025500D01*
X131280566Y-97025500D01*
X132580035Y-97025500D01*
X132647074Y-97045185D01*
X132652935Y-97049193D01*
X133968163Y-98005059D01*
X134027115Y-98047903D01*
X134027430Y-98048132D01*
X134029628Y-98049740D01*
X134030276Y-98050217D01*
X134032505Y-98051870D01*
X134032809Y-98052097D01*
X134163986Y-98150000D01*
X144169526Y-105617549D01*
X144181525Y-105627752D01*
X144255635Y-105699370D01*
X144275295Y-105723914D01*
X144329003Y-105811866D01*
X144336343Y-105825807D01*
X144974172Y-107250000D01*
X147883656Y-113746519D01*
X147888355Y-113758691D01*
X147914890Y-113839904D01*
X147920336Y-113865386D01*
X147929314Y-113950357D01*
X147930000Y-113963386D01*
X147930000Y-118250245D01*
X147928512Y-118269399D01*
X147909276Y-118392438D01*
X147879472Y-118455632D01*
X147820235Y-118492681D01*
X147789239Y-118497259D01*
X146411975Y-118524755D01*
X146344556Y-118506413D01*
X146297756Y-118454533D01*
X146285500Y-118400780D01*
X146285500Y-114574000D01*
X146279661Y-114519687D01*
X146268455Y-114468176D01*
X146261219Y-114441802D01*
X146261216Y-114441796D01*
X146211894Y-114355181D01*
X146211890Y-114355176D01*
X146211888Y-114355172D01*
X146166133Y-114302368D01*
X146133359Y-114270743D01*
X146045024Y-114224535D01*
X146045023Y-114224534D01*
X146045022Y-114224534D01*
X146045022Y-114224533D01*
X145977990Y-114204851D01*
X145977978Y-114204848D01*
X145906001Y-114194500D01*
X145906000Y-114194500D01*
X144373204Y-114194500D01*
X144371970Y-114194530D01*
X144360518Y-114194814D01*
X144348231Y-114195425D01*
X144264973Y-114213805D01*
X144200212Y-114240041D01*
X144137385Y-114276661D01*
X141318181Y-116512581D01*
X141318178Y-116512584D01*
X141287538Y-116541288D01*
X141287530Y-116541296D01*
X141260275Y-116571402D01*
X141250743Y-116582559D01*
X141250743Y-116582560D01*
X141204534Y-116670896D01*
X141204533Y-116670897D01*
X141184851Y-116737929D01*
X141184848Y-116737941D01*
X141174500Y-116809918D01*
X141174500Y-116830198D01*
X141154815Y-116897237D01*
X141126372Y-116928277D01*
X139173199Y-118439222D01*
X139156104Y-118450327D01*
X139083782Y-118489259D01*
X139038964Y-118513385D01*
X139000509Y-118526523D01*
X138893989Y-118544217D01*
X138869265Y-118548324D01*
X138848948Y-118550000D01*
X138411569Y-118550000D01*
X138344530Y-118530315D01*
X138298775Y-118477511D01*
X138288831Y-118408353D01*
X138317856Y-118344797D01*
X138355274Y-118315514D01*
X138361610Y-118312287D01*
X138420641Y-118269399D01*
X138527213Y-118191971D01*
X138527215Y-118191968D01*
X138527219Y-118191966D01*
X138671966Y-118047219D01*
X138671968Y-118047215D01*
X138671971Y-118047213D01*
X138724732Y-117974590D01*
X138792287Y-117881610D01*
X138885220Y-117699219D01*
X138948477Y-117504534D01*
X138980500Y-117302352D01*
X138980500Y-117097648D01*
X138948477Y-116895466D01*
X138885220Y-116700781D01*
X138885218Y-116700778D01*
X138885218Y-116700776D01*
X138851503Y-116634607D01*
X138792287Y-116518390D01*
X138784556Y-116507749D01*
X138671971Y-116352786D01*
X138527213Y-116208028D01*
X138361613Y-116087715D01*
X138361612Y-116087714D01*
X138361610Y-116087713D01*
X138304653Y-116058691D01*
X138179223Y-115994781D01*
X137984534Y-115931522D01*
X137809995Y-115903878D01*
X137782352Y-115899500D01*
X137577648Y-115899500D01*
X137553329Y-115903351D01*
X137375465Y-115931522D01*
X137180776Y-115994781D01*
X136998386Y-116087715D01*
X136832786Y-116208028D01*
X136688028Y-116352786D01*
X136567715Y-116518386D01*
X136474781Y-116700776D01*
X136411522Y-116895465D01*
X136379500Y-117097648D01*
X136379500Y-117302351D01*
X136411522Y-117504534D01*
X136474781Y-117699223D01*
X136567715Y-117881613D01*
X136688028Y-118047213D01*
X136832786Y-118191971D01*
X136998385Y-118312284D01*
X136998387Y-118312285D01*
X136998390Y-118312287D01*
X137004724Y-118315514D01*
X137055521Y-118363488D01*
X137072317Y-118431309D01*
X137049781Y-118497444D01*
X136995066Y-118540896D01*
X136948431Y-118550000D01*
X131838126Y-118550000D01*
X131821941Y-118548939D01*
X131808917Y-118547224D01*
X131716775Y-118535093D01*
X131685508Y-118526715D01*
X131595081Y-118489259D01*
X131567048Y-118473074D01*
X131489398Y-118413491D01*
X131466508Y-118390601D01*
X131445703Y-118363488D01*
X131426549Y-118338526D01*
X131406925Y-118312951D01*
X131390740Y-118284918D01*
X131353284Y-118194491D01*
X131344906Y-118163223D01*
X131331061Y-118058059D01*
X131330000Y-118041874D01*
X131330000Y-108397648D01*
X136379500Y-108397648D01*
X136379500Y-108602351D01*
X136411522Y-108804534D01*
X136474781Y-108999223D01*
X136567715Y-109181613D01*
X136688028Y-109347213D01*
X136832786Y-109491971D01*
X136987749Y-109604556D01*
X136998390Y-109612287D01*
X137114607Y-109671503D01*
X137180776Y-109705218D01*
X137180778Y-109705218D01*
X137180781Y-109705220D01*
X137285137Y-109739127D01*
X137375465Y-109768477D01*
X137476557Y-109784488D01*
X137577648Y-109800500D01*
X137577649Y-109800500D01*
X137782351Y-109800500D01*
X137782352Y-109800500D01*
X137984534Y-109768477D01*
X138179219Y-109705220D01*
X138361610Y-109612287D01*
X138454590Y-109544732D01*
X138527213Y-109491971D01*
X138527215Y-109491968D01*
X138527219Y-109491966D01*
X138671966Y-109347219D01*
X138671968Y-109347215D01*
X138671971Y-109347213D01*
X138724732Y-109274590D01*
X138792287Y-109181610D01*
X138885220Y-108999219D01*
X138948477Y-108804534D01*
X138980500Y-108602352D01*
X138980500Y-108397648D01*
X138948477Y-108195466D01*
X138885220Y-108000781D01*
X138885218Y-108000778D01*
X138885218Y-108000776D01*
X138851503Y-107934607D01*
X138792287Y-107818390D01*
X138784556Y-107807749D01*
X138671971Y-107652786D01*
X138527213Y-107508028D01*
X138361613Y-107387715D01*
X138361612Y-107387714D01*
X138361610Y-107387713D01*
X138304653Y-107358691D01*
X138179223Y-107294781D01*
X137984534Y-107231522D01*
X137809995Y-107203878D01*
X137782352Y-107199500D01*
X137577648Y-107199500D01*
X137553329Y-107203351D01*
X137375465Y-107231522D01*
X137180776Y-107294781D01*
X136998386Y-107387715D01*
X136832786Y-107508028D01*
X136688028Y-107652786D01*
X136567715Y-107818386D01*
X136474781Y-108000776D01*
X136411522Y-108195465D01*
X136379500Y-108397648D01*
X131330000Y-108397648D01*
X131330000Y-107250000D01*
X131329999Y-107249999D01*
X131301142Y-107199500D01*
X126130000Y-98150000D01*
X126129994Y-98149994D01*
X126126601Y-98145437D01*
X126106276Y-98103464D01*
X126105500Y-98100567D01*
X126105500Y-98100565D01*
X126079910Y-98005062D01*
X126030475Y-97919438D01*
X125960562Y-97849525D01*
X124310563Y-96199526D01*
X124310562Y-96199525D01*
X124280093Y-96181933D01*
X124248081Y-96163451D01*
X124248077Y-96163449D01*
X124225794Y-96150584D01*
X124225238Y-96150000D01*
X124224602Y-96150000D01*
X124200734Y-96143604D01*
X124200733Y-96143604D01*
X124139859Y-96127293D01*
X124129436Y-96124500D01*
X124129435Y-96124500D01*
X112405565Y-96124500D01*
X112405563Y-96124500D01*
X112179500Y-96124500D01*
X112170814Y-96121949D01*
X112161853Y-96123238D01*
X112137812Y-96112259D01*
X112112461Y-96104815D01*
X112106533Y-96097974D01*
X112098297Y-96094213D01*
X112084007Y-96071978D01*
X112066706Y-96052011D01*
X112064418Y-96041496D01*
X112060523Y-96035435D01*
X112055500Y-96000500D01*
X112055500Y-95881481D01*
X112069035Y-95825147D01*
X112113794Y-95737379D01*
X112123967Y-95720795D01*
X112734368Y-94881494D01*
X112830000Y-94750000D01*
X112830000Y-93900026D01*
X112831091Y-93883612D01*
X112832649Y-93871939D01*
X112845333Y-93776972D01*
X112853946Y-93745304D01*
X112892448Y-93653805D01*
X112909068Y-93625509D01*
X112970238Y-93547317D01*
X112993704Y-93524373D01*
X113079908Y-93460002D01*
X113093699Y-93451065D01*
X114599482Y-92611494D01*
X120177717Y-89501272D01*
X120180004Y-89500007D01*
X120182311Y-89498744D01*
X122227430Y-88387816D01*
X124110531Y-87364897D01*
X124124616Y-87358354D01*
X124219378Y-87321365D01*
X124249471Y-87313788D01*
X124296329Y-87308082D01*
X124310074Y-87306409D01*
X124325062Y-87305500D01*
X125509951Y-87305500D01*
X129533735Y-87322797D01*
G37*
G04 #@! TD.AperFunction*
G04 #@! TA.AperFunction,Conductor*
G36*
X145464075Y-84242993D02*
G01*
X145529901Y-84357007D01*
X145622993Y-84450099D01*
X145737007Y-84515925D01*
X145800590Y-84532962D01*
X145060893Y-85272658D01*
X145143828Y-85332914D01*
X145354197Y-85440102D01*
X145578752Y-85513065D01*
X145578751Y-85513065D01*
X145811948Y-85550000D01*
X146048052Y-85550000D01*
X146281247Y-85513065D01*
X146505802Y-85440102D01*
X146716163Y-85332918D01*
X146716169Y-85332914D01*
X146799104Y-85272658D01*
X146799105Y-85272658D01*
X146059408Y-84532962D01*
X146122993Y-84515925D01*
X146237007Y-84450099D01*
X146330099Y-84357007D01*
X146395925Y-84242993D01*
X146412962Y-84179409D01*
X147152658Y-84919105D01*
X147152658Y-84919104D01*
X147212914Y-84836169D01*
X147212920Y-84836159D01*
X147214780Y-84832511D01*
X147262753Y-84781714D01*
X147330574Y-84764917D01*
X147396709Y-84787453D01*
X147440162Y-84842167D01*
X147440545Y-84843122D01*
X147923548Y-86062019D01*
X148218975Y-86807553D01*
X143883554Y-86798815D01*
X144494817Y-84960376D01*
X144534645Y-84902978D01*
X144599188Y-84876220D01*
X144667951Y-84888604D01*
X144703584Y-84918809D01*
X144707340Y-84919105D01*
X145447037Y-84179408D01*
X145464075Y-84242993D01*
G37*
G04 #@! TD.AperFunction*
G04 #@! TA.AperFunction,Conductor*
G36*
X132173039Y-93569685D02*
G01*
X132218794Y-93622489D01*
X132230000Y-93674000D01*
X132230000Y-96126000D01*
X132210315Y-96193039D01*
X132157511Y-96238794D01*
X132106000Y-96250000D01*
X131487032Y-96250000D01*
X131419993Y-96230315D01*
X131392884Y-96206698D01*
X130859852Y-95584827D01*
X130831169Y-95521116D01*
X130830000Y-95504129D01*
X130830000Y-93674000D01*
X130849685Y-93606961D01*
X130902489Y-93561206D01*
X130954000Y-93550000D01*
X132106000Y-93550000D01*
X132173039Y-93569685D01*
G37*
G04 #@! TD.AperFunction*
G04 #@! TA.AperFunction,Conductor*
G36*
X133896499Y-91555244D02*
G01*
X133915112Y-91555486D01*
X133944331Y-91569289D01*
X133945677Y-91569685D01*
X133946398Y-91570266D01*
X133947024Y-91570562D01*
X133957464Y-91577464D01*
X134030000Y-91650000D01*
X134067179Y-91650000D01*
X134098280Y-91670562D01*
X134098783Y-91670897D01*
X134114152Y-91681166D01*
X134129485Y-91684215D01*
X134160575Y-91690400D01*
X134418971Y-91690399D01*
X134418981Y-91690400D01*
X134433414Y-91690400D01*
X134781126Y-91690400D01*
X134848165Y-91710085D01*
X134888788Y-91752879D01*
X135213662Y-92321408D01*
X135230000Y-92382929D01*
X135230000Y-93326000D01*
X135210315Y-93393039D01*
X135157511Y-93438794D01*
X135106000Y-93450000D01*
X133754000Y-93450000D01*
X133686961Y-93430315D01*
X133641206Y-93377511D01*
X133630000Y-93326000D01*
X133630000Y-91674000D01*
X133649685Y-91606961D01*
X133702489Y-91561206D01*
X133754000Y-91550000D01*
X133878638Y-91550000D01*
X133896499Y-91555244D01*
G37*
G04 #@! TD.AperFunction*
G04 #@! TA.AperFunction,Conductor*
G36*
X149211083Y-86818500D02*
G01*
X149212935Y-86819713D01*
X149237260Y-86835966D01*
X149310321Y-86850499D01*
X149310324Y-86850500D01*
X149851049Y-86850500D01*
X149869203Y-86855830D01*
X149888123Y-86856172D01*
X149916304Y-86869661D01*
X149918088Y-86870185D01*
X149919934Y-86871394D01*
X149921841Y-86872669D01*
X149956056Y-86906902D01*
X149993413Y-86962851D01*
X150011917Y-87007573D01*
X150025011Y-87073564D01*
X150024987Y-87121953D01*
X150011819Y-87187971D01*
X149993283Y-87232657D01*
X149955855Y-87288613D01*
X149949960Y-87294502D01*
X149947901Y-87299228D01*
X149921634Y-87322803D01*
X149912904Y-87328631D01*
X149846218Y-87349481D01*
X149844056Y-87349500D01*
X149310324Y-87349500D01*
X149237261Y-87364033D01*
X149234778Y-87365062D01*
X149187327Y-87374500D01*
X148093063Y-87374500D01*
X148086641Y-87376221D01*
X148086637Y-87376222D01*
X148029034Y-87391656D01*
X147996892Y-87395881D01*
X144852886Y-87394607D01*
X144713342Y-87505747D01*
X144713341Y-87505746D01*
X144713328Y-87505758D01*
X144220569Y-87898218D01*
X144220545Y-87898236D01*
X144220546Y-87898237D01*
X144029999Y-88050000D01*
X144019158Y-88072495D01*
X143995140Y-88106335D01*
X143989495Y-88111980D01*
X143989488Y-88111988D01*
X143917017Y-88237511D01*
X143917016Y-88237515D01*
X143879500Y-88377525D01*
X143879500Y-88522475D01*
X143917016Y-88662485D01*
X143917017Y-88662488D01*
X143989488Y-88788011D01*
X143989493Y-88788017D01*
X143993681Y-88792205D01*
X144027166Y-88853528D01*
X144030000Y-88879886D01*
X144030000Y-89720114D01*
X144010315Y-89787153D01*
X143993681Y-89807795D01*
X143989493Y-89811982D01*
X143989488Y-89811988D01*
X143917017Y-89937511D01*
X143917016Y-89937515D01*
X143879500Y-90077525D01*
X143879500Y-90222475D01*
X143917016Y-90362485D01*
X143917017Y-90362488D01*
X143989488Y-90488011D01*
X143989493Y-90488017D01*
X143993681Y-90492205D01*
X144027166Y-90553528D01*
X144030000Y-90579886D01*
X144030000Y-91650000D01*
X149299158Y-91650000D01*
X149309336Y-91650500D01*
X149720303Y-91650500D01*
X149744484Y-91652881D01*
X149820618Y-91668024D01*
X149865308Y-91686535D01*
X149921626Y-91724166D01*
X149955833Y-91758373D01*
X149993462Y-91814688D01*
X150011976Y-91859387D01*
X150025188Y-91925809D01*
X150025188Y-91934146D01*
X150027077Y-91938948D01*
X150025188Y-91974191D01*
X150011976Y-92040612D01*
X149993463Y-92085309D01*
X149987397Y-92094388D01*
X149981088Y-92099660D01*
X149979591Y-92102523D01*
X149973541Y-92105967D01*
X149933786Y-92139194D01*
X149884293Y-92149500D01*
X149310323Y-92149500D01*
X149237264Y-92164032D01*
X149237260Y-92164034D01*
X149144244Y-92226184D01*
X149142365Y-92223373D01*
X149098793Y-92247166D01*
X149072435Y-92250000D01*
X148630000Y-92250000D01*
X148630000Y-93994444D01*
X150526496Y-98841046D01*
X150526899Y-98842090D01*
X150529513Y-98848952D01*
X150530302Y-98851082D01*
X150532835Y-98858116D01*
X150533207Y-98859165D01*
X151229999Y-100850000D01*
X151230000Y-100850000D01*
X152132956Y-100850000D01*
X152199995Y-100869685D01*
X152220637Y-100886319D01*
X152273514Y-100939196D01*
X152273515Y-100939196D01*
X152273517Y-100939198D01*
X152378607Y-100990573D01*
X152412673Y-100995536D01*
X152446739Y-101000500D01*
X153598499Y-101000500D01*
X153628956Y-101009443D01*
X153659860Y-101016746D01*
X153662245Y-101019218D01*
X153665538Y-101020185D01*
X153686319Y-101044168D01*
X153708375Y-101067026D01*
X153709919Y-101071403D01*
X153711293Y-101072989D01*
X153720114Y-101100302D01*
X153725188Y-101125813D01*
X153725188Y-101174191D01*
X153711976Y-101240612D01*
X153693462Y-101285311D01*
X153655836Y-101341623D01*
X153621623Y-101375836D01*
X153565311Y-101413462D01*
X153520612Y-101431976D01*
X153441980Y-101447617D01*
X153417789Y-101450000D01*
X151230000Y-101450000D01*
X146207861Y-101450000D01*
X146187874Y-101448378D01*
X146158456Y-101443573D01*
X146058708Y-101427281D01*
X146020811Y-101414562D01*
X145905065Y-101353463D01*
X145888146Y-101342699D01*
X143537916Y-99564962D01*
X138435990Y-95705812D01*
X138421717Y-95693179D01*
X138335127Y-95603763D01*
X138313183Y-95572728D01*
X138262054Y-95469944D01*
X138250541Y-95433721D01*
X138231465Y-95310722D01*
X138230000Y-95291718D01*
X138230000Y-93358125D01*
X138231061Y-93341940D01*
X138244906Y-93236776D01*
X138253284Y-93205508D01*
X138290740Y-93115081D01*
X138306923Y-93087050D01*
X138366513Y-93009392D01*
X138389392Y-92986513D01*
X138467050Y-92926923D01*
X138495079Y-92910740D01*
X138585509Y-92873283D01*
X138616775Y-92864906D01*
X138721941Y-92851061D01*
X138738126Y-92850000D01*
X139630000Y-92850000D01*
X139630000Y-90593723D01*
X139130000Y-90593723D01*
X136462087Y-90593723D01*
X136420850Y-90586665D01*
X136410026Y-90582848D01*
X136374938Y-90562590D01*
X136286433Y-90538875D01*
X136281811Y-90537636D01*
X136281807Y-90537635D01*
X136279437Y-90537000D01*
X136279436Y-90537000D01*
X136279435Y-90537000D01*
X134420565Y-90537000D01*
X134420562Y-90537000D01*
X134386087Y-90537000D01*
X134373082Y-90533877D01*
X134363198Y-90534869D01*
X134329791Y-90523484D01*
X134324339Y-90520706D01*
X134292954Y-90497903D01*
X134225820Y-90430769D01*
X134203016Y-90399382D01*
X134159912Y-90314785D01*
X134147924Y-90277888D01*
X134131527Y-90174359D01*
X134130000Y-90154962D01*
X134130000Y-90012645D01*
X134131736Y-89991970D01*
X134140300Y-89941325D01*
X134170886Y-89878506D01*
X134230580Y-89842196D01*
X134262564Y-89838000D01*
X134299751Y-89838000D01*
X134299753Y-89838000D01*
X134420688Y-89805595D01*
X134529116Y-89742995D01*
X134617647Y-89654464D01*
X134680247Y-89546036D01*
X134712652Y-89425101D01*
X134712652Y-89299899D01*
X134709608Y-89288538D01*
X134711267Y-89218690D01*
X134720977Y-89196240D01*
X135357778Y-88050000D01*
X135433115Y-87914394D01*
X135442055Y-87900556D01*
X135506396Y-87814150D01*
X135529350Y-87790619D01*
X135607590Y-87729292D01*
X135635914Y-87712625D01*
X135727520Y-87674015D01*
X135759234Y-87665377D01*
X135838621Y-87654758D01*
X135866024Y-87651094D01*
X135882462Y-87650000D01*
X141329999Y-87650000D01*
X141330000Y-87650000D01*
X141397489Y-87627502D01*
X141397496Y-87627501D01*
X141406973Y-87624342D01*
X141406975Y-87624342D01*
X143646158Y-86877947D01*
X143646157Y-86877947D01*
X143883554Y-86798815D01*
X148218975Y-86807553D01*
X148215512Y-86798815D01*
X149144044Y-86798815D01*
X149211083Y-86818500D01*
G37*
G04 #@! TD.AperFunction*
G04 #@! TA.AperFunction,Conductor*
G36*
X145973039Y-114469685D02*
G01*
X146018794Y-114522489D01*
X146030000Y-114574000D01*
X146030000Y-118787932D01*
X147928748Y-118750025D01*
X147931223Y-118750000D01*
X157005500Y-118750000D01*
X157072539Y-118769685D01*
X157118294Y-118822489D01*
X157129500Y-118874000D01*
X157129500Y-124525500D01*
X157126949Y-124534185D01*
X157128238Y-124543147D01*
X157117259Y-124567187D01*
X157109815Y-124592539D01*
X157102974Y-124598466D01*
X157099213Y-124606703D01*
X157076978Y-124620992D01*
X157057011Y-124638294D01*
X157046496Y-124640581D01*
X157040435Y-124644477D01*
X157005500Y-124649500D01*
X156991814Y-124649500D01*
X156990224Y-124649490D01*
X141552410Y-124451569D01*
X141485629Y-124431026D01*
X141440555Y-124377640D01*
X141430000Y-124327579D01*
X141430000Y-116809920D01*
X141449685Y-116742881D01*
X141476947Y-116712766D01*
X144296151Y-114476846D01*
X144360908Y-114450611D01*
X144373204Y-114450000D01*
X145906000Y-114450000D01*
X145973039Y-114469685D01*
G37*
G04 #@! TD.AperFunction*
G04 #@! TA.AperFunction,Conductor*
G36*
X112423039Y-93719685D02*
G01*
X112468794Y-93772489D01*
X112480000Y-93824000D01*
X112480000Y-94756529D01*
X112460315Y-94823568D01*
X112456283Y-94829462D01*
X112210662Y-95167190D01*
X112198061Y-95181938D01*
X112029999Y-95350000D01*
X112017230Y-95413845D01*
X111995922Y-95462457D01*
X111917341Y-95570507D01*
X111906177Y-95587199D01*
X111895997Y-95603794D01*
X111886189Y-95621292D01*
X111841423Y-95709072D01*
X111820607Y-95765450D01*
X111820604Y-95765459D01*
X111807070Y-95821791D01*
X111807069Y-95821792D01*
X111800000Y-95881480D01*
X111800000Y-96000499D01*
X111802600Y-96036858D01*
X111802601Y-96036862D01*
X111807624Y-96071797D01*
X111807632Y-96071846D01*
X111809081Y-96080793D01*
X111810819Y-96085211D01*
X111814974Y-96095773D01*
X111814760Y-96095820D01*
X111817048Y-96106335D01*
X111824280Y-96132694D01*
X111841167Y-96162351D01*
X111844413Y-96170601D01*
X111845578Y-96173562D01*
X111861099Y-96197715D01*
X111862901Y-96200519D01*
X111873610Y-96219325D01*
X111878945Y-96225482D01*
X111883359Y-96232350D01*
X111903922Y-96258821D01*
X111912423Y-96280424D01*
X111924977Y-96299958D01*
X111927779Y-96319449D01*
X111929506Y-96323837D01*
X111930000Y-96334893D01*
X111930000Y-96366954D01*
X111927618Y-96391142D01*
X111927100Y-96393748D01*
X111927100Y-96606252D01*
X111927100Y-96606254D01*
X111927099Y-96606254D01*
X111927616Y-96608848D01*
X111930000Y-96633044D01*
X111930000Y-96866954D01*
X111927618Y-96891142D01*
X111927100Y-96893748D01*
X111927100Y-97106252D01*
X111927100Y-97106254D01*
X111927099Y-97106254D01*
X111927616Y-97108848D01*
X111930000Y-97133044D01*
X111930000Y-97370331D01*
X111927618Y-97394519D01*
X111927100Y-97397123D01*
X111927100Y-97627871D01*
X111927618Y-97630471D01*
X111930000Y-97654661D01*
X111930000Y-97866954D01*
X111927618Y-97891142D01*
X111927100Y-97893748D01*
X111927100Y-98106252D01*
X111927100Y-98106254D01*
X111927099Y-98106254D01*
X111927616Y-98108848D01*
X111930000Y-98133044D01*
X111930000Y-100134247D01*
X111918818Y-100180821D01*
X111919595Y-100181074D01*
X111916579Y-100190355D01*
X111902100Y-100281777D01*
X111902100Y-100818222D01*
X111902099Y-100818222D01*
X111916578Y-100909640D01*
X111919595Y-100918923D01*
X111918817Y-100919175D01*
X111919606Y-100922460D01*
X111924977Y-100930817D01*
X111930000Y-100965752D01*
X111930000Y-101126000D01*
X111910315Y-101193039D01*
X111857511Y-101238794D01*
X111806000Y-101250000D01*
X108354000Y-101250000D01*
X108286961Y-101230315D01*
X108241206Y-101177511D01*
X108230000Y-101126000D01*
X108230000Y-97957544D01*
X108249685Y-97890505D01*
X108302489Y-97844750D01*
X108336458Y-97834791D01*
X108725978Y-97779146D01*
X108743514Y-97777900D01*
X109861253Y-97777900D01*
X109861254Y-97777899D01*
X109916790Y-97766853D01*
X109979771Y-97724771D01*
X110021853Y-97661790D01*
X110032900Y-97606252D01*
X110032900Y-97393748D01*
X110021853Y-97338210D01*
X110021853Y-97338209D01*
X109979771Y-97275229D01*
X109979770Y-97275228D01*
X109916790Y-97233146D01*
X109861256Y-97222100D01*
X109861252Y-97222100D01*
X109541586Y-97222100D01*
X109181637Y-97222100D01*
X109161792Y-97216272D01*
X109141129Y-97215297D01*
X109128943Y-97206627D01*
X109114598Y-97202415D01*
X109101054Y-97186784D01*
X109084198Y-97174792D01*
X109078633Y-97160910D01*
X109068843Y-97149611D01*
X109065899Y-97129139D01*
X109058203Y-97109938D01*
X109059423Y-97084099D01*
X109058899Y-97080453D01*
X109059863Y-97074709D01*
X109100074Y-96865611D01*
X109132064Y-96803499D01*
X109192558Y-96768539D01*
X109246033Y-96767415D01*
X109298743Y-96777899D01*
X109298747Y-96777900D01*
X109298748Y-96777900D01*
X109861253Y-96777900D01*
X109861254Y-96777899D01*
X109916790Y-96766853D01*
X109979771Y-96724771D01*
X110021853Y-96661790D01*
X110032900Y-96606252D01*
X110032900Y-96393748D01*
X110032382Y-96391142D01*
X110021854Y-96338212D01*
X110019047Y-96331436D01*
X110011578Y-96261967D01*
X110024538Y-96224994D01*
X110030199Y-96214525D01*
X110038785Y-96204064D01*
X110061235Y-96170463D01*
X110079272Y-96138785D01*
X110094504Y-96106946D01*
X110098311Y-96098608D01*
X110100519Y-96088443D01*
X110103344Y-96081628D01*
X110117893Y-96033678D01*
X110128207Y-95981832D01*
X110131887Y-95957025D01*
X110134270Y-95932831D01*
X110135500Y-95907787D01*
X110135500Y-95881818D01*
X110134537Y-95859653D01*
X110132671Y-95838224D01*
X110129790Y-95816235D01*
X110129789Y-95816232D01*
X110129787Y-95816213D01*
X110105554Y-95678099D01*
X110105553Y-95678096D01*
X110105552Y-95678089D01*
X110094137Y-95635269D01*
X110079548Y-95594971D01*
X110060901Y-95554758D01*
X109991076Y-95433104D01*
X109988816Y-95429535D01*
X109979205Y-95414357D01*
X109966923Y-95396708D01*
X109966917Y-95396699D01*
X109953477Y-95379068D01*
X109953475Y-95379066D01*
X109953467Y-95379055D01*
X109564241Y-94911984D01*
X109536445Y-94847881D01*
X109535500Y-94832601D01*
X109535500Y-94002621D01*
X109555185Y-93935582D01*
X109588585Y-93900900D01*
X109643864Y-93862364D01*
X109844806Y-93722278D01*
X109911057Y-93700088D01*
X109915719Y-93700000D01*
X112356000Y-93700000D01*
X112423039Y-93719685D01*
G37*
G04 #@! TD.AperFunction*
G04 #@! TA.AperFunction,Conductor*
G36*
X129439685Y-83069685D02*
G01*
X129485440Y-83122489D01*
X129495384Y-83191647D01*
X129482521Y-83231476D01*
X129454534Y-83284977D01*
X129454533Y-83284977D01*
X129434851Y-83352009D01*
X129434848Y-83352021D01*
X129424500Y-83423998D01*
X129424500Y-85728413D01*
X129429816Y-85780258D01*
X129429818Y-85780266D01*
X129440035Y-85829556D01*
X129446257Y-85853616D01*
X129493880Y-85941196D01*
X129538591Y-85994887D01*
X129570741Y-86027150D01*
X129658154Y-86075080D01*
X129658156Y-86075080D01*
X129658157Y-86075081D01*
X129724791Y-86096074D01*
X129724792Y-86096074D01*
X129724795Y-86096075D01*
X129796560Y-86107834D01*
X132098560Y-86152971D01*
X132126995Y-86150336D01*
X132155425Y-86147702D01*
X132155428Y-86147701D01*
X132155431Y-86147701D01*
X132209373Y-86136519D01*
X132238198Y-86128763D01*
X132324828Y-86079432D01*
X132377632Y-86033677D01*
X132409257Y-86000903D01*
X132455465Y-85912568D01*
X132456042Y-85910605D01*
X132472775Y-85853616D01*
X132475150Y-85845529D01*
X132485500Y-85773544D01*
X132485500Y-83424000D01*
X132479661Y-83369687D01*
X132468455Y-83318176D01*
X132461219Y-83291802D01*
X132429078Y-83235359D01*
X132413011Y-83167362D01*
X132436256Y-83101472D01*
X132491433Y-83058610D01*
X132536833Y-83050000D01*
X133822646Y-83050000D01*
X133889685Y-83069685D01*
X133935440Y-83122489D01*
X133945384Y-83191647D01*
X133932521Y-83231476D01*
X133904534Y-83284977D01*
X133904533Y-83284977D01*
X133884851Y-83352009D01*
X133884848Y-83352021D01*
X133874500Y-83423998D01*
X133874500Y-85728413D01*
X133879816Y-85780258D01*
X133879818Y-85780266D01*
X133890035Y-85829556D01*
X133896257Y-85853616D01*
X133943880Y-85941196D01*
X133988591Y-85994887D01*
X134020741Y-86027150D01*
X134108154Y-86075080D01*
X134108156Y-86075080D01*
X134108157Y-86075081D01*
X134174791Y-86096074D01*
X134174792Y-86096074D01*
X134174795Y-86096075D01*
X134246560Y-86107834D01*
X136448560Y-86151010D01*
X136476995Y-86148375D01*
X136505425Y-86145741D01*
X136505428Y-86145740D01*
X136505431Y-86145740D01*
X136559373Y-86134558D01*
X136588198Y-86126802D01*
X136674828Y-86077471D01*
X136727632Y-86031716D01*
X136759257Y-85998942D01*
X136805465Y-85910607D01*
X136825150Y-85843568D01*
X136835500Y-85771583D01*
X136835500Y-83424000D01*
X136829661Y-83369687D01*
X136818455Y-83318176D01*
X136811219Y-83291802D01*
X136779078Y-83235359D01*
X136763011Y-83167362D01*
X136786256Y-83101472D01*
X136841433Y-83058610D01*
X136886833Y-83050000D01*
X142906000Y-83050000D01*
X142973039Y-83069685D01*
X143018794Y-83122489D01*
X143030000Y-83174000D01*
X143030000Y-86724636D01*
X143010315Y-86791675D01*
X142957511Y-86837430D01*
X142945212Y-86842273D01*
X142341123Y-87043637D01*
X142301911Y-87050000D01*
X135129999Y-87050000D01*
X134830000Y-87349999D01*
X134830000Y-88344955D01*
X134810315Y-88411994D01*
X134757511Y-88457749D01*
X134726385Y-88467268D01*
X134457145Y-88512141D01*
X134387782Y-88503745D01*
X134376825Y-88498251D01*
X134375867Y-88497855D01*
X134375864Y-88497853D01*
X134279751Y-88472100D01*
X134180249Y-88472100D01*
X134112418Y-88490275D01*
X134080325Y-88494500D01*
X133681361Y-88494500D01*
X133654064Y-88495963D01*
X133654059Y-88495963D01*
X133654047Y-88495964D01*
X133654039Y-88495964D01*
X133654010Y-88495967D01*
X133627689Y-88498797D01*
X133627687Y-88498798D01*
X133532562Y-88528585D01*
X133532550Y-88528589D01*
X133471242Y-88562065D01*
X133471236Y-88562069D01*
X133413020Y-88605648D01*
X133413005Y-88605661D01*
X133363571Y-88655094D01*
X133336949Y-88686384D01*
X133313737Y-88718589D01*
X133292470Y-88753742D01*
X133242389Y-88853904D01*
X133228455Y-88887586D01*
X133228452Y-88887594D01*
X133217326Y-88921075D01*
X133214605Y-88929777D01*
X133214605Y-88929780D01*
X133213429Y-88942967D01*
X133213409Y-88943208D01*
X133212281Y-88955877D01*
X133211749Y-88955757D01*
X133208667Y-88969356D01*
X133203365Y-89003052D01*
X133205944Y-89027047D01*
X133205764Y-89029073D01*
X133206156Y-89032709D01*
X133206155Y-89032728D01*
X133213263Y-89098542D01*
X133213268Y-89098572D01*
X133222170Y-89143213D01*
X133222171Y-89143214D01*
X133225742Y-89150033D01*
X133237486Y-89183243D01*
X133237592Y-89183773D01*
X133240000Y-89208091D01*
X133240000Y-90508964D01*
X133240452Y-90524167D01*
X133241647Y-90544217D01*
X133241367Y-90544233D01*
X133242100Y-90553179D01*
X133242100Y-90644676D01*
X133251477Y-90691821D01*
X133251478Y-90691822D01*
X133287206Y-90745293D01*
X133340677Y-90781021D01*
X133344459Y-90782588D01*
X133345272Y-90782599D01*
X133347746Y-90783949D01*
X133351962Y-90785696D01*
X133351774Y-90786148D01*
X133359820Y-90790540D01*
X133377180Y-90797684D01*
X133383189Y-90801659D01*
X133412978Y-90826775D01*
X133435851Y-90836848D01*
X133438524Y-90838658D01*
X133469025Y-90855550D01*
X133478373Y-90860728D01*
X133494072Y-90864241D01*
X133495620Y-90864597D01*
X133502631Y-90866260D01*
X133504213Y-90866957D01*
X133516192Y-90869617D01*
X133516221Y-90869484D01*
X133525266Y-90871631D01*
X133549648Y-90877046D01*
X133549648Y-90877047D01*
X133572406Y-90882102D01*
X133572410Y-90882102D01*
X133572598Y-90882144D01*
X133572617Y-90882148D01*
X133573778Y-90882305D01*
X133575368Y-90882463D01*
X133575657Y-90882498D01*
X133575659Y-90882499D01*
X133575660Y-90882499D01*
X133575782Y-90882514D01*
X133581728Y-90882809D01*
X133640377Y-90887261D01*
X133644928Y-90887607D01*
X133644928Y-90887606D01*
X133644929Y-90887607D01*
X133657019Y-90886795D01*
X133687885Y-90881672D01*
X133708184Y-90880000D01*
X133749666Y-90880000D01*
X133766772Y-90879426D01*
X133770913Y-90879148D01*
X133770918Y-90879148D01*
X133770923Y-90879147D01*
X133770926Y-90879147D01*
X133816469Y-90871918D01*
X133819457Y-90871161D01*
X133821488Y-90870667D01*
X133824745Y-90869903D01*
X133833130Y-90868411D01*
X133850512Y-90864687D01*
X133853953Y-90863057D01*
X133864216Y-90860652D01*
X133893368Y-90862267D01*
X133922533Y-90861069D01*
X133927837Y-90864177D01*
X133933978Y-90864518D01*
X133957626Y-90881636D01*
X133982813Y-90896398D01*
X133985595Y-90901882D01*
X133990576Y-90905488D01*
X134001213Y-90932669D01*
X134014423Y-90958708D01*
X134015611Y-90969459D01*
X134016039Y-90970552D01*
X134015841Y-90971537D01*
X134016431Y-90976874D01*
X134025268Y-91219879D01*
X134022971Y-91248559D01*
X134022650Y-91250174D01*
X133990274Y-91312089D01*
X133929563Y-91346672D01*
X133901029Y-91350000D01*
X132254000Y-91350000D01*
X132186961Y-91330315D01*
X132141206Y-91277511D01*
X132130000Y-91226000D01*
X132130000Y-90978923D01*
X132149685Y-90911884D01*
X132202489Y-90866129D01*
X132268345Y-90855756D01*
X132279708Y-90857079D01*
X132284560Y-90858504D01*
X132313452Y-90867766D01*
X132385163Y-90879885D01*
X132386707Y-90879923D01*
X132392993Y-90880000D01*
X132476502Y-90880000D01*
X132483654Y-90880833D01*
X132484208Y-90881068D01*
X132487003Y-90881268D01*
X132496382Y-90882621D01*
X132501306Y-90882742D01*
X132511152Y-90882985D01*
X132511152Y-90882984D01*
X132511156Y-90882985D01*
X132568684Y-90877873D01*
X132623246Y-90866705D01*
X132652698Y-90858820D01*
X132739328Y-90809489D01*
X132739334Y-90809484D01*
X132744308Y-90805966D01*
X132744890Y-90806788D01*
X132796299Y-90781622D01*
X132799323Y-90781021D01*
X132834969Y-90757202D01*
X132852792Y-90745294D01*
X132856283Y-90740070D01*
X132888521Y-90691823D01*
X132888521Y-90691821D01*
X132888522Y-90691821D01*
X132897899Y-90644676D01*
X132897900Y-90644674D01*
X132897900Y-90527075D01*
X132899162Y-90509428D01*
X132899229Y-90508960D01*
X132900000Y-90503601D01*
X132900000Y-89208087D01*
X132902383Y-89183893D01*
X132902407Y-89183773D01*
X132906889Y-89161242D01*
X132911014Y-89131411D01*
X132913300Y-89102320D01*
X132913502Y-89099556D01*
X132900699Y-89000690D01*
X132878381Y-88934482D01*
X132845581Y-88869576D01*
X132626337Y-88556370D01*
X132594081Y-88518687D01*
X132578281Y-88503499D01*
X132559530Y-88485475D01*
X132542802Y-88470746D01*
X132542796Y-88470742D01*
X132454462Y-88424534D01*
X132454461Y-88424533D01*
X132387429Y-88404851D01*
X132387417Y-88404848D01*
X132315440Y-88394500D01*
X132315439Y-88394500D01*
X131715804Y-88394500D01*
X131700500Y-88390435D01*
X131687106Y-88391134D01*
X131654286Y-88378163D01*
X131492477Y-88285701D01*
X131444038Y-88235350D01*
X131430000Y-88178040D01*
X131430000Y-87350000D01*
X131130000Y-87050000D01*
X123696540Y-87050000D01*
X123629501Y-87030315D01*
X123583746Y-86977511D01*
X123572541Y-86925602D01*
X123584594Y-83173602D01*
X123604493Y-83106626D01*
X123657444Y-83061041D01*
X123708593Y-83050000D01*
X129372646Y-83050000D01*
X129439685Y-83069685D01*
G37*
G04 #@! TD.AperFunction*
G04 #@! TA.AperFunction,Conductor*
G36*
X134273039Y-88769685D02*
G01*
X134318794Y-88822489D01*
X134330000Y-88874000D01*
X134330000Y-89312455D01*
X134324689Y-89330539D01*
X134324373Y-89349385D01*
X134310809Y-89377811D01*
X134310315Y-89379494D01*
X134309174Y-89381238D01*
X134275477Y-89431783D01*
X134221911Y-89476644D01*
X134172305Y-89487000D01*
X134111110Y-89487000D01*
X134032930Y-89502550D01*
X133944282Y-89561783D01*
X133885050Y-89650430D01*
X133885048Y-89650434D01*
X133869500Y-89728602D01*
X133869500Y-89728604D01*
X133869501Y-90500500D01*
X133868136Y-90505148D01*
X133869145Y-90509885D01*
X133858390Y-90538338D01*
X133849817Y-90567539D01*
X133846155Y-90570712D01*
X133844443Y-90575242D01*
X133820007Y-90593368D01*
X133797013Y-90613294D01*
X133791149Y-90614776D01*
X133788328Y-90616870D01*
X133769873Y-90620157D01*
X133753808Y-90624221D01*
X133749653Y-90624500D01*
X133667399Y-90624500D01*
X133639897Y-90631869D01*
X133627807Y-90632681D01*
X133605049Y-90627626D01*
X133581741Y-90627071D01*
X133571578Y-90620192D01*
X133559599Y-90617532D01*
X133543185Y-90600974D01*
X133523879Y-90587907D01*
X133519048Y-90576626D01*
X133510410Y-90567912D01*
X133505553Y-90545109D01*
X133496377Y-90523678D01*
X133495500Y-90508960D01*
X133495500Y-89170713D01*
X133495499Y-89170711D01*
X133480459Y-89095098D01*
X133478727Y-89092506D01*
X133476687Y-89085992D01*
X133475785Y-89083814D01*
X133475979Y-89083733D01*
X133475038Y-89080725D01*
X133467288Y-89071117D01*
X133464792Y-89048007D01*
X133457848Y-89025829D01*
X133460930Y-89012230D01*
X133459788Y-89001651D01*
X133470915Y-88968169D01*
X133521004Y-88867991D01*
X133544227Y-88835772D01*
X133593682Y-88786318D01*
X133655005Y-88752834D01*
X133681362Y-88750000D01*
X134206000Y-88750000D01*
X134273039Y-88769685D01*
G37*
G04 #@! TD.AperFunction*
G04 #@! TA.AperFunction,Conductor*
G36*
X157072539Y-95369685D02*
G01*
X157118294Y-95422489D01*
X157129500Y-95474000D01*
X157129500Y-108126000D01*
X157109815Y-108193039D01*
X157057011Y-108238794D01*
X157005500Y-108250000D01*
X152554000Y-108250000D01*
X152486961Y-108230315D01*
X152441206Y-108177511D01*
X152430000Y-108126000D01*
X152430000Y-101829500D01*
X152449685Y-101762461D01*
X152502489Y-101716706D01*
X152554000Y-101705500D01*
X153417776Y-101705500D01*
X153417789Y-101705500D01*
X153442836Y-101704269D01*
X153467027Y-101701886D01*
X153491826Y-101698208D01*
X153570458Y-101682567D01*
X153618383Y-101668029D01*
X153618392Y-101668025D01*
X153618396Y-101668024D01*
X153631777Y-101662481D01*
X153663082Y-101649515D01*
X153707258Y-101625903D01*
X153763570Y-101588277D01*
X153802289Y-101556502D01*
X153836502Y-101522289D01*
X153868277Y-101483570D01*
X153905903Y-101427258D01*
X153929515Y-101383082D01*
X153948029Y-101338383D01*
X153962567Y-101290458D01*
X153975779Y-101224037D01*
X153980688Y-101174191D01*
X153980688Y-101125813D01*
X153975779Y-101075972D01*
X153970705Y-101050461D01*
X153970700Y-101050444D01*
X153970697Y-101050428D01*
X153964820Y-101027824D01*
X153963249Y-101021779D01*
X153954428Y-100994466D01*
X153953726Y-100992326D01*
X153953724Y-100992323D01*
X153951689Y-100987731D01*
X153948870Y-100980817D01*
X153946134Y-100973480D01*
X153918645Y-100930706D01*
X153904404Y-100905691D01*
X153903030Y-100904105D01*
X153902079Y-100904928D01*
X153892238Y-100889615D01*
X153891020Y-100888353D01*
X153890591Y-100887533D01*
X153888462Y-100884842D01*
X153888972Y-100884438D01*
X153858635Y-100826444D01*
X153864862Y-100756852D01*
X153865693Y-100754792D01*
X153868224Y-100748680D01*
X153868227Y-100748677D01*
X153868227Y-100748672D01*
X153868229Y-100748670D01*
X153882899Y-100674914D01*
X153882900Y-100674911D01*
X153882899Y-100425090D01*
X153868227Y-100351323D01*
X153868226Y-100351321D01*
X153868225Y-100351319D01*
X153829852Y-100293890D01*
X153808974Y-100227212D01*
X153827458Y-100159832D01*
X153829834Y-100156135D01*
X153868227Y-100098677D01*
X153882900Y-100024911D01*
X153882899Y-99775090D01*
X153868227Y-99701323D01*
X153868226Y-99701321D01*
X153868225Y-99701319D01*
X153829852Y-99643890D01*
X153808974Y-99577212D01*
X153827458Y-99509832D01*
X153829834Y-99506135D01*
X153868227Y-99448677D01*
X153882900Y-99374911D01*
X153882899Y-99125090D01*
X153868227Y-99051323D01*
X153868226Y-99051321D01*
X153868225Y-99051319D01*
X153845745Y-99017677D01*
X153812331Y-98967669D01*
X153728677Y-98911773D01*
X153728675Y-98911772D01*
X153728672Y-98911771D01*
X153654915Y-98897100D01*
X152554000Y-98897100D01*
X152486961Y-98877415D01*
X152441206Y-98824611D01*
X152430000Y-98773100D01*
X152430000Y-95474000D01*
X152449685Y-95406961D01*
X152502489Y-95361206D01*
X152554000Y-95350000D01*
X157005500Y-95350000D01*
X157072539Y-95369685D01*
G37*
G04 #@! TD.AperFunction*
G04 #@! TA.AperFunction,Conductor*
G36*
X132382478Y-88669685D02*
G01*
X132417023Y-88702890D01*
X132636267Y-89016096D01*
X132658585Y-89082304D01*
X132656299Y-89111395D01*
X132644500Y-89170711D01*
X132644500Y-90503601D01*
X132624815Y-90570640D01*
X132572011Y-90616395D01*
X132517449Y-90627563D01*
X132502675Y-90627199D01*
X132492601Y-90624500D01*
X132392993Y-90624500D01*
X132391449Y-90624462D01*
X132359578Y-90614245D01*
X132327461Y-90604815D01*
X132326423Y-90603617D01*
X132324914Y-90603134D01*
X132303603Y-90577281D01*
X132281706Y-90552011D01*
X132281323Y-90550254D01*
X132280472Y-90549221D01*
X132279718Y-90542874D01*
X132270500Y-90500500D01*
X132270499Y-89728610D01*
X132270499Y-89728608D01*
X132254950Y-89650432D01*
X132195717Y-89561783D01*
X132195716Y-89561782D01*
X132107069Y-89502550D01*
X132107065Y-89502548D01*
X132028896Y-89487000D01*
X131868362Y-89487000D01*
X131838921Y-89478355D01*
X131808935Y-89471832D01*
X131803919Y-89468077D01*
X131801323Y-89467315D01*
X131780681Y-89450681D01*
X131746281Y-89416281D01*
X131720649Y-89378961D01*
X131540687Y-88974045D01*
X131530000Y-88923684D01*
X131530000Y-88774000D01*
X131549685Y-88706961D01*
X131602489Y-88661206D01*
X131654000Y-88650000D01*
X132315439Y-88650000D01*
X132382478Y-88669685D01*
G37*
G04 #@! TD.AperFunction*
G04 #@! TA.AperFunction,Conductor*
G36*
X136523039Y-83319685D02*
G01*
X136568794Y-83372489D01*
X136580000Y-83424000D01*
X136580000Y-85771583D01*
X136560315Y-85838622D01*
X136507511Y-85884377D01*
X136453569Y-85895559D01*
X134251569Y-85852383D01*
X134184928Y-85831388D01*
X134140217Y-85777697D01*
X134130000Y-85728407D01*
X134130000Y-83424000D01*
X134149685Y-83356961D01*
X134202489Y-83311206D01*
X134254000Y-83300000D01*
X136456000Y-83300000D01*
X136523039Y-83319685D01*
G37*
G04 #@! TD.AperFunction*
M02*
