G04 #@! TF.GenerationSoftware,KiCad,Pcbnew,9.0.0*
G04 #@! TF.CreationDate,2025-04-25T18:31:33-04:00*
G04 #@! TF.ProjectId,bq25171_breakout,62713235-3137-4315-9f62-7265616b6f75,rev?*
G04 #@! TF.SameCoordinates,Original*
G04 #@! TF.FileFunction,Legend,Top*
G04 #@! TF.FilePolarity,Positive*
%FSLAX46Y46*%
G04 Gerber Fmt 4.6, Leading zero omitted, Abs format (unit mm)*
G04 Created by KiCad (PCBNEW 9.0.0) date 2025-04-25 18:31:33*
%MOMM*%
%LPD*%
G01*
G04 APERTURE LIST*
G04 Aperture macros list*
%AMRoundRect*
0 Rectangle with rounded corners*
0 $1 Rounding radius*
0 $2 $3 $4 $5 $6 $7 $8 $9 X,Y pos of 4 corners*
0 Add a 4 corners polygon primitive as box body*
4,1,4,$2,$3,$4,$5,$6,$7,$8,$9,$2,$3,0*
0 Add four circle primitives for the rounded corners*
1,1,$1+$1,$2,$3*
1,1,$1+$1,$4,$5*
1,1,$1+$1,$6,$7*
1,1,$1+$1,$8,$9*
0 Add four rect primitives between the rounded corners*
20,1,$1+$1,$2,$3,$4,$5,0*
20,1,$1+$1,$4,$5,$6,$7,0*
20,1,$1+$1,$6,$7,$8,$9,0*
20,1,$1+$1,$8,$9,$2,$3,0*%
G04 Aperture macros list end*
%ADD10C,0.100000*%
%ADD11C,0.152400*%
%ADD12C,0.120000*%
%ADD13C,0.127000*%
%ADD14C,0.200000*%
%ADD15C,0.010000*%
%ADD16RoundRect,0.250000X-1.100000X0.412500X-1.100000X-0.412500X1.100000X-0.412500X1.100000X0.412500X0*%
%ADD17RoundRect,0.218750X-0.218750X-0.256250X0.218750X-0.256250X0.218750X0.256250X-0.218750X0.256250X0*%
%ADD18RoundRect,0.237500X-0.300000X-0.237500X0.300000X-0.237500X0.300000X0.237500X-0.300000X0.237500X0*%
%ADD19RoundRect,0.250001X-0.499999X-0.999999X0.499999X-0.999999X0.499999X0.999999X-0.499999X0.999999X0*%
%ADD20RoundRect,0.237500X-0.250000X-0.237500X0.250000X-0.237500X0.250000X0.237500X-0.250000X0.237500X0*%
%ADD21RoundRect,0.037500X-0.262500X-0.087500X0.262500X-0.087500X0.262500X0.087500X-0.262500X0.087500X0*%
%ADD22RoundRect,0.041250X-0.258750X-0.096250X0.258750X-0.096250X0.258750X0.096250X-0.258750X0.096250X0*%
%ADD23R,0.250000X0.500000*%
%ADD24RoundRect,0.082500X-0.742500X-1.117500X0.742500X-1.117500X0.742500X1.117500X-0.742500X1.117500X0*%
%ADD25C,5.500000*%
%ADD26R,2.200000X2.000000*%
%ADD27RoundRect,0.237500X0.237500X-0.250000X0.237500X0.250000X-0.237500X0.250000X-0.237500X-0.250000X0*%
%ADD28R,1.000000X1.500000*%
%ADD29C,2.304000*%
%ADD30RoundRect,0.250000X-0.750000X1.650000X-0.750000X-1.650000X0.750000X-1.650000X0.750000X1.650000X0*%
%ADD31RoundRect,0.237500X0.300000X0.237500X-0.300000X0.237500X-0.300000X-0.237500X0.300000X-0.237500X0*%
%ADD32RoundRect,0.237500X0.250000X0.237500X-0.250000X0.237500X-0.250000X-0.237500X0.250000X-0.237500X0*%
%ADD33C,2.000000*%
%ADD34C,1.400000*%
%ADD35O,1.400000X1.400000*%
%ADD36RoundRect,0.250000X-0.475000X0.337500X-0.475000X-0.337500X0.475000X-0.337500X0.475000X0.337500X0*%
%ADD37C,0.650000*%
%ADD38R,1.095000X0.300000*%
%ADD39R,1.150000X0.300000*%
%ADD40O,2.100000X1.000000*%
%ADD41O,1.600000X1.000000*%
%ADD42RoundRect,0.100000X0.575000X-0.100000X0.575000X0.100000X-0.575000X0.100000X-0.575000X-0.100000X0*%
%ADD43O,1.600000X0.900000*%
%ADD44RoundRect,0.250000X0.450000X-0.550000X0.450000X0.550000X-0.450000X0.550000X-0.450000X-0.550000X0*%
%ADD45RoundRect,0.250000X0.700000X-0.700000X0.700000X0.700000X-0.700000X0.700000X-0.700000X-0.700000X0*%
%ADD46RoundRect,0.250000X-0.250000X-1.500000X0.250000X-1.500000X0.250000X1.500000X-0.250000X1.500000X0*%
%ADD47RoundRect,0.250001X-0.499999X-1.449999X0.499999X-1.449999X0.499999X1.449999X-0.499999X1.449999X0*%
%ADD48RoundRect,0.250000X-1.650000X-0.750000X1.650000X-0.750000X1.650000X0.750000X-1.650000X0.750000X0*%
G04 APERTURE END LIST*
D10*
X121830000Y-121900000D02*
X121130000Y-121900000D01*
X107580000Y-103950000D02*
X107930000Y-104300000D01*
X128030000Y-97600000D02*
X127680000Y-97250000D01*
X121530000Y-104150000D02*
X121180000Y-103800000D01*
X122230000Y-103450000D02*
X122580000Y-103800000D01*
X121830000Y-121900000D02*
X122530000Y-121900000D01*
X128380000Y-97250000D02*
X129080000Y-97250000D01*
X128380000Y-97250000D02*
X127680000Y-97250000D01*
X121130000Y-121900000D02*
X121480000Y-121550000D01*
X122180000Y-121550000D02*
X122530000Y-121900000D01*
X122580000Y-103800000D02*
X122230000Y-103450000D01*
X127680000Y-97250000D02*
X128030000Y-96900000D01*
X129080000Y-97250000D02*
X128730000Y-96900000D01*
X108280000Y-103950000D02*
X107580000Y-103950000D01*
X122530000Y-121900000D02*
X122180000Y-121550000D01*
X121880000Y-103800000D02*
X122580000Y-103800000D01*
X108980000Y-103950000D02*
X108630000Y-103600000D01*
X121880000Y-103800000D02*
X121180000Y-103800000D01*
X108980000Y-103950000D02*
X108630000Y-104300000D01*
X107580000Y-103950000D02*
X107930000Y-103600000D01*
X121480000Y-122250000D02*
X121130000Y-121900000D01*
X121180000Y-103800000D02*
X121530000Y-103450000D01*
X127680000Y-97250000D02*
X128030000Y-97600000D01*
X108630000Y-103600000D02*
X108980000Y-103950000D01*
X128730000Y-96900000D02*
X129080000Y-97250000D01*
X108280000Y-103950000D02*
X108980000Y-103950000D01*
X129080000Y-97250000D02*
X128730000Y-97600000D01*
X122580000Y-103800000D02*
X122230000Y-104150000D01*
X121180000Y-103800000D02*
X121530000Y-104150000D01*
X122530000Y-121900000D02*
X122180000Y-122250000D01*
X107930000Y-104300000D02*
X107580000Y-103950000D01*
X121130000Y-121900000D02*
X121480000Y-122250000D01*
D11*
X120120474Y-75720940D02*
X120263331Y-75768559D01*
X120263331Y-75768559D02*
X120310950Y-75816178D01*
X120310950Y-75816178D02*
X120358569Y-75911416D01*
X120358569Y-75911416D02*
X120358569Y-76054273D01*
X120358569Y-76054273D02*
X120310950Y-76149511D01*
X120310950Y-76149511D02*
X120263331Y-76197131D01*
X120263331Y-76197131D02*
X120168093Y-76244750D01*
X120168093Y-76244750D02*
X119787141Y-76244750D01*
X119787141Y-76244750D02*
X119787141Y-75244750D01*
X119787141Y-75244750D02*
X120120474Y-75244750D01*
X120120474Y-75244750D02*
X120215712Y-75292369D01*
X120215712Y-75292369D02*
X120263331Y-75339988D01*
X120263331Y-75339988D02*
X120310950Y-75435226D01*
X120310950Y-75435226D02*
X120310950Y-75530464D01*
X120310950Y-75530464D02*
X120263331Y-75625702D01*
X120263331Y-75625702D02*
X120215712Y-75673321D01*
X120215712Y-75673321D02*
X120120474Y-75720940D01*
X120120474Y-75720940D02*
X119787141Y-75720940D01*
X121215712Y-76244750D02*
X121215712Y-75720940D01*
X121215712Y-75720940D02*
X121168093Y-75625702D01*
X121168093Y-75625702D02*
X121072855Y-75578083D01*
X121072855Y-75578083D02*
X120882379Y-75578083D01*
X120882379Y-75578083D02*
X120787141Y-75625702D01*
X121215712Y-76197131D02*
X121120474Y-76244750D01*
X121120474Y-76244750D02*
X120882379Y-76244750D01*
X120882379Y-76244750D02*
X120787141Y-76197131D01*
X120787141Y-76197131D02*
X120739522Y-76101892D01*
X120739522Y-76101892D02*
X120739522Y-76006654D01*
X120739522Y-76006654D02*
X120787141Y-75911416D01*
X120787141Y-75911416D02*
X120882379Y-75863797D01*
X120882379Y-75863797D02*
X121120474Y-75863797D01*
X121120474Y-75863797D02*
X121215712Y-75816178D01*
X121549046Y-75578083D02*
X121929998Y-75578083D01*
X121691903Y-75244750D02*
X121691903Y-76101892D01*
X121691903Y-76101892D02*
X121739522Y-76197131D01*
X121739522Y-76197131D02*
X121834760Y-76244750D01*
X121834760Y-76244750D02*
X121929998Y-76244750D01*
X122120475Y-75578083D02*
X122501427Y-75578083D01*
X122263332Y-75244750D02*
X122263332Y-76101892D01*
X122263332Y-76101892D02*
X122310951Y-76197131D01*
X122310951Y-76197131D02*
X122406189Y-76244750D01*
X122406189Y-76244750D02*
X122501427Y-76244750D01*
X123215713Y-76197131D02*
X123120475Y-76244750D01*
X123120475Y-76244750D02*
X122929999Y-76244750D01*
X122929999Y-76244750D02*
X122834761Y-76197131D01*
X122834761Y-76197131D02*
X122787142Y-76101892D01*
X122787142Y-76101892D02*
X122787142Y-75720940D01*
X122787142Y-75720940D02*
X122834761Y-75625702D01*
X122834761Y-75625702D02*
X122929999Y-75578083D01*
X122929999Y-75578083D02*
X123120475Y-75578083D01*
X123120475Y-75578083D02*
X123215713Y-75625702D01*
X123215713Y-75625702D02*
X123263332Y-75720940D01*
X123263332Y-75720940D02*
X123263332Y-75816178D01*
X123263332Y-75816178D02*
X122787142Y-75911416D01*
X123691904Y-76244750D02*
X123691904Y-75578083D01*
X123691904Y-75768559D02*
X123739523Y-75673321D01*
X123739523Y-75673321D02*
X123787142Y-75625702D01*
X123787142Y-75625702D02*
X123882380Y-75578083D01*
X123882380Y-75578083D02*
X123977618Y-75578083D01*
X124215714Y-75578083D02*
X124453809Y-76244750D01*
X124691904Y-75578083D02*
X124453809Y-76244750D01*
X124453809Y-76244750D02*
X124358571Y-76482845D01*
X124358571Y-76482845D02*
X124310952Y-76530464D01*
X124310952Y-76530464D02*
X124215714Y-76578083D01*
X126406190Y-76149511D02*
X126358571Y-76197131D01*
X126358571Y-76197131D02*
X126215714Y-76244750D01*
X126215714Y-76244750D02*
X126120476Y-76244750D01*
X126120476Y-76244750D02*
X125977619Y-76197131D01*
X125977619Y-76197131D02*
X125882381Y-76101892D01*
X125882381Y-76101892D02*
X125834762Y-76006654D01*
X125834762Y-76006654D02*
X125787143Y-75816178D01*
X125787143Y-75816178D02*
X125787143Y-75673321D01*
X125787143Y-75673321D02*
X125834762Y-75482845D01*
X125834762Y-75482845D02*
X125882381Y-75387607D01*
X125882381Y-75387607D02*
X125977619Y-75292369D01*
X125977619Y-75292369D02*
X126120476Y-75244750D01*
X126120476Y-75244750D02*
X126215714Y-75244750D01*
X126215714Y-75244750D02*
X126358571Y-75292369D01*
X126358571Y-75292369D02*
X126406190Y-75339988D01*
X126834762Y-76244750D02*
X126834762Y-75244750D01*
X127263333Y-76244750D02*
X127263333Y-75720940D01*
X127263333Y-75720940D02*
X127215714Y-75625702D01*
X127215714Y-75625702D02*
X127120476Y-75578083D01*
X127120476Y-75578083D02*
X126977619Y-75578083D01*
X126977619Y-75578083D02*
X126882381Y-75625702D01*
X126882381Y-75625702D02*
X126834762Y-75673321D01*
X128168095Y-76244750D02*
X128168095Y-75720940D01*
X128168095Y-75720940D02*
X128120476Y-75625702D01*
X128120476Y-75625702D02*
X128025238Y-75578083D01*
X128025238Y-75578083D02*
X127834762Y-75578083D01*
X127834762Y-75578083D02*
X127739524Y-75625702D01*
X128168095Y-76197131D02*
X128072857Y-76244750D01*
X128072857Y-76244750D02*
X127834762Y-76244750D01*
X127834762Y-76244750D02*
X127739524Y-76197131D01*
X127739524Y-76197131D02*
X127691905Y-76101892D01*
X127691905Y-76101892D02*
X127691905Y-76006654D01*
X127691905Y-76006654D02*
X127739524Y-75911416D01*
X127739524Y-75911416D02*
X127834762Y-75863797D01*
X127834762Y-75863797D02*
X128072857Y-75863797D01*
X128072857Y-75863797D02*
X128168095Y-75816178D01*
X128644286Y-76244750D02*
X128644286Y-75578083D01*
X128644286Y-75768559D02*
X128691905Y-75673321D01*
X128691905Y-75673321D02*
X128739524Y-75625702D01*
X128739524Y-75625702D02*
X128834762Y-75578083D01*
X128834762Y-75578083D02*
X128930000Y-75578083D01*
X129691905Y-75578083D02*
X129691905Y-76387607D01*
X129691905Y-76387607D02*
X129644286Y-76482845D01*
X129644286Y-76482845D02*
X129596667Y-76530464D01*
X129596667Y-76530464D02*
X129501429Y-76578083D01*
X129501429Y-76578083D02*
X129358572Y-76578083D01*
X129358572Y-76578083D02*
X129263334Y-76530464D01*
X129691905Y-76197131D02*
X129596667Y-76244750D01*
X129596667Y-76244750D02*
X129406191Y-76244750D01*
X129406191Y-76244750D02*
X129310953Y-76197131D01*
X129310953Y-76197131D02*
X129263334Y-76149511D01*
X129263334Y-76149511D02*
X129215715Y-76054273D01*
X129215715Y-76054273D02*
X129215715Y-75768559D01*
X129215715Y-75768559D02*
X129263334Y-75673321D01*
X129263334Y-75673321D02*
X129310953Y-75625702D01*
X129310953Y-75625702D02*
X129406191Y-75578083D01*
X129406191Y-75578083D02*
X129596667Y-75578083D01*
X129596667Y-75578083D02*
X129691905Y-75625702D01*
X130168096Y-76244750D02*
X130168096Y-75578083D01*
X130168096Y-75244750D02*
X130120477Y-75292369D01*
X130120477Y-75292369D02*
X130168096Y-75339988D01*
X130168096Y-75339988D02*
X130215715Y-75292369D01*
X130215715Y-75292369D02*
X130168096Y-75244750D01*
X130168096Y-75244750D02*
X130168096Y-75339988D01*
X130644286Y-75578083D02*
X130644286Y-76244750D01*
X130644286Y-75673321D02*
X130691905Y-75625702D01*
X130691905Y-75625702D02*
X130787143Y-75578083D01*
X130787143Y-75578083D02*
X130930000Y-75578083D01*
X130930000Y-75578083D02*
X131025238Y-75625702D01*
X131025238Y-75625702D02*
X131072857Y-75720940D01*
X131072857Y-75720940D02*
X131072857Y-76244750D01*
X131977619Y-75578083D02*
X131977619Y-76387607D01*
X131977619Y-76387607D02*
X131930000Y-76482845D01*
X131930000Y-76482845D02*
X131882381Y-76530464D01*
X131882381Y-76530464D02*
X131787143Y-76578083D01*
X131787143Y-76578083D02*
X131644286Y-76578083D01*
X131644286Y-76578083D02*
X131549048Y-76530464D01*
X131977619Y-76197131D02*
X131882381Y-76244750D01*
X131882381Y-76244750D02*
X131691905Y-76244750D01*
X131691905Y-76244750D02*
X131596667Y-76197131D01*
X131596667Y-76197131D02*
X131549048Y-76149511D01*
X131549048Y-76149511D02*
X131501429Y-76054273D01*
X131501429Y-76054273D02*
X131501429Y-75768559D01*
X131501429Y-75768559D02*
X131549048Y-75673321D01*
X131549048Y-75673321D02*
X131596667Y-75625702D01*
X131596667Y-75625702D02*
X131691905Y-75578083D01*
X131691905Y-75578083D02*
X131882381Y-75578083D01*
X131882381Y-75578083D02*
X131977619Y-75625702D01*
X133549048Y-75720940D02*
X133691905Y-75768559D01*
X133691905Y-75768559D02*
X133739524Y-75816178D01*
X133739524Y-75816178D02*
X133787143Y-75911416D01*
X133787143Y-75911416D02*
X133787143Y-76054273D01*
X133787143Y-76054273D02*
X133739524Y-76149511D01*
X133739524Y-76149511D02*
X133691905Y-76197131D01*
X133691905Y-76197131D02*
X133596667Y-76244750D01*
X133596667Y-76244750D02*
X133215715Y-76244750D01*
X133215715Y-76244750D02*
X133215715Y-75244750D01*
X133215715Y-75244750D02*
X133549048Y-75244750D01*
X133549048Y-75244750D02*
X133644286Y-75292369D01*
X133644286Y-75292369D02*
X133691905Y-75339988D01*
X133691905Y-75339988D02*
X133739524Y-75435226D01*
X133739524Y-75435226D02*
X133739524Y-75530464D01*
X133739524Y-75530464D02*
X133691905Y-75625702D01*
X133691905Y-75625702D02*
X133644286Y-75673321D01*
X133644286Y-75673321D02*
X133549048Y-75720940D01*
X133549048Y-75720940D02*
X133215715Y-75720940D01*
X134358572Y-76244750D02*
X134263334Y-76197131D01*
X134263334Y-76197131D02*
X134215715Y-76149511D01*
X134215715Y-76149511D02*
X134168096Y-76054273D01*
X134168096Y-76054273D02*
X134168096Y-75768559D01*
X134168096Y-75768559D02*
X134215715Y-75673321D01*
X134215715Y-75673321D02*
X134263334Y-75625702D01*
X134263334Y-75625702D02*
X134358572Y-75578083D01*
X134358572Y-75578083D02*
X134501429Y-75578083D01*
X134501429Y-75578083D02*
X134596667Y-75625702D01*
X134596667Y-75625702D02*
X134644286Y-75673321D01*
X134644286Y-75673321D02*
X134691905Y-75768559D01*
X134691905Y-75768559D02*
X134691905Y-76054273D01*
X134691905Y-76054273D02*
X134644286Y-76149511D01*
X134644286Y-76149511D02*
X134596667Y-76197131D01*
X134596667Y-76197131D02*
X134501429Y-76244750D01*
X134501429Y-76244750D02*
X134358572Y-76244750D01*
X135549048Y-76244750D02*
X135549048Y-75720940D01*
X135549048Y-75720940D02*
X135501429Y-75625702D01*
X135501429Y-75625702D02*
X135406191Y-75578083D01*
X135406191Y-75578083D02*
X135215715Y-75578083D01*
X135215715Y-75578083D02*
X135120477Y-75625702D01*
X135549048Y-76197131D02*
X135453810Y-76244750D01*
X135453810Y-76244750D02*
X135215715Y-76244750D01*
X135215715Y-76244750D02*
X135120477Y-76197131D01*
X135120477Y-76197131D02*
X135072858Y-76101892D01*
X135072858Y-76101892D02*
X135072858Y-76006654D01*
X135072858Y-76006654D02*
X135120477Y-75911416D01*
X135120477Y-75911416D02*
X135215715Y-75863797D01*
X135215715Y-75863797D02*
X135453810Y-75863797D01*
X135453810Y-75863797D02*
X135549048Y-75816178D01*
X136025239Y-76244750D02*
X136025239Y-75578083D01*
X136025239Y-75768559D02*
X136072858Y-75673321D01*
X136072858Y-75673321D02*
X136120477Y-75625702D01*
X136120477Y-75625702D02*
X136215715Y-75578083D01*
X136215715Y-75578083D02*
X136310953Y-75578083D01*
X137072858Y-76244750D02*
X137072858Y-75244750D01*
X137072858Y-76197131D02*
X136977620Y-76244750D01*
X136977620Y-76244750D02*
X136787144Y-76244750D01*
X136787144Y-76244750D02*
X136691906Y-76197131D01*
X136691906Y-76197131D02*
X136644287Y-76149511D01*
X136644287Y-76149511D02*
X136596668Y-76054273D01*
X136596668Y-76054273D02*
X136596668Y-75768559D01*
X136596668Y-75768559D02*
X136644287Y-75673321D01*
X136644287Y-75673321D02*
X136691906Y-75625702D01*
X136691906Y-75625702D02*
X136787144Y-75578083D01*
X136787144Y-75578083D02*
X136977620Y-75578083D01*
X136977620Y-75578083D02*
X137072858Y-75625702D01*
X120691904Y-77759455D02*
X120644285Y-77807075D01*
X120644285Y-77807075D02*
X120501428Y-77854694D01*
X120501428Y-77854694D02*
X120406190Y-77854694D01*
X120406190Y-77854694D02*
X120263333Y-77807075D01*
X120263333Y-77807075D02*
X120168095Y-77711836D01*
X120168095Y-77711836D02*
X120120476Y-77616598D01*
X120120476Y-77616598D02*
X120072857Y-77426122D01*
X120072857Y-77426122D02*
X120072857Y-77283265D01*
X120072857Y-77283265D02*
X120120476Y-77092789D01*
X120120476Y-77092789D02*
X120168095Y-76997551D01*
X120168095Y-76997551D02*
X120263333Y-76902313D01*
X120263333Y-76902313D02*
X120406190Y-76854694D01*
X120406190Y-76854694D02*
X120501428Y-76854694D01*
X120501428Y-76854694D02*
X120644285Y-76902313D01*
X120644285Y-76902313D02*
X120691904Y-76949932D01*
X121120476Y-77854694D02*
X121120476Y-76854694D01*
X121549047Y-77854694D02*
X121549047Y-77330884D01*
X121549047Y-77330884D02*
X121501428Y-77235646D01*
X121501428Y-77235646D02*
X121406190Y-77188027D01*
X121406190Y-77188027D02*
X121263333Y-77188027D01*
X121263333Y-77188027D02*
X121168095Y-77235646D01*
X121168095Y-77235646D02*
X121120476Y-77283265D01*
X122453809Y-77854694D02*
X122453809Y-77330884D01*
X122453809Y-77330884D02*
X122406190Y-77235646D01*
X122406190Y-77235646D02*
X122310952Y-77188027D01*
X122310952Y-77188027D02*
X122120476Y-77188027D01*
X122120476Y-77188027D02*
X122025238Y-77235646D01*
X122453809Y-77807075D02*
X122358571Y-77854694D01*
X122358571Y-77854694D02*
X122120476Y-77854694D01*
X122120476Y-77854694D02*
X122025238Y-77807075D01*
X122025238Y-77807075D02*
X121977619Y-77711836D01*
X121977619Y-77711836D02*
X121977619Y-77616598D01*
X121977619Y-77616598D02*
X122025238Y-77521360D01*
X122025238Y-77521360D02*
X122120476Y-77473741D01*
X122120476Y-77473741D02*
X122358571Y-77473741D01*
X122358571Y-77473741D02*
X122453809Y-77426122D01*
X122930000Y-77854694D02*
X122930000Y-77188027D01*
X122930000Y-77378503D02*
X122977619Y-77283265D01*
X122977619Y-77283265D02*
X123025238Y-77235646D01*
X123025238Y-77235646D02*
X123120476Y-77188027D01*
X123120476Y-77188027D02*
X123215714Y-77188027D01*
X123977619Y-77188027D02*
X123977619Y-77997551D01*
X123977619Y-77997551D02*
X123930000Y-78092789D01*
X123930000Y-78092789D02*
X123882381Y-78140408D01*
X123882381Y-78140408D02*
X123787143Y-78188027D01*
X123787143Y-78188027D02*
X123644286Y-78188027D01*
X123644286Y-78188027D02*
X123549048Y-78140408D01*
X123977619Y-77807075D02*
X123882381Y-77854694D01*
X123882381Y-77854694D02*
X123691905Y-77854694D01*
X123691905Y-77854694D02*
X123596667Y-77807075D01*
X123596667Y-77807075D02*
X123549048Y-77759455D01*
X123549048Y-77759455D02*
X123501429Y-77664217D01*
X123501429Y-77664217D02*
X123501429Y-77378503D01*
X123501429Y-77378503D02*
X123549048Y-77283265D01*
X123549048Y-77283265D02*
X123596667Y-77235646D01*
X123596667Y-77235646D02*
X123691905Y-77188027D01*
X123691905Y-77188027D02*
X123882381Y-77188027D01*
X123882381Y-77188027D02*
X123977619Y-77235646D01*
X124834762Y-77807075D02*
X124739524Y-77854694D01*
X124739524Y-77854694D02*
X124549048Y-77854694D01*
X124549048Y-77854694D02*
X124453810Y-77807075D01*
X124453810Y-77807075D02*
X124406191Y-77711836D01*
X124406191Y-77711836D02*
X124406191Y-77330884D01*
X124406191Y-77330884D02*
X124453810Y-77235646D01*
X124453810Y-77235646D02*
X124549048Y-77188027D01*
X124549048Y-77188027D02*
X124739524Y-77188027D01*
X124739524Y-77188027D02*
X124834762Y-77235646D01*
X124834762Y-77235646D02*
X124882381Y-77330884D01*
X124882381Y-77330884D02*
X124882381Y-77426122D01*
X124882381Y-77426122D02*
X124406191Y-77521360D01*
X125310953Y-77854694D02*
X125310953Y-77188027D01*
X125310953Y-77378503D02*
X125358572Y-77283265D01*
X125358572Y-77283265D02*
X125406191Y-77235646D01*
X125406191Y-77235646D02*
X125501429Y-77188027D01*
X125501429Y-77188027D02*
X125596667Y-77188027D01*
X125930001Y-77759455D02*
X125977620Y-77807075D01*
X125977620Y-77807075D02*
X125930001Y-77854694D01*
X125930001Y-77854694D02*
X125882382Y-77807075D01*
X125882382Y-77807075D02*
X125930001Y-77759455D01*
X125930001Y-77759455D02*
X125930001Y-77854694D01*
X125930001Y-77235646D02*
X125977620Y-77283265D01*
X125977620Y-77283265D02*
X125930001Y-77330884D01*
X125930001Y-77330884D02*
X125882382Y-77283265D01*
X125882382Y-77283265D02*
X125930001Y-77235646D01*
X125930001Y-77235646D02*
X125930001Y-77330884D01*
X127501429Y-77330884D02*
X127644286Y-77378503D01*
X127644286Y-77378503D02*
X127691905Y-77426122D01*
X127691905Y-77426122D02*
X127739524Y-77521360D01*
X127739524Y-77521360D02*
X127739524Y-77664217D01*
X127739524Y-77664217D02*
X127691905Y-77759455D01*
X127691905Y-77759455D02*
X127644286Y-77807075D01*
X127644286Y-77807075D02*
X127549048Y-77854694D01*
X127549048Y-77854694D02*
X127168096Y-77854694D01*
X127168096Y-77854694D02*
X127168096Y-76854694D01*
X127168096Y-76854694D02*
X127501429Y-76854694D01*
X127501429Y-76854694D02*
X127596667Y-76902313D01*
X127596667Y-76902313D02*
X127644286Y-76949932D01*
X127644286Y-76949932D02*
X127691905Y-77045170D01*
X127691905Y-77045170D02*
X127691905Y-77140408D01*
X127691905Y-77140408D02*
X127644286Y-77235646D01*
X127644286Y-77235646D02*
X127596667Y-77283265D01*
X127596667Y-77283265D02*
X127501429Y-77330884D01*
X127501429Y-77330884D02*
X127168096Y-77330884D01*
X128834762Y-77949932D02*
X128739524Y-77902313D01*
X128739524Y-77902313D02*
X128644286Y-77807075D01*
X128644286Y-77807075D02*
X128501429Y-77664217D01*
X128501429Y-77664217D02*
X128406191Y-77616598D01*
X128406191Y-77616598D02*
X128310953Y-77616598D01*
X128358572Y-77854694D02*
X128263334Y-77807075D01*
X128263334Y-77807075D02*
X128168096Y-77711836D01*
X128168096Y-77711836D02*
X128120477Y-77521360D01*
X128120477Y-77521360D02*
X128120477Y-77188027D01*
X128120477Y-77188027D02*
X128168096Y-76997551D01*
X128168096Y-76997551D02*
X128263334Y-76902313D01*
X128263334Y-76902313D02*
X128358572Y-76854694D01*
X128358572Y-76854694D02*
X128549048Y-76854694D01*
X128549048Y-76854694D02*
X128644286Y-76902313D01*
X128644286Y-76902313D02*
X128739524Y-76997551D01*
X128739524Y-76997551D02*
X128787143Y-77188027D01*
X128787143Y-77188027D02*
X128787143Y-77521360D01*
X128787143Y-77521360D02*
X128739524Y-77711836D01*
X128739524Y-77711836D02*
X128644286Y-77807075D01*
X128644286Y-77807075D02*
X128549048Y-77854694D01*
X128549048Y-77854694D02*
X128358572Y-77854694D01*
X129168096Y-76949932D02*
X129215715Y-76902313D01*
X129215715Y-76902313D02*
X129310953Y-76854694D01*
X129310953Y-76854694D02*
X129549048Y-76854694D01*
X129549048Y-76854694D02*
X129644286Y-76902313D01*
X129644286Y-76902313D02*
X129691905Y-76949932D01*
X129691905Y-76949932D02*
X129739524Y-77045170D01*
X129739524Y-77045170D02*
X129739524Y-77140408D01*
X129739524Y-77140408D02*
X129691905Y-77283265D01*
X129691905Y-77283265D02*
X129120477Y-77854694D01*
X129120477Y-77854694D02*
X129739524Y-77854694D01*
X130644286Y-76854694D02*
X130168096Y-76854694D01*
X130168096Y-76854694D02*
X130120477Y-77330884D01*
X130120477Y-77330884D02*
X130168096Y-77283265D01*
X130168096Y-77283265D02*
X130263334Y-77235646D01*
X130263334Y-77235646D02*
X130501429Y-77235646D01*
X130501429Y-77235646D02*
X130596667Y-77283265D01*
X130596667Y-77283265D02*
X130644286Y-77330884D01*
X130644286Y-77330884D02*
X130691905Y-77426122D01*
X130691905Y-77426122D02*
X130691905Y-77664217D01*
X130691905Y-77664217D02*
X130644286Y-77759455D01*
X130644286Y-77759455D02*
X130596667Y-77807075D01*
X130596667Y-77807075D02*
X130501429Y-77854694D01*
X130501429Y-77854694D02*
X130263334Y-77854694D01*
X130263334Y-77854694D02*
X130168096Y-77807075D01*
X130168096Y-77807075D02*
X130120477Y-77759455D01*
X131644286Y-77854694D02*
X131072858Y-77854694D01*
X131358572Y-77854694D02*
X131358572Y-76854694D01*
X131358572Y-76854694D02*
X131263334Y-76997551D01*
X131263334Y-76997551D02*
X131168096Y-77092789D01*
X131168096Y-77092789D02*
X131072858Y-77140408D01*
X131977620Y-76854694D02*
X132644286Y-76854694D01*
X132644286Y-76854694D02*
X132215715Y-77854694D01*
X133549048Y-77854694D02*
X132977620Y-77854694D01*
X133263334Y-77854694D02*
X133263334Y-76854694D01*
X133263334Y-76854694D02*
X133168096Y-76997551D01*
X133168096Y-76997551D02*
X133072858Y-77092789D01*
X133072858Y-77092789D02*
X132977620Y-77140408D01*
X133977620Y-77473741D02*
X134739525Y-77473741D01*
X135882381Y-77949932D02*
X135787143Y-77902313D01*
X135787143Y-77902313D02*
X135691905Y-77807075D01*
X135691905Y-77807075D02*
X135549048Y-77664217D01*
X135549048Y-77664217D02*
X135453810Y-77616598D01*
X135453810Y-77616598D02*
X135358572Y-77616598D01*
X135406191Y-77854694D02*
X135310953Y-77807075D01*
X135310953Y-77807075D02*
X135215715Y-77711836D01*
X135215715Y-77711836D02*
X135168096Y-77521360D01*
X135168096Y-77521360D02*
X135168096Y-77188027D01*
X135168096Y-77188027D02*
X135215715Y-76997551D01*
X135215715Y-76997551D02*
X135310953Y-76902313D01*
X135310953Y-76902313D02*
X135406191Y-76854694D01*
X135406191Y-76854694D02*
X135596667Y-76854694D01*
X135596667Y-76854694D02*
X135691905Y-76902313D01*
X135691905Y-76902313D02*
X135787143Y-76997551D01*
X135787143Y-76997551D02*
X135834762Y-77188027D01*
X135834762Y-77188027D02*
X135834762Y-77521360D01*
X135834762Y-77521360D02*
X135787143Y-77711836D01*
X135787143Y-77711836D02*
X135691905Y-77807075D01*
X135691905Y-77807075D02*
X135596667Y-77854694D01*
X135596667Y-77854694D02*
X135406191Y-77854694D01*
X136787143Y-77854694D02*
X136215715Y-77854694D01*
X136501429Y-77854694D02*
X136501429Y-76854694D01*
X136501429Y-76854694D02*
X136406191Y-76997551D01*
X136406191Y-76997551D02*
X136310953Y-77092789D01*
X136310953Y-77092789D02*
X136215715Y-77140408D01*
X119001427Y-78464638D02*
X118525237Y-78464638D01*
X118525237Y-78464638D02*
X118477618Y-78940828D01*
X118477618Y-78940828D02*
X118525237Y-78893209D01*
X118525237Y-78893209D02*
X118620475Y-78845590D01*
X118620475Y-78845590D02*
X118858570Y-78845590D01*
X118858570Y-78845590D02*
X118953808Y-78893209D01*
X118953808Y-78893209D02*
X119001427Y-78940828D01*
X119001427Y-78940828D02*
X119049046Y-79036066D01*
X119049046Y-79036066D02*
X119049046Y-79274161D01*
X119049046Y-79274161D02*
X119001427Y-79369399D01*
X119001427Y-79369399D02*
X118953808Y-79417019D01*
X118953808Y-79417019D02*
X118858570Y-79464638D01*
X118858570Y-79464638D02*
X118620475Y-79464638D01*
X118620475Y-79464638D02*
X118525237Y-79417019D01*
X118525237Y-79417019D02*
X118477618Y-79369399D01*
X119334761Y-78464638D02*
X119668094Y-79464638D01*
X119668094Y-79464638D02*
X120001427Y-78464638D01*
X121429999Y-78940828D02*
X121572856Y-78988447D01*
X121572856Y-78988447D02*
X121620475Y-79036066D01*
X121620475Y-79036066D02*
X121668094Y-79131304D01*
X121668094Y-79131304D02*
X121668094Y-79274161D01*
X121668094Y-79274161D02*
X121620475Y-79369399D01*
X121620475Y-79369399D02*
X121572856Y-79417019D01*
X121572856Y-79417019D02*
X121477618Y-79464638D01*
X121477618Y-79464638D02*
X121096666Y-79464638D01*
X121096666Y-79464638D02*
X121096666Y-78464638D01*
X121096666Y-78464638D02*
X121429999Y-78464638D01*
X121429999Y-78464638D02*
X121525237Y-78512257D01*
X121525237Y-78512257D02*
X121572856Y-78559876D01*
X121572856Y-78559876D02*
X121620475Y-78655114D01*
X121620475Y-78655114D02*
X121620475Y-78750352D01*
X121620475Y-78750352D02*
X121572856Y-78845590D01*
X121572856Y-78845590D02*
X121525237Y-78893209D01*
X121525237Y-78893209D02*
X121429999Y-78940828D01*
X121429999Y-78940828D02*
X121096666Y-78940828D01*
X122525237Y-78797971D02*
X122525237Y-79464638D01*
X122096666Y-78797971D02*
X122096666Y-79321780D01*
X122096666Y-79321780D02*
X122144285Y-79417019D01*
X122144285Y-79417019D02*
X122239523Y-79464638D01*
X122239523Y-79464638D02*
X122382380Y-79464638D01*
X122382380Y-79464638D02*
X122477618Y-79417019D01*
X122477618Y-79417019D02*
X122525237Y-79369399D01*
X123429999Y-79417019D02*
X123334761Y-79464638D01*
X123334761Y-79464638D02*
X123144285Y-79464638D01*
X123144285Y-79464638D02*
X123049047Y-79417019D01*
X123049047Y-79417019D02*
X123001428Y-79369399D01*
X123001428Y-79369399D02*
X122953809Y-79274161D01*
X122953809Y-79274161D02*
X122953809Y-78988447D01*
X122953809Y-78988447D02*
X123001428Y-78893209D01*
X123001428Y-78893209D02*
X123049047Y-78845590D01*
X123049047Y-78845590D02*
X123144285Y-78797971D01*
X123144285Y-78797971D02*
X123334761Y-78797971D01*
X123334761Y-78797971D02*
X123429999Y-78845590D01*
X123858571Y-79464638D02*
X123858571Y-78464638D01*
X123953809Y-79083685D02*
X124239523Y-79464638D01*
X124239523Y-78797971D02*
X123858571Y-79178923D01*
X124668095Y-79083685D02*
X125430000Y-79083685D01*
X126239523Y-78940828D02*
X126382380Y-78988447D01*
X126382380Y-78988447D02*
X126429999Y-79036066D01*
X126429999Y-79036066D02*
X126477618Y-79131304D01*
X126477618Y-79131304D02*
X126477618Y-79274161D01*
X126477618Y-79274161D02*
X126429999Y-79369399D01*
X126429999Y-79369399D02*
X126382380Y-79417019D01*
X126382380Y-79417019D02*
X126287142Y-79464638D01*
X126287142Y-79464638D02*
X125906190Y-79464638D01*
X125906190Y-79464638D02*
X125906190Y-78464638D01*
X125906190Y-78464638D02*
X126239523Y-78464638D01*
X126239523Y-78464638D02*
X126334761Y-78512257D01*
X126334761Y-78512257D02*
X126382380Y-78559876D01*
X126382380Y-78559876D02*
X126429999Y-78655114D01*
X126429999Y-78655114D02*
X126429999Y-78750352D01*
X126429999Y-78750352D02*
X126382380Y-78845590D01*
X126382380Y-78845590D02*
X126334761Y-78893209D01*
X126334761Y-78893209D02*
X126239523Y-78940828D01*
X126239523Y-78940828D02*
X125906190Y-78940828D01*
X127049047Y-79464638D02*
X126953809Y-79417019D01*
X126953809Y-79417019D02*
X126906190Y-79369399D01*
X126906190Y-79369399D02*
X126858571Y-79274161D01*
X126858571Y-79274161D02*
X126858571Y-78988447D01*
X126858571Y-78988447D02*
X126906190Y-78893209D01*
X126906190Y-78893209D02*
X126953809Y-78845590D01*
X126953809Y-78845590D02*
X127049047Y-78797971D01*
X127049047Y-78797971D02*
X127191904Y-78797971D01*
X127191904Y-78797971D02*
X127287142Y-78845590D01*
X127287142Y-78845590D02*
X127334761Y-78893209D01*
X127334761Y-78893209D02*
X127382380Y-78988447D01*
X127382380Y-78988447D02*
X127382380Y-79274161D01*
X127382380Y-79274161D02*
X127334761Y-79369399D01*
X127334761Y-79369399D02*
X127287142Y-79417019D01*
X127287142Y-79417019D02*
X127191904Y-79464638D01*
X127191904Y-79464638D02*
X127049047Y-79464638D01*
X127953809Y-79464638D02*
X127858571Y-79417019D01*
X127858571Y-79417019D02*
X127810952Y-79369399D01*
X127810952Y-79369399D02*
X127763333Y-79274161D01*
X127763333Y-79274161D02*
X127763333Y-78988447D01*
X127763333Y-78988447D02*
X127810952Y-78893209D01*
X127810952Y-78893209D02*
X127858571Y-78845590D01*
X127858571Y-78845590D02*
X127953809Y-78797971D01*
X127953809Y-78797971D02*
X128096666Y-78797971D01*
X128096666Y-78797971D02*
X128191904Y-78845590D01*
X128191904Y-78845590D02*
X128239523Y-78893209D01*
X128239523Y-78893209D02*
X128287142Y-78988447D01*
X128287142Y-78988447D02*
X128287142Y-79274161D01*
X128287142Y-79274161D02*
X128239523Y-79369399D01*
X128239523Y-79369399D02*
X128191904Y-79417019D01*
X128191904Y-79417019D02*
X128096666Y-79464638D01*
X128096666Y-79464638D02*
X127953809Y-79464638D01*
X128668095Y-79417019D02*
X128763333Y-79464638D01*
X128763333Y-79464638D02*
X128953809Y-79464638D01*
X128953809Y-79464638D02*
X129049047Y-79417019D01*
X129049047Y-79417019D02*
X129096666Y-79321780D01*
X129096666Y-79321780D02*
X129096666Y-79274161D01*
X129096666Y-79274161D02*
X129049047Y-79178923D01*
X129049047Y-79178923D02*
X128953809Y-79131304D01*
X128953809Y-79131304D02*
X128810952Y-79131304D01*
X128810952Y-79131304D02*
X128715714Y-79083685D01*
X128715714Y-79083685D02*
X128668095Y-78988447D01*
X128668095Y-78988447D02*
X128668095Y-78940828D01*
X128668095Y-78940828D02*
X128715714Y-78845590D01*
X128715714Y-78845590D02*
X128810952Y-78797971D01*
X128810952Y-78797971D02*
X128953809Y-78797971D01*
X128953809Y-78797971D02*
X129049047Y-78845590D01*
X129382381Y-78797971D02*
X129763333Y-78797971D01*
X129525238Y-78464638D02*
X129525238Y-79321780D01*
X129525238Y-79321780D02*
X129572857Y-79417019D01*
X129572857Y-79417019D02*
X129668095Y-79464638D01*
X129668095Y-79464638D02*
X129763333Y-79464638D01*
X130096667Y-79369399D02*
X130144286Y-79417019D01*
X130144286Y-79417019D02*
X130096667Y-79464638D01*
X130096667Y-79464638D02*
X130049048Y-79417019D01*
X130049048Y-79417019D02*
X130096667Y-79369399D01*
X130096667Y-79369399D02*
X130096667Y-79464638D01*
X130096667Y-78845590D02*
X130144286Y-78893209D01*
X130144286Y-78893209D02*
X130096667Y-78940828D01*
X130096667Y-78940828D02*
X130049048Y-78893209D01*
X130049048Y-78893209D02*
X130096667Y-78845590D01*
X130096667Y-78845590D02*
X130096667Y-78940828D01*
X131191905Y-78464638D02*
X131763333Y-78464638D01*
X131477619Y-79464638D02*
X131477619Y-78464638D01*
X132096667Y-79464638D02*
X132096667Y-78464638D01*
X132096667Y-78464638D02*
X132477619Y-78464638D01*
X132477619Y-78464638D02*
X132572857Y-78512257D01*
X132572857Y-78512257D02*
X132620476Y-78559876D01*
X132620476Y-78559876D02*
X132668095Y-78655114D01*
X132668095Y-78655114D02*
X132668095Y-78797971D01*
X132668095Y-78797971D02*
X132620476Y-78893209D01*
X132620476Y-78893209D02*
X132572857Y-78940828D01*
X132572857Y-78940828D02*
X132477619Y-78988447D01*
X132477619Y-78988447D02*
X132096667Y-78988447D01*
X133049048Y-79417019D02*
X133191905Y-79464638D01*
X133191905Y-79464638D02*
X133430000Y-79464638D01*
X133430000Y-79464638D02*
X133525238Y-79417019D01*
X133525238Y-79417019D02*
X133572857Y-79369399D01*
X133572857Y-79369399D02*
X133620476Y-79274161D01*
X133620476Y-79274161D02*
X133620476Y-79178923D01*
X133620476Y-79178923D02*
X133572857Y-79083685D01*
X133572857Y-79083685D02*
X133525238Y-79036066D01*
X133525238Y-79036066D02*
X133430000Y-78988447D01*
X133430000Y-78988447D02*
X133239524Y-78940828D01*
X133239524Y-78940828D02*
X133144286Y-78893209D01*
X133144286Y-78893209D02*
X133096667Y-78845590D01*
X133096667Y-78845590D02*
X133049048Y-78750352D01*
X133049048Y-78750352D02*
X133049048Y-78655114D01*
X133049048Y-78655114D02*
X133096667Y-78559876D01*
X133096667Y-78559876D02*
X133144286Y-78512257D01*
X133144286Y-78512257D02*
X133239524Y-78464638D01*
X133239524Y-78464638D02*
X133477619Y-78464638D01*
X133477619Y-78464638D02*
X133620476Y-78512257D01*
X134477619Y-78464638D02*
X134287143Y-78464638D01*
X134287143Y-78464638D02*
X134191905Y-78512257D01*
X134191905Y-78512257D02*
X134144286Y-78559876D01*
X134144286Y-78559876D02*
X134049048Y-78702733D01*
X134049048Y-78702733D02*
X134001429Y-78893209D01*
X134001429Y-78893209D02*
X134001429Y-79274161D01*
X134001429Y-79274161D02*
X134049048Y-79369399D01*
X134049048Y-79369399D02*
X134096667Y-79417019D01*
X134096667Y-79417019D02*
X134191905Y-79464638D01*
X134191905Y-79464638D02*
X134382381Y-79464638D01*
X134382381Y-79464638D02*
X134477619Y-79417019D01*
X134477619Y-79417019D02*
X134525238Y-79369399D01*
X134525238Y-79369399D02*
X134572857Y-79274161D01*
X134572857Y-79274161D02*
X134572857Y-79036066D01*
X134572857Y-79036066D02*
X134525238Y-78940828D01*
X134525238Y-78940828D02*
X134477619Y-78893209D01*
X134477619Y-78893209D02*
X134382381Y-78845590D01*
X134382381Y-78845590D02*
X134191905Y-78845590D01*
X134191905Y-78845590D02*
X134096667Y-78893209D01*
X134096667Y-78893209D02*
X134049048Y-78940828D01*
X134049048Y-78940828D02*
X134001429Y-79036066D01*
X134906191Y-78464638D02*
X135525238Y-78464638D01*
X135525238Y-78464638D02*
X135191905Y-78845590D01*
X135191905Y-78845590D02*
X135334762Y-78845590D01*
X135334762Y-78845590D02*
X135430000Y-78893209D01*
X135430000Y-78893209D02*
X135477619Y-78940828D01*
X135477619Y-78940828D02*
X135525238Y-79036066D01*
X135525238Y-79036066D02*
X135525238Y-79274161D01*
X135525238Y-79274161D02*
X135477619Y-79369399D01*
X135477619Y-79369399D02*
X135430000Y-79417019D01*
X135430000Y-79417019D02*
X135334762Y-79464638D01*
X135334762Y-79464638D02*
X135049048Y-79464638D01*
X135049048Y-79464638D02*
X134953810Y-79417019D01*
X134953810Y-79417019D02*
X134906191Y-79369399D01*
X136144286Y-78464638D02*
X136239524Y-78464638D01*
X136239524Y-78464638D02*
X136334762Y-78512257D01*
X136334762Y-78512257D02*
X136382381Y-78559876D01*
X136382381Y-78559876D02*
X136430000Y-78655114D01*
X136430000Y-78655114D02*
X136477619Y-78845590D01*
X136477619Y-78845590D02*
X136477619Y-79083685D01*
X136477619Y-79083685D02*
X136430000Y-79274161D01*
X136430000Y-79274161D02*
X136382381Y-79369399D01*
X136382381Y-79369399D02*
X136334762Y-79417019D01*
X136334762Y-79417019D02*
X136239524Y-79464638D01*
X136239524Y-79464638D02*
X136144286Y-79464638D01*
X136144286Y-79464638D02*
X136049048Y-79417019D01*
X136049048Y-79417019D02*
X136001429Y-79369399D01*
X136001429Y-79369399D02*
X135953810Y-79274161D01*
X135953810Y-79274161D02*
X135906191Y-79083685D01*
X135906191Y-79083685D02*
X135906191Y-78845590D01*
X135906191Y-78845590D02*
X135953810Y-78655114D01*
X135953810Y-78655114D02*
X136001429Y-78559876D01*
X136001429Y-78559876D02*
X136049048Y-78512257D01*
X136049048Y-78512257D02*
X136144286Y-78464638D01*
X136810953Y-78464638D02*
X137477619Y-78464638D01*
X137477619Y-78464638D02*
X137049048Y-79464638D01*
X138049048Y-78464638D02*
X138144286Y-78464638D01*
X138144286Y-78464638D02*
X138239524Y-78512257D01*
X138239524Y-78512257D02*
X138287143Y-78559876D01*
X138287143Y-78559876D02*
X138334762Y-78655114D01*
X138334762Y-78655114D02*
X138382381Y-78845590D01*
X138382381Y-78845590D02*
X138382381Y-79083685D01*
X138382381Y-79083685D02*
X138334762Y-79274161D01*
X138334762Y-79274161D02*
X138287143Y-79369399D01*
X138287143Y-79369399D02*
X138239524Y-79417019D01*
X138239524Y-79417019D02*
X138144286Y-79464638D01*
X138144286Y-79464638D02*
X138049048Y-79464638D01*
X138049048Y-79464638D02*
X137953810Y-79417019D01*
X137953810Y-79417019D02*
X137906191Y-79369399D01*
X137906191Y-79369399D02*
X137858572Y-79274161D01*
X137858572Y-79274161D02*
X137810953Y-79083685D01*
X137810953Y-79083685D02*
X137810953Y-78845590D01*
X137810953Y-78845590D02*
X137858572Y-78655114D01*
X137858572Y-78655114D02*
X137906191Y-78559876D01*
X137906191Y-78559876D02*
X137953810Y-78512257D01*
X137953810Y-78512257D02*
X138049048Y-78464638D01*
X143787143Y-81754694D02*
X143430000Y-81754694D01*
X143430000Y-81754694D02*
X143394286Y-82230884D01*
X143394286Y-82230884D02*
X143430000Y-82183265D01*
X143430000Y-82183265D02*
X143501429Y-82135646D01*
X143501429Y-82135646D02*
X143680000Y-82135646D01*
X143680000Y-82135646D02*
X143751429Y-82183265D01*
X143751429Y-82183265D02*
X143787143Y-82230884D01*
X143787143Y-82230884D02*
X143822857Y-82326122D01*
X143822857Y-82326122D02*
X143822857Y-82564217D01*
X143822857Y-82564217D02*
X143787143Y-82659455D01*
X143787143Y-82659455D02*
X143751429Y-82707075D01*
X143751429Y-82707075D02*
X143680000Y-82754694D01*
X143680000Y-82754694D02*
X143501429Y-82754694D01*
X143501429Y-82754694D02*
X143430000Y-82707075D01*
X143430000Y-82707075D02*
X143394286Y-82659455D01*
X144037143Y-81754694D02*
X144287143Y-82754694D01*
X144287143Y-82754694D02*
X144537143Y-81754694D01*
X147918358Y-113423741D02*
X148680263Y-113423741D01*
X148299310Y-113804694D02*
X148299310Y-113042789D01*
X134570739Y-99052103D02*
X134713596Y-99099722D01*
X134713596Y-99099722D02*
X134951691Y-99099722D01*
X134951691Y-99099722D02*
X135046929Y-99052103D01*
X135046929Y-99052103D02*
X135094548Y-99004483D01*
X135094548Y-99004483D02*
X135142167Y-98909245D01*
X135142167Y-98909245D02*
X135142167Y-98814007D01*
X135142167Y-98814007D02*
X135094548Y-98718769D01*
X135094548Y-98718769D02*
X135046929Y-98671150D01*
X135046929Y-98671150D02*
X134951691Y-98623531D01*
X134951691Y-98623531D02*
X134761215Y-98575912D01*
X134761215Y-98575912D02*
X134665977Y-98528293D01*
X134665977Y-98528293D02*
X134618358Y-98480674D01*
X134618358Y-98480674D02*
X134570739Y-98385436D01*
X134570739Y-98385436D02*
X134570739Y-98290198D01*
X134570739Y-98290198D02*
X134618358Y-98194960D01*
X134618358Y-98194960D02*
X134665977Y-98147341D01*
X134665977Y-98147341D02*
X134761215Y-98099722D01*
X134761215Y-98099722D02*
X134999310Y-98099722D01*
X134999310Y-98099722D02*
X135142167Y-98147341D01*
X135427882Y-98099722D02*
X135999310Y-98099722D01*
X135713596Y-99099722D02*
X135713596Y-98099722D01*
X136285025Y-98814007D02*
X136761215Y-98814007D01*
X136189787Y-99099722D02*
X136523120Y-98099722D01*
X136523120Y-98099722D02*
X136856453Y-99099722D01*
X137046930Y-98099722D02*
X137618358Y-98099722D01*
X137332644Y-99099722D02*
X137332644Y-98099722D01*
X137951692Y-98099722D02*
X137951692Y-98909245D01*
X137951692Y-98909245D02*
X137999311Y-99004483D01*
X137999311Y-99004483D02*
X138046930Y-99052103D01*
X138046930Y-99052103D02*
X138142168Y-99099722D01*
X138142168Y-99099722D02*
X138332644Y-99099722D01*
X138332644Y-99099722D02*
X138427882Y-99052103D01*
X138427882Y-99052103D02*
X138475501Y-99004483D01*
X138475501Y-99004483D02*
X138523120Y-98909245D01*
X138523120Y-98909245D02*
X138523120Y-98099722D01*
X138951692Y-99052103D02*
X139094549Y-99099722D01*
X139094549Y-99099722D02*
X139332644Y-99099722D01*
X139332644Y-99099722D02*
X139427882Y-99052103D01*
X139427882Y-99052103D02*
X139475501Y-99004483D01*
X139475501Y-99004483D02*
X139523120Y-98909245D01*
X139523120Y-98909245D02*
X139523120Y-98814007D01*
X139523120Y-98814007D02*
X139475501Y-98718769D01*
X139475501Y-98718769D02*
X139427882Y-98671150D01*
X139427882Y-98671150D02*
X139332644Y-98623531D01*
X139332644Y-98623531D02*
X139142168Y-98575912D01*
X139142168Y-98575912D02*
X139046930Y-98528293D01*
X139046930Y-98528293D02*
X138999311Y-98480674D01*
X138999311Y-98480674D02*
X138951692Y-98385436D01*
X138951692Y-98385436D02*
X138951692Y-98290198D01*
X138951692Y-98290198D02*
X138999311Y-98194960D01*
X138999311Y-98194960D02*
X139046930Y-98147341D01*
X139046930Y-98147341D02*
X139142168Y-98099722D01*
X139142168Y-98099722D02*
X139380263Y-98099722D01*
X139380263Y-98099722D02*
X139523120Y-98147341D01*
X135094548Y-100709666D02*
X134618358Y-100709666D01*
X134618358Y-100709666D02*
X134618358Y-99709666D01*
X135427882Y-100185856D02*
X135761215Y-100185856D01*
X135904072Y-100709666D02*
X135427882Y-100709666D01*
X135427882Y-100709666D02*
X135427882Y-99709666D01*
X135427882Y-99709666D02*
X135904072Y-99709666D01*
X136332644Y-100709666D02*
X136332644Y-99709666D01*
X136332644Y-99709666D02*
X136570739Y-99709666D01*
X136570739Y-99709666D02*
X136713596Y-99757285D01*
X136713596Y-99757285D02*
X136808834Y-99852523D01*
X136808834Y-99852523D02*
X136856453Y-99947761D01*
X136856453Y-99947761D02*
X136904072Y-100138237D01*
X136904072Y-100138237D02*
X136904072Y-100281094D01*
X136904072Y-100281094D02*
X136856453Y-100471570D01*
X136856453Y-100471570D02*
X136808834Y-100566808D01*
X136808834Y-100566808D02*
X136713596Y-100662047D01*
X136713596Y-100662047D02*
X136570739Y-100709666D01*
X136570739Y-100709666D02*
X136332644Y-100709666D01*
X138665977Y-100614427D02*
X138618358Y-100662047D01*
X138618358Y-100662047D02*
X138475501Y-100709666D01*
X138475501Y-100709666D02*
X138380263Y-100709666D01*
X138380263Y-100709666D02*
X138237406Y-100662047D01*
X138237406Y-100662047D02*
X138142168Y-100566808D01*
X138142168Y-100566808D02*
X138094549Y-100471570D01*
X138094549Y-100471570D02*
X138046930Y-100281094D01*
X138046930Y-100281094D02*
X138046930Y-100138237D01*
X138046930Y-100138237D02*
X138094549Y-99947761D01*
X138094549Y-99947761D02*
X138142168Y-99852523D01*
X138142168Y-99852523D02*
X138237406Y-99757285D01*
X138237406Y-99757285D02*
X138380263Y-99709666D01*
X138380263Y-99709666D02*
X138475501Y-99709666D01*
X138475501Y-99709666D02*
X138618358Y-99757285D01*
X138618358Y-99757285D02*
X138665977Y-99804904D01*
X138951692Y-99709666D02*
X139523120Y-99709666D01*
X139237406Y-100709666D02*
X139237406Y-99709666D01*
X140332644Y-100709666D02*
X139856454Y-100709666D01*
X139856454Y-100709666D02*
X139856454Y-99709666D01*
X118587142Y-104304694D02*
X118158571Y-104304694D01*
X118372856Y-104304694D02*
X118372856Y-103304694D01*
X118372856Y-103304694D02*
X118301428Y-103447551D01*
X118301428Y-103447551D02*
X118229999Y-103542789D01*
X118229999Y-103542789D02*
X118158571Y-103590408D01*
X118872857Y-104257075D02*
X118980000Y-104304694D01*
X118980000Y-104304694D02*
X119158571Y-104304694D01*
X119158571Y-104304694D02*
X119230000Y-104257075D01*
X119230000Y-104257075D02*
X119265714Y-104209455D01*
X119265714Y-104209455D02*
X119301428Y-104114217D01*
X119301428Y-104114217D02*
X119301428Y-104018979D01*
X119301428Y-104018979D02*
X119265714Y-103923741D01*
X119265714Y-103923741D02*
X119230000Y-103876122D01*
X119230000Y-103876122D02*
X119158571Y-103828503D01*
X119158571Y-103828503D02*
X119015714Y-103780884D01*
X119015714Y-103780884D02*
X118944285Y-103733265D01*
X118944285Y-103733265D02*
X118908571Y-103685646D01*
X118908571Y-103685646D02*
X118872857Y-103590408D01*
X118872857Y-103590408D02*
X118872857Y-103495170D01*
X118872857Y-103495170D02*
X118908571Y-103399932D01*
X118908571Y-103399932D02*
X118944285Y-103352313D01*
X118944285Y-103352313D02*
X119015714Y-103304694D01*
X119015714Y-103304694D02*
X119194285Y-103304694D01*
X119194285Y-103304694D02*
X119301428Y-103352313D01*
X115777619Y-102157075D02*
X115920476Y-102204694D01*
X115920476Y-102204694D02*
X116158571Y-102204694D01*
X116158571Y-102204694D02*
X116253809Y-102157075D01*
X116253809Y-102157075D02*
X116301428Y-102109455D01*
X116301428Y-102109455D02*
X116349047Y-102014217D01*
X116349047Y-102014217D02*
X116349047Y-101918979D01*
X116349047Y-101918979D02*
X116301428Y-101823741D01*
X116301428Y-101823741D02*
X116253809Y-101776122D01*
X116253809Y-101776122D02*
X116158571Y-101728503D01*
X116158571Y-101728503D02*
X115968095Y-101680884D01*
X115968095Y-101680884D02*
X115872857Y-101633265D01*
X115872857Y-101633265D02*
X115825238Y-101585646D01*
X115825238Y-101585646D02*
X115777619Y-101490408D01*
X115777619Y-101490408D02*
X115777619Y-101395170D01*
X115777619Y-101395170D02*
X115825238Y-101299932D01*
X115825238Y-101299932D02*
X115872857Y-101252313D01*
X115872857Y-101252313D02*
X115968095Y-101204694D01*
X115968095Y-101204694D02*
X116206190Y-101204694D01*
X116206190Y-101204694D02*
X116349047Y-101252313D01*
X116634762Y-101204694D02*
X117206190Y-101204694D01*
X116920476Y-102204694D02*
X116920476Y-101204694D01*
X117491905Y-101918979D02*
X117968095Y-101918979D01*
X117396667Y-102204694D02*
X117730000Y-101204694D01*
X117730000Y-101204694D02*
X118063333Y-102204694D01*
X118253810Y-101204694D02*
X118825238Y-101204694D01*
X118539524Y-102204694D02*
X118539524Y-101204694D01*
X119682381Y-102204694D02*
X119110953Y-102204694D01*
X119396667Y-102204694D02*
X119396667Y-101204694D01*
X119396667Y-101204694D02*
X119301429Y-101347551D01*
X119301429Y-101347551D02*
X119206191Y-101442789D01*
X119206191Y-101442789D02*
X119110953Y-101490408D01*
X125518358Y-97130884D02*
X125851691Y-97130884D01*
X125994548Y-97654694D02*
X125518358Y-97654694D01*
X125518358Y-97654694D02*
X125518358Y-96654694D01*
X125518358Y-96654694D02*
X125994548Y-96654694D01*
X126423120Y-97654694D02*
X126423120Y-96654694D01*
X126423120Y-96654694D02*
X126994548Y-97654694D01*
X126994548Y-97654694D02*
X126994548Y-96654694D01*
X123515714Y-122404694D02*
X123158571Y-122404694D01*
X123158571Y-122404694D02*
X123158571Y-121404694D01*
X123765714Y-122404694D02*
X123765714Y-121738027D01*
X123765714Y-121404694D02*
X123730000Y-121452313D01*
X123730000Y-121452313D02*
X123765714Y-121499932D01*
X123765714Y-121499932D02*
X123801428Y-121452313D01*
X123801428Y-121452313D02*
X123765714Y-121404694D01*
X123765714Y-121404694D02*
X123765714Y-121499932D01*
X124372857Y-121880884D02*
X124122857Y-121880884D01*
X124122857Y-122404694D02*
X124122857Y-121404694D01*
X124122857Y-121404694D02*
X124480000Y-121404694D01*
X125051428Y-122357075D02*
X124980000Y-122404694D01*
X124980000Y-122404694D02*
X124837143Y-122404694D01*
X124837143Y-122404694D02*
X124765714Y-122357075D01*
X124765714Y-122357075D02*
X124730000Y-122261836D01*
X124730000Y-122261836D02*
X124730000Y-121880884D01*
X124730000Y-121880884D02*
X124765714Y-121785646D01*
X124765714Y-121785646D02*
X124837143Y-121738027D01*
X124837143Y-121738027D02*
X124980000Y-121738027D01*
X124980000Y-121738027D02*
X125051428Y-121785646D01*
X125051428Y-121785646D02*
X125087143Y-121880884D01*
X125087143Y-121880884D02*
X125087143Y-121976122D01*
X125087143Y-121976122D02*
X124730000Y-122071360D01*
X125408571Y-122404694D02*
X125408571Y-121404694D01*
X125408571Y-121404694D02*
X125694285Y-121404694D01*
X125694285Y-121404694D02*
X125765714Y-121452313D01*
X125765714Y-121452313D02*
X125801428Y-121499932D01*
X125801428Y-121499932D02*
X125837142Y-121595170D01*
X125837142Y-121595170D02*
X125837142Y-121738027D01*
X125837142Y-121738027D02*
X125801428Y-121833265D01*
X125801428Y-121833265D02*
X125765714Y-121880884D01*
X125765714Y-121880884D02*
X125694285Y-121928503D01*
X125694285Y-121928503D02*
X125408571Y-121928503D01*
X126301428Y-121404694D02*
X126444285Y-121404694D01*
X126444285Y-121404694D02*
X126515714Y-121452313D01*
X126515714Y-121452313D02*
X126587142Y-121547551D01*
X126587142Y-121547551D02*
X126622857Y-121738027D01*
X126622857Y-121738027D02*
X126622857Y-122071360D01*
X126622857Y-122071360D02*
X126587142Y-122261836D01*
X126587142Y-122261836D02*
X126515714Y-122357075D01*
X126515714Y-122357075D02*
X126444285Y-122404694D01*
X126444285Y-122404694D02*
X126301428Y-122404694D01*
X126301428Y-122404694D02*
X126230000Y-122357075D01*
X126230000Y-122357075D02*
X126158571Y-122261836D01*
X126158571Y-122261836D02*
X126122857Y-122071360D01*
X126122857Y-122071360D02*
X126122857Y-121738027D01*
X126122857Y-121738027D02*
X126158571Y-121547551D01*
X126158571Y-121547551D02*
X126230000Y-121452313D01*
X126230000Y-121452313D02*
X126301428Y-121404694D01*
X127265714Y-121738027D02*
X127265714Y-122404694D01*
X127087142Y-121357075D02*
X126908571Y-122071360D01*
X126908571Y-122071360D02*
X127372856Y-122071360D01*
X152229999Y-82704694D02*
X151753809Y-82704694D01*
X151753809Y-82704694D02*
X151706190Y-83180884D01*
X151706190Y-83180884D02*
X151753809Y-83133265D01*
X151753809Y-83133265D02*
X151849047Y-83085646D01*
X151849047Y-83085646D02*
X152087142Y-83085646D01*
X152087142Y-83085646D02*
X152182380Y-83133265D01*
X152182380Y-83133265D02*
X152229999Y-83180884D01*
X152229999Y-83180884D02*
X152277618Y-83276122D01*
X152277618Y-83276122D02*
X152277618Y-83514217D01*
X152277618Y-83514217D02*
X152229999Y-83609455D01*
X152229999Y-83609455D02*
X152182380Y-83657075D01*
X152182380Y-83657075D02*
X152087142Y-83704694D01*
X152087142Y-83704694D02*
X151849047Y-83704694D01*
X151849047Y-83704694D02*
X151753809Y-83657075D01*
X151753809Y-83657075D02*
X151706190Y-83609455D01*
X152563333Y-82704694D02*
X152896666Y-83704694D01*
X152896666Y-83704694D02*
X153229999Y-82704694D01*
X154515714Y-82704694D02*
X154706190Y-82704694D01*
X154706190Y-82704694D02*
X154801428Y-82752313D01*
X154801428Y-82752313D02*
X154896666Y-82847551D01*
X154896666Y-82847551D02*
X154944285Y-83038027D01*
X154944285Y-83038027D02*
X154944285Y-83371360D01*
X154944285Y-83371360D02*
X154896666Y-83561836D01*
X154896666Y-83561836D02*
X154801428Y-83657075D01*
X154801428Y-83657075D02*
X154706190Y-83704694D01*
X154706190Y-83704694D02*
X154515714Y-83704694D01*
X154515714Y-83704694D02*
X154420476Y-83657075D01*
X154420476Y-83657075D02*
X154325238Y-83561836D01*
X154325238Y-83561836D02*
X154277619Y-83371360D01*
X154277619Y-83371360D02*
X154277619Y-83038027D01*
X154277619Y-83038027D02*
X154325238Y-82847551D01*
X154325238Y-82847551D02*
X154420476Y-82752313D01*
X154420476Y-82752313D02*
X154515714Y-82704694D01*
X155372857Y-82704694D02*
X155372857Y-83514217D01*
X155372857Y-83514217D02*
X155420476Y-83609455D01*
X155420476Y-83609455D02*
X155468095Y-83657075D01*
X155468095Y-83657075D02*
X155563333Y-83704694D01*
X155563333Y-83704694D02*
X155753809Y-83704694D01*
X155753809Y-83704694D02*
X155849047Y-83657075D01*
X155849047Y-83657075D02*
X155896666Y-83609455D01*
X155896666Y-83609455D02*
X155944285Y-83514217D01*
X155944285Y-83514217D02*
X155944285Y-82704694D01*
X156277619Y-82704694D02*
X156849047Y-82704694D01*
X156563333Y-83704694D02*
X156563333Y-82704694D01*
X103080000Y-103399932D02*
X103115714Y-103352313D01*
X103115714Y-103352313D02*
X103187143Y-103304694D01*
X103187143Y-103304694D02*
X103365714Y-103304694D01*
X103365714Y-103304694D02*
X103437143Y-103352313D01*
X103437143Y-103352313D02*
X103472857Y-103399932D01*
X103472857Y-103399932D02*
X103508571Y-103495170D01*
X103508571Y-103495170D02*
X103508571Y-103590408D01*
X103508571Y-103590408D02*
X103472857Y-103733265D01*
X103472857Y-103733265D02*
X103044285Y-104304694D01*
X103044285Y-104304694D02*
X103508571Y-104304694D01*
X103972857Y-103304694D02*
X104044286Y-103304694D01*
X104044286Y-103304694D02*
X104115714Y-103352313D01*
X104115714Y-103352313D02*
X104151429Y-103399932D01*
X104151429Y-103399932D02*
X104187143Y-103495170D01*
X104187143Y-103495170D02*
X104222857Y-103685646D01*
X104222857Y-103685646D02*
X104222857Y-103923741D01*
X104222857Y-103923741D02*
X104187143Y-104114217D01*
X104187143Y-104114217D02*
X104151429Y-104209455D01*
X104151429Y-104209455D02*
X104115714Y-104257075D01*
X104115714Y-104257075D02*
X104044286Y-104304694D01*
X104044286Y-104304694D02*
X103972857Y-104304694D01*
X103972857Y-104304694D02*
X103901429Y-104257075D01*
X103901429Y-104257075D02*
X103865714Y-104209455D01*
X103865714Y-104209455D02*
X103830000Y-104114217D01*
X103830000Y-104114217D02*
X103794286Y-103923741D01*
X103794286Y-103923741D02*
X103794286Y-103685646D01*
X103794286Y-103685646D02*
X103830000Y-103495170D01*
X103830000Y-103495170D02*
X103865714Y-103399932D01*
X103865714Y-103399932D02*
X103901429Y-103352313D01*
X103901429Y-103352313D02*
X103972857Y-103304694D01*
X104687143Y-103304694D02*
X104758572Y-103304694D01*
X104758572Y-103304694D02*
X104830000Y-103352313D01*
X104830000Y-103352313D02*
X104865715Y-103399932D01*
X104865715Y-103399932D02*
X104901429Y-103495170D01*
X104901429Y-103495170D02*
X104937143Y-103685646D01*
X104937143Y-103685646D02*
X104937143Y-103923741D01*
X104937143Y-103923741D02*
X104901429Y-104114217D01*
X104901429Y-104114217D02*
X104865715Y-104209455D01*
X104865715Y-104209455D02*
X104830000Y-104257075D01*
X104830000Y-104257075D02*
X104758572Y-104304694D01*
X104758572Y-104304694D02*
X104687143Y-104304694D01*
X104687143Y-104304694D02*
X104615715Y-104257075D01*
X104615715Y-104257075D02*
X104580000Y-104209455D01*
X104580000Y-104209455D02*
X104544286Y-104114217D01*
X104544286Y-104114217D02*
X104508572Y-103923741D01*
X104508572Y-103923741D02*
X104508572Y-103685646D01*
X104508572Y-103685646D02*
X104544286Y-103495170D01*
X104544286Y-103495170D02*
X104580000Y-103399932D01*
X104580000Y-103399932D02*
X104615715Y-103352313D01*
X104615715Y-103352313D02*
X104687143Y-103304694D01*
X105258572Y-104304694D02*
X105258572Y-103638027D01*
X105258572Y-103733265D02*
X105294286Y-103685646D01*
X105294286Y-103685646D02*
X105365715Y-103638027D01*
X105365715Y-103638027D02*
X105472858Y-103638027D01*
X105472858Y-103638027D02*
X105544286Y-103685646D01*
X105544286Y-103685646D02*
X105580001Y-103780884D01*
X105580001Y-103780884D02*
X105580001Y-104304694D01*
X105580001Y-103780884D02*
X105615715Y-103685646D01*
X105615715Y-103685646D02*
X105687143Y-103638027D01*
X105687143Y-103638027D02*
X105794286Y-103638027D01*
X105794286Y-103638027D02*
X105865715Y-103685646D01*
X105865715Y-103685646D02*
X105901429Y-103780884D01*
X105901429Y-103780884D02*
X105901429Y-104304694D01*
X106222858Y-104018979D02*
X106580001Y-104018979D01*
X106151429Y-104304694D02*
X106401429Y-103304694D01*
X106401429Y-103304694D02*
X106651429Y-104304694D01*
X101472857Y-92904694D02*
X101722857Y-93904694D01*
X101722857Y-93904694D02*
X101972857Y-92904694D01*
X102044286Y-93999932D02*
X102615714Y-93999932D01*
X102794286Y-93904694D02*
X102794286Y-92904694D01*
X103151429Y-93904694D02*
X103151429Y-92904694D01*
X103151429Y-92904694D02*
X103580000Y-93904694D01*
X103580000Y-93904694D02*
X103580000Y-92904694D01*
X137118358Y-104923741D02*
X137880263Y-104923741D01*
X137499310Y-105304694D02*
X137499310Y-104542789D01*
X129868358Y-97704694D02*
X129868358Y-96704694D01*
X129868358Y-96704694D02*
X130106453Y-96704694D01*
X130106453Y-96704694D02*
X130249310Y-96752313D01*
X130249310Y-96752313D02*
X130344548Y-96847551D01*
X130344548Y-96847551D02*
X130392167Y-96942789D01*
X130392167Y-96942789D02*
X130439786Y-97133265D01*
X130439786Y-97133265D02*
X130439786Y-97276122D01*
X130439786Y-97276122D02*
X130392167Y-97466598D01*
X130392167Y-97466598D02*
X130344548Y-97561836D01*
X130344548Y-97561836D02*
X130249310Y-97657075D01*
X130249310Y-97657075D02*
X130106453Y-97704694D01*
X130106453Y-97704694D02*
X129868358Y-97704694D01*
X130868358Y-97704694D02*
X130868358Y-96704694D01*
X131296929Y-97657075D02*
X131439786Y-97704694D01*
X131439786Y-97704694D02*
X131677881Y-97704694D01*
X131677881Y-97704694D02*
X131773119Y-97657075D01*
X131773119Y-97657075D02*
X131820738Y-97609455D01*
X131820738Y-97609455D02*
X131868357Y-97514217D01*
X131868357Y-97514217D02*
X131868357Y-97418979D01*
X131868357Y-97418979D02*
X131820738Y-97323741D01*
X131820738Y-97323741D02*
X131773119Y-97276122D01*
X131773119Y-97276122D02*
X131677881Y-97228503D01*
X131677881Y-97228503D02*
X131487405Y-97180884D01*
X131487405Y-97180884D02*
X131392167Y-97133265D01*
X131392167Y-97133265D02*
X131344548Y-97085646D01*
X131344548Y-97085646D02*
X131296929Y-96990408D01*
X131296929Y-96990408D02*
X131296929Y-96895170D01*
X131296929Y-96895170D02*
X131344548Y-96799932D01*
X131344548Y-96799932D02*
X131392167Y-96752313D01*
X131392167Y-96752313D02*
X131487405Y-96704694D01*
X131487405Y-96704694D02*
X131725500Y-96704694D01*
X131725500Y-96704694D02*
X131868357Y-96752313D01*
X153568095Y-109052313D02*
X153472857Y-109004694D01*
X153472857Y-109004694D02*
X153330000Y-109004694D01*
X153330000Y-109004694D02*
X153187143Y-109052313D01*
X153187143Y-109052313D02*
X153091905Y-109147551D01*
X153091905Y-109147551D02*
X153044286Y-109242789D01*
X153044286Y-109242789D02*
X152996667Y-109433265D01*
X152996667Y-109433265D02*
X152996667Y-109576122D01*
X152996667Y-109576122D02*
X153044286Y-109766598D01*
X153044286Y-109766598D02*
X153091905Y-109861836D01*
X153091905Y-109861836D02*
X153187143Y-109957075D01*
X153187143Y-109957075D02*
X153330000Y-110004694D01*
X153330000Y-110004694D02*
X153425238Y-110004694D01*
X153425238Y-110004694D02*
X153568095Y-109957075D01*
X153568095Y-109957075D02*
X153615714Y-109909455D01*
X153615714Y-109909455D02*
X153615714Y-109576122D01*
X153615714Y-109576122D02*
X153425238Y-109576122D01*
X154044286Y-110004694D02*
X154044286Y-109004694D01*
X154044286Y-109004694D02*
X154615714Y-110004694D01*
X154615714Y-110004694D02*
X154615714Y-109004694D01*
X155091905Y-110004694D02*
X155091905Y-109004694D01*
X155091905Y-109004694D02*
X155330000Y-109004694D01*
X155330000Y-109004694D02*
X155472857Y-109052313D01*
X155472857Y-109052313D02*
X155568095Y-109147551D01*
X155568095Y-109147551D02*
X155615714Y-109242789D01*
X155615714Y-109242789D02*
X155663333Y-109433265D01*
X155663333Y-109433265D02*
X155663333Y-109576122D01*
X155663333Y-109576122D02*
X155615714Y-109766598D01*
X155615714Y-109766598D02*
X155568095Y-109861836D01*
X155568095Y-109861836D02*
X155472857Y-109957075D01*
X155472857Y-109957075D02*
X155330000Y-110004694D01*
X155330000Y-110004694D02*
X155091905Y-110004694D01*
X132218358Y-105023741D02*
X132980263Y-105023741D01*
X115777619Y-97357075D02*
X115920476Y-97404694D01*
X115920476Y-97404694D02*
X116158571Y-97404694D01*
X116158571Y-97404694D02*
X116253809Y-97357075D01*
X116253809Y-97357075D02*
X116301428Y-97309455D01*
X116301428Y-97309455D02*
X116349047Y-97214217D01*
X116349047Y-97214217D02*
X116349047Y-97118979D01*
X116349047Y-97118979D02*
X116301428Y-97023741D01*
X116301428Y-97023741D02*
X116253809Y-96976122D01*
X116253809Y-96976122D02*
X116158571Y-96928503D01*
X116158571Y-96928503D02*
X115968095Y-96880884D01*
X115968095Y-96880884D02*
X115872857Y-96833265D01*
X115872857Y-96833265D02*
X115825238Y-96785646D01*
X115825238Y-96785646D02*
X115777619Y-96690408D01*
X115777619Y-96690408D02*
X115777619Y-96595170D01*
X115777619Y-96595170D02*
X115825238Y-96499932D01*
X115825238Y-96499932D02*
X115872857Y-96452313D01*
X115872857Y-96452313D02*
X115968095Y-96404694D01*
X115968095Y-96404694D02*
X116206190Y-96404694D01*
X116206190Y-96404694D02*
X116349047Y-96452313D01*
X116634762Y-96404694D02*
X117206190Y-96404694D01*
X116920476Y-97404694D02*
X116920476Y-96404694D01*
X117491905Y-97118979D02*
X117968095Y-97118979D01*
X117396667Y-97404694D02*
X117730000Y-96404694D01*
X117730000Y-96404694D02*
X118063333Y-97404694D01*
X118253810Y-96404694D02*
X118825238Y-96404694D01*
X118539524Y-97404694D02*
X118539524Y-96404694D01*
X119110953Y-96499932D02*
X119158572Y-96452313D01*
X119158572Y-96452313D02*
X119253810Y-96404694D01*
X119253810Y-96404694D02*
X119491905Y-96404694D01*
X119491905Y-96404694D02*
X119587143Y-96452313D01*
X119587143Y-96452313D02*
X119634762Y-96499932D01*
X119634762Y-96499932D02*
X119682381Y-96595170D01*
X119682381Y-96595170D02*
X119682381Y-96690408D01*
X119682381Y-96690408D02*
X119634762Y-96833265D01*
X119634762Y-96833265D02*
X119063334Y-97404694D01*
X119063334Y-97404694D02*
X119682381Y-97404694D01*
X107653810Y-79704694D02*
X108272857Y-79704694D01*
X108272857Y-79704694D02*
X107939524Y-80085646D01*
X107939524Y-80085646D02*
X108082381Y-80085646D01*
X108082381Y-80085646D02*
X108177619Y-80133265D01*
X108177619Y-80133265D02*
X108225238Y-80180884D01*
X108225238Y-80180884D02*
X108272857Y-80276122D01*
X108272857Y-80276122D02*
X108272857Y-80514217D01*
X108272857Y-80514217D02*
X108225238Y-80609455D01*
X108225238Y-80609455D02*
X108177619Y-80657075D01*
X108177619Y-80657075D02*
X108082381Y-80704694D01*
X108082381Y-80704694D02*
X107796667Y-80704694D01*
X107796667Y-80704694D02*
X107701429Y-80657075D01*
X107701429Y-80657075D02*
X107653810Y-80609455D01*
X108701429Y-80323741D02*
X109463334Y-80323741D01*
X110463333Y-80704694D02*
X109891905Y-80704694D01*
X110177619Y-80704694D02*
X110177619Y-79704694D01*
X110177619Y-79704694D02*
X110082381Y-79847551D01*
X110082381Y-79847551D02*
X109987143Y-79942789D01*
X109987143Y-79942789D02*
X109891905Y-79990408D01*
X111034762Y-80133265D02*
X110939524Y-80085646D01*
X110939524Y-80085646D02*
X110891905Y-80038027D01*
X110891905Y-80038027D02*
X110844286Y-79942789D01*
X110844286Y-79942789D02*
X110844286Y-79895170D01*
X110844286Y-79895170D02*
X110891905Y-79799932D01*
X110891905Y-79799932D02*
X110939524Y-79752313D01*
X110939524Y-79752313D02*
X111034762Y-79704694D01*
X111034762Y-79704694D02*
X111225238Y-79704694D01*
X111225238Y-79704694D02*
X111320476Y-79752313D01*
X111320476Y-79752313D02*
X111368095Y-79799932D01*
X111368095Y-79799932D02*
X111415714Y-79895170D01*
X111415714Y-79895170D02*
X111415714Y-79942789D01*
X111415714Y-79942789D02*
X111368095Y-80038027D01*
X111368095Y-80038027D02*
X111320476Y-80085646D01*
X111320476Y-80085646D02*
X111225238Y-80133265D01*
X111225238Y-80133265D02*
X111034762Y-80133265D01*
X111034762Y-80133265D02*
X110939524Y-80180884D01*
X110939524Y-80180884D02*
X110891905Y-80228503D01*
X110891905Y-80228503D02*
X110844286Y-80323741D01*
X110844286Y-80323741D02*
X110844286Y-80514217D01*
X110844286Y-80514217D02*
X110891905Y-80609455D01*
X110891905Y-80609455D02*
X110939524Y-80657075D01*
X110939524Y-80657075D02*
X111034762Y-80704694D01*
X111034762Y-80704694D02*
X111225238Y-80704694D01*
X111225238Y-80704694D02*
X111320476Y-80657075D01*
X111320476Y-80657075D02*
X111368095Y-80609455D01*
X111368095Y-80609455D02*
X111415714Y-80514217D01*
X111415714Y-80514217D02*
X111415714Y-80323741D01*
X111415714Y-80323741D02*
X111368095Y-80228503D01*
X111368095Y-80228503D02*
X111320476Y-80180884D01*
X111320476Y-80180884D02*
X111225238Y-80133265D01*
X111701429Y-79704694D02*
X112034762Y-80704694D01*
X112034762Y-80704694D02*
X112368095Y-79704694D01*
X113463334Y-80704694D02*
X113463334Y-79704694D01*
X113939524Y-80704694D02*
X113939524Y-79704694D01*
X113939524Y-79704694D02*
X114510952Y-80704694D01*
X114510952Y-80704694D02*
X114510952Y-79704694D01*
X143418358Y-113423741D02*
X144180263Y-113423741D01*
X143812142Y-104154694D02*
X144062142Y-105154694D01*
X144062142Y-105154694D02*
X144312142Y-104154694D01*
X144383571Y-105249932D02*
X144954999Y-105249932D01*
X145383571Y-104630884D02*
X145490714Y-104678503D01*
X145490714Y-104678503D02*
X145526428Y-104726122D01*
X145526428Y-104726122D02*
X145562142Y-104821360D01*
X145562142Y-104821360D02*
X145562142Y-104964217D01*
X145562142Y-104964217D02*
X145526428Y-105059455D01*
X145526428Y-105059455D02*
X145490714Y-105107075D01*
X145490714Y-105107075D02*
X145419285Y-105154694D01*
X145419285Y-105154694D02*
X145133571Y-105154694D01*
X145133571Y-105154694D02*
X145133571Y-104154694D01*
X145133571Y-104154694D02*
X145383571Y-104154694D01*
X145383571Y-104154694D02*
X145455000Y-104202313D01*
X145455000Y-104202313D02*
X145490714Y-104249932D01*
X145490714Y-104249932D02*
X145526428Y-104345170D01*
X145526428Y-104345170D02*
X145526428Y-104440408D01*
X145526428Y-104440408D02*
X145490714Y-104535646D01*
X145490714Y-104535646D02*
X145455000Y-104583265D01*
X145455000Y-104583265D02*
X145383571Y-104630884D01*
X145383571Y-104630884D02*
X145133571Y-104630884D01*
X145847857Y-104868979D02*
X146205000Y-104868979D01*
X145776428Y-105154694D02*
X146026428Y-104154694D01*
X146026428Y-104154694D02*
X146276428Y-105154694D01*
X146419285Y-104154694D02*
X146847857Y-104154694D01*
X146633571Y-105154694D02*
X146633571Y-104154694D01*
X119868358Y-89523741D02*
X120630263Y-89523741D01*
X120249310Y-89904694D02*
X120249310Y-89142789D01*
X124458571Y-103399932D02*
X124494285Y-103352313D01*
X124494285Y-103352313D02*
X124565714Y-103304694D01*
X124565714Y-103304694D02*
X124744285Y-103304694D01*
X124744285Y-103304694D02*
X124815714Y-103352313D01*
X124815714Y-103352313D02*
X124851428Y-103399932D01*
X124851428Y-103399932D02*
X124887142Y-103495170D01*
X124887142Y-103495170D02*
X124887142Y-103590408D01*
X124887142Y-103590408D02*
X124851428Y-103733265D01*
X124851428Y-103733265D02*
X124422856Y-104304694D01*
X124422856Y-104304694D02*
X124887142Y-104304694D01*
X125172857Y-104257075D02*
X125280000Y-104304694D01*
X125280000Y-104304694D02*
X125458571Y-104304694D01*
X125458571Y-104304694D02*
X125530000Y-104257075D01*
X125530000Y-104257075D02*
X125565714Y-104209455D01*
X125565714Y-104209455D02*
X125601428Y-104114217D01*
X125601428Y-104114217D02*
X125601428Y-104018979D01*
X125601428Y-104018979D02*
X125565714Y-103923741D01*
X125565714Y-103923741D02*
X125530000Y-103876122D01*
X125530000Y-103876122D02*
X125458571Y-103828503D01*
X125458571Y-103828503D02*
X125315714Y-103780884D01*
X125315714Y-103780884D02*
X125244285Y-103733265D01*
X125244285Y-103733265D02*
X125208571Y-103685646D01*
X125208571Y-103685646D02*
X125172857Y-103590408D01*
X125172857Y-103590408D02*
X125172857Y-103495170D01*
X125172857Y-103495170D02*
X125208571Y-103399932D01*
X125208571Y-103399932D02*
X125244285Y-103352313D01*
X125244285Y-103352313D02*
X125315714Y-103304694D01*
X125315714Y-103304694D02*
X125494285Y-103304694D01*
X125494285Y-103304694D02*
X125601428Y-103352313D01*
X118126429Y-122304694D02*
X117769286Y-122304694D01*
X117769286Y-122304694D02*
X117769286Y-121304694D01*
X118376429Y-122304694D02*
X118376429Y-121638027D01*
X118376429Y-121304694D02*
X118340715Y-121352313D01*
X118340715Y-121352313D02*
X118376429Y-121399932D01*
X118376429Y-121399932D02*
X118412143Y-121352313D01*
X118412143Y-121352313D02*
X118376429Y-121304694D01*
X118376429Y-121304694D02*
X118376429Y-121399932D01*
X118733572Y-122304694D02*
X118733572Y-121304694D01*
X119197858Y-122304694D02*
X119126429Y-122257075D01*
X119126429Y-122257075D02*
X119090715Y-122209455D01*
X119090715Y-122209455D02*
X119055001Y-122114217D01*
X119055001Y-122114217D02*
X119055001Y-121828503D01*
X119055001Y-121828503D02*
X119090715Y-121733265D01*
X119090715Y-121733265D02*
X119126429Y-121685646D01*
X119126429Y-121685646D02*
X119197858Y-121638027D01*
X119197858Y-121638027D02*
X119305001Y-121638027D01*
X119305001Y-121638027D02*
X119376429Y-121685646D01*
X119376429Y-121685646D02*
X119412144Y-121733265D01*
X119412144Y-121733265D02*
X119447858Y-121828503D01*
X119447858Y-121828503D02*
X119447858Y-122114217D01*
X119447858Y-122114217D02*
X119412144Y-122209455D01*
X119412144Y-122209455D02*
X119376429Y-122257075D01*
X119376429Y-122257075D02*
X119305001Y-122304694D01*
X119305001Y-122304694D02*
X119197858Y-122304694D01*
X119769286Y-121638027D02*
X119769286Y-122304694D01*
X119769286Y-121733265D02*
X119805000Y-121685646D01*
X119805000Y-121685646D02*
X119876429Y-121638027D01*
X119876429Y-121638027D02*
X119983572Y-121638027D01*
X119983572Y-121638027D02*
X120055000Y-121685646D01*
X120055000Y-121685646D02*
X120090715Y-121780884D01*
X120090715Y-121780884D02*
X120090715Y-122304694D01*
X146968095Y-80652313D02*
X146872857Y-80604694D01*
X146872857Y-80604694D02*
X146730000Y-80604694D01*
X146730000Y-80604694D02*
X146587143Y-80652313D01*
X146587143Y-80652313D02*
X146491905Y-80747551D01*
X146491905Y-80747551D02*
X146444286Y-80842789D01*
X146444286Y-80842789D02*
X146396667Y-81033265D01*
X146396667Y-81033265D02*
X146396667Y-81176122D01*
X146396667Y-81176122D02*
X146444286Y-81366598D01*
X146444286Y-81366598D02*
X146491905Y-81461836D01*
X146491905Y-81461836D02*
X146587143Y-81557075D01*
X146587143Y-81557075D02*
X146730000Y-81604694D01*
X146730000Y-81604694D02*
X146825238Y-81604694D01*
X146825238Y-81604694D02*
X146968095Y-81557075D01*
X146968095Y-81557075D02*
X147015714Y-81509455D01*
X147015714Y-81509455D02*
X147015714Y-81176122D01*
X147015714Y-81176122D02*
X146825238Y-81176122D01*
X147444286Y-81604694D02*
X147444286Y-80604694D01*
X147444286Y-80604694D02*
X148015714Y-81604694D01*
X148015714Y-81604694D02*
X148015714Y-80604694D01*
X148491905Y-81604694D02*
X148491905Y-80604694D01*
X148491905Y-80604694D02*
X148730000Y-80604694D01*
X148730000Y-80604694D02*
X148872857Y-80652313D01*
X148872857Y-80652313D02*
X148968095Y-80747551D01*
X148968095Y-80747551D02*
X149015714Y-80842789D01*
X149015714Y-80842789D02*
X149063333Y-81033265D01*
X149063333Y-81033265D02*
X149063333Y-81176122D01*
X149063333Y-81176122D02*
X149015714Y-81366598D01*
X149015714Y-81366598D02*
X148968095Y-81461836D01*
X148968095Y-81461836D02*
X148872857Y-81557075D01*
X148872857Y-81557075D02*
X148730000Y-81604694D01*
X148730000Y-81604694D02*
X148491905Y-81604694D01*
X119868358Y-84423741D02*
X120630263Y-84423741D01*
X110022857Y-103833265D02*
X109951428Y-103785646D01*
X109951428Y-103785646D02*
X109915714Y-103738027D01*
X109915714Y-103738027D02*
X109880000Y-103642789D01*
X109880000Y-103642789D02*
X109880000Y-103595170D01*
X109880000Y-103595170D02*
X109915714Y-103499932D01*
X109915714Y-103499932D02*
X109951428Y-103452313D01*
X109951428Y-103452313D02*
X110022857Y-103404694D01*
X110022857Y-103404694D02*
X110165714Y-103404694D01*
X110165714Y-103404694D02*
X110237143Y-103452313D01*
X110237143Y-103452313D02*
X110272857Y-103499932D01*
X110272857Y-103499932D02*
X110308571Y-103595170D01*
X110308571Y-103595170D02*
X110308571Y-103642789D01*
X110308571Y-103642789D02*
X110272857Y-103738027D01*
X110272857Y-103738027D02*
X110237143Y-103785646D01*
X110237143Y-103785646D02*
X110165714Y-103833265D01*
X110165714Y-103833265D02*
X110022857Y-103833265D01*
X110022857Y-103833265D02*
X109951428Y-103880884D01*
X109951428Y-103880884D02*
X109915714Y-103928503D01*
X109915714Y-103928503D02*
X109880000Y-104023741D01*
X109880000Y-104023741D02*
X109880000Y-104214217D01*
X109880000Y-104214217D02*
X109915714Y-104309455D01*
X109915714Y-104309455D02*
X109951428Y-104357075D01*
X109951428Y-104357075D02*
X110022857Y-104404694D01*
X110022857Y-104404694D02*
X110165714Y-104404694D01*
X110165714Y-104404694D02*
X110237143Y-104357075D01*
X110237143Y-104357075D02*
X110272857Y-104309455D01*
X110272857Y-104309455D02*
X110308571Y-104214217D01*
X110308571Y-104214217D02*
X110308571Y-104023741D01*
X110308571Y-104023741D02*
X110272857Y-103928503D01*
X110272857Y-103928503D02*
X110237143Y-103880884D01*
X110237143Y-103880884D02*
X110165714Y-103833265D01*
X110772857Y-103404694D02*
X110844286Y-103404694D01*
X110844286Y-103404694D02*
X110915714Y-103452313D01*
X110915714Y-103452313D02*
X110951429Y-103499932D01*
X110951429Y-103499932D02*
X110987143Y-103595170D01*
X110987143Y-103595170D02*
X111022857Y-103785646D01*
X111022857Y-103785646D02*
X111022857Y-104023741D01*
X111022857Y-104023741D02*
X110987143Y-104214217D01*
X110987143Y-104214217D02*
X110951429Y-104309455D01*
X110951429Y-104309455D02*
X110915714Y-104357075D01*
X110915714Y-104357075D02*
X110844286Y-104404694D01*
X110844286Y-104404694D02*
X110772857Y-104404694D01*
X110772857Y-104404694D02*
X110701429Y-104357075D01*
X110701429Y-104357075D02*
X110665714Y-104309455D01*
X110665714Y-104309455D02*
X110630000Y-104214217D01*
X110630000Y-104214217D02*
X110594286Y-104023741D01*
X110594286Y-104023741D02*
X110594286Y-103785646D01*
X110594286Y-103785646D02*
X110630000Y-103595170D01*
X110630000Y-103595170D02*
X110665714Y-103499932D01*
X110665714Y-103499932D02*
X110701429Y-103452313D01*
X110701429Y-103452313D02*
X110772857Y-103404694D01*
X111487143Y-103404694D02*
X111558572Y-103404694D01*
X111558572Y-103404694D02*
X111630000Y-103452313D01*
X111630000Y-103452313D02*
X111665715Y-103499932D01*
X111665715Y-103499932D02*
X111701429Y-103595170D01*
X111701429Y-103595170D02*
X111737143Y-103785646D01*
X111737143Y-103785646D02*
X111737143Y-104023741D01*
X111737143Y-104023741D02*
X111701429Y-104214217D01*
X111701429Y-104214217D02*
X111665715Y-104309455D01*
X111665715Y-104309455D02*
X111630000Y-104357075D01*
X111630000Y-104357075D02*
X111558572Y-104404694D01*
X111558572Y-104404694D02*
X111487143Y-104404694D01*
X111487143Y-104404694D02*
X111415715Y-104357075D01*
X111415715Y-104357075D02*
X111380000Y-104309455D01*
X111380000Y-104309455D02*
X111344286Y-104214217D01*
X111344286Y-104214217D02*
X111308572Y-104023741D01*
X111308572Y-104023741D02*
X111308572Y-103785646D01*
X111308572Y-103785646D02*
X111344286Y-103595170D01*
X111344286Y-103595170D02*
X111380000Y-103499932D01*
X111380000Y-103499932D02*
X111415715Y-103452313D01*
X111415715Y-103452313D02*
X111487143Y-103404694D01*
X112058572Y-104404694D02*
X112058572Y-103738027D01*
X112058572Y-103833265D02*
X112094286Y-103785646D01*
X112094286Y-103785646D02*
X112165715Y-103738027D01*
X112165715Y-103738027D02*
X112272858Y-103738027D01*
X112272858Y-103738027D02*
X112344286Y-103785646D01*
X112344286Y-103785646D02*
X112380001Y-103880884D01*
X112380001Y-103880884D02*
X112380001Y-104404694D01*
X112380001Y-103880884D02*
X112415715Y-103785646D01*
X112415715Y-103785646D02*
X112487143Y-103738027D01*
X112487143Y-103738027D02*
X112594286Y-103738027D01*
X112594286Y-103738027D02*
X112665715Y-103785646D01*
X112665715Y-103785646D02*
X112701429Y-103880884D01*
X112701429Y-103880884D02*
X112701429Y-104404694D01*
X113022858Y-104118979D02*
X113380001Y-104118979D01*
X112951429Y-104404694D02*
X113201429Y-103404694D01*
X113201429Y-103404694D02*
X113451429Y-104404694D01*
X143251691Y-110430884D02*
X143394548Y-110478503D01*
X143394548Y-110478503D02*
X143442167Y-110526122D01*
X143442167Y-110526122D02*
X143489786Y-110621360D01*
X143489786Y-110621360D02*
X143489786Y-110764217D01*
X143489786Y-110764217D02*
X143442167Y-110859455D01*
X143442167Y-110859455D02*
X143394548Y-110907075D01*
X143394548Y-110907075D02*
X143299310Y-110954694D01*
X143299310Y-110954694D02*
X142918358Y-110954694D01*
X142918358Y-110954694D02*
X142918358Y-109954694D01*
X142918358Y-109954694D02*
X143251691Y-109954694D01*
X143251691Y-109954694D02*
X143346929Y-110002313D01*
X143346929Y-110002313D02*
X143394548Y-110049932D01*
X143394548Y-110049932D02*
X143442167Y-110145170D01*
X143442167Y-110145170D02*
X143442167Y-110240408D01*
X143442167Y-110240408D02*
X143394548Y-110335646D01*
X143394548Y-110335646D02*
X143346929Y-110383265D01*
X143346929Y-110383265D02*
X143251691Y-110430884D01*
X143251691Y-110430884D02*
X142918358Y-110430884D01*
X144346929Y-110954694D02*
X144346929Y-110430884D01*
X144346929Y-110430884D02*
X144299310Y-110335646D01*
X144299310Y-110335646D02*
X144204072Y-110288027D01*
X144204072Y-110288027D02*
X144013596Y-110288027D01*
X144013596Y-110288027D02*
X143918358Y-110335646D01*
X144346929Y-110907075D02*
X144251691Y-110954694D01*
X144251691Y-110954694D02*
X144013596Y-110954694D01*
X144013596Y-110954694D02*
X143918358Y-110907075D01*
X143918358Y-110907075D02*
X143870739Y-110811836D01*
X143870739Y-110811836D02*
X143870739Y-110716598D01*
X143870739Y-110716598D02*
X143918358Y-110621360D01*
X143918358Y-110621360D02*
X144013596Y-110573741D01*
X144013596Y-110573741D02*
X144251691Y-110573741D01*
X144251691Y-110573741D02*
X144346929Y-110526122D01*
X144680263Y-110288027D02*
X145061215Y-110288027D01*
X144823120Y-109954694D02*
X144823120Y-110811836D01*
X144823120Y-110811836D02*
X144870739Y-110907075D01*
X144870739Y-110907075D02*
X144965977Y-110954694D01*
X144965977Y-110954694D02*
X145061215Y-110954694D01*
X145251692Y-110288027D02*
X145632644Y-110288027D01*
X145394549Y-109954694D02*
X145394549Y-110811836D01*
X145394549Y-110811836D02*
X145442168Y-110907075D01*
X145442168Y-110907075D02*
X145537406Y-110954694D01*
X145537406Y-110954694D02*
X145632644Y-110954694D01*
X146346930Y-110907075D02*
X146251692Y-110954694D01*
X146251692Y-110954694D02*
X146061216Y-110954694D01*
X146061216Y-110954694D02*
X145965978Y-110907075D01*
X145965978Y-110907075D02*
X145918359Y-110811836D01*
X145918359Y-110811836D02*
X145918359Y-110430884D01*
X145918359Y-110430884D02*
X145965978Y-110335646D01*
X145965978Y-110335646D02*
X146061216Y-110288027D01*
X146061216Y-110288027D02*
X146251692Y-110288027D01*
X146251692Y-110288027D02*
X146346930Y-110335646D01*
X146346930Y-110335646D02*
X146394549Y-110430884D01*
X146394549Y-110430884D02*
X146394549Y-110526122D01*
X146394549Y-110526122D02*
X145918359Y-110621360D01*
X146823121Y-110954694D02*
X146823121Y-110288027D01*
X146823121Y-110478503D02*
X146870740Y-110383265D01*
X146870740Y-110383265D02*
X146918359Y-110335646D01*
X146918359Y-110335646D02*
X147013597Y-110288027D01*
X147013597Y-110288027D02*
X147108835Y-110288027D01*
X147346931Y-110288027D02*
X147585026Y-110954694D01*
X147823121Y-110288027D02*
X147585026Y-110954694D01*
X147585026Y-110954694D02*
X147489788Y-111192789D01*
X147489788Y-111192789D02*
X147442169Y-111240408D01*
X147442169Y-111240408D02*
X147346931Y-111288027D01*
X126439455Y-83925000D02*
X126487075Y-83960714D01*
X126487075Y-83960714D02*
X126534694Y-84067857D01*
X126534694Y-84067857D02*
X126534694Y-84139285D01*
X126534694Y-84139285D02*
X126487075Y-84246428D01*
X126487075Y-84246428D02*
X126391836Y-84317857D01*
X126391836Y-84317857D02*
X126296598Y-84353571D01*
X126296598Y-84353571D02*
X126106122Y-84389285D01*
X126106122Y-84389285D02*
X125963265Y-84389285D01*
X125963265Y-84389285D02*
X125772789Y-84353571D01*
X125772789Y-84353571D02*
X125677551Y-84317857D01*
X125677551Y-84317857D02*
X125582313Y-84246428D01*
X125582313Y-84246428D02*
X125534694Y-84139285D01*
X125534694Y-84139285D02*
X125534694Y-84067857D01*
X125534694Y-84067857D02*
X125582313Y-83960714D01*
X125582313Y-83960714D02*
X125629932Y-83925000D01*
X126534694Y-83210714D02*
X126534694Y-83639285D01*
X126534694Y-83425000D02*
X125534694Y-83425000D01*
X125534694Y-83425000D02*
X125677551Y-83496428D01*
X125677551Y-83496428D02*
X125772789Y-83567857D01*
X125772789Y-83567857D02*
X125820408Y-83639285D01*
X114576428Y-100604694D02*
X114576428Y-99604694D01*
X114576428Y-99604694D02*
X114754999Y-99604694D01*
X114754999Y-99604694D02*
X114862142Y-99652313D01*
X114862142Y-99652313D02*
X114933571Y-99747551D01*
X114933571Y-99747551D02*
X114969285Y-99842789D01*
X114969285Y-99842789D02*
X115004999Y-100033265D01*
X115004999Y-100033265D02*
X115004999Y-100176122D01*
X115004999Y-100176122D02*
X114969285Y-100366598D01*
X114969285Y-100366598D02*
X114933571Y-100461836D01*
X114933571Y-100461836D02*
X114862142Y-100557075D01*
X114862142Y-100557075D02*
X114754999Y-100604694D01*
X114754999Y-100604694D02*
X114576428Y-100604694D01*
X115290714Y-99699932D02*
X115326428Y-99652313D01*
X115326428Y-99652313D02*
X115397857Y-99604694D01*
X115397857Y-99604694D02*
X115576428Y-99604694D01*
X115576428Y-99604694D02*
X115647857Y-99652313D01*
X115647857Y-99652313D02*
X115683571Y-99699932D01*
X115683571Y-99699932D02*
X115719285Y-99795170D01*
X115719285Y-99795170D02*
X115719285Y-99890408D01*
X115719285Y-99890408D02*
X115683571Y-100033265D01*
X115683571Y-100033265D02*
X115254999Y-100604694D01*
X115254999Y-100604694D02*
X115719285Y-100604694D01*
X135358571Y-88904694D02*
X135358571Y-89714217D01*
X135358571Y-89714217D02*
X135394285Y-89809455D01*
X135394285Y-89809455D02*
X135430000Y-89857075D01*
X135430000Y-89857075D02*
X135501428Y-89904694D01*
X135501428Y-89904694D02*
X135644285Y-89904694D01*
X135644285Y-89904694D02*
X135715714Y-89857075D01*
X135715714Y-89857075D02*
X135751428Y-89809455D01*
X135751428Y-89809455D02*
X135787142Y-89714217D01*
X135787142Y-89714217D02*
X135787142Y-88904694D01*
X136108571Y-88999932D02*
X136144285Y-88952313D01*
X136144285Y-88952313D02*
X136215714Y-88904694D01*
X136215714Y-88904694D02*
X136394285Y-88904694D01*
X136394285Y-88904694D02*
X136465714Y-88952313D01*
X136465714Y-88952313D02*
X136501428Y-88999932D01*
X136501428Y-88999932D02*
X136537142Y-89095170D01*
X136537142Y-89095170D02*
X136537142Y-89190408D01*
X136537142Y-89190408D02*
X136501428Y-89333265D01*
X136501428Y-89333265D02*
X136072856Y-89904694D01*
X136072856Y-89904694D02*
X136537142Y-89904694D01*
X129804999Y-94609455D02*
X129769285Y-94657075D01*
X129769285Y-94657075D02*
X129662142Y-94704694D01*
X129662142Y-94704694D02*
X129590714Y-94704694D01*
X129590714Y-94704694D02*
X129483571Y-94657075D01*
X129483571Y-94657075D02*
X129412142Y-94561836D01*
X129412142Y-94561836D02*
X129376428Y-94466598D01*
X129376428Y-94466598D02*
X129340714Y-94276122D01*
X129340714Y-94276122D02*
X129340714Y-94133265D01*
X129340714Y-94133265D02*
X129376428Y-93942789D01*
X129376428Y-93942789D02*
X129412142Y-93847551D01*
X129412142Y-93847551D02*
X129483571Y-93752313D01*
X129483571Y-93752313D02*
X129590714Y-93704694D01*
X129590714Y-93704694D02*
X129662142Y-93704694D01*
X129662142Y-93704694D02*
X129769285Y-93752313D01*
X129769285Y-93752313D02*
X129804999Y-93799932D01*
X130090714Y-93799932D02*
X130126428Y-93752313D01*
X130126428Y-93752313D02*
X130197857Y-93704694D01*
X130197857Y-93704694D02*
X130376428Y-93704694D01*
X130376428Y-93704694D02*
X130447857Y-93752313D01*
X130447857Y-93752313D02*
X130483571Y-93799932D01*
X130483571Y-93799932D02*
X130519285Y-93895170D01*
X130519285Y-93895170D02*
X130519285Y-93990408D01*
X130519285Y-93990408D02*
X130483571Y-94133265D01*
X130483571Y-94133265D02*
X130054999Y-94704694D01*
X130054999Y-94704694D02*
X130519285Y-94704694D01*
X131405000Y-81904694D02*
X131047857Y-81904694D01*
X131047857Y-81904694D02*
X131047857Y-80904694D01*
X132047857Y-81904694D02*
X131619286Y-81904694D01*
X131833571Y-81904694D02*
X131833571Y-80904694D01*
X131833571Y-80904694D02*
X131762143Y-81047551D01*
X131762143Y-81047551D02*
X131690714Y-81142789D01*
X131690714Y-81142789D02*
X131619286Y-81190408D01*
X113047856Y-118554694D02*
X112797856Y-118078503D01*
X112619285Y-118554694D02*
X112619285Y-117554694D01*
X112619285Y-117554694D02*
X112904999Y-117554694D01*
X112904999Y-117554694D02*
X112976428Y-117602313D01*
X112976428Y-117602313D02*
X113012142Y-117649932D01*
X113012142Y-117649932D02*
X113047856Y-117745170D01*
X113047856Y-117745170D02*
X113047856Y-117888027D01*
X113047856Y-117888027D02*
X113012142Y-117983265D01*
X113012142Y-117983265D02*
X112976428Y-118030884D01*
X112976428Y-118030884D02*
X112904999Y-118078503D01*
X112904999Y-118078503D02*
X112619285Y-118078503D01*
X113762142Y-118554694D02*
X113333571Y-118554694D01*
X113547856Y-118554694D02*
X113547856Y-117554694D01*
X113547856Y-117554694D02*
X113476428Y-117697551D01*
X113476428Y-117697551D02*
X113404999Y-117792789D01*
X113404999Y-117792789D02*
X113333571Y-117840408D01*
X114405000Y-117888027D02*
X114405000Y-118554694D01*
X114226428Y-117507075D02*
X114047857Y-118221360D01*
X114047857Y-118221360D02*
X114512142Y-118221360D01*
X113168095Y-95354694D02*
X113168095Y-96164217D01*
X113168095Y-96164217D02*
X113215714Y-96259455D01*
X113215714Y-96259455D02*
X113263333Y-96307075D01*
X113263333Y-96307075D02*
X113358571Y-96354694D01*
X113358571Y-96354694D02*
X113549047Y-96354694D01*
X113549047Y-96354694D02*
X113644285Y-96307075D01*
X113644285Y-96307075D02*
X113691904Y-96259455D01*
X113691904Y-96259455D02*
X113739523Y-96164217D01*
X113739523Y-96164217D02*
X113739523Y-95354694D01*
X114739523Y-96354694D02*
X114168095Y-96354694D01*
X114453809Y-96354694D02*
X114453809Y-95354694D01*
X114453809Y-95354694D02*
X114358571Y-95497551D01*
X114358571Y-95497551D02*
X114263333Y-95592789D01*
X114263333Y-95592789D02*
X114168095Y-95640408D01*
X122980000Y-102057075D02*
X123087143Y-102104694D01*
X123087143Y-102104694D02*
X123265714Y-102104694D01*
X123265714Y-102104694D02*
X123337143Y-102057075D01*
X123337143Y-102057075D02*
X123372857Y-102009455D01*
X123372857Y-102009455D02*
X123408571Y-101914217D01*
X123408571Y-101914217D02*
X123408571Y-101818979D01*
X123408571Y-101818979D02*
X123372857Y-101723741D01*
X123372857Y-101723741D02*
X123337143Y-101676122D01*
X123337143Y-101676122D02*
X123265714Y-101628503D01*
X123265714Y-101628503D02*
X123122857Y-101580884D01*
X123122857Y-101580884D02*
X123051428Y-101533265D01*
X123051428Y-101533265D02*
X123015714Y-101485646D01*
X123015714Y-101485646D02*
X122980000Y-101390408D01*
X122980000Y-101390408D02*
X122980000Y-101295170D01*
X122980000Y-101295170D02*
X123015714Y-101199932D01*
X123015714Y-101199932D02*
X123051428Y-101152313D01*
X123051428Y-101152313D02*
X123122857Y-101104694D01*
X123122857Y-101104694D02*
X123301428Y-101104694D01*
X123301428Y-101104694D02*
X123408571Y-101152313D01*
X123658571Y-101104694D02*
X123837143Y-102104694D01*
X123837143Y-102104694D02*
X123980000Y-101390408D01*
X123980000Y-101390408D02*
X124122857Y-102104694D01*
X124122857Y-102104694D02*
X124301429Y-101104694D01*
X124908572Y-101438027D02*
X124908572Y-102104694D01*
X124730000Y-101057075D02*
X124551429Y-101771360D01*
X124551429Y-101771360D02*
X125015714Y-101771360D01*
X107404999Y-98654694D02*
X107154999Y-98178503D01*
X106976428Y-98654694D02*
X106976428Y-97654694D01*
X106976428Y-97654694D02*
X107262142Y-97654694D01*
X107262142Y-97654694D02*
X107333571Y-97702313D01*
X107333571Y-97702313D02*
X107369285Y-97749932D01*
X107369285Y-97749932D02*
X107404999Y-97845170D01*
X107404999Y-97845170D02*
X107404999Y-97988027D01*
X107404999Y-97988027D02*
X107369285Y-98083265D01*
X107369285Y-98083265D02*
X107333571Y-98130884D01*
X107333571Y-98130884D02*
X107262142Y-98178503D01*
X107262142Y-98178503D02*
X106976428Y-98178503D01*
X108047857Y-97654694D02*
X107904999Y-97654694D01*
X107904999Y-97654694D02*
X107833571Y-97702313D01*
X107833571Y-97702313D02*
X107797857Y-97749932D01*
X107797857Y-97749932D02*
X107726428Y-97892789D01*
X107726428Y-97892789D02*
X107690714Y-98083265D01*
X107690714Y-98083265D02*
X107690714Y-98464217D01*
X107690714Y-98464217D02*
X107726428Y-98559455D01*
X107726428Y-98559455D02*
X107762142Y-98607075D01*
X107762142Y-98607075D02*
X107833571Y-98654694D01*
X107833571Y-98654694D02*
X107976428Y-98654694D01*
X107976428Y-98654694D02*
X108047857Y-98607075D01*
X108047857Y-98607075D02*
X108083571Y-98559455D01*
X108083571Y-98559455D02*
X108119285Y-98464217D01*
X108119285Y-98464217D02*
X108119285Y-98226122D01*
X108119285Y-98226122D02*
X108083571Y-98130884D01*
X108083571Y-98130884D02*
X108047857Y-98083265D01*
X108047857Y-98083265D02*
X107976428Y-98035646D01*
X107976428Y-98035646D02*
X107833571Y-98035646D01*
X107833571Y-98035646D02*
X107762142Y-98083265D01*
X107762142Y-98083265D02*
X107726428Y-98130884D01*
X107726428Y-98130884D02*
X107690714Y-98226122D01*
X121604999Y-97604694D02*
X121354999Y-97128503D01*
X121176428Y-97604694D02*
X121176428Y-96604694D01*
X121176428Y-96604694D02*
X121462142Y-96604694D01*
X121462142Y-96604694D02*
X121533571Y-96652313D01*
X121533571Y-96652313D02*
X121569285Y-96699932D01*
X121569285Y-96699932D02*
X121604999Y-96795170D01*
X121604999Y-96795170D02*
X121604999Y-96938027D01*
X121604999Y-96938027D02*
X121569285Y-97033265D01*
X121569285Y-97033265D02*
X121533571Y-97080884D01*
X121533571Y-97080884D02*
X121462142Y-97128503D01*
X121462142Y-97128503D02*
X121176428Y-97128503D01*
X121890714Y-96699932D02*
X121926428Y-96652313D01*
X121926428Y-96652313D02*
X121997857Y-96604694D01*
X121997857Y-96604694D02*
X122176428Y-96604694D01*
X122176428Y-96604694D02*
X122247857Y-96652313D01*
X122247857Y-96652313D02*
X122283571Y-96699932D01*
X122283571Y-96699932D02*
X122319285Y-96795170D01*
X122319285Y-96795170D02*
X122319285Y-96890408D01*
X122319285Y-96890408D02*
X122283571Y-97033265D01*
X122283571Y-97033265D02*
X121854999Y-97604694D01*
X121854999Y-97604694D02*
X122319285Y-97604694D01*
X108954999Y-101004694D02*
X108704999Y-100528503D01*
X108526428Y-101004694D02*
X108526428Y-100004694D01*
X108526428Y-100004694D02*
X108812142Y-100004694D01*
X108812142Y-100004694D02*
X108883571Y-100052313D01*
X108883571Y-100052313D02*
X108919285Y-100099932D01*
X108919285Y-100099932D02*
X108954999Y-100195170D01*
X108954999Y-100195170D02*
X108954999Y-100338027D01*
X108954999Y-100338027D02*
X108919285Y-100433265D01*
X108919285Y-100433265D02*
X108883571Y-100480884D01*
X108883571Y-100480884D02*
X108812142Y-100528503D01*
X108812142Y-100528503D02*
X108526428Y-100528503D01*
X109597857Y-100338027D02*
X109597857Y-101004694D01*
X109419285Y-99957075D02*
X109240714Y-100671360D01*
X109240714Y-100671360D02*
X109704999Y-100671360D01*
X127737075Y-112349999D02*
X127784694Y-112242857D01*
X127784694Y-112242857D02*
X127784694Y-112064285D01*
X127784694Y-112064285D02*
X127737075Y-111992857D01*
X127737075Y-111992857D02*
X127689455Y-111957142D01*
X127689455Y-111957142D02*
X127594217Y-111921428D01*
X127594217Y-111921428D02*
X127498979Y-111921428D01*
X127498979Y-111921428D02*
X127403741Y-111957142D01*
X127403741Y-111957142D02*
X127356122Y-111992857D01*
X127356122Y-111992857D02*
X127308503Y-112064285D01*
X127308503Y-112064285D02*
X127260884Y-112207142D01*
X127260884Y-112207142D02*
X127213265Y-112278571D01*
X127213265Y-112278571D02*
X127165646Y-112314285D01*
X127165646Y-112314285D02*
X127070408Y-112349999D01*
X127070408Y-112349999D02*
X126975170Y-112349999D01*
X126975170Y-112349999D02*
X126879932Y-112314285D01*
X126879932Y-112314285D02*
X126832313Y-112278571D01*
X126832313Y-112278571D02*
X126784694Y-112207142D01*
X126784694Y-112207142D02*
X126784694Y-112028571D01*
X126784694Y-112028571D02*
X126832313Y-111921428D01*
X126784694Y-111671428D02*
X127784694Y-111492856D01*
X127784694Y-111492856D02*
X127070408Y-111349999D01*
X127070408Y-111349999D02*
X127784694Y-111207142D01*
X127784694Y-111207142D02*
X126784694Y-111028571D01*
X126784694Y-110814285D02*
X126784694Y-110349999D01*
X126784694Y-110349999D02*
X127165646Y-110599999D01*
X127165646Y-110599999D02*
X127165646Y-110492856D01*
X127165646Y-110492856D02*
X127213265Y-110421428D01*
X127213265Y-110421428D02*
X127260884Y-110385713D01*
X127260884Y-110385713D02*
X127356122Y-110349999D01*
X127356122Y-110349999D02*
X127594217Y-110349999D01*
X127594217Y-110349999D02*
X127689455Y-110385713D01*
X127689455Y-110385713D02*
X127737075Y-110421428D01*
X127737075Y-110421428D02*
X127784694Y-110492856D01*
X127784694Y-110492856D02*
X127784694Y-110707142D01*
X127784694Y-110707142D02*
X127737075Y-110778570D01*
X127737075Y-110778570D02*
X127689455Y-110814285D01*
X121804999Y-102104694D02*
X121554999Y-101628503D01*
X121376428Y-102104694D02*
X121376428Y-101104694D01*
X121376428Y-101104694D02*
X121662142Y-101104694D01*
X121662142Y-101104694D02*
X121733571Y-101152313D01*
X121733571Y-101152313D02*
X121769285Y-101199932D01*
X121769285Y-101199932D02*
X121804999Y-101295170D01*
X121804999Y-101295170D02*
X121804999Y-101438027D01*
X121804999Y-101438027D02*
X121769285Y-101533265D01*
X121769285Y-101533265D02*
X121733571Y-101580884D01*
X121733571Y-101580884D02*
X121662142Y-101628503D01*
X121662142Y-101628503D02*
X121376428Y-101628503D01*
X122519285Y-102104694D02*
X122090714Y-102104694D01*
X122304999Y-102104694D02*
X122304999Y-101104694D01*
X122304999Y-101104694D02*
X122233571Y-101247551D01*
X122233571Y-101247551D02*
X122162142Y-101342789D01*
X122162142Y-101342789D02*
X122090714Y-101390408D01*
X120280000Y-81404694D02*
X120280000Y-82118979D01*
X120280000Y-82118979D02*
X120244285Y-82261836D01*
X120244285Y-82261836D02*
X120172857Y-82357075D01*
X120172857Y-82357075D02*
X120065714Y-82404694D01*
X120065714Y-82404694D02*
X119994285Y-82404694D01*
X121030000Y-82404694D02*
X120601429Y-82404694D01*
X120815714Y-82404694D02*
X120815714Y-81404694D01*
X120815714Y-81404694D02*
X120744286Y-81547551D01*
X120744286Y-81547551D02*
X120672857Y-81642789D01*
X120672857Y-81642789D02*
X120601429Y-81690408D01*
X127737075Y-120549999D02*
X127784694Y-120442857D01*
X127784694Y-120442857D02*
X127784694Y-120264285D01*
X127784694Y-120264285D02*
X127737075Y-120192857D01*
X127737075Y-120192857D02*
X127689455Y-120157142D01*
X127689455Y-120157142D02*
X127594217Y-120121428D01*
X127594217Y-120121428D02*
X127498979Y-120121428D01*
X127498979Y-120121428D02*
X127403741Y-120157142D01*
X127403741Y-120157142D02*
X127356122Y-120192857D01*
X127356122Y-120192857D02*
X127308503Y-120264285D01*
X127308503Y-120264285D02*
X127260884Y-120407142D01*
X127260884Y-120407142D02*
X127213265Y-120478571D01*
X127213265Y-120478571D02*
X127165646Y-120514285D01*
X127165646Y-120514285D02*
X127070408Y-120549999D01*
X127070408Y-120549999D02*
X126975170Y-120549999D01*
X126975170Y-120549999D02*
X126879932Y-120514285D01*
X126879932Y-120514285D02*
X126832313Y-120478571D01*
X126832313Y-120478571D02*
X126784694Y-120407142D01*
X126784694Y-120407142D02*
X126784694Y-120228571D01*
X126784694Y-120228571D02*
X126832313Y-120121428D01*
X126784694Y-119871428D02*
X127784694Y-119692856D01*
X127784694Y-119692856D02*
X127070408Y-119549999D01*
X127070408Y-119549999D02*
X127784694Y-119407142D01*
X127784694Y-119407142D02*
X126784694Y-119228571D01*
X126879932Y-118978570D02*
X126832313Y-118942856D01*
X126832313Y-118942856D02*
X126784694Y-118871428D01*
X126784694Y-118871428D02*
X126784694Y-118692856D01*
X126784694Y-118692856D02*
X126832313Y-118621428D01*
X126832313Y-118621428D02*
X126879932Y-118585713D01*
X126879932Y-118585713D02*
X126975170Y-118549999D01*
X126975170Y-118549999D02*
X127070408Y-118549999D01*
X127070408Y-118549999D02*
X127213265Y-118585713D01*
X127213265Y-118585713D02*
X127784694Y-119014285D01*
X127784694Y-119014285D02*
X127784694Y-118549999D01*
X138689455Y-84075000D02*
X138737075Y-84110714D01*
X138737075Y-84110714D02*
X138784694Y-84217857D01*
X138784694Y-84217857D02*
X138784694Y-84289285D01*
X138784694Y-84289285D02*
X138737075Y-84396428D01*
X138737075Y-84396428D02*
X138641836Y-84467857D01*
X138641836Y-84467857D02*
X138546598Y-84503571D01*
X138546598Y-84503571D02*
X138356122Y-84539285D01*
X138356122Y-84539285D02*
X138213265Y-84539285D01*
X138213265Y-84539285D02*
X138022789Y-84503571D01*
X138022789Y-84503571D02*
X137927551Y-84467857D01*
X137927551Y-84467857D02*
X137832313Y-84396428D01*
X137832313Y-84396428D02*
X137784694Y-84289285D01*
X137784694Y-84289285D02*
X137784694Y-84217857D01*
X137784694Y-84217857D02*
X137832313Y-84110714D01*
X137832313Y-84110714D02*
X137879932Y-84075000D01*
X137784694Y-83825000D02*
X137784694Y-83360714D01*
X137784694Y-83360714D02*
X138165646Y-83610714D01*
X138165646Y-83610714D02*
X138165646Y-83503571D01*
X138165646Y-83503571D02*
X138213265Y-83432143D01*
X138213265Y-83432143D02*
X138260884Y-83396428D01*
X138260884Y-83396428D02*
X138356122Y-83360714D01*
X138356122Y-83360714D02*
X138594217Y-83360714D01*
X138594217Y-83360714D02*
X138689455Y-83396428D01*
X138689455Y-83396428D02*
X138737075Y-83432143D01*
X138737075Y-83432143D02*
X138784694Y-83503571D01*
X138784694Y-83503571D02*
X138784694Y-83717857D01*
X138784694Y-83717857D02*
X138737075Y-83789285D01*
X138737075Y-83789285D02*
X138689455Y-83825000D01*
X107854999Y-96159455D02*
X107819285Y-96207075D01*
X107819285Y-96207075D02*
X107712142Y-96254694D01*
X107712142Y-96254694D02*
X107640714Y-96254694D01*
X107640714Y-96254694D02*
X107533571Y-96207075D01*
X107533571Y-96207075D02*
X107462142Y-96111836D01*
X107462142Y-96111836D02*
X107426428Y-96016598D01*
X107426428Y-96016598D02*
X107390714Y-95826122D01*
X107390714Y-95826122D02*
X107390714Y-95683265D01*
X107390714Y-95683265D02*
X107426428Y-95492789D01*
X107426428Y-95492789D02*
X107462142Y-95397551D01*
X107462142Y-95397551D02*
X107533571Y-95302313D01*
X107533571Y-95302313D02*
X107640714Y-95254694D01*
X107640714Y-95254694D02*
X107712142Y-95254694D01*
X107712142Y-95254694D02*
X107819285Y-95302313D01*
X107819285Y-95302313D02*
X107854999Y-95349932D01*
X108104999Y-95254694D02*
X108604999Y-95254694D01*
X108604999Y-95254694D02*
X108283571Y-96254694D01*
X107104999Y-116854694D02*
X106854999Y-116378503D01*
X106676428Y-116854694D02*
X106676428Y-115854694D01*
X106676428Y-115854694D02*
X106962142Y-115854694D01*
X106962142Y-115854694D02*
X107033571Y-115902313D01*
X107033571Y-115902313D02*
X107069285Y-115949932D01*
X107069285Y-115949932D02*
X107104999Y-116045170D01*
X107104999Y-116045170D02*
X107104999Y-116188027D01*
X107104999Y-116188027D02*
X107069285Y-116283265D01*
X107069285Y-116283265D02*
X107033571Y-116330884D01*
X107033571Y-116330884D02*
X106962142Y-116378503D01*
X106962142Y-116378503D02*
X106676428Y-116378503D01*
X107783571Y-115854694D02*
X107426428Y-115854694D01*
X107426428Y-115854694D02*
X107390714Y-116330884D01*
X107390714Y-116330884D02*
X107426428Y-116283265D01*
X107426428Y-116283265D02*
X107497857Y-116235646D01*
X107497857Y-116235646D02*
X107676428Y-116235646D01*
X107676428Y-116235646D02*
X107747857Y-116283265D01*
X107747857Y-116283265D02*
X107783571Y-116330884D01*
X107783571Y-116330884D02*
X107819285Y-116426122D01*
X107819285Y-116426122D02*
X107819285Y-116664217D01*
X107819285Y-116664217D02*
X107783571Y-116759455D01*
X107783571Y-116759455D02*
X107747857Y-116807075D01*
X107747857Y-116807075D02*
X107676428Y-116854694D01*
X107676428Y-116854694D02*
X107497857Y-116854694D01*
X107497857Y-116854694D02*
X107426428Y-116807075D01*
X107426428Y-116807075D02*
X107390714Y-116759455D01*
X115054999Y-94759455D02*
X115019285Y-94807075D01*
X115019285Y-94807075D02*
X114912142Y-94854694D01*
X114912142Y-94854694D02*
X114840714Y-94854694D01*
X114840714Y-94854694D02*
X114733571Y-94807075D01*
X114733571Y-94807075D02*
X114662142Y-94711836D01*
X114662142Y-94711836D02*
X114626428Y-94616598D01*
X114626428Y-94616598D02*
X114590714Y-94426122D01*
X114590714Y-94426122D02*
X114590714Y-94283265D01*
X114590714Y-94283265D02*
X114626428Y-94092789D01*
X114626428Y-94092789D02*
X114662142Y-93997551D01*
X114662142Y-93997551D02*
X114733571Y-93902313D01*
X114733571Y-93902313D02*
X114840714Y-93854694D01*
X114840714Y-93854694D02*
X114912142Y-93854694D01*
X114912142Y-93854694D02*
X115019285Y-93902313D01*
X115019285Y-93902313D02*
X115054999Y-93949932D01*
X115733571Y-93854694D02*
X115376428Y-93854694D01*
X115376428Y-93854694D02*
X115340714Y-94330884D01*
X115340714Y-94330884D02*
X115376428Y-94283265D01*
X115376428Y-94283265D02*
X115447857Y-94235646D01*
X115447857Y-94235646D02*
X115626428Y-94235646D01*
X115626428Y-94235646D02*
X115697857Y-94283265D01*
X115697857Y-94283265D02*
X115733571Y-94330884D01*
X115733571Y-94330884D02*
X115769285Y-94426122D01*
X115769285Y-94426122D02*
X115769285Y-94664217D01*
X115769285Y-94664217D02*
X115733571Y-94759455D01*
X115733571Y-94759455D02*
X115697857Y-94807075D01*
X115697857Y-94807075D02*
X115626428Y-94854694D01*
X115626428Y-94854694D02*
X115447857Y-94854694D01*
X115447857Y-94854694D02*
X115376428Y-94807075D01*
X115376428Y-94807075D02*
X115340714Y-94759455D01*
X139928689Y-93804694D02*
X139678689Y-93328503D01*
X139500118Y-93804694D02*
X139500118Y-92804694D01*
X139500118Y-92804694D02*
X139785832Y-92804694D01*
X139785832Y-92804694D02*
X139857261Y-92852313D01*
X139857261Y-92852313D02*
X139892975Y-92899932D01*
X139892975Y-92899932D02*
X139928689Y-92995170D01*
X139928689Y-92995170D02*
X139928689Y-93138027D01*
X139928689Y-93138027D02*
X139892975Y-93233265D01*
X139892975Y-93233265D02*
X139857261Y-93280884D01*
X139857261Y-93280884D02*
X139785832Y-93328503D01*
X139785832Y-93328503D02*
X139500118Y-93328503D01*
X140642975Y-93804694D02*
X140214404Y-93804694D01*
X140428689Y-93804694D02*
X140428689Y-92804694D01*
X140428689Y-92804694D02*
X140357261Y-92947551D01*
X140357261Y-92947551D02*
X140285832Y-93042789D01*
X140285832Y-93042789D02*
X140214404Y-93090408D01*
X141107261Y-92804694D02*
X141178690Y-92804694D01*
X141178690Y-92804694D02*
X141250118Y-92852313D01*
X141250118Y-92852313D02*
X141285833Y-92899932D01*
X141285833Y-92899932D02*
X141321547Y-92995170D01*
X141321547Y-92995170D02*
X141357261Y-93185646D01*
X141357261Y-93185646D02*
X141357261Y-93423741D01*
X141357261Y-93423741D02*
X141321547Y-93614217D01*
X141321547Y-93614217D02*
X141285833Y-93709455D01*
X141285833Y-93709455D02*
X141250118Y-93757075D01*
X141250118Y-93757075D02*
X141178690Y-93804694D01*
X141178690Y-93804694D02*
X141107261Y-93804694D01*
X141107261Y-93804694D02*
X141035833Y-93757075D01*
X141035833Y-93757075D02*
X141000118Y-93709455D01*
X141000118Y-93709455D02*
X140964404Y-93614217D01*
X140964404Y-93614217D02*
X140928690Y-93423741D01*
X140928690Y-93423741D02*
X140928690Y-93185646D01*
X140928690Y-93185646D02*
X140964404Y-92995170D01*
X140964404Y-92995170D02*
X141000118Y-92899932D01*
X141000118Y-92899932D02*
X141035833Y-92852313D01*
X141035833Y-92852313D02*
X141107261Y-92804694D01*
X107104999Y-115254694D02*
X106854999Y-114778503D01*
X106676428Y-115254694D02*
X106676428Y-114254694D01*
X106676428Y-114254694D02*
X106962142Y-114254694D01*
X106962142Y-114254694D02*
X107033571Y-114302313D01*
X107033571Y-114302313D02*
X107069285Y-114349932D01*
X107069285Y-114349932D02*
X107104999Y-114445170D01*
X107104999Y-114445170D02*
X107104999Y-114588027D01*
X107104999Y-114588027D02*
X107069285Y-114683265D01*
X107069285Y-114683265D02*
X107033571Y-114730884D01*
X107033571Y-114730884D02*
X106962142Y-114778503D01*
X106962142Y-114778503D02*
X106676428Y-114778503D01*
X107533571Y-114683265D02*
X107462142Y-114635646D01*
X107462142Y-114635646D02*
X107426428Y-114588027D01*
X107426428Y-114588027D02*
X107390714Y-114492789D01*
X107390714Y-114492789D02*
X107390714Y-114445170D01*
X107390714Y-114445170D02*
X107426428Y-114349932D01*
X107426428Y-114349932D02*
X107462142Y-114302313D01*
X107462142Y-114302313D02*
X107533571Y-114254694D01*
X107533571Y-114254694D02*
X107676428Y-114254694D01*
X107676428Y-114254694D02*
X107747857Y-114302313D01*
X107747857Y-114302313D02*
X107783571Y-114349932D01*
X107783571Y-114349932D02*
X107819285Y-114445170D01*
X107819285Y-114445170D02*
X107819285Y-114492789D01*
X107819285Y-114492789D02*
X107783571Y-114588027D01*
X107783571Y-114588027D02*
X107747857Y-114635646D01*
X107747857Y-114635646D02*
X107676428Y-114683265D01*
X107676428Y-114683265D02*
X107533571Y-114683265D01*
X107533571Y-114683265D02*
X107462142Y-114730884D01*
X107462142Y-114730884D02*
X107426428Y-114778503D01*
X107426428Y-114778503D02*
X107390714Y-114873741D01*
X107390714Y-114873741D02*
X107390714Y-115064217D01*
X107390714Y-115064217D02*
X107426428Y-115159455D01*
X107426428Y-115159455D02*
X107462142Y-115207075D01*
X107462142Y-115207075D02*
X107533571Y-115254694D01*
X107533571Y-115254694D02*
X107676428Y-115254694D01*
X107676428Y-115254694D02*
X107747857Y-115207075D01*
X107747857Y-115207075D02*
X107783571Y-115159455D01*
X107783571Y-115159455D02*
X107819285Y-115064217D01*
X107819285Y-115064217D02*
X107819285Y-114873741D01*
X107819285Y-114873741D02*
X107783571Y-114778503D01*
X107783571Y-114778503D02*
X107747857Y-114730884D01*
X107747857Y-114730884D02*
X107676428Y-114683265D01*
X114676428Y-99004694D02*
X114676428Y-98004694D01*
X114676428Y-98004694D02*
X114854999Y-98004694D01*
X114854999Y-98004694D02*
X114962142Y-98052313D01*
X114962142Y-98052313D02*
X115033571Y-98147551D01*
X115033571Y-98147551D02*
X115069285Y-98242789D01*
X115069285Y-98242789D02*
X115104999Y-98433265D01*
X115104999Y-98433265D02*
X115104999Y-98576122D01*
X115104999Y-98576122D02*
X115069285Y-98766598D01*
X115069285Y-98766598D02*
X115033571Y-98861836D01*
X115033571Y-98861836D02*
X114962142Y-98957075D01*
X114962142Y-98957075D02*
X114854999Y-99004694D01*
X114854999Y-99004694D02*
X114676428Y-99004694D01*
X115819285Y-99004694D02*
X115390714Y-99004694D01*
X115604999Y-99004694D02*
X115604999Y-98004694D01*
X115604999Y-98004694D02*
X115533571Y-98147551D01*
X115533571Y-98147551D02*
X115462142Y-98242789D01*
X115462142Y-98242789D02*
X115390714Y-98290408D01*
X101365714Y-96804694D02*
X101794286Y-96804694D01*
X101580000Y-97804694D02*
X101580000Y-96804694D01*
X102044286Y-97804694D02*
X102044286Y-96804694D01*
X102044286Y-97280884D02*
X102472857Y-97280884D01*
X102472857Y-97804694D02*
X102472857Y-96804694D01*
X103222857Y-97804694D02*
X102794286Y-97804694D01*
X103008571Y-97804694D02*
X103008571Y-96804694D01*
X103008571Y-96804694D02*
X102937143Y-96947551D01*
X102937143Y-96947551D02*
X102865714Y-97042789D01*
X102865714Y-97042789D02*
X102794286Y-97090408D01*
X145397856Y-87554694D02*
X145147856Y-87078503D01*
X144969285Y-87554694D02*
X144969285Y-86554694D01*
X144969285Y-86554694D02*
X145254999Y-86554694D01*
X145254999Y-86554694D02*
X145326428Y-86602313D01*
X145326428Y-86602313D02*
X145362142Y-86649932D01*
X145362142Y-86649932D02*
X145397856Y-86745170D01*
X145397856Y-86745170D02*
X145397856Y-86888027D01*
X145397856Y-86888027D02*
X145362142Y-86983265D01*
X145362142Y-86983265D02*
X145326428Y-87030884D01*
X145326428Y-87030884D02*
X145254999Y-87078503D01*
X145254999Y-87078503D02*
X144969285Y-87078503D01*
X146112142Y-87554694D02*
X145683571Y-87554694D01*
X145897856Y-87554694D02*
X145897856Y-86554694D01*
X145897856Y-86554694D02*
X145826428Y-86697551D01*
X145826428Y-86697551D02*
X145754999Y-86792789D01*
X145754999Y-86792789D02*
X145683571Y-86840408D01*
X146790714Y-86554694D02*
X146433571Y-86554694D01*
X146433571Y-86554694D02*
X146397857Y-87030884D01*
X146397857Y-87030884D02*
X146433571Y-86983265D01*
X146433571Y-86983265D02*
X146505000Y-86935646D01*
X146505000Y-86935646D02*
X146683571Y-86935646D01*
X146683571Y-86935646D02*
X146755000Y-86983265D01*
X146755000Y-86983265D02*
X146790714Y-87030884D01*
X146790714Y-87030884D02*
X146826428Y-87126122D01*
X146826428Y-87126122D02*
X146826428Y-87364217D01*
X146826428Y-87364217D02*
X146790714Y-87459455D01*
X146790714Y-87459455D02*
X146755000Y-87507075D01*
X146755000Y-87507075D02*
X146683571Y-87554694D01*
X146683571Y-87554694D02*
X146505000Y-87554694D01*
X146505000Y-87554694D02*
X146433571Y-87507075D01*
X146433571Y-87507075D02*
X146397857Y-87459455D01*
X124939455Y-83925000D02*
X124987075Y-83960714D01*
X124987075Y-83960714D02*
X125034694Y-84067857D01*
X125034694Y-84067857D02*
X125034694Y-84139285D01*
X125034694Y-84139285D02*
X124987075Y-84246428D01*
X124987075Y-84246428D02*
X124891836Y-84317857D01*
X124891836Y-84317857D02*
X124796598Y-84353571D01*
X124796598Y-84353571D02*
X124606122Y-84389285D01*
X124606122Y-84389285D02*
X124463265Y-84389285D01*
X124463265Y-84389285D02*
X124272789Y-84353571D01*
X124272789Y-84353571D02*
X124177551Y-84317857D01*
X124177551Y-84317857D02*
X124082313Y-84246428D01*
X124082313Y-84246428D02*
X124034694Y-84139285D01*
X124034694Y-84139285D02*
X124034694Y-84067857D01*
X124034694Y-84067857D02*
X124082313Y-83960714D01*
X124082313Y-83960714D02*
X124129932Y-83925000D01*
X125034694Y-83567857D02*
X125034694Y-83425000D01*
X125034694Y-83425000D02*
X124987075Y-83353571D01*
X124987075Y-83353571D02*
X124939455Y-83317857D01*
X124939455Y-83317857D02*
X124796598Y-83246428D01*
X124796598Y-83246428D02*
X124606122Y-83210714D01*
X124606122Y-83210714D02*
X124225170Y-83210714D01*
X124225170Y-83210714D02*
X124129932Y-83246428D01*
X124129932Y-83246428D02*
X124082313Y-83282143D01*
X124082313Y-83282143D02*
X124034694Y-83353571D01*
X124034694Y-83353571D02*
X124034694Y-83496428D01*
X124034694Y-83496428D02*
X124082313Y-83567857D01*
X124082313Y-83567857D02*
X124129932Y-83603571D01*
X124129932Y-83603571D02*
X124225170Y-83639285D01*
X124225170Y-83639285D02*
X124463265Y-83639285D01*
X124463265Y-83639285D02*
X124558503Y-83603571D01*
X124558503Y-83603571D02*
X124606122Y-83567857D01*
X124606122Y-83567857D02*
X124653741Y-83496428D01*
X124653741Y-83496428D02*
X124653741Y-83353571D01*
X124653741Y-83353571D02*
X124606122Y-83282143D01*
X124606122Y-83282143D02*
X124558503Y-83246428D01*
X124558503Y-83246428D02*
X124463265Y-83210714D01*
X149130000Y-95004694D02*
X149130000Y-95718979D01*
X149130000Y-95718979D02*
X149094285Y-95861836D01*
X149094285Y-95861836D02*
X149022857Y-95957075D01*
X149022857Y-95957075D02*
X148915714Y-96004694D01*
X148915714Y-96004694D02*
X148844285Y-96004694D01*
X149415714Y-95004694D02*
X149880000Y-95004694D01*
X149880000Y-95004694D02*
X149630000Y-95385646D01*
X149630000Y-95385646D02*
X149737143Y-95385646D01*
X149737143Y-95385646D02*
X149808572Y-95433265D01*
X149808572Y-95433265D02*
X149844286Y-95480884D01*
X149844286Y-95480884D02*
X149880000Y-95576122D01*
X149880000Y-95576122D02*
X149880000Y-95814217D01*
X149880000Y-95814217D02*
X149844286Y-95909455D01*
X149844286Y-95909455D02*
X149808572Y-95957075D01*
X149808572Y-95957075D02*
X149737143Y-96004694D01*
X149737143Y-96004694D02*
X149522857Y-96004694D01*
X149522857Y-96004694D02*
X149451429Y-95957075D01*
X149451429Y-95957075D02*
X149415714Y-95909455D01*
X139928689Y-95509571D02*
X139678689Y-95033380D01*
X139500118Y-95509571D02*
X139500118Y-94509571D01*
X139500118Y-94509571D02*
X139785832Y-94509571D01*
X139785832Y-94509571D02*
X139857261Y-94557190D01*
X139857261Y-94557190D02*
X139892975Y-94604809D01*
X139892975Y-94604809D02*
X139928689Y-94700047D01*
X139928689Y-94700047D02*
X139928689Y-94842904D01*
X139928689Y-94842904D02*
X139892975Y-94938142D01*
X139892975Y-94938142D02*
X139857261Y-94985761D01*
X139857261Y-94985761D02*
X139785832Y-95033380D01*
X139785832Y-95033380D02*
X139500118Y-95033380D01*
X140642975Y-95509571D02*
X140214404Y-95509571D01*
X140428689Y-95509571D02*
X140428689Y-94509571D01*
X140428689Y-94509571D02*
X140357261Y-94652428D01*
X140357261Y-94652428D02*
X140285832Y-94747666D01*
X140285832Y-94747666D02*
X140214404Y-94795285D01*
X141357261Y-95509571D02*
X140928690Y-95509571D01*
X141142975Y-95509571D02*
X141142975Y-94509571D01*
X141142975Y-94509571D02*
X141071547Y-94652428D01*
X141071547Y-94652428D02*
X141000118Y-94747666D01*
X141000118Y-94747666D02*
X140928690Y-94795285D01*
X129084694Y-92125000D02*
X128608503Y-92375000D01*
X129084694Y-92553571D02*
X128084694Y-92553571D01*
X128084694Y-92553571D02*
X128084694Y-92267857D01*
X128084694Y-92267857D02*
X128132313Y-92196428D01*
X128132313Y-92196428D02*
X128179932Y-92160714D01*
X128179932Y-92160714D02*
X128275170Y-92125000D01*
X128275170Y-92125000D02*
X128418027Y-92125000D01*
X128418027Y-92125000D02*
X128513265Y-92160714D01*
X128513265Y-92160714D02*
X128560884Y-92196428D01*
X128560884Y-92196428D02*
X128608503Y-92267857D01*
X128608503Y-92267857D02*
X128608503Y-92553571D01*
X128084694Y-91875000D02*
X128084694Y-91375000D01*
X128084694Y-91375000D02*
X129084694Y-91696428D01*
X141989455Y-84225000D02*
X142037075Y-84260714D01*
X142037075Y-84260714D02*
X142084694Y-84367857D01*
X142084694Y-84367857D02*
X142084694Y-84439285D01*
X142084694Y-84439285D02*
X142037075Y-84546428D01*
X142037075Y-84546428D02*
X141941836Y-84617857D01*
X141941836Y-84617857D02*
X141846598Y-84653571D01*
X141846598Y-84653571D02*
X141656122Y-84689285D01*
X141656122Y-84689285D02*
X141513265Y-84689285D01*
X141513265Y-84689285D02*
X141322789Y-84653571D01*
X141322789Y-84653571D02*
X141227551Y-84617857D01*
X141227551Y-84617857D02*
X141132313Y-84546428D01*
X141132313Y-84546428D02*
X141084694Y-84439285D01*
X141084694Y-84439285D02*
X141084694Y-84367857D01*
X141084694Y-84367857D02*
X141132313Y-84260714D01*
X141132313Y-84260714D02*
X141179932Y-84225000D01*
X141084694Y-83582143D02*
X141084694Y-83725000D01*
X141084694Y-83725000D02*
X141132313Y-83796428D01*
X141132313Y-83796428D02*
X141179932Y-83832143D01*
X141179932Y-83832143D02*
X141322789Y-83903571D01*
X141322789Y-83903571D02*
X141513265Y-83939285D01*
X141513265Y-83939285D02*
X141894217Y-83939285D01*
X141894217Y-83939285D02*
X141989455Y-83903571D01*
X141989455Y-83903571D02*
X142037075Y-83867857D01*
X142037075Y-83867857D02*
X142084694Y-83796428D01*
X142084694Y-83796428D02*
X142084694Y-83653571D01*
X142084694Y-83653571D02*
X142037075Y-83582143D01*
X142037075Y-83582143D02*
X141989455Y-83546428D01*
X141989455Y-83546428D02*
X141894217Y-83510714D01*
X141894217Y-83510714D02*
X141656122Y-83510714D01*
X141656122Y-83510714D02*
X141560884Y-83546428D01*
X141560884Y-83546428D02*
X141513265Y-83582143D01*
X141513265Y-83582143D02*
X141465646Y-83653571D01*
X141465646Y-83653571D02*
X141465646Y-83796428D01*
X141465646Y-83796428D02*
X141513265Y-83867857D01*
X141513265Y-83867857D02*
X141560884Y-83903571D01*
X141560884Y-83903571D02*
X141656122Y-83939285D01*
X129854999Y-86859455D02*
X129819285Y-86907075D01*
X129819285Y-86907075D02*
X129712142Y-86954694D01*
X129712142Y-86954694D02*
X129640714Y-86954694D01*
X129640714Y-86954694D02*
X129533571Y-86907075D01*
X129533571Y-86907075D02*
X129462142Y-86811836D01*
X129462142Y-86811836D02*
X129426428Y-86716598D01*
X129426428Y-86716598D02*
X129390714Y-86526122D01*
X129390714Y-86526122D02*
X129390714Y-86383265D01*
X129390714Y-86383265D02*
X129426428Y-86192789D01*
X129426428Y-86192789D02*
X129462142Y-86097551D01*
X129462142Y-86097551D02*
X129533571Y-86002313D01*
X129533571Y-86002313D02*
X129640714Y-85954694D01*
X129640714Y-85954694D02*
X129712142Y-85954694D01*
X129712142Y-85954694D02*
X129819285Y-86002313D01*
X129819285Y-86002313D02*
X129854999Y-86049932D01*
X130283571Y-86383265D02*
X130212142Y-86335646D01*
X130212142Y-86335646D02*
X130176428Y-86288027D01*
X130176428Y-86288027D02*
X130140714Y-86192789D01*
X130140714Y-86192789D02*
X130140714Y-86145170D01*
X130140714Y-86145170D02*
X130176428Y-86049932D01*
X130176428Y-86049932D02*
X130212142Y-86002313D01*
X130212142Y-86002313D02*
X130283571Y-85954694D01*
X130283571Y-85954694D02*
X130426428Y-85954694D01*
X130426428Y-85954694D02*
X130497857Y-86002313D01*
X130497857Y-86002313D02*
X130533571Y-86049932D01*
X130533571Y-86049932D02*
X130569285Y-86145170D01*
X130569285Y-86145170D02*
X130569285Y-86192789D01*
X130569285Y-86192789D02*
X130533571Y-86288027D01*
X130533571Y-86288027D02*
X130497857Y-86335646D01*
X130497857Y-86335646D02*
X130426428Y-86383265D01*
X130426428Y-86383265D02*
X130283571Y-86383265D01*
X130283571Y-86383265D02*
X130212142Y-86430884D01*
X130212142Y-86430884D02*
X130176428Y-86478503D01*
X130176428Y-86478503D02*
X130140714Y-86573741D01*
X130140714Y-86573741D02*
X130140714Y-86764217D01*
X130140714Y-86764217D02*
X130176428Y-86859455D01*
X130176428Y-86859455D02*
X130212142Y-86907075D01*
X130212142Y-86907075D02*
X130283571Y-86954694D01*
X130283571Y-86954694D02*
X130426428Y-86954694D01*
X130426428Y-86954694D02*
X130497857Y-86907075D01*
X130497857Y-86907075D02*
X130533571Y-86859455D01*
X130533571Y-86859455D02*
X130569285Y-86764217D01*
X130569285Y-86764217D02*
X130569285Y-86573741D01*
X130569285Y-86573741D02*
X130533571Y-86478503D01*
X130533571Y-86478503D02*
X130497857Y-86430884D01*
X130497857Y-86430884D02*
X130426428Y-86383265D01*
X113047856Y-120254694D02*
X112797856Y-119778503D01*
X112619285Y-120254694D02*
X112619285Y-119254694D01*
X112619285Y-119254694D02*
X112904999Y-119254694D01*
X112904999Y-119254694D02*
X112976428Y-119302313D01*
X112976428Y-119302313D02*
X113012142Y-119349932D01*
X113012142Y-119349932D02*
X113047856Y-119445170D01*
X113047856Y-119445170D02*
X113047856Y-119588027D01*
X113047856Y-119588027D02*
X113012142Y-119683265D01*
X113012142Y-119683265D02*
X112976428Y-119730884D01*
X112976428Y-119730884D02*
X112904999Y-119778503D01*
X112904999Y-119778503D02*
X112619285Y-119778503D01*
X113762142Y-120254694D02*
X113333571Y-120254694D01*
X113547856Y-120254694D02*
X113547856Y-119254694D01*
X113547856Y-119254694D02*
X113476428Y-119397551D01*
X113476428Y-119397551D02*
X113404999Y-119492789D01*
X113404999Y-119492789D02*
X113333571Y-119540408D01*
X114012142Y-119254694D02*
X114476428Y-119254694D01*
X114476428Y-119254694D02*
X114226428Y-119635646D01*
X114226428Y-119635646D02*
X114333571Y-119635646D01*
X114333571Y-119635646D02*
X114405000Y-119683265D01*
X114405000Y-119683265D02*
X114440714Y-119730884D01*
X114440714Y-119730884D02*
X114476428Y-119826122D01*
X114476428Y-119826122D02*
X114476428Y-120064217D01*
X114476428Y-120064217D02*
X114440714Y-120159455D01*
X114440714Y-120159455D02*
X114405000Y-120207075D01*
X114405000Y-120207075D02*
X114333571Y-120254694D01*
X114333571Y-120254694D02*
X114119285Y-120254694D01*
X114119285Y-120254694D02*
X114047857Y-120207075D01*
X114047857Y-120207075D02*
X114012142Y-120159455D01*
X150834694Y-103749999D02*
X151548979Y-103749999D01*
X151548979Y-103749999D02*
X151691836Y-103785714D01*
X151691836Y-103785714D02*
X151787075Y-103857142D01*
X151787075Y-103857142D02*
X151834694Y-103964285D01*
X151834694Y-103964285D02*
X151834694Y-104035714D01*
X151168027Y-103071428D02*
X151834694Y-103071428D01*
X150787075Y-103249999D02*
X151501360Y-103428570D01*
X151501360Y-103428570D02*
X151501360Y-102964285D01*
X139880000Y-104804694D02*
X139880000Y-105518979D01*
X139880000Y-105518979D02*
X139844285Y-105661836D01*
X139844285Y-105661836D02*
X139772857Y-105757075D01*
X139772857Y-105757075D02*
X139665714Y-105804694D01*
X139665714Y-105804694D02*
X139594285Y-105804694D01*
X140201429Y-104899932D02*
X140237143Y-104852313D01*
X140237143Y-104852313D02*
X140308572Y-104804694D01*
X140308572Y-104804694D02*
X140487143Y-104804694D01*
X140487143Y-104804694D02*
X140558572Y-104852313D01*
X140558572Y-104852313D02*
X140594286Y-104899932D01*
X140594286Y-104899932D02*
X140630000Y-104995170D01*
X140630000Y-104995170D02*
X140630000Y-105090408D01*
X140630000Y-105090408D02*
X140594286Y-105233265D01*
X140594286Y-105233265D02*
X140165714Y-105804694D01*
X140165714Y-105804694D02*
X140630000Y-105804694D01*
X113047856Y-115304694D02*
X112797856Y-114828503D01*
X112619285Y-115304694D02*
X112619285Y-114304694D01*
X112619285Y-114304694D02*
X112904999Y-114304694D01*
X112904999Y-114304694D02*
X112976428Y-114352313D01*
X112976428Y-114352313D02*
X113012142Y-114399932D01*
X113012142Y-114399932D02*
X113047856Y-114495170D01*
X113047856Y-114495170D02*
X113047856Y-114638027D01*
X113047856Y-114638027D02*
X113012142Y-114733265D01*
X113012142Y-114733265D02*
X112976428Y-114780884D01*
X112976428Y-114780884D02*
X112904999Y-114828503D01*
X112904999Y-114828503D02*
X112619285Y-114828503D01*
X113762142Y-115304694D02*
X113333571Y-115304694D01*
X113547856Y-115304694D02*
X113547856Y-114304694D01*
X113547856Y-114304694D02*
X113476428Y-114447551D01*
X113476428Y-114447551D02*
X113404999Y-114542789D01*
X113404999Y-114542789D02*
X113333571Y-114590408D01*
X114047857Y-114399932D02*
X114083571Y-114352313D01*
X114083571Y-114352313D02*
X114155000Y-114304694D01*
X114155000Y-114304694D02*
X114333571Y-114304694D01*
X114333571Y-114304694D02*
X114405000Y-114352313D01*
X114405000Y-114352313D02*
X114440714Y-114399932D01*
X114440714Y-114399932D02*
X114476428Y-114495170D01*
X114476428Y-114495170D02*
X114476428Y-114590408D01*
X114476428Y-114590408D02*
X114440714Y-114733265D01*
X114440714Y-114733265D02*
X114012142Y-115304694D01*
X114012142Y-115304694D02*
X114476428Y-115304694D01*
X102222925Y-110450000D02*
X102175305Y-110557143D01*
X102175305Y-110557143D02*
X102175305Y-110735714D01*
X102175305Y-110735714D02*
X102222925Y-110807143D01*
X102222925Y-110807143D02*
X102270544Y-110842857D01*
X102270544Y-110842857D02*
X102365782Y-110878571D01*
X102365782Y-110878571D02*
X102461020Y-110878571D01*
X102461020Y-110878571D02*
X102556258Y-110842857D01*
X102556258Y-110842857D02*
X102603877Y-110807143D01*
X102603877Y-110807143D02*
X102651496Y-110735714D01*
X102651496Y-110735714D02*
X102699115Y-110592857D01*
X102699115Y-110592857D02*
X102746734Y-110521428D01*
X102746734Y-110521428D02*
X102794353Y-110485714D01*
X102794353Y-110485714D02*
X102889591Y-110450000D01*
X102889591Y-110450000D02*
X102984829Y-110450000D01*
X102984829Y-110450000D02*
X103080067Y-110485714D01*
X103080067Y-110485714D02*
X103127686Y-110521428D01*
X103127686Y-110521428D02*
X103175305Y-110592857D01*
X103175305Y-110592857D02*
X103175305Y-110771428D01*
X103175305Y-110771428D02*
X103127686Y-110878571D01*
X103175305Y-111128571D02*
X102175305Y-111307143D01*
X102175305Y-111307143D02*
X102889591Y-111450000D01*
X102889591Y-111450000D02*
X102175305Y-111592857D01*
X102175305Y-111592857D02*
X103175305Y-111771429D01*
X102175305Y-112450000D02*
X102175305Y-112021429D01*
X102175305Y-112235714D02*
X103175305Y-112235714D01*
X103175305Y-112235714D02*
X103032448Y-112164286D01*
X103032448Y-112164286D02*
X102937210Y-112092857D01*
X102937210Y-112092857D02*
X102889591Y-112021429D01*
X145347856Y-92054694D02*
X145097856Y-91578503D01*
X144919285Y-92054694D02*
X144919285Y-91054694D01*
X144919285Y-91054694D02*
X145204999Y-91054694D01*
X145204999Y-91054694D02*
X145276428Y-91102313D01*
X145276428Y-91102313D02*
X145312142Y-91149932D01*
X145312142Y-91149932D02*
X145347856Y-91245170D01*
X145347856Y-91245170D02*
X145347856Y-91388027D01*
X145347856Y-91388027D02*
X145312142Y-91483265D01*
X145312142Y-91483265D02*
X145276428Y-91530884D01*
X145276428Y-91530884D02*
X145204999Y-91578503D01*
X145204999Y-91578503D02*
X144919285Y-91578503D01*
X146062142Y-92054694D02*
X145633571Y-92054694D01*
X145847856Y-92054694D02*
X145847856Y-91054694D01*
X145847856Y-91054694D02*
X145776428Y-91197551D01*
X145776428Y-91197551D02*
X145704999Y-91292789D01*
X145704999Y-91292789D02*
X145633571Y-91340408D01*
X146705000Y-91054694D02*
X146562142Y-91054694D01*
X146562142Y-91054694D02*
X146490714Y-91102313D01*
X146490714Y-91102313D02*
X146455000Y-91149932D01*
X146455000Y-91149932D02*
X146383571Y-91292789D01*
X146383571Y-91292789D02*
X146347857Y-91483265D01*
X146347857Y-91483265D02*
X146347857Y-91864217D01*
X146347857Y-91864217D02*
X146383571Y-91959455D01*
X146383571Y-91959455D02*
X146419285Y-92007075D01*
X146419285Y-92007075D02*
X146490714Y-92054694D01*
X146490714Y-92054694D02*
X146633571Y-92054694D01*
X146633571Y-92054694D02*
X146705000Y-92007075D01*
X146705000Y-92007075D02*
X146740714Y-91959455D01*
X146740714Y-91959455D02*
X146776428Y-91864217D01*
X146776428Y-91864217D02*
X146776428Y-91626122D01*
X146776428Y-91626122D02*
X146740714Y-91530884D01*
X146740714Y-91530884D02*
X146705000Y-91483265D01*
X146705000Y-91483265D02*
X146633571Y-91435646D01*
X146633571Y-91435646D02*
X146490714Y-91435646D01*
X146490714Y-91435646D02*
X146419285Y-91483265D01*
X146419285Y-91483265D02*
X146383571Y-91530884D01*
X146383571Y-91530884D02*
X146347857Y-91626122D01*
X136654999Y-86809455D02*
X136619285Y-86857075D01*
X136619285Y-86857075D02*
X136512142Y-86904694D01*
X136512142Y-86904694D02*
X136440714Y-86904694D01*
X136440714Y-86904694D02*
X136333571Y-86857075D01*
X136333571Y-86857075D02*
X136262142Y-86761836D01*
X136262142Y-86761836D02*
X136226428Y-86666598D01*
X136226428Y-86666598D02*
X136190714Y-86476122D01*
X136190714Y-86476122D02*
X136190714Y-86333265D01*
X136190714Y-86333265D02*
X136226428Y-86142789D01*
X136226428Y-86142789D02*
X136262142Y-86047551D01*
X136262142Y-86047551D02*
X136333571Y-85952313D01*
X136333571Y-85952313D02*
X136440714Y-85904694D01*
X136440714Y-85904694D02*
X136512142Y-85904694D01*
X136512142Y-85904694D02*
X136619285Y-85952313D01*
X136619285Y-85952313D02*
X136654999Y-85999932D01*
X137297857Y-86238027D02*
X137297857Y-86904694D01*
X137119285Y-85857075D02*
X136940714Y-86571360D01*
X136940714Y-86571360D02*
X137404999Y-86571360D01*
X149480000Y-114704694D02*
X149480000Y-115418979D01*
X149480000Y-115418979D02*
X149444285Y-115561836D01*
X149444285Y-115561836D02*
X149372857Y-115657075D01*
X149372857Y-115657075D02*
X149265714Y-115704694D01*
X149265714Y-115704694D02*
X149194285Y-115704694D01*
X150194286Y-114704694D02*
X149837143Y-114704694D01*
X149837143Y-114704694D02*
X149801429Y-115180884D01*
X149801429Y-115180884D02*
X149837143Y-115133265D01*
X149837143Y-115133265D02*
X149908572Y-115085646D01*
X149908572Y-115085646D02*
X150087143Y-115085646D01*
X150087143Y-115085646D02*
X150158572Y-115133265D01*
X150158572Y-115133265D02*
X150194286Y-115180884D01*
X150194286Y-115180884D02*
X150230000Y-115276122D01*
X150230000Y-115276122D02*
X150230000Y-115514217D01*
X150230000Y-115514217D02*
X150194286Y-115609455D01*
X150194286Y-115609455D02*
X150158572Y-115657075D01*
X150158572Y-115657075D02*
X150087143Y-115704694D01*
X150087143Y-115704694D02*
X149908572Y-115704694D01*
X149908572Y-115704694D02*
X149837143Y-115657075D01*
X149837143Y-115657075D02*
X149801429Y-115609455D01*
X113166904Y-116954694D02*
X112916904Y-116478503D01*
X112738333Y-116954694D02*
X112738333Y-115954694D01*
X112738333Y-115954694D02*
X113024047Y-115954694D01*
X113024047Y-115954694D02*
X113095476Y-116002313D01*
X113095476Y-116002313D02*
X113131190Y-116049932D01*
X113131190Y-116049932D02*
X113166904Y-116145170D01*
X113166904Y-116145170D02*
X113166904Y-116288027D01*
X113166904Y-116288027D02*
X113131190Y-116383265D01*
X113131190Y-116383265D02*
X113095476Y-116430884D01*
X113095476Y-116430884D02*
X113024047Y-116478503D01*
X113024047Y-116478503D02*
X112738333Y-116478503D01*
X113416904Y-115954694D02*
X113881190Y-115954694D01*
X113881190Y-115954694D02*
X113631190Y-116335646D01*
X113631190Y-116335646D02*
X113738333Y-116335646D01*
X113738333Y-116335646D02*
X113809762Y-116383265D01*
X113809762Y-116383265D02*
X113845476Y-116430884D01*
X113845476Y-116430884D02*
X113881190Y-116526122D01*
X113881190Y-116526122D02*
X113881190Y-116764217D01*
X113881190Y-116764217D02*
X113845476Y-116859455D01*
X113845476Y-116859455D02*
X113809762Y-116907075D01*
X113809762Y-116907075D02*
X113738333Y-116954694D01*
X113738333Y-116954694D02*
X113524047Y-116954694D01*
X113524047Y-116954694D02*
X113452619Y-116907075D01*
X113452619Y-116907075D02*
X113416904Y-116859455D01*
X140047737Y-92204694D02*
X139797737Y-91728503D01*
X139619166Y-92204694D02*
X139619166Y-91204694D01*
X139619166Y-91204694D02*
X139904880Y-91204694D01*
X139904880Y-91204694D02*
X139976309Y-91252313D01*
X139976309Y-91252313D02*
X140012023Y-91299932D01*
X140012023Y-91299932D02*
X140047737Y-91395170D01*
X140047737Y-91395170D02*
X140047737Y-91538027D01*
X140047737Y-91538027D02*
X140012023Y-91633265D01*
X140012023Y-91633265D02*
X139976309Y-91680884D01*
X139976309Y-91680884D02*
X139904880Y-91728503D01*
X139904880Y-91728503D02*
X139619166Y-91728503D01*
X140404880Y-92204694D02*
X140547737Y-92204694D01*
X140547737Y-92204694D02*
X140619166Y-92157075D01*
X140619166Y-92157075D02*
X140654880Y-92109455D01*
X140654880Y-92109455D02*
X140726309Y-91966598D01*
X140726309Y-91966598D02*
X140762023Y-91776122D01*
X140762023Y-91776122D02*
X140762023Y-91395170D01*
X140762023Y-91395170D02*
X140726309Y-91299932D01*
X140726309Y-91299932D02*
X140690595Y-91252313D01*
X140690595Y-91252313D02*
X140619166Y-91204694D01*
X140619166Y-91204694D02*
X140476309Y-91204694D01*
X140476309Y-91204694D02*
X140404880Y-91252313D01*
X140404880Y-91252313D02*
X140369166Y-91299932D01*
X140369166Y-91299932D02*
X140333452Y-91395170D01*
X140333452Y-91395170D02*
X140333452Y-91633265D01*
X140333452Y-91633265D02*
X140369166Y-91728503D01*
X140369166Y-91728503D02*
X140404880Y-91776122D01*
X140404880Y-91776122D02*
X140476309Y-91823741D01*
X140476309Y-91823741D02*
X140619166Y-91823741D01*
X140619166Y-91823741D02*
X140690595Y-91776122D01*
X140690595Y-91776122D02*
X140726309Y-91728503D01*
X140726309Y-91728503D02*
X140762023Y-91633265D01*
D12*
X125770000Y-86338748D02*
X125770000Y-87761252D01*
X128490000Y-86338748D02*
X128490000Y-87761252D01*
X116057500Y-99365000D02*
X116057500Y-100835000D01*
X116057500Y-100835000D02*
X118342500Y-100835000D01*
X118342500Y-99365000D02*
X116057500Y-99365000D01*
D13*
X131570000Y-89437500D02*
X132075000Y-89437500D01*
X131570000Y-89517500D02*
X131570000Y-89437500D01*
X131570000Y-91857500D02*
X131570000Y-91937500D01*
X131570000Y-91937500D02*
X131875000Y-91937500D01*
X134065000Y-89437500D02*
X134570000Y-89437500D01*
X134570000Y-89437500D02*
X134570000Y-89517500D01*
X134570000Y-91857500D02*
X134570000Y-91937500D01*
X134570000Y-91937500D02*
X134265000Y-91937500D01*
D14*
X132020000Y-92687500D02*
G75*
G02*
X131820000Y-92687500I-100000J0D01*
G01*
X131820000Y-92687500D02*
G75*
G02*
X132020000Y-92687500I100000J0D01*
G01*
D12*
X132283733Y-93740000D02*
X132576267Y-93740000D01*
X132283733Y-94760000D02*
X132576267Y-94760000D01*
X131045000Y-82240000D02*
X131045000Y-83090000D01*
X131045000Y-82240000D02*
X135415000Y-82240000D01*
X131045000Y-86960000D02*
X131045000Y-86110000D01*
X131045000Y-86960000D02*
X135415000Y-86960000D01*
X135415000Y-82240000D02*
X135415000Y-83090000D01*
X135415000Y-86960000D02*
X135415000Y-86110000D01*
X110475276Y-117577500D02*
X110984724Y-117577500D01*
X110475276Y-118622500D02*
X110984724Y-118622500D01*
X105507500Y-99492224D02*
X105507500Y-98982776D01*
X106552500Y-99492224D02*
X106552500Y-98982776D01*
X120525276Y-98027500D02*
X121034724Y-98027500D01*
X120525276Y-99072500D02*
X121034724Y-99072500D01*
X111375276Y-100027500D02*
X111884724Y-100027500D01*
X111375276Y-101072500D02*
X111884724Y-101072500D01*
X120525276Y-99577500D02*
X121034724Y-99577500D01*
X120525276Y-100622500D02*
X121034724Y-100622500D01*
D13*
X101217500Y-81470000D02*
X119217500Y-81470000D01*
X101217500Y-92430000D02*
X101217500Y-81470000D01*
X119217500Y-81470000D02*
X119217500Y-92430000D01*
X119217500Y-92430000D02*
X101217500Y-92430000D01*
D12*
X138070000Y-86488748D02*
X138070000Y-87911252D01*
X140790000Y-86488748D02*
X140790000Y-87911252D01*
X148930000Y-75750000D02*
X146530000Y-75750000D01*
X146530000Y-79950000D01*
X148930000Y-79950000D01*
X148930000Y-75750000D01*
X109426267Y-93840000D02*
X109133733Y-93840000D01*
X109426267Y-94860000D02*
X109133733Y-94860000D01*
X104525276Y-115877500D02*
X105034724Y-115877500D01*
X104525276Y-116922500D02*
X105034724Y-116922500D01*
X112533733Y-93840000D02*
X112826267Y-93840000D01*
X112533733Y-94860000D02*
X112826267Y-94860000D01*
X138084724Y-92827500D02*
X137575276Y-92827500D01*
X138084724Y-93872500D02*
X137575276Y-93872500D01*
X144330000Y-106650000D02*
G75*
G02*
X141530000Y-106650000I-1400000J0D01*
G01*
X141530000Y-106650000D02*
G75*
G02*
X144330000Y-106650000I1400000J0D01*
G01*
X104537776Y-114227500D02*
X105047224Y-114227500D01*
X104537776Y-115272500D02*
X105047224Y-115272500D01*
X116057500Y-97815000D02*
X116057500Y-99285000D01*
X116057500Y-99285000D02*
X118342500Y-99285000D01*
X118342500Y-97815000D02*
X116057500Y-97815000D01*
X104030000Y-99537500D02*
X104030000Y-100157500D01*
X104950000Y-98617500D02*
G75*
G02*
X103110000Y-98617500I-920000J0D01*
G01*
X103110000Y-98617500D02*
G75*
G02*
X104950000Y-98617500I920000J0D01*
G01*
X146784724Y-87927500D02*
X146275276Y-87927500D01*
X146784724Y-88972500D02*
X146275276Y-88972500D01*
X147330000Y-84050000D02*
G75*
G02*
X144530000Y-84050000I-1400000J0D01*
G01*
X144530000Y-84050000D02*
G75*
G02*
X147330000Y-84050000I1400000J0D01*
G01*
X123745000Y-86738748D02*
X123745000Y-87261252D01*
X125215000Y-86738748D02*
X125215000Y-87261252D01*
X151730000Y-94080000D02*
X153650000Y-94080000D01*
X153650000Y-84920000D02*
X151730000Y-84920000D01*
X155660000Y-84920000D02*
X157365000Y-84920000D01*
X157365000Y-84920000D02*
X157365000Y-94080000D01*
X157365000Y-94080000D02*
X155660000Y-94080000D01*
X137575276Y-94527500D02*
X138084724Y-94527500D01*
X137575276Y-95572500D02*
X138084724Y-95572500D01*
X129507500Y-91304724D02*
X129507500Y-90795276D01*
X130552500Y-91304724D02*
X130552500Y-90795276D01*
X141395000Y-86788748D02*
X141395000Y-87311252D01*
X142865000Y-86788748D02*
X142865000Y-87311252D01*
X130883733Y-87340000D02*
X131176267Y-87340000D01*
X130883733Y-88360000D02*
X131176267Y-88360000D01*
X110475276Y-119227500D02*
X110984724Y-119227500D01*
X110475276Y-120272500D02*
X110984724Y-120272500D01*
X152120000Y-101000000D02*
X152120000Y-101660000D01*
X152320000Y-95640000D02*
X156680000Y-95640000D01*
X152320000Y-98140000D02*
X152320000Y-95640000D01*
X152320000Y-101660000D02*
X152120000Y-101660000D01*
X152320000Y-104160000D02*
X152320000Y-101660000D01*
X152320000Y-104160000D02*
X156680000Y-104160000D01*
D13*
X129660000Y-106250000D02*
X140620000Y-106250000D01*
X129660000Y-124250000D02*
X129660000Y-106250000D01*
X140620000Y-106250000D02*
X140620000Y-124250000D01*
X140620000Y-124250000D02*
X129660000Y-124250000D01*
D12*
X105980000Y-95350000D02*
G75*
G02*
X103180000Y-95350000I-1400000J0D01*
G01*
X103180000Y-95350000D02*
G75*
G02*
X105980000Y-95350000I1400000J0D01*
G01*
X110475276Y-114277500D02*
X110984724Y-114277500D01*
X110475276Y-115322500D02*
X110984724Y-115322500D01*
X146772224Y-89627500D02*
X146262776Y-89627500D01*
X146772224Y-90672500D02*
X146262776Y-90672500D01*
X134983733Y-87340000D02*
X135276267Y-87340000D01*
X134983733Y-88360000D02*
X135276267Y-88360000D01*
X141970000Y-116077500D02*
X142990000Y-116077500D01*
X141970000Y-120327500D02*
X141970000Y-116077500D01*
X142990000Y-116077500D02*
X142990000Y-117677500D01*
X142990000Y-117677500D02*
X144270000Y-117677500D01*
X143690000Y-123897500D02*
X148370000Y-123897500D01*
X144270000Y-117677500D02*
X144270000Y-114787500D01*
X149070000Y-116077500D02*
X149070000Y-117677500D01*
X149070000Y-117677500D02*
X147790000Y-117677500D01*
X150090000Y-116077500D02*
X149070000Y-116077500D01*
X150090000Y-120327500D02*
X150090000Y-116077500D01*
X152230000Y-106050000D02*
X156430000Y-106050000D01*
X156430000Y-108450000D01*
X152230000Y-108450000D01*
X152230000Y-106050000D01*
X110475276Y-115927500D02*
X110984724Y-115927500D01*
X110475276Y-116972500D02*
X110984724Y-116972500D01*
X138134724Y-91127500D02*
X137625276Y-91127500D01*
X138134724Y-92172500D02*
X137625276Y-92172500D01*
%LPC*%
D15*
X132020000Y-91087500D02*
X131320000Y-91087500D01*
X131320000Y-90737500D01*
X132020000Y-90737500D01*
X132020000Y-91087500D01*
G36*
X132020000Y-91087500D02*
G01*
X131320000Y-91087500D01*
X131320000Y-90737500D01*
X132020000Y-90737500D01*
X132020000Y-91087500D01*
G37*
X132020000Y-91587500D02*
X131320000Y-91587500D01*
X131320000Y-91237500D01*
X132020000Y-91237500D01*
X132020000Y-91587500D01*
G36*
X132020000Y-91587500D02*
G01*
X131320000Y-91587500D01*
X131320000Y-91237500D01*
X132020000Y-91237500D01*
X132020000Y-91587500D01*
G37*
X132495000Y-92187500D02*
X132145000Y-92187500D01*
X132145000Y-91487500D01*
X132495000Y-91487500D01*
X132495000Y-92187500D01*
G36*
X132495000Y-92187500D02*
G01*
X132145000Y-92187500D01*
X132145000Y-91487500D01*
X132495000Y-91487500D01*
X132495000Y-92187500D01*
G37*
X132695000Y-90587500D02*
X132445000Y-90587500D01*
X132445000Y-89237500D01*
X132695000Y-89237500D01*
X132695000Y-90587500D01*
G36*
X132695000Y-90587500D02*
G01*
X132445000Y-90587500D01*
X132445000Y-89237500D01*
X132695000Y-89237500D01*
X132695000Y-90587500D01*
G37*
X132995000Y-92187500D02*
X132645000Y-92187500D01*
X132645000Y-91487500D01*
X132995000Y-91487500D01*
X132995000Y-92187500D01*
G36*
X132995000Y-92187500D02*
G01*
X132645000Y-92187500D01*
X132645000Y-91487500D01*
X132995000Y-91487500D01*
X132995000Y-92187500D01*
G37*
X133195000Y-90937500D02*
X132945000Y-90937500D01*
X132945000Y-89237500D01*
X133195000Y-89237500D01*
X133195000Y-90937500D01*
G36*
X133195000Y-90937500D02*
G01*
X132945000Y-90937500D01*
X132945000Y-89237500D01*
X133195000Y-89237500D01*
X133195000Y-90937500D01*
G37*
X133495000Y-92187500D02*
X133145000Y-92187500D01*
X133145000Y-91487500D01*
X133495000Y-91487500D01*
X133495000Y-92187500D01*
G36*
X133495000Y-92187500D02*
G01*
X133145000Y-92187500D01*
X133145000Y-91487500D01*
X133495000Y-91487500D01*
X133495000Y-92187500D01*
G37*
X133695000Y-90587500D02*
X133445000Y-90587500D01*
X133445000Y-89237500D01*
X133695000Y-89237500D01*
X133695000Y-90587500D01*
G36*
X133695000Y-90587500D02*
G01*
X133445000Y-90587500D01*
X133445000Y-89237500D01*
X133695000Y-89237500D01*
X133695000Y-90587500D01*
G37*
X133995000Y-92187500D02*
X133645000Y-92187500D01*
X133645000Y-91487500D01*
X133995000Y-91487500D01*
X133995000Y-92187500D01*
G36*
X133995000Y-92187500D02*
G01*
X133645000Y-92187500D01*
X133645000Y-91487500D01*
X133995000Y-91487500D01*
X133995000Y-92187500D01*
G37*
X134820000Y-91087500D02*
X134120000Y-91087500D01*
X134120000Y-90737500D01*
X134820000Y-90737500D01*
X134820000Y-91087500D01*
G36*
X134820000Y-91087500D02*
G01*
X134120000Y-91087500D01*
X134120000Y-90737500D01*
X134820000Y-90737500D01*
X134820000Y-91087500D01*
G37*
X134820000Y-91587500D02*
X134120000Y-91587500D01*
X134120000Y-91237500D01*
X134820000Y-91237500D01*
X134820000Y-91587500D01*
G36*
X134820000Y-91587500D02*
G01*
X134120000Y-91587500D01*
X134120000Y-91237500D01*
X134820000Y-91237500D01*
X134820000Y-91587500D01*
G37*
X131970000Y-90537500D02*
X131370000Y-90537500D01*
X131370000Y-90287500D01*
X131720000Y-90287500D01*
X131720000Y-90037500D01*
X131370000Y-90037500D01*
X131370000Y-89787500D01*
X131970000Y-89787500D01*
X131970000Y-90537500D01*
G36*
X131970000Y-90537500D02*
G01*
X131370000Y-90537500D01*
X131370000Y-90287500D01*
X131720000Y-90287500D01*
X131720000Y-90037500D01*
X131370000Y-90037500D01*
X131370000Y-89787500D01*
X131970000Y-89787500D01*
X131970000Y-90537500D01*
G37*
X134770000Y-90037500D02*
X134420000Y-90037500D01*
X134420000Y-90287500D01*
X134770000Y-90287500D01*
X134770000Y-90537500D01*
X134170000Y-90537500D01*
X134170000Y-89787500D01*
X134770000Y-89787500D01*
X134770000Y-90037500D01*
G36*
X134770000Y-90037500D02*
G01*
X134420000Y-90037500D01*
X134420000Y-90287500D01*
X134770000Y-90287500D01*
X134770000Y-90537500D01*
X134170000Y-90537500D01*
X134170000Y-89787500D01*
X134770000Y-89787500D01*
X134770000Y-90037500D01*
G37*
D16*
X127130000Y-85487500D03*
X127130000Y-88612500D03*
D17*
X116755000Y-100100000D03*
X118330000Y-100100000D03*
D18*
X131567500Y-94250000D03*
X133292500Y-94250000D03*
D19*
X131380000Y-84600000D03*
X135080000Y-84600000D03*
D20*
X109817500Y-118100000D03*
X111642500Y-118100000D03*
D21*
X109580000Y-96000000D03*
X109580000Y-96500000D03*
X109580000Y-97000000D03*
X109580000Y-97500000D03*
X109580000Y-98000000D03*
X112380000Y-98000000D03*
D22*
X112380000Y-97512500D03*
D21*
X112380000Y-97000000D03*
X112380000Y-96500000D03*
X112380000Y-96000000D03*
D23*
X110730000Y-95550000D03*
X110730000Y-98450000D03*
D24*
X110980000Y-97000000D03*
D23*
X111230000Y-95550000D03*
X111230000Y-98450000D03*
D25*
X104230000Y-121650000D03*
D26*
X124030000Y-99400000D03*
X132830000Y-99400000D03*
D27*
X106030000Y-100150000D03*
X106030000Y-98325000D03*
D20*
X119867500Y-98550000D03*
X121692500Y-98550000D03*
X110717500Y-100550000D03*
X112542500Y-100550000D03*
D28*
X124380000Y-105650000D03*
X121880000Y-105650000D03*
X119380000Y-105650000D03*
X119380000Y-111650000D03*
X121880000Y-111650000D03*
X124380000Y-111650000D03*
D20*
X119867500Y-100100000D03*
X121692500Y-100100000D03*
D29*
X116967500Y-84410000D03*
X108267500Y-84410000D03*
X116967500Y-89490000D03*
X108267500Y-89490000D03*
D28*
X119330000Y-119800000D03*
X121830000Y-119800000D03*
X124330000Y-119800000D03*
X124330000Y-113800000D03*
X121830000Y-113800000D03*
X119330000Y-113800000D03*
D16*
X139430000Y-85637500D03*
X139430000Y-88762500D03*
D30*
X147730000Y-77850000D03*
D31*
X110142500Y-94350000D03*
X108417500Y-94350000D03*
D25*
X153030000Y-77500000D03*
D20*
X103867500Y-116400000D03*
X105692500Y-116400000D03*
D18*
X111817500Y-94350000D03*
X113542500Y-94350000D03*
D32*
X138742500Y-93350000D03*
X136917500Y-93350000D03*
D33*
X142930000Y-106650000D03*
D20*
X103880000Y-114750000D03*
X105705000Y-114750000D03*
D25*
X104080000Y-77500000D03*
D17*
X116755000Y-98550000D03*
X118330000Y-98550000D03*
D34*
X104030000Y-98617500D03*
D35*
X104030000Y-101157500D03*
D32*
X147442500Y-88450000D03*
X145617500Y-88450000D03*
D33*
X145930000Y-84050000D03*
D36*
X124480000Y-85962500D03*
X124480000Y-88037500D03*
D25*
X154330000Y-121650000D03*
D37*
X150975000Y-92390000D03*
X150975000Y-86610000D03*
D38*
X149882500Y-92850000D03*
X149882500Y-92050000D03*
D39*
X149910000Y-90750000D03*
X149910000Y-89750000D03*
X149910000Y-89250000D03*
X149910000Y-88250000D03*
D38*
X149882500Y-86950000D03*
X149882500Y-86150000D03*
X149882500Y-86450000D03*
X149882500Y-87250000D03*
D39*
X149910000Y-87750000D03*
X149910000Y-88750000D03*
X149910000Y-90250000D03*
X149910000Y-91250000D03*
D38*
X149882500Y-91750000D03*
X149882500Y-92550000D03*
D40*
X150475000Y-93820000D03*
D41*
X154655000Y-93820000D03*
D40*
X150475000Y-85180000D03*
D41*
X154655000Y-85180000D03*
D20*
X136917500Y-95050000D03*
X138742500Y-95050000D03*
D27*
X130030000Y-91962500D03*
X130030000Y-90137500D03*
D36*
X142130000Y-86012500D03*
X142130000Y-88087500D03*
D18*
X130167500Y-87850000D03*
X131892500Y-87850000D03*
D20*
X109817500Y-119750000D03*
X111642500Y-119750000D03*
D42*
X153055000Y-101200000D03*
X153055000Y-100550000D03*
X153055000Y-99900000D03*
X153055000Y-99250000D03*
X153055000Y-98600000D03*
D43*
X155730000Y-103200000D03*
D44*
X153280000Y-103100000D03*
D45*
X155730000Y-101100000D03*
X155730000Y-98700000D03*
D44*
X153280000Y-96700000D03*
D43*
X155730000Y-96600000D03*
D29*
X132600000Y-108500000D03*
X132600000Y-117200000D03*
X137680000Y-108500000D03*
X137680000Y-117200000D03*
D33*
X104580000Y-95350000D03*
D20*
X109817500Y-114800000D03*
X111642500Y-114800000D03*
D28*
X105730000Y-111650000D03*
X108230000Y-111650000D03*
X110730000Y-111650000D03*
X110730000Y-105650000D03*
X108230000Y-105650000D03*
X105730000Y-105650000D03*
D32*
X147430000Y-90150000D03*
X145605000Y-90150000D03*
D18*
X134267500Y-87850000D03*
X135992500Y-87850000D03*
D46*
X145030000Y-116537500D03*
X147030000Y-116537500D03*
D47*
X142680000Y-122287500D03*
X149380000Y-122287500D03*
D48*
X154330000Y-107250000D03*
D20*
X109817500Y-116450000D03*
X111642500Y-116450000D03*
D32*
X138792500Y-91650000D03*
X136967500Y-91650000D03*
%LPD*%
M02*
