G04 #@! TF.GenerationSoftware,KiCad,Pcbnew,9.0.0*
G04 #@! TF.CreationDate,2025-04-25T18:31:33-04:00*
G04 #@! TF.ProjectId,bq25171_breakout,62713235-3137-4315-9f62-7265616b6f75,rev?*
G04 #@! TF.SameCoordinates,Original*
G04 #@! TF.FileFunction,Legend,Bot*
G04 #@! TF.FilePolarity,Positive*
%FSLAX46Y46*%
G04 Gerber Fmt 4.6, Leading zero omitted, Abs format (unit mm)*
G04 Created by KiCad (PCBNEW 9.0.0) date 2025-04-25 18:31:33*
%MOMM*%
%LPD*%
G01*
G04 APERTURE LIST*
%ADD10C,0.152400*%
%ADD11C,0.000000*%
%ADD12C,5.500000*%
%ADD13C,2.100000*%
%ADD14C,2.000000*%
%ADD15C,1.400000*%
%ADD16O,1.400000X1.400000*%
%ADD17C,0.650000*%
%ADD18O,2.100000X1.000000*%
%ADD19O,1.600000X1.000000*%
%ADD20O,1.600000X0.900000*%
G04 APERTURE END LIST*
D10*
X144391641Y-118970940D02*
X144058308Y-118970940D01*
X143915451Y-119494750D02*
X144391641Y-119494750D01*
X144391641Y-119494750D02*
X144391641Y-118494750D01*
X144391641Y-118494750D02*
X143915451Y-118494750D01*
X143486879Y-119494750D02*
X143486879Y-118828083D01*
X143486879Y-119018559D02*
X143439260Y-118923321D01*
X143439260Y-118923321D02*
X143391641Y-118875702D01*
X143391641Y-118875702D02*
X143296403Y-118828083D01*
X143296403Y-118828083D02*
X143201165Y-118828083D01*
X142486879Y-119447131D02*
X142582117Y-119494750D01*
X142582117Y-119494750D02*
X142772593Y-119494750D01*
X142772593Y-119494750D02*
X142867831Y-119447131D01*
X142867831Y-119447131D02*
X142915450Y-119351892D01*
X142915450Y-119351892D02*
X142915450Y-118970940D01*
X142915450Y-118970940D02*
X142867831Y-118875702D01*
X142867831Y-118875702D02*
X142772593Y-118828083D01*
X142772593Y-118828083D02*
X142582117Y-118828083D01*
X142582117Y-118828083D02*
X142486879Y-118875702D01*
X142486879Y-118875702D02*
X142439260Y-118970940D01*
X142439260Y-118970940D02*
X142439260Y-119066178D01*
X142439260Y-119066178D02*
X142915450Y-119161416D01*
X142010688Y-118828083D02*
X142010688Y-119494750D01*
X142010688Y-118923321D02*
X141963069Y-118875702D01*
X141963069Y-118875702D02*
X141867831Y-118828083D01*
X141867831Y-118828083D02*
X141724974Y-118828083D01*
X141724974Y-118828083D02*
X141629736Y-118875702D01*
X141629736Y-118875702D02*
X141582117Y-118970940D01*
X141582117Y-118970940D02*
X141582117Y-119494750D01*
X139772593Y-119494750D02*
X140105926Y-119018559D01*
X140344021Y-119494750D02*
X140344021Y-118494750D01*
X140344021Y-118494750D02*
X139963069Y-118494750D01*
X139963069Y-118494750D02*
X139867831Y-118542369D01*
X139867831Y-118542369D02*
X139820212Y-118589988D01*
X139820212Y-118589988D02*
X139772593Y-118685226D01*
X139772593Y-118685226D02*
X139772593Y-118828083D01*
X139772593Y-118828083D02*
X139820212Y-118923321D01*
X139820212Y-118923321D02*
X139867831Y-118970940D01*
X139867831Y-118970940D02*
X139963069Y-119018559D01*
X139963069Y-119018559D02*
X140344021Y-119018559D01*
X138915450Y-118828083D02*
X138915450Y-119494750D01*
X139344021Y-118828083D02*
X139344021Y-119351892D01*
X139344021Y-119351892D02*
X139296402Y-119447131D01*
X139296402Y-119447131D02*
X139201164Y-119494750D01*
X139201164Y-119494750D02*
X139058307Y-119494750D01*
X139058307Y-119494750D02*
X138963069Y-119447131D01*
X138963069Y-119447131D02*
X138915450Y-119399511D01*
X138010688Y-119494750D02*
X138010688Y-118494750D01*
X138010688Y-119447131D02*
X138105926Y-119494750D01*
X138105926Y-119494750D02*
X138296402Y-119494750D01*
X138296402Y-119494750D02*
X138391640Y-119447131D01*
X138391640Y-119447131D02*
X138439259Y-119399511D01*
X138439259Y-119399511D02*
X138486878Y-119304273D01*
X138486878Y-119304273D02*
X138486878Y-119018559D01*
X138486878Y-119018559D02*
X138439259Y-118923321D01*
X138439259Y-118923321D02*
X138391640Y-118875702D01*
X138391640Y-118875702D02*
X138296402Y-118828083D01*
X138296402Y-118828083D02*
X138105926Y-118828083D01*
X138105926Y-118828083D02*
X138010688Y-118875702D01*
X137629735Y-118828083D02*
X137391640Y-119494750D01*
X137153545Y-118828083D02*
X137391640Y-119494750D01*
X137391640Y-119494750D02*
X137486878Y-119732845D01*
X137486878Y-119732845D02*
X137534497Y-119780464D01*
X137534497Y-119780464D02*
X137629735Y-119828083D01*
X143820213Y-121104694D02*
X144153546Y-120628503D01*
X144391641Y-121104694D02*
X144391641Y-120104694D01*
X144391641Y-120104694D02*
X144010689Y-120104694D01*
X144010689Y-120104694D02*
X143915451Y-120152313D01*
X143915451Y-120152313D02*
X143867832Y-120199932D01*
X143867832Y-120199932D02*
X143820213Y-120295170D01*
X143820213Y-120295170D02*
X143820213Y-120438027D01*
X143820213Y-120438027D02*
X143867832Y-120533265D01*
X143867832Y-120533265D02*
X143915451Y-120580884D01*
X143915451Y-120580884D02*
X144010689Y-120628503D01*
X144010689Y-120628503D02*
X144391641Y-120628503D01*
X143010689Y-121057075D02*
X143105927Y-121104694D01*
X143105927Y-121104694D02*
X143296403Y-121104694D01*
X143296403Y-121104694D02*
X143391641Y-121057075D01*
X143391641Y-121057075D02*
X143439260Y-120961836D01*
X143439260Y-120961836D02*
X143439260Y-120580884D01*
X143439260Y-120580884D02*
X143391641Y-120485646D01*
X143391641Y-120485646D02*
X143296403Y-120438027D01*
X143296403Y-120438027D02*
X143105927Y-120438027D01*
X143105927Y-120438027D02*
X143010689Y-120485646D01*
X143010689Y-120485646D02*
X142963070Y-120580884D01*
X142963070Y-120580884D02*
X142963070Y-120676122D01*
X142963070Y-120676122D02*
X143439260Y-120771360D01*
X142629736Y-120438027D02*
X142391641Y-121104694D01*
X142391641Y-121104694D02*
X142153546Y-120438027D01*
X140486879Y-121104694D02*
X141058307Y-121104694D01*
X140772593Y-121104694D02*
X140772593Y-120104694D01*
X140772593Y-120104694D02*
X140867831Y-120247551D01*
X140867831Y-120247551D02*
X140963069Y-120342789D01*
X140963069Y-120342789D02*
X141058307Y-120390408D01*
X144439260Y-122428923D02*
X143963070Y-122428923D01*
X144534498Y-122714638D02*
X144201165Y-121714638D01*
X144201165Y-121714638D02*
X143867832Y-122714638D01*
X143534498Y-122047971D02*
X143534498Y-123047971D01*
X143534498Y-122095590D02*
X143439260Y-122047971D01*
X143439260Y-122047971D02*
X143248784Y-122047971D01*
X143248784Y-122047971D02*
X143153546Y-122095590D01*
X143153546Y-122095590D02*
X143105927Y-122143209D01*
X143105927Y-122143209D02*
X143058308Y-122238447D01*
X143058308Y-122238447D02*
X143058308Y-122524161D01*
X143058308Y-122524161D02*
X143105927Y-122619399D01*
X143105927Y-122619399D02*
X143153546Y-122667019D01*
X143153546Y-122667019D02*
X143248784Y-122714638D01*
X143248784Y-122714638D02*
X143439260Y-122714638D01*
X143439260Y-122714638D02*
X143534498Y-122667019D01*
X142629736Y-122714638D02*
X142629736Y-122047971D01*
X142629736Y-122238447D02*
X142582117Y-122143209D01*
X142582117Y-122143209D02*
X142534498Y-122095590D01*
X142534498Y-122095590D02*
X142439260Y-122047971D01*
X142439260Y-122047971D02*
X142344022Y-122047971D01*
X142010688Y-122714638D02*
X142010688Y-122047971D01*
X142010688Y-121714638D02*
X142058307Y-121762257D01*
X142058307Y-121762257D02*
X142010688Y-121809876D01*
X142010688Y-121809876D02*
X141963069Y-121762257D01*
X141963069Y-121762257D02*
X142010688Y-121714638D01*
X142010688Y-121714638D02*
X142010688Y-121809876D01*
X141391641Y-122714638D02*
X141486879Y-122667019D01*
X141486879Y-122667019D02*
X141534498Y-122571780D01*
X141534498Y-122571780D02*
X141534498Y-121714638D01*
X140296402Y-121809876D02*
X140248783Y-121762257D01*
X140248783Y-121762257D02*
X140153545Y-121714638D01*
X140153545Y-121714638D02*
X139915450Y-121714638D01*
X139915450Y-121714638D02*
X139820212Y-121762257D01*
X139820212Y-121762257D02*
X139772593Y-121809876D01*
X139772593Y-121809876D02*
X139724974Y-121905114D01*
X139724974Y-121905114D02*
X139724974Y-122000352D01*
X139724974Y-122000352D02*
X139772593Y-122143209D01*
X139772593Y-122143209D02*
X140344021Y-122714638D01*
X140344021Y-122714638D02*
X139724974Y-122714638D01*
X139105926Y-121714638D02*
X139010688Y-121714638D01*
X139010688Y-121714638D02*
X138915450Y-121762257D01*
X138915450Y-121762257D02*
X138867831Y-121809876D01*
X138867831Y-121809876D02*
X138820212Y-121905114D01*
X138820212Y-121905114D02*
X138772593Y-122095590D01*
X138772593Y-122095590D02*
X138772593Y-122333685D01*
X138772593Y-122333685D02*
X138820212Y-122524161D01*
X138820212Y-122524161D02*
X138867831Y-122619399D01*
X138867831Y-122619399D02*
X138915450Y-122667019D01*
X138915450Y-122667019D02*
X139010688Y-122714638D01*
X139010688Y-122714638D02*
X139105926Y-122714638D01*
X139105926Y-122714638D02*
X139201164Y-122667019D01*
X139201164Y-122667019D02*
X139248783Y-122619399D01*
X139248783Y-122619399D02*
X139296402Y-122524161D01*
X139296402Y-122524161D02*
X139344021Y-122333685D01*
X139344021Y-122333685D02*
X139344021Y-122095590D01*
X139344021Y-122095590D02*
X139296402Y-121905114D01*
X139296402Y-121905114D02*
X139248783Y-121809876D01*
X139248783Y-121809876D02*
X139201164Y-121762257D01*
X139201164Y-121762257D02*
X139105926Y-121714638D01*
X138391640Y-121809876D02*
X138344021Y-121762257D01*
X138344021Y-121762257D02*
X138248783Y-121714638D01*
X138248783Y-121714638D02*
X138010688Y-121714638D01*
X138010688Y-121714638D02*
X137915450Y-121762257D01*
X137915450Y-121762257D02*
X137867831Y-121809876D01*
X137867831Y-121809876D02*
X137820212Y-121905114D01*
X137820212Y-121905114D02*
X137820212Y-122000352D01*
X137820212Y-122000352D02*
X137867831Y-122143209D01*
X137867831Y-122143209D02*
X138439259Y-122714638D01*
X138439259Y-122714638D02*
X137820212Y-122714638D01*
X136915450Y-121714638D02*
X137391640Y-121714638D01*
X137391640Y-121714638D02*
X137439259Y-122190828D01*
X137439259Y-122190828D02*
X137391640Y-122143209D01*
X137391640Y-122143209D02*
X137296402Y-122095590D01*
X137296402Y-122095590D02*
X137058307Y-122095590D01*
X137058307Y-122095590D02*
X136963069Y-122143209D01*
X136963069Y-122143209D02*
X136915450Y-122190828D01*
X136915450Y-122190828D02*
X136867831Y-122286066D01*
X136867831Y-122286066D02*
X136867831Y-122524161D01*
X136867831Y-122524161D02*
X136915450Y-122619399D01*
X136915450Y-122619399D02*
X136963069Y-122667019D01*
X136963069Y-122667019D02*
X137058307Y-122714638D01*
X137058307Y-122714638D02*
X137296402Y-122714638D01*
X137296402Y-122714638D02*
X137391640Y-122667019D01*
X137391640Y-122667019D02*
X137439259Y-122619399D01*
D11*
G36*
X145556580Y-121077647D02*
G01*
X145642457Y-121078789D01*
X145729656Y-121080859D01*
X145814315Y-121083801D01*
X145892572Y-121087560D01*
X145960564Y-121092080D01*
X146014428Y-121097305D01*
X146103579Y-121109066D01*
X146374650Y-121156534D01*
X146636148Y-121221170D01*
X146894128Y-121304626D01*
X147154648Y-121408556D01*
X147294548Y-121473031D01*
X147488988Y-121574922D01*
X147676609Y-121687402D01*
X147855928Y-121809015D01*
X148025465Y-121938307D01*
X148183738Y-122073825D01*
X148329266Y-122214114D01*
X148460568Y-122357720D01*
X148576162Y-122503190D01*
X148674567Y-122649068D01*
X148754302Y-122793900D01*
X148813886Y-122936234D01*
X148851836Y-123074613D01*
X148854019Y-123086284D01*
X148863603Y-123191034D01*
X148853953Y-123286255D01*
X148825643Y-123370171D01*
X148779247Y-123441007D01*
X148715339Y-123496987D01*
X148681451Y-123516256D01*
X148614399Y-123545304D01*
X148530238Y-123574366D01*
X148432876Y-123602431D01*
X148326219Y-123628490D01*
X148214174Y-123651534D01*
X148100647Y-123670553D01*
X147989545Y-123684537D01*
X147980271Y-123685393D01*
X147926331Y-123688377D01*
X147856598Y-123690043D01*
X147777526Y-123690444D01*
X147695572Y-123689633D01*
X147617192Y-123687663D01*
X147548841Y-123684589D01*
X147496975Y-123680463D01*
X147382864Y-123665050D01*
X147149674Y-123616455D01*
X146924377Y-123546170D01*
X146708354Y-123454822D01*
X146502988Y-123343037D01*
X146309660Y-123211442D01*
X146129755Y-123060664D01*
X146071680Y-123005144D01*
X145902775Y-122822297D01*
X145751743Y-122624910D01*
X145619369Y-122414641D01*
X145506434Y-122193148D01*
X145413720Y-121962089D01*
X145342011Y-121723120D01*
X145292089Y-121477900D01*
X145264735Y-121228086D01*
X145261874Y-121181403D01*
X145260014Y-121139440D01*
X145260751Y-121113373D01*
X145264705Y-121098829D01*
X145272494Y-121091432D01*
X145284738Y-121086807D01*
X145303555Y-121083467D01*
X145345514Y-121080343D01*
X145404246Y-121078368D01*
X145475889Y-121077488D01*
X145556580Y-121077647D01*
G37*
G36*
X147771959Y-116610595D02*
G01*
X147778246Y-116616666D01*
X147785369Y-116625877D01*
X147785693Y-116626279D01*
X147800141Y-116643772D01*
X147827010Y-116675952D01*
X147863537Y-116719524D01*
X147906958Y-116771190D01*
X147954510Y-116827653D01*
X148206872Y-117133742D01*
X148455921Y-117449712D01*
X148694444Y-117766623D01*
X148920852Y-118082204D01*
X149133556Y-118394182D01*
X149330967Y-118700284D01*
X149511496Y-118998239D01*
X149673553Y-119285774D01*
X149772698Y-119475143D01*
X149901812Y-119744749D01*
X150011021Y-120003624D01*
X150100226Y-120251486D01*
X150169329Y-120488052D01*
X150218231Y-120713040D01*
X150246833Y-120926169D01*
X150250283Y-120973012D01*
X150253121Y-121131526D01*
X150244266Y-121302517D01*
X150224322Y-121480132D01*
X150193890Y-121658521D01*
X150153573Y-121831832D01*
X150122759Y-121947285D01*
X150191816Y-122051066D01*
X150226113Y-122104391D01*
X150309623Y-122248907D01*
X150388523Y-122405492D01*
X150459619Y-122567089D01*
X150519718Y-122726638D01*
X150565625Y-122877082D01*
X150578565Y-122926886D01*
X150589852Y-122971578D01*
X150597386Y-123002893D01*
X150599987Y-123016052D01*
X150596437Y-123014859D01*
X150585226Y-122999959D01*
X150517099Y-122895489D01*
X150420493Y-122754307D01*
X150328420Y-122629405D01*
X150237999Y-122517449D01*
X150146348Y-122415108D01*
X150050586Y-122319048D01*
X149947830Y-122225936D01*
X149835200Y-122132438D01*
X149795172Y-122100685D01*
X149506451Y-121886912D01*
X149212299Y-121695832D01*
X148911576Y-121526847D01*
X148603142Y-121379358D01*
X148285859Y-121252767D01*
X147958586Y-121146473D01*
X147805033Y-121103887D01*
X147634831Y-121061785D01*
X147467378Y-121026431D01*
X147298286Y-120997157D01*
X147123167Y-120973298D01*
X146937634Y-120954185D01*
X146737297Y-120939153D01*
X146517770Y-120927534D01*
X146514192Y-120927376D01*
X146412980Y-120922233D01*
X146331586Y-120916504D01*
X146266211Y-120909802D01*
X146213054Y-120901739D01*
X146168318Y-120891929D01*
X146060627Y-120857184D01*
X145934418Y-120795768D01*
X145823021Y-120716463D01*
X145727191Y-120620206D01*
X145647686Y-120507933D01*
X145585263Y-120380579D01*
X145540680Y-120239079D01*
X145514694Y-120084370D01*
X145506819Y-120007220D01*
X145642140Y-119740164D01*
X145659926Y-119705246D01*
X145705029Y-119618040D01*
X145751628Y-119529565D01*
X145796715Y-119445455D01*
X145837279Y-119371347D01*
X145870312Y-119312874D01*
X145876580Y-119302074D01*
X145999963Y-119095011D01*
X146137940Y-118873028D01*
X146288948Y-118638392D01*
X146451425Y-118393373D01*
X146623806Y-118140238D01*
X146804531Y-117881256D01*
X146992034Y-117618695D01*
X147184754Y-117354823D01*
X147381128Y-117091909D01*
X147579593Y-116832220D01*
X147593053Y-116814810D01*
X147646259Y-116745972D01*
X147687108Y-116693506D01*
X147717484Y-116655522D01*
X147739273Y-116630129D01*
X147754358Y-116615437D01*
X147764625Y-116609556D01*
X147771959Y-116610595D01*
G37*
%LPC*%
D12*
X104230000Y-121650000D03*
D13*
X116967500Y-84410000D03*
X108267500Y-84410000D03*
X116967500Y-89490000D03*
X108267500Y-89490000D03*
D12*
X153030000Y-77500000D03*
D14*
X142930000Y-106650000D03*
D12*
X104080000Y-77500000D03*
D15*
X104030000Y-98617500D03*
D16*
X104030000Y-101157500D03*
D14*
X145930000Y-84050000D03*
D12*
X154330000Y-121650000D03*
D17*
X150975000Y-92390000D03*
X150975000Y-86610000D03*
D18*
X150475000Y-93820000D03*
D19*
X154655000Y-93820000D03*
D18*
X150475000Y-85180000D03*
D19*
X154655000Y-85180000D03*
D20*
X155730000Y-103200000D03*
X155730000Y-96600000D03*
D13*
X132600000Y-108500000D03*
X132600000Y-117200000D03*
X137680000Y-108500000D03*
X137680000Y-117200000D03*
D14*
X104580000Y-95350000D03*
%LPD*%
M02*
